<svg xmlns="http://www.w3.org/2000/svg" width="808.799" height="144.355" viewBox="0 0 808.799 144.355"><path d="M-321.646-25.234H-366.27L-374.062,0h-34.79l49.541-135.078H-328.7L-278.784,0H-313.76Zm-36.831-25.142h29.038L-344-97.227ZM-237.407,0h-31.357V-142.5h31.357Zm52.231,0h-31.357V-142.5h31.357Zm52.231,0H-164.3V-100.381h31.357Zm-33.213-126.265a13.955,13.955,0,0,1,4.824-10.947q4.824-4.268,12.524-4.268t12.524,4.268a13.955,13.955,0,0,1,4.824,10.947,13.955,13.955,0,0,1-4.824,10.947q-4.824,4.268-12.524,4.268t-12.524-4.268A13.955,13.955,0,0,1-166.157-126.265ZM-65.127,1.855q-23.1,0-37.388-13.777T-116.8-47.778v-2.6q0-15.4,5.706-27.183a41.749,41.749,0,0,1,16.653-18.23q10.947-6.448,25.977-6.448,21.152,0,33.4,13.127t12.246,36.6v12.153H-84.98A22.534,22.534,0,0,0-77.651-27.09q5.659,4.824,14.658,4.824,14.844,0,23.193-10.391l14.287,16.885Q-31.357-7.7-42.073-2.922A55.962,55.962,0,0,1-65.127,1.855Zm-3.525-79.971q-13.73,0-16.328,18.184h31.543v-2.412q.186-7.515-3.8-11.643T-68.652-78.115ZM152.891-64.756q0,19.761-7.329,34.976A54.167,54.167,0,0,1,124.734-6.355a57.994,57.994,0,0,1-30.754,8.21q-17.256,0-30.615-7.932A54.076,54.076,0,0,1,42.537-28.76Q35.068-43.511,34.7-62.622v-7.607q0-19.854,7.283-35.022a54.034,54.034,0,0,1,20.874-23.425,58.4,58.4,0,0,1,30.94-8.257,57.831,57.831,0,0,1,30.615,8.164,55.008,55.008,0,0,1,20.92,23.24q7.468,15.076,7.561,34.558Zm-33.12-5.659q0-20.132-6.726-30.569t-19.25-10.437q-24.492,0-25.884,36.738l-.093,9.927q0,19.854,6.587,30.522T93.979-23.564q12.339,0,19.019-10.483T119.771-64.2Zm109.194-1.67-10.3-.742q-14.751,0-18.926,9.277V0H168.477V-100.381h29.316l1.021,12.9q7.886-14.751,21.987-14.751a30.488,30.488,0,0,1,8.721,1.113Zm52.324-53.252v24.956H297.8v21.709H281.289v45.923q0,5.659,2.041,7.886t8.071,2.227a45.865,45.865,0,0,0,7.793-.557V-.835a57.7,57.7,0,0,1-17.627,2.69q-16.143,0-23.843-7.607t-7.7-23.1V-78.672h-12.8v-21.709h12.8v-24.956Zm59.375,35.718q10.02-12.617,25.605-12.617,16.606,0,25.049,9.834t8.628,29.038V0H368.589V-62.622q0-7.979-3.247-11.736T354.3-78.115q-9.648,0-13.638,6.123V0H309.4V-142.5h31.265Z" transform="translate(408.853 142.5)"/></svg>