<svg xmlns="http://www.w3.org/2000/svg" viewBox="0 0 180 180"><path d="M42.79,39.62c0-20.38,9.48-29.86,31-29.86,24.4,0,33.3,9.76,33.3,27,0,18.08-16.94,31.86-50.24,45.64C48.24,66.6,42.79,51.1,42.79,39.62Zm136.08,95.6c-3.45,26.12-8.9,35-19.52,35-14.07,0-30.15-8-45.94-20.38,16.66-14.35,27.85-35,34.45-50.53,5.46-12.34,8.33-13.78,17.52-15.21l7.17-.86v-2H103.08v2L127.77,85c10.33.86,11.48,2.59,11.48,9.76,0,14.36-9.76,35-27,54.26-21-16.94-41.06-41.34-54-64.31,25.55-10.91,58-25,58-54.26C116.29,16.08,105.38,2,82.41,2,58.58,2,34.47,21,34.47,47.08c0,8.61,5.17,22.68,13.78,38.76C23.56,95.88.88,109.38.88,137.51.88,164.5,20.4,180,50.83,180c24.4,0,40.19-10.33,54.83-23,16.37,13.21,33.88,22.11,50.53,22.11,17.51,0,21.53-20.67,24.69-43.93Zm-121.15,37c-30.72,0-47.37-14.93-47.37-39,0-17.8,9.76-31.87,39.05-45.36,12.63,23.25,32.72,49.66,54.83,68C88.73,165.65,70.64,172.25,57.72,172.25Z" fill="#231f20"/></svg>