<svg xmlns="http://www.w3.org/2000/svg" viewBox="0 0 180 180"><path d="M88.79,0c-1,22.68-1.93,60.32-4.34,81.07-18.82-8.69-52.11-26.54-71.9-37.15L11.1,46.81c19.79,12.06,51.15,31.36,68,43.43-16.4,11.58-48.73,31.37-68,43.44l1.45,2.89c20.27-11.1,53.56-28.95,72.38-37.16,1.93,20.27,2.9,57.91,3.86,80.59h2.9c1-22.68,1.93-60.32,3.86-80.59,18.82,8.69,51.63,26.06,71.9,37.16l1.45-2.89c-19.31-12.07-51.64-31.85-68-43.44,16.89-12.06,48.73-31.36,68-43.43l-1.45-2.9c-19.79,10.62-53.08,28.47-71.9,37.16C93.62,60.32,92.65,22.68,91.69,0Z" fill="#231f20"/></svg>