<svg xmlns="http://www.w3.org/2000/svg" viewBox="0 0 251.99 144"><defs><style>.cls-1{fill:#ffb4b4;}.cls-2{fill:none;}.cls-3{fill:#fff;}</style></defs><g id="Content"><rect class="cls-1" width="251.99" height="144"/><path class="cls-2" d="M104.67,73.52a3.07,3.07,0,0,0-.28-.35,2.22,2.22,0,0,0-.33-.28,2,2,0,0,0-1.26-.38,2.56,2.56,0,0,0-.84.17,2.33,2.33,0,0,0-.7.45,2.31,2.31,0,0,0-.67,1.67,2.48,2.48,0,0,0,.09.73c0,.08,0,.15.07.22a2.39,2.39,0,0,0,.34.58,2.91,2.91,0,0,0,.31.3,2.3,2.3,0,0,0,1.44.51,2.07,2.07,0,0,0,1-.27,3.27,3.27,0,0,0,.36-.25,3.06,3.06,0,0,0,.3-.32,1.4,1.4,0,0,0,.12-.18,2.3,2.3,0,0,0,.39-1.27,2.51,2.51,0,0,0-.17-.92A3.17,3.17,0,0,0,104.67,73.52Z"/><path d="M209.39,68.86a6.83,6.83,0,0,0-.9-1.25,2.29,2.29,0,0,0-2.41-.64,6,6,0,0,0-1.57.7q-1,.66-2,1.35c-1.65,1.13-3.3,2.24-5,3.29a12.17,12.17,0,0,1-6,1.82,22.31,22.31,0,0,1-16-5.54c-.43-.37-.83-.8-1.23-1.21a.66.66,0,0,0-.46-.26v0c0,.34,0,.67,0,1v23a7.45,7.45,0,0,0,0,.82,1.41,1.41,0,0,0,1.43,1.35c.15,0,.31,0,.46,0h15.64c1.34,0,1.34-1.21,1.5-1.93.28-1.26.28-2.1,1.58-2.1,1.92,0,2.72,1.9,3.33,2.95a2.54,2.54,0,0,0,1.87,1.1c3.84,0,7.11,0,10.95,0,.19,0,.37,0,.55,0a1.41,1.41,0,0,0,1.33-1.26,4.87,4.87,0,0,0,0-.54V80.07a3.38,3.38,0,0,0,0-.45,1.35,1.35,0,0,0-.62-1.06,5.49,5.49,0,0,0-.63-.34l-5.43-2.72a4.94,4.94,0,0,1-.64-.35,1.39,1.39,0,0,1,0-2.26,4.82,4.82,0,0,1,.63-.35c1.22-.6,2.44-1.2,3.65-1.82l.83-.43-.12-.2Z"/><path d="M223.32,81.1a1.93,1.93,0,0,0-.43-.09l0,.11,0,.11h0a6.38,6.38,0,0,1-.92,1.89,3.34,3.34,0,0,1-2.28,1.46,3.78,3.78,0,0,1-1.85-.25,4.91,4.91,0,0,1-1.66-1h0l0,0h0a3.24,3.24,0,0,0-.29.34,6.1,6.1,0,0,0-.79,4,6.16,6.16,0,1,0,8.34-6.6Z"/><path d="M126.28,90q-1.44-6.65-2.87-13.3h0a.32.32,0,0,0-.23.21A5.07,5.07,0,0,1,119,79.58a5.2,5.2,0,0,1-2.32-.17A15.41,15.41,0,0,1,110,75.58a34.56,34.56,0,0,1-3-3.32c-1-1.28-2-2.57-3.12-3.79a19.48,19.48,0,0,0-8-5,4.1,4.1,0,0,0-3.66.4,8.94,8.94,0,0,0-1.78,1.4A34.7,34.7,0,0,0,88.09,68c-.71.86-1.43,1.72-2.17,2.56a11.31,11.31,0,0,1-2.29,2l-.62.38h0c-1.12,5.27-2.31,10.87-2.78,13-.3,1.39-.59,2.78-.9,4.17A2.33,2.33,0,0,0,81.65,93c.12,0,.24,0,.36,0H92.37a5,5,0,0,0,.55,0,2.23,2.23,0,0,0,2-1.42,7.19,7.19,0,0,0,.27-.78c.31-.94.61-1.9.94-2.84a2.2,2.2,0,0,1,2.12-1.57h8.54q.41,0,.81,0a2.09,2.09,0,0,1,1.46.83,3,3,0,0,1,.48,1c.3.92.6,1.84.91,2.76.53,1.59,1.12,2,2.79,2h10.35a5.88,5.88,0,0,0,.73,0,2.28,2.28,0,0,0,1.94-1.67A2.84,2.84,0,0,0,126.28,90ZM104.66,76.12a1.4,1.4,0,0,1-.12.18,2.34,2.34,0,0,1-.31.32,2.41,2.41,0,0,1-.35.25,2,2,0,0,1-1,.27,2.3,2.3,0,0,1-1.44-.51,2.2,2.2,0,0,1-.31-.3,2.76,2.76,0,0,1-.34-.58c0-.07,0-.14-.07-.22a2.19,2.19,0,0,1-.09-.73,2.31,2.31,0,0,1,.67-1.67,2.15,2.15,0,0,1,.7-.45,2.33,2.33,0,0,1,.84-.17,2,2,0,0,1,1.26.38,2.22,2.22,0,0,1,.33.28,2.26,2.26,0,0,1,.28.35,3.17,3.17,0,0,1,.21.41,2.51,2.51,0,0,1,.17.92A2.3,2.3,0,0,1,104.66,76.12Z"/><path d="M166.41,68.84l-.6.75c-.2.26-.36.49-.48.67-1.12,1.63-2.22,3.26-3.32,4.9a25.54,25.54,0,0,1-2.18,2.9,11.51,11.51,0,0,1-2.7,2.26,6.88,6.88,0,0,1-2.08.86,6.21,6.21,0,0,1-4.07-.45,11.18,11.18,0,0,1-3.24-2.3,20.93,20.93,0,0,1-2.89-3.6A34,34,0,0,1,143,71.61a10.77,10.77,0,0,0-2-2.8,6,6,0,0,0-3.23-1.73,6.71,6.71,0,0,0-3,.22,13.33,13.33,0,0,0-4.39,2.28h0V90.83c0,.28,0,.55,0,.82A1.41,1.41,0,0,0,131.76,93c.21,0,.43,0,.64,0h34.51c.21,0,.42,0,.63,0A1.41,1.41,0,0,0,169,91.6c0-.21,0-.42,0-.63V70.44a1.47,1.47,0,0,0-1.52-1.57c-.36,0-.73,0-1.09,0h0Z"/><path d="M74.33,68.61c-.48-.94-1-1.89-1.48-2.81a11.05,11.05,0,0,0-2-2.58,5.49,5.49,0,0,0-1.23-.92A3.51,3.51,0,0,0,67.07,62a6.55,6.55,0,0,0-1.75.73c-.6.35-1.19.73-1.79,1.08s-1.34.82-2,1.21a12.5,12.5,0,0,1-4.37,1.44l-1.88.32a3.57,3.57,0,0,0-2,1.13,15.52,15.52,0,0,0-1.1,1.33c-.53.74-1,1.49-1.54,2.25a35.54,35.54,0,0,1-2.23,3,7.83,7.83,0,0,1-1.9,1.68,4.69,4.69,0,0,1-4.68.19A7,7,0,0,1,40,75a14.15,14.15,0,0,1-1.84-2.24c-.73-1.08-1.35-2.22-2-3.37S35,67.3,34.35,66.25c-.12-.2-.22-.44-.51-.47h0c0,.33,0,.66,0,1V90.84a6.91,6.91,0,0,0,0,.91A1.39,1.39,0,0,0,35.28,93c.15,0,.3,0,.46,0H48.09a4.87,4.87,0,0,0,.54,0A1.38,1.38,0,0,0,50,91.75a4.42,4.42,0,0,0,0-.63V87.3a4.42,4.42,0,0,1,0-.63,1.39,1.39,0,0,1,2.23-1,4.88,4.88,0,0,1,.53.49l1.1,1.09a1.43,1.43,0,0,0,1.9,0l1.17-1.15a4,4,0,0,1,.53-.48,1.39,1.39,0,0,1,2.15,1,4.56,4.56,0,0,1,0,.64c0,1.3,0,2.6,0,3.9a4.56,4.56,0,0,0,0,.64A1.39,1.39,0,0,0,61,93a4.87,4.87,0,0,0,.54,0H73.84a5,5,0,0,0,.55,0,1.34,1.34,0,0,0,1.28-1.08,4.36,4.36,0,0,0,.07-.81V84.76q0-6.76,0-13.53h0l0,0A26.44,26.44,0,0,1,74.33,68.61Z"/><path class="cls-3" d="M75.78,71.06a.9.9,0,0,1,0,.16.05.05,0,0,1,0,0,24.52,24.52,0,0,1-1.4-2.57c-.48-.94-1-1.89-1.48-2.81a11.05,11.05,0,0,0-2-2.58,6.07,6.07,0,0,0-1.23-.92A3.51,3.51,0,0,0,67.07,62a6.55,6.55,0,0,0-1.75.73c-.6.35-1.19.72-1.79,1.08s-1.34.82-2,1.21a12.5,12.5,0,0,1-4.37,1.44l-1.88.32a3.53,3.53,0,0,0-2,1.13,15.52,15.52,0,0,0-1.1,1.33c-.53.74-1,1.49-1.54,2.25a34,34,0,0,1-2.23,3,7.83,7.83,0,0,1-1.9,1.68,4.69,4.69,0,0,1-4.68.19A7,7,0,0,1,40,75a14.15,14.15,0,0,1-1.84-2.24c-.73-1.08-1.35-2.22-2-3.37S35,67.3,34.35,66.25c-.12-.2-.22-.44-.51-.47h0c0-.91,0-1.82,0-2.72V56.43a5,5,0,0,1,0-.55,2,2,0,0,1,.12-.52l.09-.22a1.36,1.36,0,0,1,.22-.33.94.94,0,0,1,.47-.28,1.84,1.84,0,0,1,.43-.07h14l.22,0a1.74,1.74,0,0,1,1.3.62c.93,1,1.92,1.94,2.88,2.9a1.21,1.21,0,0,1,.16.16,1.82,1.82,0,0,0,.56.37,1.66,1.66,0,0,0,.39.11,1.14,1.14,0,0,0,.37,0l.18,0a1.92,1.92,0,0,0,.5-.28,2.66,2.66,0,0,0,.35-.32l.11-.12c.9-.9,1.82-1.78,2.69-2.7A1.37,1.37,0,0,1,59,55a1.84,1.84,0,0,1,.74-.42,2.12,2.12,0,0,1,.68-.08h13.9a1.27,1.27,0,0,1,.28,0,1.31,1.31,0,0,1,1,.76,1.53,1.53,0,0,1,.13.54c0,.12,0,.23,0,.35V71.06Z"/><path class="cls-3" d="M166.41,68.84l-.6.76c-.2.25-.36.48-.48.66-1.12,1.63-2.22,3.26-3.32,4.9a25.54,25.54,0,0,1-2.18,2.9,11.51,11.51,0,0,1-2.7,2.26,6.88,6.88,0,0,1-2.08.86,6.14,6.14,0,0,1-4.07-.45,11.18,11.18,0,0,1-3.24-2.3,20.93,20.93,0,0,1-2.89-3.6A35.32,35.32,0,0,1,143,71.61a10.77,10.77,0,0,0-2-2.8,6,6,0,0,0-3.23-1.73,6.85,6.85,0,0,0-3,.22,13.33,13.33,0,0,0-4.39,2.28h0q0-6.77,0-13.53a1.66,1.66,0,0,1,.23-.95,1.18,1.18,0,0,1,.92-.64h24.71a1.24,1.24,0,0,1,.27,0,1.5,1.5,0,0,1,.47.19,1.26,1.26,0,0,1,.36.33,1.46,1.46,0,0,1,.27.73,5.93,5.93,0,0,1,0,.73v11a2.51,2.51,0,0,0,0,.27,1.29,1.29,0,0,0,.19.47,1.31,1.31,0,0,0,.55.49,1.06,1.06,0,0,0,.25.09l.27,0h7.54Z"/><path class="cls-3" d="M222.89,81l0,.11,0,.11h0a6.14,6.14,0,0,1-.92,1.89,3.34,3.34,0,0,1-2.28,1.46,3.78,3.78,0,0,1-1.85-.25,4.91,4.91,0,0,1-1.66-1h0a.12.12,0,0,1,0,0,5.8,5.8,0,0,1,.65-.87,5.28,5.28,0,0,1,.8-.7,5.76,5.76,0,0,1,1.41-.75l.53-.17a5.39,5.39,0,0,1,.8-.16,4.25,4.25,0,0,1,.8,0,6.29,6.29,0,0,1,1.6.22l.22.15Z"/><path class="cls-3" d="M212.48,56.34V67.8c0,.15,0,.3,0,.45h0a1.67,1.67,0,0,1-.1.57.93.93,0,0,1-.19.31,1,1,0,0,1-.38.33c-.25.14-.46.27-.73.4l-.83.41-.12-.19-.73-1.23a6.83,6.83,0,0,0-.9-1.25,2.29,2.29,0,0,0-2.41-.64,5.78,5.78,0,0,0-1.56.7c-.7.44-1.38.89-2.05,1.35-1.65,1.13-3.31,2.25-5,3.29a12.21,12.21,0,0,1-6,1.82,22.31,22.31,0,0,1-16-5.54c-.43-.37-.83-.8-1.23-1.21a.72.72,0,0,0-.46-.26c0-.75,0-9.08,0-10.64v0h0V56.4a1.78,1.78,0,0,1,.46-1.34,1.49,1.49,0,0,1,.35-.27.91.91,0,0,1,.44-.09h16.32a1.13,1.13,0,0,1,1.09.79,3.5,3.5,0,0,1,.19.79c.19,1,.4,2.56,1.43,2.56.76,0,1.78-1,2.8-2.5a3.22,3.22,0,0,1,2.5-1.65H211a1.92,1.92,0,0,1,.56.1l.23.11a1.2,1.2,0,0,1,.37.34,1.27,1.27,0,0,1,.13.22,1.59,1.59,0,0,1,.14.55C212.48,56.12,212.48,56.23,212.48,56.34Z"/><path class="cls-3" d="M123.41,76.65h0a.32.32,0,0,0-.23.21A5.07,5.07,0,0,1,119,79.58a5.2,5.2,0,0,1-2.32-.17A15.41,15.41,0,0,1,110,75.58a34.56,34.56,0,0,1-3-3.32c-1-1.28-2-2.57-3.12-3.79a19.48,19.48,0,0,0-8-5,4.1,4.1,0,0,0-3.66.4,8.94,8.94,0,0,0-1.78,1.4A34.7,34.7,0,0,0,88.09,68c-.71.86-1.43,1.72-2.17,2.56a11.31,11.31,0,0,1-2.29,2l-.62.38h0c1-4.83,2-9.37,2.29-10.71.19-.87.38-1.74.58-2.61s.39-1.73.58-2.6a2.56,2.56,0,0,0,0-.27,2.51,2.51,0,0,0,0-.27,2.23,2.23,0,0,1,.22-.69,2.39,2.39,0,0,1,.4-.56,3.61,3.61,0,0,1,.35-.33l.12-.08a1.92,1.92,0,0,1,.64-.28l.24,0H117a1.68,1.68,0,0,1,.54.08,2.33,2.33,0,0,1,.61.31l.17.13a2.14,2.14,0,0,1,.37.42,2.83,2.83,0,0,1,.34.83c.24,1.08.48,2.17.71,3.26.28,1.3.56,2.6.83,3.9q.69,3.27,1.39,6.55c.32,1.5.65,3,1,4.5C123.1,75.18,123.26,75.91,123.41,76.65Z"/></g></svg>