<svg xmlns="http://www.w3.org/2000/svg" xmlns:xlink="http://www.w3.org/1999/xlink" viewBox="0 0 1920 1080"><defs><style>.cls-1{fill:none;}.cls-2{fill:#1b2a41;}.cls-3{fill:#fbf6f2;}.cls-4{clip-path:url(#clip-path);}.cls-11,.cls-5{fill:#316287;}.cls-10,.cls-11,.cls-5,.cls-6{stroke:#fbf6f2;}.cls-5,.cls-6{stroke-linecap:round;stroke-linejoin:round;}.cls-6{fill:#fc6565;}.cls-7{clip-path:url(#clip-path-2);}.cls-10,.cls-8{fill:#6ea4c3;}.cls-8{stroke:#0a111c;}.cls-10,.cls-11,.cls-8{stroke-miterlimit:10;}.cls-9{clip-path:url(#clip-path-3);}</style><clipPath id="clip-path"><rect class="cls-1" y="2759.95" width="1920" height="1080.1" transform="translate(1920 6600) rotate(-180)"/></clipPath><clipPath id="clip-path-2"><rect class="cls-1" x="-2220.1" y="-0.35" width="1920.18" height="1080.1"/></clipPath><clipPath id="clip-path-3"><rect class="cls-1" x="0.1" y="-0.35" width="1920.18" height="1080.1" transform="translate(1920.38 1079.41) rotate(180)"/></clipPath></defs><title>Circles-Large-DBlue</title><g id="Backgrounds"><rect class="cls-2" x="0.5" y="0.5" width="1919" height="1079"/><path class="cls-3" d="M1919,1V1079H1V1H1919m1-1H0V1080H1920V0Z"/></g><g id="Pattern"><g class="cls-4"><path class="cls-5" d="M1923.53-129c0,117.81-57.82,179.77-104.29,229.55-42.68,45.73-73.51,78.77-73.51,151.47s30.83,105.74,73.51,151.47c46.47,49.78,104.29,111.74,104.29,229.55s-57.83,179.76-104.29,229.54c-42.68,45.73-73.51,78.76-73.51,151.46s30.83,105.73,73.51,151.46c46.46,49.78,104.29,111.74,104.29,229.55s-57.83,179.76-104.29,229.54c-42.68,45.72-73.51,78.76-73.51,151.46s30.83,105.73,73.51,151.45c46.46,49.78,104.29,111.74,104.29,229.54s-57.83,179.76-104.29,229.54c-42.68,45.73-73.51,78.76-73.51,151.46s30.83,105.74,73.51,151.46c46.46,49.78,104.29,111.74,104.29,229.54s-57.83,179.76-104.29,229.55c-9.5,10.17-18.4,19.72-26.52,29.22-27.21,31.84-45.48,63.1-46.9,115.54q-.09,3.29-.09,6.7c0,72.69,30.83,105.73,73.51,151.45,46.46,49.79,104.29,111.74,104.29,229.55h0c0,117.81-57.83,179.77-104.29,229.55-42.68,45.72-73.51,78.76-73.51,151.46s30.83,105.73,73.51,151.46c46.46,49.78,104.29,111.74,104.29,229.54s-57.83,179.76-104.29,229.55c-42.68,45.72-73.51,78.76-73.51,151.45s30.83,105.73,73.51,151.46c46.46,49.78,104.29,111.73,104.29,229.54s-57.83,179.76-104.29,229.54c-42.68,45.72-73.51,78.76-73.51,151.46s30.83,105.73,73.51,151.46c46.46,49.78,104.29,111.73,104.29,229.54s-57.83,179.76-104.29,229.54c-42.68,45.73-73.51,78.76-73.51,151.46s30.83,105.73,73.51,151.46c46.46,49.78,104.29,111.74,104.29,229.54a57.22,57.22,0,0,1-114.44,0c0-72.69-30.83-105.73-73.51-151.46-46.46-49.78-104.29-111.73-104.29-229.54s57.83-179.76,104.29-229.54c42.68-45.73,73.51-78.76,73.51-151.46s-30.83-105.74-73.51-151.46c-46.46-49.78-104.29-111.74-104.29-229.54s57.83-179.76,104.29-229.54c42.68-45.73,73.51-78.77,73.51-151.46s-30.83-105.73-73.51-151.46c-46.46-49.78-104.29-111.73-104.29-229.54s57.83-179.76,104.29-229.54c42.68-45.72,73.51-78.76,73.51-151.46s-30.83-105.73-73.51-151.46c-46.46-49.78-104.29-111.74-104.29-229.54s57.83-179.76,104.29-229.54c42.68-45.73,73.51-78.77,73.51-151.47s-30.83-105.74-73.51-151.47c-46.47-49.78-104.29-111.74-104.29-229.55q0-5.52.17-10.88c2.75-88.67,39-144.57,76.38-188.09,9.34-10.85,18.75-20.95,27.74-30.58,42.68-45.72,73.51-78.76,73.51-151.47h0c0-72.69-30.83-105.72-73.51-151.44-46.46-49.79-104.29-111.74-104.29-229.55s57.83-179.76,104.29-229.54c42.68-45.73,73.51-78.76,73.51-151.46s-30.83-105.73-73.51-151.45c-46.46-49.79-104.29-111.74-104.29-229.54s57.83-179.76,104.29-229.55c42.68-45.72,73.51-78.76,73.51-151.45s-30.83-105.74-73.51-151.47c-46.46-49.78-104.29-111.74-104.29-229.54s57.83-179.76,104.29-229.54c42.68-45.73,73.51-78.76,73.51-151.46s-30.83-105.74-73.51-151.47c-46.47-49.79-104.29-111.74-104.29-229.55s57.82-179.77,104.29-229.55c42.68-45.73,73.51-78.77,73.51-151.47a57.22,57.22,0,0,1,57.22-57.22A57.22,57.22,0,0,1,1923.53-129Z"/><path class="cls-6" d="M1515.71-129c0,117.81-57.83,179.77-104.29,229.55-42.68,45.73-73.51,78.77-73.51,151.47s30.83,105.74,73.51,151.47c46.46,49.78,104.29,111.74,104.29,229.55s-57.83,179.76-104.29,229.54c-42.68,45.73-73.51,78.76-73.51,151.46s30.83,105.73,73.51,151.46c46.46,49.78,104.29,111.74,104.29,229.55s-57.83,179.76-104.29,229.54c-42.68,45.72-73.51,78.76-73.51,151.46s30.83,105.73,73.51,151.45c46.46,49.78,104.29,111.74,104.29,229.54s-57.83,179.76-104.29,229.54c-42.68,45.73-73.51,78.76-73.51,151.46s30.83,105.74,73.51,151.46c46.46,49.78,104.28,111.73,104.29,229.51v0c0,3.69-.06,7.31-.17,10.89-3.43,110.79-59.11,170.44-104.12,218.67-7.5,8-14.63,15.67-21.29,23.21-31.26,35.35-52.22,68.33-52.22,128.25q0,3.4.09,6.7c1.85,68.07,32.08,100.46,73.42,144.75,46.46,49.79,104.29,111.74,104.29,229.55h0v0c0,117.81-57.83,179.77-104.29,229.55-42.68,45.72-73.51,78.76-73.51,151.46s30.83,105.73,73.51,151.46c46.46,49.78,104.29,111.74,104.29,229.54s-57.83,179.76-104.29,229.55c-42.68,45.72-73.51,78.76-73.51,151.45s30.83,105.73,73.51,151.46c46.46,49.78,104.29,111.73,104.29,229.54s-57.83,179.76-104.29,229.54c-42.68,45.72-73.51,78.76-73.51,151.46s30.83,105.73,73.51,151.46c46.46,49.78,104.29,111.73,104.29,229.54s-57.83,179.76-104.29,229.54c-42.68,45.73-73.51,78.76-73.51,151.46s30.83,105.73,73.51,151.46c46.46,49.78,104.29,111.74,104.29,229.54a57.22,57.22,0,0,1-114.44,0c0-72.69-30.84-105.73-73.51-151.46-46.46-49.78-104.29-111.73-104.29-229.54s57.83-179.76,104.29-229.54c42.67-45.73,73.51-78.76,73.51-151.46s-30.83-105.74-73.51-151.46c-46.46-49.78-104.29-111.74-104.29-229.54s57.83-179.76,104.29-229.54c42.67-45.73,73.51-78.77,73.51-151.46s-30.83-105.73-73.51-151.46c-46.46-49.78-104.29-111.73-104.29-229.54s57.83-179.76,104.29-229.54c42.67-45.72,73.51-78.76,73.51-151.46s-30.84-105.73-73.51-151.46c-46.46-49.78-104.29-111.74-104.29-229.54s57.83-179.76,104.29-229.54c42.67-45.73,73.51-78.77,73.51-151.47s-30.84-105.74-73.51-151.47c-45-48.22-100.69-107.88-104.13-218.67-.11-3.58-.16-7.2-.16-10.88,0-117.81,57.83-179.76,104.29-229.55l4.11-4.41c39.22-42.09,67.52-74.56,69.31-140.35q.09-3.3.09-6.7c0-72.69-30.83-105.73-73.51-151.45-46.46-49.79-104.29-111.74-104.29-229.55s57.83-179.76,104.29-229.54c42.67-45.73,73.51-78.76,73.51-151.46s-30.83-105.73-73.51-151.45c-46.46-49.79-104.29-111.74-104.29-229.54s57.83-179.76,104.29-229.55c42.67-45.72,73.51-78.76,73.51-151.45s-30.84-105.74-73.51-151.47c-46.46-49.78-104.29-111.74-104.29-229.54s57.83-179.76,104.29-229.54c42.67-45.73,73.51-78.76,73.51-151.46s-30.84-105.74-73.51-151.47c-46.47-49.79-104.29-111.74-104.29-229.55s57.82-179.77,104.29-229.55c42.67-45.73,73.51-78.77,73.51-151.47a57.22,57.22,0,0,1,57.22-57.22A57.22,57.22,0,0,1,1515.71-129Z"/><path class="cls-5" d="M1107.89-129c0,117.81-57.83,179.77-104.29,229.55-42.68,45.73-73.51,78.77-73.51,151.47s30.83,105.74,73.51,151.47c46.46,49.78,104.29,111.74,104.29,229.55s-57.83,179.76-104.29,229.54c-42.68,45.73-73.51,78.76-73.51,151.46s30.83,105.73,73.51,151.46c46.46,49.78,104.29,111.74,104.29,229.55s-57.83,179.76-104.29,229.54c-42.68,45.72-73.51,78.76-73.51,151.46s30.83,105.73,73.51,151.45c46.46,49.78,104.29,111.74,104.29,229.54s-57.83,179.76-104.29,229.54c-42.68,45.73-73.51,78.76-73.51,151.46s30.83,105.74,73.51,151.46c46.45,49.78,104.28,111.73,104.29,229.51v0c0,3.69-.06,7.31-.17,10.89-3.43,110.79-59.11,170.44-104.12,218.67-7.5,8-14.63,15.67-21.29,23.21-31.27,35.35-52.22,68.33-52.22,128.25q0,3.4.09,6.7c1.84,68.07,32.07,100.46,73.42,144.75,46.46,49.79,104.29,111.74,104.29,229.55h0v0c0,117.81-57.83,179.77-104.29,229.55-42.68,45.72-73.51,78.76-73.51,151.46s30.83,105.73,73.51,151.46c46.46,49.78,104.29,111.74,104.29,229.54s-57.83,179.76-104.29,229.55c-42.68,45.72-73.51,78.76-73.51,151.45s30.83,105.73,73.51,151.46c46.46,49.78,104.29,111.73,104.29,229.54s-57.83,179.76-104.29,229.54c-42.68,45.72-73.51,78.76-73.51,151.46s30.83,105.73,73.51,151.46c46.46,49.78,104.29,111.73,104.29,229.54s-57.83,179.76-104.29,229.54c-42.68,45.73-73.51,78.76-73.51,151.46s30.83,105.73,73.51,151.46c46.46,49.78,104.29,111.74,104.29,229.54a57.22,57.22,0,0,1-114.44,0c0-72.69-30.84-105.73-73.52-151.46C873.47,6527.8,815.64,6465.85,815.64,6348s57.83-179.76,104.29-229.54c42.68-45.73,73.52-78.76,73.52-151.46s-30.84-105.74-73.52-151.46C873.47,5765.8,815.64,5703.84,815.64,5586s57.83-179.76,104.29-229.54c42.68-45.73,73.52-78.77,73.52-151.46s-30.84-105.73-73.52-151.46C873.47,5003.8,815.64,4941.85,815.64,4824s57.83-179.76,104.29-229.54c42.68-45.72,73.52-78.76,73.52-151.46s-30.84-105.73-73.52-151.46C873.47,4241.8,815.64,4179.84,815.64,4062s57.83-179.76,104.29-229.54c42.68-45.73,73.52-78.77,73.52-151.47s-30.84-105.74-73.52-151.47c-45-48.22-100.69-107.88-104.12-218.67-.11-3.58-.17-7.2-.17-10.88,0-117.81,57.83-179.76,104.29-229.55l4.12-4.41c39.22-42.09,67.52-74.56,69.31-140.35q.09-3.3.09-6.7c0-72.69-30.84-105.73-73.52-151.45-46.46-49.79-104.29-111.74-104.29-229.55s57.83-179.76,104.29-229.54c42.68-45.73,73.52-78.76,73.52-151.46s-30.84-105.73-73.52-151.45c-46.46-49.79-104.29-111.74-104.29-229.54s57.83-179.76,104.29-229.55c42.68-45.72,73.52-78.76,73.52-151.45s-30.84-105.74-73.52-151.47C873.47,1193.76,815.64,1131.8,815.64,1014s57.83-179.76,104.29-229.54c42.68-45.73,73.52-78.76,73.52-151.46s-30.84-105.74-73.52-151.47C873.47,431.74,815.64,369.79,815.64,252S873.47,72.21,919.93,22.43C962.61-23.3,993.45-56.34,993.45-129a57.22,57.22,0,0,1,57.22-57.22A57.22,57.22,0,0,1,1107.89-129Z"/><path class="cls-5" d="M700.06-129c0,117.81-57.82,179.77-104.29,229.55C553.1,146.24,522.26,179.28,522.26,252s30.84,105.74,73.51,151.47C642.24,453.23,700.06,515.19,700.06,633S642.24,812.76,595.77,862.54C553.1,908.27,522.26,941.3,522.26,1014s30.84,105.73,73.51,151.46c46.47,49.78,104.29,111.74,104.29,229.55s-57.82,179.76-104.29,229.54c-42.67,45.72-73.51,78.76-73.51,151.46s30.84,105.73,73.51,151.45c46.47,49.78,104.29,111.74,104.29,229.54s-57.82,179.76-104.29,229.54c-42.67,45.73-73.51,78.76-73.51,151.46s30.84,105.74,73.51,151.46c46.46,49.78,104.29,111.73,104.29,229.52h0c0,117.81-57.82,179.76-104.29,229.55-8,8.57-15.58,16.7-22.63,24.72-30.52,34.79-50.88,67.67-50.88,126.74,0,72.69,30.84,105.73,73.51,151.45,46.47,49.79,104.29,111.74,104.29,229.55h0c0,117.81-57.82,179.77-104.29,229.55-42.67,45.72-73.51,78.76-73.51,151.46s30.84,105.73,73.51,151.46c46.47,49.78,104.29,111.74,104.29,229.54s-57.82,179.76-104.29,229.55c-42.67,45.72-73.51,78.76-73.51,151.45s30.84,105.73,73.51,151.46c46.47,49.78,104.29,111.73,104.29,229.54s-57.82,179.76-104.29,229.54c-42.67,45.72-73.51,78.76-73.51,151.46s30.84,105.73,73.51,151.46c46.47,49.78,104.29,111.73,104.29,229.54s-57.82,179.76-104.29,229.54c-42.67,45.73-73.51,78.76-73.51,151.46s30.84,105.73,73.51,151.46c46.47,49.78,104.29,111.74,104.29,229.54a57.22,57.22,0,1,1-114.44,0c0-72.69-30.83-105.73-73.51-151.46C465.65,6527.8,407.82,6465.85,407.82,6348s57.83-179.76,104.29-229.54c42.68-45.73,73.51-78.76,73.51-151.46s-30.83-105.74-73.51-151.46C465.65,5765.8,407.82,5703.84,407.82,5586s57.83-179.76,104.29-229.54c42.68-45.73,73.51-78.77,73.51-151.46s-30.83-105.73-73.51-151.46C465.65,5003.8,407.82,4941.85,407.82,4824s57.83-179.76,104.29-229.54c42.68-45.72,73.51-78.76,73.51-151.46s-30.83-105.73-73.51-151.46C465.65,4241.8,407.82,4179.84,407.82,4062s57.83-179.76,104.29-229.54c42.68-45.73,73.51-78.77,73.51-151.47s-30.83-105.74-73.51-151.47c-46.46-49.78-104.29-111.74-104.29-229.55h0c0-110,50.39-171.26,94.88-219.43l1.47-1.59,7.94-8.53c42.68-45.72,73.51-78.76,73.51-151.46s-30.83-105.73-73.51-151.45c-46.46-49.79-104.29-111.74-104.29-229.55s57.83-179.76,104.29-229.54c42.68-45.73,73.51-78.76,73.51-151.46s-30.83-105.73-73.51-151.45c-46.46-49.79-104.29-111.74-104.29-229.54s57.83-179.76,104.29-229.55c42.68-45.72,73.51-78.76,73.51-151.45s-30.83-105.74-73.51-151.47C465.65,1193.76,407.82,1131.8,407.82,1014s57.83-179.76,104.29-229.54c42.68-45.73,73.51-78.76,73.51-151.46s-30.83-105.74-73.51-151.47C465.65,431.74,407.82,369.79,407.82,252S465.65,72.21,512.11,22.43C554.79-23.3,585.62-56.34,585.62-129a57.22,57.22,0,0,1,57.22-57.22A57.22,57.22,0,0,1,700.06-129Z"/><path class="cls-5" d="M292.24-129c0,117.81-57.82,179.77-104.29,229.55-42.67,45.73-73.51,78.77-73.51,151.47S145.28,357.72,188,403.45C234.42,453.23,292.24,515.19,292.24,633S234.41,812.76,188,862.54c-42.68,45.73-73.51,78.76-73.51,151.46s30.84,105.73,73.51,151.46c46.46,49.78,104.29,111.74,104.29,229.55S234.41,1574.77,188,1624.55c-42.67,45.72-73.51,78.76-73.51,151.46s30.83,105.73,73.51,151.45c46.46,49.78,104.29,111.74,104.29,229.54S234.41,2336.76,188,2386.54c-42.67,45.73-73.51,78.76-73.51,151.46s30.84,105.74,73.51,151.46c46.46,49.78,104.29,111.73,104.29,229.52h0c0,117.81-57.83,179.76-104.29,229.55-8,8.57-15.59,16.7-22.63,24.72-30.52,34.79-50.88,67.67-50.88,126.74,0,72.69,30.84,105.73,73.51,151.45,46.46,49.79,104.29,111.74,104.29,229.55h0c0,117.81-57.83,179.77-104.29,229.55-42.68,45.72-73.51,78.76-73.51,151.46S145.28,4167.77,188,4213.5c46.46,49.78,104.29,111.74,104.29,229.54S234.41,4622.8,188,4672.59c-42.67,45.72-73.51,78.76-73.51,151.45S145.27,4929.77,188,4975.5c46.46,49.78,104.29,111.73,104.29,229.54S234.41,5384.8,188,5434.58c-42.67,45.72-73.51,78.76-73.51,151.46S145.28,5691.77,188,5737.5c46.46,49.78,104.29,111.73,104.29,229.54S234.41,6146.8,188,6196.58c-42.67,45.73-73.51,78.76-73.51,151.46S145.28,6453.77,188,6499.5c46.46,49.78,104.29,111.74,104.29,229.54a57.22,57.22,0,0,1-114.44,0c0-72.69-30.83-105.73-73.51-151.46C57.83,6527.8,0,6465.85,0,6348s57.83-179.76,104.29-229.54C147,6072.77,177.8,6039.74,177.8,5967S147,5861.3,104.29,5815.58C57.83,5765.8,0,5703.84,0,5586s57.83-179.76,104.29-229.54C147,5310.77,177.8,5277.73,177.8,5205S147,5099.31,104.29,5053.58C57.83,5003.8,0,4941.85,0,4824s57.83-179.76,104.29-229.54C147,4548.78,177.8,4515.74,177.8,4443S147,4337.31,104.29,4291.58C57.83,4241.8,0,4179.84,0,4062s57.83-179.76,104.29-229.54C147,3786.77,177.8,3753.73,177.8,3681S147,3575.29,104.29,3529.56C57.83,3479.78,0,3417.82,0,3300H0c0-110,50.38-171.26,94.88-219.43l1.47-1.59c2.67-2.88,5.33-5.73,7.94-8.53C147,3024.74,177.8,2991.7,177.8,2919S147,2813.27,104.29,2767.55C57.83,2717.76,0,2655.81,0,2538s57.83-179.76,104.29-229.54C147,2262.73,177.8,2229.7,177.8,2157S147,2051.27,104.29,2005.55C57.83,1955.76,0,1893.81,0,1776s57.83-179.76,104.29-229.55C147,1500.74,177.8,1467.7,177.8,1395S147,1289.27,104.29,1243.54C57.83,1193.76,0,1131.8,0,1014S57.83,834.24,104.29,784.46C147,738.73,177.8,705.7,177.8,633S147,527.26,104.29,481.53C57.83,431.74,0,369.79,0,252S57.83,72.21,104.29,22.43C147-23.3,177.8-56.34,177.8-129A57.22,57.22,0,0,1,235-186.26,57.22,57.22,0,0,1,292.24-129Z"/></g><g class="cls-7"><circle class="cls-8" cx="99.37" cy="-3.3" r="136.28"/><circle class="cls-8" cx="1189.6" cy="-3.3" r="136.28"/><circle class="cls-8" cx="99.37" cy="541.81" r="136.28"/><circle class="cls-8" cx="644.48" cy="269.25" r="136.28"/><circle class="cls-8" cx="1189.6" cy="541.81" r="136.28"/><circle class="cls-8" cx="1734.71" cy="269.25" r="136.28"/><circle class="cls-8" cx="99.37" cy="1086.92" r="136.28"/><circle class="cls-8" cx="644.48" cy="814.37" r="136.28"/><circle class="cls-8" cx="1189.6" cy="1086.92" r="136.28"/><circle class="cls-8" cx="1734.71" cy="814.37" r="136.28"/></g><g class="cls-9"><circle class="cls-10" cx="1782.47" cy="1082.71" r="136.28"/><circle class="cls-11" cx="692.24" cy="1082.71" r="136.28"/><circle class="cls-11" cx="1782.47" cy="537.6" r="136.28"/><circle class="cls-11" cx="1237.35" cy="810.16" r="136.28"/><circle class="cls-11" cx="692.24" cy="537.6" r="136.28"/><circle class="cls-11" cx="1782.47" cy="-7.51" r="136.28"/><circle class="cls-10" cx="1237.35" cy="265.04" r="136.28"/><circle class="cls-11" cx="692.24" cy="-7.51" r="136.28"/><circle class="cls-10" cx="145.92" cy="810.16" r="136.28"/><circle class="cls-11" cx="145.92" cy="265.04" r="136.28"/></g></g></svg>