<svg xmlns="http://www.w3.org/2000/svg" xmlns:xlink="http://www.w3.org/1999/xlink" viewBox="0 0 1920 1080"><defs><style>.cls-1{fill:none;}.cls-2{fill:#6ea4c3;}.cls-3{fill:#0a111c;}.cls-4{clip-path:url(#clip-path);}.cls-5{fill:#316287;}.cls-5,.cls-6{stroke:#0a111c;stroke-miterlimit:10;}.cls-6{fill:#f4e9df;}.cls-7{clip-path:url(#clip-path-2);}.cls-8{clip-path:url(#clip-path-3);}</style><clipPath id="clip-path"><rect class="cls-1" x="4.91" width="1920.18" height="1080.1" transform="translate(1930 1080.1) rotate(-180)"/></clipPath><clipPath id="clip-path-2"><rect class="cls-1" x="4.91" y="1380" width="1920.18" height="1080.1"/></clipPath><clipPath id="clip-path-3"><rect class="cls-1" x="2221.91" y="1380" width="1920.18" height="1080.1" transform="translate(6364 3840.1) rotate(180)"/></clipPath></defs><title>Circles-Small-LBlue</title><g id="Backgrounds"><rect class="cls-2" x="0.5" y="0.5" width="1919" height="1079"/><path class="cls-3" d="M1919,1V1079H1V1H1919m1-1H0V1080H1920V0Z"/></g><g id="Pattern"><g class="cls-4"><circle class="cls-5" cx="1638.3" cy="1107.88" r="48.08"/><circle class="cls-5" cx="1253.68" cy="1107.88" r="48.08"/><circle class="cls-5" cx="1830.61" cy="1011.72" r="48.08"/><circle class="cls-5" cx="1638.3" cy="915.57" r="48.08"/><circle class="cls-6" cx="1445.99" cy="1011.72" r="48.08"/><circle class="cls-5" cx="1253.68" cy="915.57" r="48.08"/><circle class="cls-5" cx="1061.37" cy="1011.72" r="48.08"/><circle class="cls-5" cx="1830.61" cy="819.41" r="48.08"/><circle class="cls-5" cx="1638.3" cy="723.26" r="48.08"/><circle class="cls-5" cx="1445.99" cy="819.41" r="48.08"/><circle class="cls-5" cx="1253.68" cy="723.26" r="48.08"/><circle class="cls-5" cx="1061.37" cy="819.41" r="48.08"/><circle class="cls-5" cx="869.06" cy="723.26" r="48.08"/><circle class="cls-5" cx="1830.61" cy="627.1" r="48.08"/><circle class="cls-5" cx="1638.3" cy="530.94" r="48.08"/><circle class="cls-5" cx="1445.99" cy="627.1" r="48.08"/><circle class="cls-5" cx="1253.68" cy="530.94" r="48.08"/><circle class="cls-5" cx="1061.37" cy="627.1" r="48.08"/><circle class="cls-5" cx="869.06" cy="530.94" r="48.08"/><circle class="cls-5" cx="1830.61" cy="434.79" r="48.08"/><circle class="cls-6" cx="1638.3" cy="338.63" r="48.08"/><circle class="cls-5" cx="1445.99" cy="434.79" r="48.08"/><circle class="cls-5" cx="1253.68" cy="338.63" r="48.08"/><circle class="cls-5" cx="1061.37" cy="434.79" r="48.08"/><circle class="cls-5" cx="869.06" cy="338.63" r="48.08"/><circle class="cls-5" cx="1830.61" cy="242.48" r="48.08"/><circle class="cls-5" cx="1638.3" cy="146.32" r="48.08"/><circle class="cls-5" cx="1445.99" cy="242.48" r="48.08"/><circle class="cls-5" cx="1253.68" cy="146.32" r="48.08"/><circle class="cls-6" cx="1061.37" cy="242.48" r="48.08"/><circle class="cls-5" cx="869.06" cy="146.32" r="48.08"/><circle class="cls-5" cx="1830.61" cy="50.17" r="48.08"/><circle class="cls-5" cx="1638.3" cy="-45.99" r="48.08"/><circle class="cls-5" cx="1445.99" cy="50.17" r="48.08"/><circle class="cls-5" cx="1253.68" cy="-45.99" r="48.08"/><circle class="cls-5" cx="1061.37" cy="50.17" r="48.08"/><circle class="cls-5" cx="869.06" cy="-45.99" r="48.08"/><circle class="cls-5" cx="484.01" cy="1107.88" r="48.08"/><circle class="cls-5" cx="868.84" cy="1107.88" r="48.08"/><circle class="cls-5" cx="99.39" cy="1107.88" r="48.08"/><circle class="cls-5" cx="676.32" cy="1011.72" r="48.08"/><circle class="cls-5" cx="868.84" cy="915.57" r="48.08"/><circle class="cls-5" cx="484.01" cy="915.57" r="48.08"/><circle class="cls-5" cx="291.7" cy="1011.72" r="48.08"/><circle class="cls-5" cx="99.39" cy="915.57" r="48.08"/><circle class="cls-5" cx="676.32" cy="819.41" r="48.08"/><circle class="cls-5" cx="484.01" cy="723.26" r="48.08"/><circle class="cls-6" cx="291.7" cy="819.41" r="48.08"/><circle class="cls-5" cx="99.39" cy="723.26" r="48.08"/><circle class="cls-6" cx="676.32" cy="627.1" r="48.08"/><circle class="cls-5" cx="484.01" cy="530.94" r="48.08"/><circle class="cls-5" cx="291.7" cy="627.1" r="48.08"/><circle class="cls-5" cx="99.39" cy="530.94" r="48.08"/><circle class="cls-5" cx="676.32" cy="434.79" r="48.08"/><circle class="cls-5" cx="484.01" cy="338.63" r="48.08"/><circle class="cls-5" cx="291.7" cy="434.79" r="48.08"/><circle class="cls-5" cx="99.39" cy="338.63" r="48.08"/><circle class="cls-5" cx="676.32" cy="242.48" r="48.08"/><circle class="cls-5" cx="484.01" cy="146.32" r="48.08"/><circle class="cls-5" cx="291.7" cy="242.48" r="48.08"/><circle class="cls-5" cx="99.39" cy="146.32" r="48.08"/><circle class="cls-5" cx="676.32" cy="50.17" r="48.08"/><circle class="cls-6" cx="484.01" cy="-45.99" r="48.08"/><circle class="cls-5" cx="291.7" cy="50.17" r="48.08"/><circle class="cls-5" cx="99.39" cy="-45.99" r="48.08"/></g><g class="cls-7"><circle class="cls-5" cx="142.72" cy="286.82" r="136.28"/><circle class="cls-5" cx="687.84" cy="14.26" r="136.28"/><circle class="cls-5" cx="142.72" cy="831.93" r="136.28"/><circle class="cls-5" cx="687.84" cy="559.38" r="136.28"/><circle class="cls-5" cx="687.84" cy="1104.49" r="136.28"/><circle class="cls-5" cx="1779.28" cy="14.26" r="136.28"/><circle class="cls-5" cx="1233.56" cy="286.82" r="136.28"/><circle class="cls-5" cx="1779.28" cy="559.38" r="136.28"/><circle class="cls-5" cx="1233.56" cy="831.93" r="136.28"/><circle class="cls-5" cx="1779.28" cy="1104.49" r="136.28"/></g><g class="cls-8"><circle class="cls-6" cx="1822.61" cy="827.72" r="136.28"/><circle class="cls-6" cx="1277.5" cy="1100.28" r="136.28"/><circle class="cls-6" cx="732.39" cy="827.72" r="136.28"/><circle class="cls-6" cx="187.28" cy="1100.28" r="136.28"/><circle class="cls-6" cx="1822.61" cy="282.61" r="136.28"/><circle class="cls-6" cx="1277.5" cy="555.17" r="136.28"/><circle class="cls-6" cx="732.39" cy="282.61" r="136.28"/><circle class="cls-6" cx="187.28" cy="555.17" r="136.28"/><circle class="cls-6" cx="1277.5" cy="10.05" r="136.28"/><circle class="cls-6" cx="1277.5" cy="10.05" r="136.28"/></g></g></svg>