<svg xmlns="http://www.w3.org/2000/svg" xmlns:xlink="http://www.w3.org/1999/xlink" viewBox="0 0 1152 864"><defs><style>.cls-1,.cls-12,.cls-15,.cls-24,.cls-3,.cls-4,.cls-8{fill:none;}.cls-1,.cls-13,.cls-14,.cls-15,.cls-16,.cls-18,.cls-20,.cls-21,.cls-22,.cls-23,.cls-24,.cls-25,.cls-26,.cls-29,.cls-3,.cls-4,.cls-5,.cls-6{stroke:#000;}.cls-1,.cls-12,.cls-13,.cls-14,.cls-18,.cls-20,.cls-21,.cls-22,.cls-23,.cls-24,.cls-25,.cls-26,.cls-27,.cls-29,.cls-3,.cls-4,.cls-5,.cls-6,.cls-8{stroke-miterlimit:10;}.cls-2{fill:#262322;}.cls-12,.cls-29,.cls-4,.cls-6,.cls-8{stroke-linecap:round;}.cls-10,.cls-13,.cls-23,.cls-5{fill:#c32f28;}.cls-22,.cls-25,.cls-6,.cls-7{fill:#64372c;}.cls-8{stroke:#c32f28;}.cls-12,.cls-26,.cls-8{stroke-width:2px;}.cls-20,.cls-26,.cls-9{fill:#fcf4ed;}.cls-11,.cls-14,.cls-16,.cls-21,.cls-27,.cls-29{fill:#c97d61;}.cls-12{stroke:#c97d61;}.cls-15,.cls-16{stroke-linejoin:round;}.cls-17{fill:#f3e5d7;}.cls-19{clip-path:url(#clip-path);}.cls-23,.cls-24,.cls-25{stroke-width:2px;}.cls-27{stroke:#fcf4ed;}.cls-28{fill:#fff;}</style><clipPath id="clip-path"><path class="cls-1" d="M569.12,666.89V654.51h-8.51v12.38a2.83,2.83,0,0,1-2.05,2.71,22.52,22.52,0,1,0,12.61,0A2.83,2.83,0,0,1,569.12,666.89Z"/></clipPath></defs><g id="Background"><rect class="cls-2" x="-0.35" y="-0.03" width="1152.07" height="865.55"/><circle class="cls-3" cx="101.36" cy="735.46" r="31.75"/><path class="cls-4" d="M88.56,713.56a28.26,28.26,0,0,1,25.61-.32"/><line class="cls-3" x1="133.12" y1="733.61" x2="150.87" y2="733.61"/><line class="cls-3" x1="133.12" y1="737.3" x2="150.87" y2="737.3"/><path class="cls-5" d="M178.56,730.62H152a1.14,1.14,0,0,0-1.14,1.14v7.39a1.14,1.14,0,0,0,1.14,1.14h26.45c2.71,0,5.19-1.18,5.19-4.83C183.65,732,181.5,730.62,178.56,730.62Zm-.06,7a2.22,2.22,0,1,1,2.22-2.21A2.22,2.22,0,0,1,178.5,737.67Z"/><path class="cls-6" d="M114.47,756.62c-1.21,8.31-4.67,9.45-4.67,9.45h0a31.8,31.8,0,0,1-36.46-15.71s6.89-17.64,22.07-17.64S115.8,747.5,114.47,756.62Z"/><path class="cls-4" d="M79.78,748.46S86.72,737.9,97,738.14"/><path class="cls-4" d="M104.38,741.47a15.6,15.6,0,0,1,3.78,12"/><path class="cls-4" d="M79.42,758.41S88,744.19,94.88,744.22s9,7,8.55,10.35"/><path class="cls-4" d="M106.21,758.41s-.1,6.35-1.22,8.17"/><path class="cls-4" d="M97.77,767s4.5-14.69-1.46-16.76c-3.11-1.08-5.78.3-7.68,2.8"/><path class="cls-4" d="M86,763.22a8.48,8.48,0,0,1,7.32-6.4"/></g><g id="Content"><path class="cls-7" d="M29.3,808.83a5.38,5.38,0,0,1-1.42-4l.18-10.65a5.07,5.07,0,0,1,5.49-5.31,5.39,5.39,0,0,1,3.92,1.53,5.3,5.3,0,0,1,1.42,4v.48a.25.25,0,0,1-.3.29l-2.29.09a.27.27,0,0,1-.29-.31v-.78a2.75,2.75,0,0,0-.67-2,2.62,2.62,0,0,0-3.67-.06,2.83,2.83,0,0,0-.73,2l-.18,11a2.79,2.79,0,0,0,.66,2,2.4,2.4,0,0,0,1.81.78,2.44,2.44,0,0,0,1.86-.72,2.8,2.8,0,0,0,.74-2v-.78a.27.27,0,0,1,.31-.3l2.27.16a.28.28,0,0,1,.3.31V805a5.56,5.56,0,0,1-9.41,3.79Z"/><path class="cls-7" d="M46.28,810.05l.34-20.39a.27.27,0,0,1,.3-.3l2.28,0a.27.27,0,0,1,.3.3l-.3,18.09a.11.11,0,0,0,.12.12L56,808a.27.27,0,0,1,.3.3l0,1.89a.28.28,0,0,1-.31.3l-9.42-.16C46.37,810.36,46.28,810.25,46.28,810.05Z"/><path class="cls-7" d="M64,809.39a5.41,5.41,0,0,1-1.43-4l.17-10.46a5.44,5.44,0,0,1,1.57-4,5.28,5.28,0,0,1,4-1.45,5.21,5.21,0,0,1,5.43,5.61l-.17,10.47A5.66,5.66,0,0,1,64,809.39Zm5.91-1.69a3,3,0,0,0,.76-2.07l.18-10.74a3,3,0,0,0-.69-2.1,2.48,2.48,0,0,0-1.91-.82,2.37,2.37,0,0,0-1.89.76,3,3,0,0,0-.73,2.07l-.18,10.74a3,3,0,0,0,.67,2.1,2.4,2.4,0,0,0,1.86.83A2.48,2.48,0,0,0,69.93,807.7Z"/><path class="cls-7" d="M92,790.41l0,1.89a.27.27,0,0,1-.3.3l-3.93-.07c-.08,0-.13,0-.13.12l-.3,18.09a.25.25,0,0,1-.3.29l-2.28,0a.27.27,0,0,1-.3-.3l.3-18.09c0-.08,0-.12-.11-.12l-3.72-.06a.28.28,0,0,1-.3-.31l0-1.89a.27.27,0,0,1,.31-.29l10.77.18C91.94,790.11,92,790.21,92,790.41Z"/><path class="cls-7" d="M107.24,790.37l2.28,0a.28.28,0,0,1,.3.31l-.34,20.4c0,.2-.11.29-.31.29l-2.28,0c-.2,0-.29-.1-.29-.3l.15-8.85a.11.11,0,0,0-.12-.12L102.1,802a.11.11,0,0,0-.12.12l-.15,8.85a.26.26,0,0,1-.3.29l-2.28,0a.28.28,0,0,1-.3-.31l.34-20.4c0-.2.11-.29.31-.29l2.28,0a.26.26,0,0,1,.29.3L102,799.4a.11.11,0,0,0,.12.12l4.53.08a.11.11,0,0,0,.12-.12l.15-8.82A.25.25,0,0,1,107.24,790.37Z"/><path class="cls-7" d="M117.7,811.24l.34-20.39a.27.27,0,0,1,.3-.3l2.28,0a.27.27,0,0,1,.3.3l-.34,20.4a.27.27,0,0,1-.31.3l-2.28,0A.27.27,0,0,1,117.7,811.24Z"/><path class="cls-7" d="M137.9,790.88l2.25,0a.27.27,0,0,1,.29.31l-.34,20.4c0,.2-.1.29-.3.29l-2.58,0a.34.34,0,0,1-.33-.25L132,797.83a.08.08,0,0,0-.15,0l-.19,13.62a.27.27,0,0,1-.31.29l-2.28,0a.25.25,0,0,1-.29-.3l.34-20.4a.25.25,0,0,1,.3-.29l2.55,0a.33.33,0,0,1,.33.24l4.9,13.8c0,.06.05.08.09.07s.06,0,.06-.1l.22-13.62A.27.27,0,0,1,137.9,790.88Z"/><path class="cls-7" d="M149.4,810.87A5.1,5.1,0,0,1,148,807l.19-11a5.08,5.08,0,0,1,1.54-3.79,5.39,5.39,0,0,1,3.94-1.37,5.45,5.45,0,0,1,3.91,1.5,5.09,5.09,0,0,1,1.43,3.87l0,1.26a.25.25,0,0,1-.3.29l-2.28,0a.27.27,0,0,1-.3-.3l0-1.32a2.75,2.75,0,0,0-.67-2,2.64,2.64,0,0,0-3.69-.06,2.8,2.8,0,0,0-.74,2l-.18,11a2.78,2.78,0,0,0,.67,2,2.63,2.63,0,0,0,3.69.07,2.77,2.77,0,0,0,.74-2l0-3.3c0-.08,0-.12-.11-.12l-2.28,0a.27.27,0,0,1-.3-.31l0-1.86a.27.27,0,0,1,.31-.29l5,.08a.27.27,0,0,1,.29.31l-.09,5.55a5.06,5.06,0,0,1-1.56,3.78,5.51,5.51,0,0,1-4,1.38A5.39,5.39,0,0,1,149.4,810.87Z"/><path class="cls-7" d="M178.11,811.3a5.29,5.29,0,0,1-1.42-4l.18-10.64a5.07,5.07,0,0,1,5.49-5.31,5.08,5.08,0,0,1,5.34,5.49v.48a.27.27,0,0,1-.31.29l-2.28.08a.25.25,0,0,1-.29-.3v-.78a2.78,2.78,0,0,0-.67-2,2.39,2.39,0,0,0-1.83-.78,2.36,2.36,0,0,0-1.85.71,2.8,2.8,0,0,0-.72,2l-.18,11a2.77,2.77,0,0,0,.65,2,2.63,2.63,0,0,0,3.68.06,2.72,2.72,0,0,0,.73-2l0-.78a.27.27,0,0,1,.3-.3l2.28.16a.27.27,0,0,1,.3.3v.45a5.36,5.36,0,0,1-1.55,3.92,5.3,5.3,0,0,1-4,1.42A5.25,5.25,0,0,1,178.11,811.3Z"/><path class="cls-7" d="M196.18,811.59a5.41,5.41,0,0,1-1.43-4l.17-10.46a5.44,5.44,0,0,1,1.57-4,5.28,5.28,0,0,1,4-1.45,5.21,5.21,0,0,1,5.43,5.61l-.17,10.47a5.38,5.38,0,0,1-1.58,4,5.45,5.45,0,0,1-4,1.43A5.33,5.33,0,0,1,196.18,811.59Zm5.91-1.69a3,3,0,0,0,.76-2.07l.17-10.74a3,3,0,0,0-.68-2.1,2.48,2.48,0,0,0-1.91-.82,2.37,2.37,0,0,0-1.89.76,3,3,0,0,0-.73,2.07l-.18,10.74a3,3,0,0,0,.67,2.1,2.36,2.36,0,0,0,1.86.82A2.44,2.44,0,0,0,202.09,809.9Z"/><path class="cls-7" d="M209,812.52a1.84,1.84,0,0,1-.52-1.39,1.83,1.83,0,0,1,1.95-1.88,1.85,1.85,0,0,1,1.89,2,1.85,1.85,0,0,1-2,1.89A1.85,1.85,0,0,1,209,812.52Z"/><line class="cls-8" x1="712.09" y1="793.8" x2="423.3" y2="792.63"/><path class="cls-9" d="M479.26,820.15l-10.17-8.84,4.31-3.94V782.09l-7.11-6.47-4.48,2.71v29l4.42,3.93-9.83,8.85-11.8-9.34,3.94-3.44V780.13l-3.94-4.43-3.93,2.46-1.48-2,14.26-9.84,7.54,8.42,13.48-8.42,10.21,8.81,14.09-8.81,10.74,9.27V805l4.79,4.89,4.41-3.32.07,3.76-15.22,9.87-10.16-8.84,4.31-3.94V782.09l-7.12-6.47-5.39,3.27v27.43l5.32,4.75Z"/><path class="cls-9" d="M558.74,820.15l-10.17-8.84,4.31-3.94V782.09l-7.11-6.47-4.48,2.71v29l4.42,3.93-9.83,8.85-11.8-9.34,3.93-3.44V780.13l-3.93-4.43-3.93,2.46-1.48-2,14.26-9.84,7.54,8.42L554,766.36l10.2,8.81,14.1-8.81L589,775.68V805l4.8,4.89,4.41-3.32.07,3.76L583,820.15l-10.16-8.84,4.31-3.94V782.09l-7.12-6.47-5.39,3.27v27.43l5.32,4.75Z"/><path class="cls-9" d="M610.39,765.28l8.16,4.87,5.25,11.27,6.1-15.1h2.44a5.65,5.65,0,0,0,4.45,2.53,5.55,5.55,0,0,0,2.74-.63,5.67,5.67,0,0,0,2.08-1.9h3.06a49.77,49.77,0,0,1-1.1,5.67,16.16,16.16,0,0,1-1.88,4.64A8.46,8.46,0,0,1,638,779.9a8.79,8.79,0,0,1-3.83.64,14.74,14.74,0,0,1-3.83-.78,26.16,26.16,0,0,1-2.81-1.13l-2.28,5.83,10.45,22.4a5.66,5.66,0,0,0,.92,1.51,2.89,2.89,0,0,0,1.52.87,3.37,3.37,0,0,0,1.75-.14,7.11,7.11,0,0,0,1.56-.84,28,28,0,0,0,3-2.22l2.79,2.57-14.37,10L623,812.3,618.36,802l-6.25,16,0-.14,0,.15H611a6.93,6.93,0,0,0-4.45-2.53,6.79,6.79,0,0,0-3.45.44,6.9,6.9,0,0,0-2.78,2.09h-2.19a26.79,26.79,0,0,1,.86-5.34,15.26,15.26,0,0,1,2.2-4.92,9.06,9.06,0,0,1,8-3.91,13.89,13.89,0,0,1,3.82.73c.42.14.84.3,1.25.47l2.56-6.35-9.4-21.1a6.92,6.92,0,0,0-1.27-2.08,3.63,3.63,0,0,0-2.15-1.07,4.47,4.47,0,0,0-2.38.45,16,16,0,0,0-2.09,1.28c-.19.14-.39.26-.59.39l-1.61-2.45Z"/><path class="cls-9" d="M659.41,765.28l8.16,4.87,5.26,11.27,6.09-15.1h2.44a5.65,5.65,0,0,0,4.45,2.53,5.53,5.53,0,0,0,4.82-2.53h3.06a49.77,49.77,0,0,1-1.1,5.67,16.16,16.16,0,0,1-1.88,4.64A8.46,8.46,0,0,1,687,779.9a8.79,8.79,0,0,1-3.83.64,14.74,14.74,0,0,1-3.83-.78,26.16,26.16,0,0,1-2.81-1.13l-2.28,5.83,10.45,22.4a5.66,5.66,0,0,0,.92,1.51,2.89,2.89,0,0,0,1.52.87,3.37,3.37,0,0,0,1.75-.14,7.11,7.11,0,0,0,1.56-.84,28,28,0,0,0,3-2.22l2.79,2.57-14.37,10L672,812.3,667.38,802l-6.25,16,0-.14,0,.15H660a6.88,6.88,0,0,0-4.45-2.53,6.79,6.79,0,0,0-3.45.44,6.9,6.9,0,0,0-2.78,2.09h-2.18a26.07,26.07,0,0,1,.85-5.34,15.26,15.26,0,0,1,2.2-4.92,9.06,9.06,0,0,1,8-3.91,13.82,13.82,0,0,1,3.82.73c.42.14.84.3,1.25.47l2.56-6.35-9.4-21.1a6.73,6.73,0,0,0-1.27-2.08,3.63,3.63,0,0,0-2.15-1.07,4.47,4.47,0,0,0-2.38.45,16,16,0,0,0-2.09,1.28c-.19.14-.39.26-.59.39l-1.61-2.45Z"/><path class="cls-9" d="M83.55,142a15,15,0,0,0,2.76-7.51,68.54,68.54,0,0,0,.26-8.11v-.27H84.08a11.79,11.79,0,0,0-1.88.11,5.23,5.23,0,0,0-1.76.63,4.81,4.81,0,0,0-2.17,3,5.2,5.2,0,0,0-.06,2.22h-2a12.33,12.33,0,0,1-1.28-8.6,10.59,10.59,0,0,1,2-4.27,10.27,10.27,0,0,1,3.72-2.91,21,21,0,0,1,5.86-1.52v-2.58a17.55,17.55,0,0,1,.23-3.32,9,9,0,0,1,1.2-3.09,15.64,15.64,0,0,1,4.94-4.41L101,96.07H86.75A8,8,0,0,1,84,95.7a5.61,5.61,0,0,1-2.3-1.6,8.63,8.63,0,0,1-1.77-3.49,16.09,16.09,0,0,1-.53-3.91,28.27,28.27,0,0,1,1-7.81l2.21.08a5.23,5.23,0,0,0,1,2.19,5.73,5.73,0,0,0,1.84,1.55,7.11,7.11,0,0,0,2.3.73,17.75,17.75,0,0,0,2.42.12h28c4.28,0,8.66.23,12.62,1.86a23.09,23.09,0,0,1,9.84,8c4.32,6,6.15,13.53,6.57,20.93a63.89,63.89,0,0,1-2.46,21.12,66,66,0,0,1-4.21,10.87l-25.64,14.1a30.43,30.43,0,0,0-38.25,2.26H73.63a36.47,36.47,0,0,1,21.15-17.62,70.61,70.61,0,0,0,5.23-5.63,16,16,0,0,0,2.74-4.56,15.81,15.81,0,0,0,.69-5.26V111.14a27.54,27.54,0,0,1,1.26-9.59,16.43,16.43,0,0,1,3.34-5.48h-3.32a14.79,14.79,0,0,0-4,5,16,16,0,0,0-1,6.42v18.46a24.33,24.33,0,0,1-.56,6,16.56,16.56,0,0,1-2.52,5.42c-3.6,5.13-9.38,8.49-15.46,10l-1-2.46A10.93,10.93,0,0,0,83.55,142Zm28.13-45.38a13.25,13.25,0,0,0-4.27,5.91,25.05,25.05,0,0,0-1.09,8.61v18.46a18.17,18.17,0,0,1-.86,6.23,18.66,18.66,0,0,1-3.22,5.41c-.73.9-1.5,1.77-2.28,2.62a36.64,36.64,0,0,1,11.73.16Zm2.94,20.18,16.92-8.55a20.33,20.33,0,0,0-3.87-7A14.64,14.64,0,0,0,121.48,97a21.43,21.43,0,0,0-6.86-.94Zm0,11.17,18.6-9.43-.06-1.15a40.85,40.85,0,0,0-.83-6.24l-17.71,9Zm12.9,23a79.72,79.72,0,0,0,4.61-16.46,78.13,78.13,0,0,0,1.15-12.67l-18.66,9.46v13.4A35.85,35.85,0,0,1,127.52,150.94Z"/><path class="cls-9" d="M155.08,119.65l24.58-12.78L190,122.6v.49l-22.12,13.77v4.42l12.28,8.36,11.31-8.85,1.48,2.46-21.14,17.2-16.7-12.78Zm23.6,7.87-8.85-12.78-2,1.1v18.52Z"/><path class="cls-9" d="M277.23,119.65l24.58-12.78,10.32,15.73v.49L290,136.86v4.42l12.29,8.36,11.3-8.85,1.48,2.46-21.14,17.2-16.7-12.78Zm23.59,7.87L292,114.74l-2,1.1v18.52Z"/><path class="cls-9" d="M409.21,119.65l24.58-12.78,10.33,15.73v.49L422,136.86v4.42l12.29,8.36,11.31-8.85,1.48,2.46-21.14,17.2-16.7-12.78Zm23.6,7.87L424,114.74l-2,1.1v18.52Z"/><path class="cls-9" d="M233,161,222.8,152.1l4.3-3.94V122.89L220,116.41l-4.48,2.72v29l4.42,3.94L210.1,161l-11.8-9.35,3.94-3.44V120.92l-3.94-4.42L194.37,119l-1.47-2,14.25-9.83,7.54,8.41,13.48-8.41,10.21,8.8,14.1-8.8,10.78,9.3-.05,29.28,4.79,4.89,4.41-3.32.07,3.76L257.27,161,247.1,152.1l4.31-3.94V122.89l-7.11-6.48-5.4,3.27v27.43l5.33,4.75Z"/><path class="cls-9" d="M371.57,150.62,356.33,161,346,151.6l3.44-3.44V122.89l-7.37-6.39L337.65,120v28.15l4.43,3.94L332.25,161l-11.8-9.35,3.93-3.44V120.92l-3.93-4.42L316.51,119,315,117l14.26-9.83,7.89,8.81,11.28-8.81,11.62,10,1.16,2.75v26.8l4.42,3.93,4.32-2.37Z"/><path class="cls-9" d="M397,152l3.4-1.84,1.48,2-14.12,7.3-11.49-9.92,2.15-2.27V121.15a7.08,7.08,0,0,0-.12-1.53,4,4,0,0,0-.61-1.4,4.49,4.49,0,0,0-1.82-1.52,5.09,5.09,0,0,0-2.37-.45v-1.47L390.23,98h2v11.79h12.2l-4.81,5.64h-7.39v31.73Z"/><path class="cls-9" d="M456,101.2l-2.1.36V83.17l36.58,32.33-.05,30.57L468,159.35,453.18,149.2V117.68L465.67,110Zm10.39,42.62,10.87,7.56V120.56l-10.87-9.89Z"/><path class="cls-10" d="M343.16,198.73a4.45,4.45,0,0,1-1.24-3.29v-8.88a4.24,4.24,0,0,1,4.5-4.5,4.48,4.48,0,0,1,3.29,1.23,4.4,4.4,0,0,1,1.23,3.27v.4a.22.22,0,0,1-.25.25l-1.9.1a.22.22,0,0,1-.25-.25v-.65a2.33,2.33,0,0,0-.58-1.65,2.06,2.06,0,0,0-1.54-.62,2,2,0,0,0-1.53.62,2.36,2.36,0,0,0-.57,1.65v9.2a2.33,2.33,0,0,0,.57,1.65,2,2,0,0,0,1.53.63,2,2,0,0,0,1.54-.63,2.29,2.29,0,0,0,.58-1.65V195a.23.23,0,0,1,.25-.25l1.9.1a.22.22,0,0,1,.25.25v.38a4.23,4.23,0,0,1-4.52,4.52A4.41,4.41,0,0,1,343.16,198.73Z"/><path class="cls-10" d="M357.32,199.51v-17a.22.22,0,0,1,.25-.25h1.9a.23.23,0,0,1,.25.25v15.08a.09.09,0,0,0,.1.1h5.6a.22.22,0,0,1,.25.25v1.57a.22.22,0,0,1-.25.25h-7.85A.22.22,0,0,1,357.32,199.51Z"/><path class="cls-10" d="M372.09,198.71a4.5,4.5,0,0,1-1.25-3.32v-8.73a4.53,4.53,0,0,1,1.25-3.33,4.43,4.43,0,0,1,3.3-1.27,4.35,4.35,0,0,1,4.6,4.6v8.73a4.71,4.71,0,0,1-7.9,3.32Zm4.9-1.48a2.52,2.52,0,0,0,.6-1.74v-9a2.49,2.49,0,0,0-.6-1.74,2.05,2.05,0,0,0-1.6-.66,2,2,0,0,0-1.56.66,2.53,2.53,0,0,0-.59,1.74v9a2.56,2.56,0,0,0,.59,1.74,2,2,0,0,0,1.56.66A2.05,2.05,0,0,0,377,197.23Z"/><path class="cls-10" d="M395.17,182.51v1.58a.22.22,0,0,1-.25.25h-3.28a.09.09,0,0,0-.1.1v15.07a.22.22,0,0,1-.25.25h-1.9a.22.22,0,0,1-.25-.25V184.44c0-.07,0-.1-.1-.1h-3.1a.22.22,0,0,1-.25-.25v-1.58a.23.23,0,0,1,.25-.25h9A.23.23,0,0,1,395.17,182.51Z"/><path class="cls-10" d="M407.84,182.26h1.9a.22.22,0,0,1,.25.25v17a.22.22,0,0,1-.25.25h-1.9a.22.22,0,0,1-.25-.25v-7.37c0-.07,0-.1-.1-.1h-3.77c-.07,0-.1,0-.1.1v7.37a.22.22,0,0,1-.25.25h-1.9a.22.22,0,0,1-.25-.25v-17a.22.22,0,0,1,.25-.25h1.9a.23.23,0,0,1,.25.25v7.35c0,.07,0,.1.1.1h3.77c.07,0,.1,0,.1-.1v-7.35A.22.22,0,0,1,407.84,182.26Z"/><path class="cls-10" d="M416.84,199.51v-17a.22.22,0,0,1,.25-.25H419a.22.22,0,0,1,.25.25v17a.22.22,0,0,1-.25.25h-1.9A.22.22,0,0,1,416.84,199.51Z"/><path class="cls-10" d="M433.39,182.26h1.88a.23.23,0,0,1,.25.25v17a.22.22,0,0,1-.25.25h-2.15a.27.27,0,0,1-.28-.2l-4.25-11.42a.05.05,0,0,0-.07,0s0,0,0,.06l0,11.35a.22.22,0,0,1-.25.25h-1.9a.22.22,0,0,1-.25-.25v-17a.22.22,0,0,1,.25-.25h2.13a.28.28,0,0,1,.27.2L433,193.89c0,.05,0,.07.07.06s.05,0,.05-.09V182.51A.23.23,0,0,1,433.39,182.26Z"/><path class="cls-10" d="M443.25,198.76a4.23,4.23,0,0,1-1.23-3.17v-9.15a4.24,4.24,0,0,1,1.23-3.18,5.06,5.06,0,0,1,6.54,0,4.21,4.21,0,0,1,1.25,3.2v1a.22.22,0,0,1-.25.25h-1.9a.22.22,0,0,1-.25-.25v-1.1a2.29,2.29,0,0,0-.59-1.65,2.21,2.21,0,0,0-3.07,0,2.33,2.33,0,0,0-.59,1.65v9.2a2.3,2.3,0,0,0,.59,1.65,2.19,2.19,0,0,0,3.07,0,2.26,2.26,0,0,0,.59-1.65v-2.75a.09.09,0,0,0-.1-.1h-1.9a.22.22,0,0,1-.25-.25V191a.22.22,0,0,1,.25-.25h4.15a.22.22,0,0,1,.25.25v4.63a4.17,4.17,0,0,1-1.25,3.17,5.06,5.06,0,0,1-6.54,0Z"/><path class="cls-10" d="M467.18,198.73a4.45,4.45,0,0,1-1.24-3.29v-8.88a4.24,4.24,0,0,1,4.5-4.5,4.47,4.47,0,0,1,3.29,1.23,4.41,4.41,0,0,1,1.24,3.27v.4a.22.22,0,0,1-.25.25l-1.9.1a.22.22,0,0,1-.25-.25v-.65a2.33,2.33,0,0,0-.59-1.65,2,2,0,0,0-1.54-.62,2,2,0,0,0-1.52.62,2.33,2.33,0,0,0-.58,1.65v9.2a2.29,2.29,0,0,0,.58,1.65,2,2,0,0,0,1.52.63,2,2,0,0,0,1.54-.63,2.3,2.3,0,0,0,.59-1.65V195a.22.22,0,0,1,.25-.25l1.9.1a.23.23,0,0,1,.25.25v.38a4.25,4.25,0,0,1-4.53,4.52A4.41,4.41,0,0,1,467.18,198.73Z"/><path class="cls-10" d="M482.24,198.71a4.5,4.5,0,0,1-1.25-3.32v-8.73a4.53,4.53,0,0,1,1.25-3.33,4.4,4.4,0,0,1,3.3-1.27,4.35,4.35,0,0,1,4.6,4.6v8.73a4.46,4.46,0,0,1-1.26,3.32,4.52,4.52,0,0,1-3.34,1.25A4.42,4.42,0,0,1,482.24,198.71Zm4.9-1.48a2.52,2.52,0,0,0,.6-1.74v-9a2.49,2.49,0,0,0-.6-1.74,2.05,2.05,0,0,0-1.6-.66,2,2,0,0,0-1.56.66,2.53,2.53,0,0,0-.59,1.74v9a2.56,2.56,0,0,0,.59,1.74,2,2,0,0,0,1.56.66A2.05,2.05,0,0,0,487.14,197.23Z"/><path class="cls-10" d="M493,199.31a1.55,1.55,0,0,1-.45-1.15A1.57,1.57,0,0,1,493,197a1.55,1.55,0,0,1,1.15-.45,1.54,1.54,0,0,1,1.6,1.6,1.55,1.55,0,0,1-.45,1.15,1.57,1.57,0,0,1-1.15.45A1.55,1.55,0,0,1,493,199.31Z"/><line class="cls-8" x1="328.84" y1="191.43" x2="86.57" y2="191.43"/><path class="cls-7" d="M905.4,233.58a15,15,0,0,0,2.76-7.52,68.37,68.37,0,0,0,.26-8.1v-.27h-2.49a10.73,10.73,0,0,0-1.88.11,5.28,5.28,0,0,0-1.77.63,4.81,4.81,0,0,0-2.16,3,5.35,5.35,0,0,0-.07,2.22h-2a12.33,12.33,0,0,1-1.28-8.6,10.7,10.7,0,0,1,2-4.28,10.35,10.35,0,0,1,3.72-2.9,20.59,20.59,0,0,1,5.86-1.53v-2.57a17.55,17.55,0,0,1,.23-3.32,9,9,0,0,1,1.2-3.09,15.4,15.4,0,0,1,4.94-4.41l8.11-5.28H908.6a8.27,8.27,0,0,1-2.8-.37,5.54,5.54,0,0,1-2.3-1.61,8.78,8.78,0,0,1-1.78-3.49,16,16,0,0,1-.52-3.9,28.27,28.27,0,0,1,1-7.81l2.21.08a5.23,5.23,0,0,0,1,2.19,5.73,5.73,0,0,0,1.84,1.55,6.86,6.86,0,0,0,2.3.72,16.29,16.29,0,0,0,2.42.13h28c4.28,0,8.66.23,12.62,1.86a23.09,23.09,0,0,1,9.84,8c4.32,6,6.15,13.53,6.57,20.92A64,64,0,0,1,966.49,227a65.13,65.13,0,0,1-4.2,10.87L936.65,252a30.43,30.43,0,0,0-38.25,2.26h-2.92a36.52,36.52,0,0,1,21.15-17.63,74.39,74.39,0,0,0,5.23-5.62,13.14,13.14,0,0,0,3.43-9.83V202.71a27.54,27.54,0,0,1,1.26-9.59,16.43,16.43,0,0,1,3.34-5.48h-3.32a14.79,14.79,0,0,0-4,5,16,16,0,0,0-1,6.42v18.46a24.42,24.42,0,0,1-.55,6,16.66,16.66,0,0,1-2.52,5.42c-3.6,5.13-9.38,8.49-15.46,10l-1-2.46A10.93,10.93,0,0,0,905.4,233.58Zm28.13-45.38a13.32,13.32,0,0,0-4.28,5.9,25.37,25.37,0,0,0-1.08,8.61v18.46a18.23,18.23,0,0,1-.86,6.24,18.61,18.61,0,0,1-3.22,5.4c-.73.91-1.5,1.78-2.29,2.63a36.42,36.42,0,0,1,11.74.16Zm2.94,20.18,16.91-8.55a20.15,20.15,0,0,0-3.86-7,14.64,14.64,0,0,0-6.19-4.24,21.15,21.15,0,0,0-6.86-.94Zm0,11.16,18.6-9.43L955,209a39.94,39.94,0,0,0-.84-6.25l-17.7,8.95Zm12.9,23A79.54,79.54,0,0,0,954,226a77.9,77.9,0,0,0,1.15-12.66l-18.66,9.46v13.4A36,36,0,0,1,949.37,242.5Z"/><path class="cls-7" d="M976.93,211.22l24.58-12.78,10.33,15.73v.49l-22.13,13.76v4.43l12.29,8.36,11.31-8.85,1.48,2.45L993.65,252,977,239.24Zm23.6,7.86-8.85-12.78-2,1.11v18.51Z"/><path class="cls-7" d="M1099.08,211.22l24.57-12.78L1134,214.17v.49l-22.12,13.76v4.43l12.29,8.36,11.3-8.85,1.48,2.45L1115.79,252l-16.7-12.78Zm23.59,7.86-8.85-12.78-2,1.11v18.51Z"/><path class="cls-7" d="M1054.81,252.51l-10.16-8.84,4.3-3.94V214.45l-7.11-6.47-4.48,2.71v29l4.42,3.93-9.83,8.85-11.8-9.34,3.94-3.44V212.49l-3.94-4.43-3.93,2.46-1.47-2,14.25-9.84,7.54,8.42,13.48-8.42,10.21,8.81,14.1-8.81,10.78,9.3,0,29.29,4.79,4.89,4.41-3.32.07,3.76-15.21,9.87L1069,243.67l4.31-3.94V214.45l-7.12-6.47-5.39,3.27v27.43l5.33,4.75Z"/><path class="cls-7" d="M1193.42,242.19l-15.24,10.32-10.32-9.34,3.44-3.44V214.45l-7.37-6.39-4.43,3.51v28.16l4.43,3.93-9.84,8.85-11.79-9.34,3.93-3.44V212.49l-3.93-4.43-3.94,2.46-1.47-2,14.26-9.84,7.89,8.82,11.28-8.82,11.61,10,1.17,2.75v26.8l4.42,3.93,4.32-2.37Z"/><path class="cls-11" d="M1034.54,293.29a4.42,4.42,0,0,1-1.24-3.29v-8.87a4.36,4.36,0,0,1,1.24-3.27,4.41,4.41,0,0,1,3.26-1.23,4.47,4.47,0,0,1,3.29,1.23,4.39,4.39,0,0,1,1.24,3.27v.4a.22.22,0,0,1-.25.25l-1.9.1a.22.22,0,0,1-.25-.25V281a2.33,2.33,0,0,0-.59-1.65,2,2,0,0,0-1.54-.63,2,2,0,0,0-1.52.63,2.33,2.33,0,0,0-.58,1.65v9.2a2.33,2.33,0,0,0,.58,1.65,2,2,0,0,0,1.52.62,2,2,0,0,0,1.54-.62,2.33,2.33,0,0,0,.59-1.65v-.65a.22.22,0,0,1,.25-.25l1.9.1a.22.22,0,0,1,.25.25V290a4.26,4.26,0,0,1-4.53,4.53A4.38,4.38,0,0,1,1034.54,293.29Z"/><path class="cls-11" d="M1048.7,294.08v-17a.22.22,0,0,1,.25-.25h1.9a.22.22,0,0,1,.25.25v15.08c0,.06,0,.09.1.09h5.6a.22.22,0,0,1,.25.25v1.58a.22.22,0,0,1-.25.25H1049A.22.22,0,0,1,1048.7,294.08Z"/><path class="cls-11" d="M1063.48,293.28a4.46,4.46,0,0,1-1.25-3.33v-8.72a4.52,4.52,0,0,1,1.25-3.34,4.43,4.43,0,0,1,3.3-1.26,4.35,4.35,0,0,1,4.6,4.6V290a4.48,4.48,0,0,1-1.27,3.33,4.53,4.53,0,0,1-3.33,1.25A4.46,4.46,0,0,1,1063.48,293.28Zm4.9-1.49a2.49,2.49,0,0,0,.6-1.74v-8.94a2.49,2.49,0,0,0-.6-1.74,2.07,2.07,0,0,0-1.6-.67,2,2,0,0,0-1.57.67,2.52,2.52,0,0,0-.58,1.74v8.94a2.52,2.52,0,0,0,.58,1.74,2,2,0,0,0,1.57.66A2.07,2.07,0,0,0,1068.38,291.79Z"/><path class="cls-11" d="M1086.55,277.08v1.58a.22.22,0,0,1-.25.25H1083c-.07,0-.11,0-.11.09v15.08a.22.22,0,0,1-.25.25h-1.89a.22.22,0,0,1-.25-.25V279c0-.06,0-.09-.11-.09h-3.09a.22.22,0,0,1-.25-.25v-1.58a.22.22,0,0,1,.25-.25h9A.22.22,0,0,1,1086.55,277.08Z"/><path class="cls-11" d="M1099.22,276.83h1.91a.22.22,0,0,1,.25.25v17a.22.22,0,0,1-.25.25h-1.91a.22.22,0,0,1-.25-.25V286.7a.08.08,0,0,0-.09-.09h-3.78c-.07,0-.1,0-.1.09v7.38a.22.22,0,0,1-.25.25h-1.9a.22.22,0,0,1-.25-.25v-17a.22.22,0,0,1,.25-.25h1.9a.22.22,0,0,1,.25.25v7.35c0,.07,0,.1.1.1h3.78c.06,0,.09,0,.09-.1v-7.35A.22.22,0,0,1,1099.22,276.83Z"/><path class="cls-11" d="M1108.22,294.08v-17a.22.22,0,0,1,.25-.25h1.91a.22.22,0,0,1,.25.25v17a.22.22,0,0,1-.25.25h-1.91A.22.22,0,0,1,1108.22,294.08Z"/><path class="cls-11" d="M1124.77,276.83h1.88a.22.22,0,0,1,.25.25v17a.22.22,0,0,1-.25.25h-2.15a.29.29,0,0,1-.28-.2L1120,282.7a.05.05,0,0,0-.07,0,.06.06,0,0,0-.05.06l0,11.35a.22.22,0,0,1-.25.25h-1.91a.22.22,0,0,1-.25-.25v-17a.22.22,0,0,1,.25-.25h2.13a.29.29,0,0,1,.28.2l4.27,11.42c0,.05,0,.08.07.07s0,0,0-.09V277.08A.22.22,0,0,1,1124.77,276.83Z"/><path class="cls-11" d="M1134.64,293.33a4.2,4.2,0,0,1-1.24-3.17V281a4.2,4.2,0,0,1,1.24-3.17,5,5,0,0,1,6.53,0,4.21,4.21,0,0,1,1.25,3.2v1.05a.22.22,0,0,1-.25.25h-1.9a.22.22,0,0,1-.25-.25V281a2.33,2.33,0,0,0-.58-1.65,2.2,2.2,0,0,0-3.08,0,2.33,2.33,0,0,0-.59,1.65v9.2a2.33,2.33,0,0,0,.59,1.65,2.22,2.22,0,0,0,3.08,0,2.33,2.33,0,0,0,.58-1.65v-2.75c0-.07,0-.1-.1-.1H1138a.22.22,0,0,1-.25-.25v-1.55a.22.22,0,0,1,.25-.25h4.15a.22.22,0,0,1,.25.25v4.63a4.17,4.17,0,0,1-1.25,3.17,5,5,0,0,1-6.53,0Z"/><line class="cls-12" x1="1019.57" y1="284.99" x2="936.81" y2="284.99"/><path class="cls-10" d="M-9.42,698l-10.79-25.49,17.27-20.88L12.35,661.9l.19.44L-2.14,683.17l1.68,4L13.8,690l6.81-12.28,2.26,1.66L10.39,702.92ZM4,670.63-8.8,662.49l-1.35,1.75,7.05,16.67Z"/><path class="cls-10" d="M63.38,687.35,52,680.74l3.41-4.58L50.7,651.89l-8-4.89-3.79,3.43,5.38,27.88,5,3-7.8,10.32-13.06-6.78,3.14-4-5.05-26.16-4.6-3.52-3.32,3.09-1.78-1.61,11.86-12.09,8.8,6.68L48.8,636.59l11.43,6.56,11.91-11.07,12,6.92,5.41,28.14,5.51,3.8,3.62-4,.76,3.6-12.77,12.3-11.4-6.61,3.4-4.58L74,647.39l-8-4.9-4.57,4.14L66.52,673l6,3.57Z"/><path class="cls-10" d="M105.3,641.12l24.14-12.3,10,15.47v.48l-21.74,13.28,0,4.33,11.95,8.27,11.13-8.56,1.42,2.41-20.8,16.66-16.2-12.24Zm23,7.88-8.55-12.56-1.93,1.06-.15,18.11Z"/><path class="cls-10" d="M195.23,683.29l-16.59,7-8.11-10.94,4-2.64,4.85-24.24-5.84-7.54-4.92,2.52-5.4,27,3.48,4.62-11.12,6.6L146,674.42l4.43-2.54,5.23-26.12-2.92-5-4.25,1.6-1-2.17L163,633.5l5.89,10,12.5-6.29,10.09,13.24-5.43,27.12,3.49,4.62,4.34-2.07Z"/><path class="cls-10" d="M219.7,695l3.75-.49.66,2.31-15.45,1.75L201.38,685l3.32-1.8,8.78-23a7.43,7.43,0,0,0,.43-1.44,3.92,3.92,0,0,0-.07-1.49,4.34,4.34,0,0,0-1.14-2,5,5,0,0,0-2-1.24l.51-1.35,21.11-9.48,1.8.68L230,654.69l11.14,4.25-6.36,3.48L228,659.84l-11,29Z"/><path class="cls-10" d="M246,671.75l27.09.55,1.49,18.34-.23.42-25.44,1.45-2.07,3.8,6.63,12.93,13.85-2.3.11,2.8-26.21,4.86-8.53-18.5Zm16.57,17.81L261,674.44l-2.2,0-8.68,15.89Z"/><path class="cls-10" d="M299.31,682l-1.83-1,11.08-14.17,8.64,47-18.4,23.43L273.49,734l-5.29-16.72,19-24.29,14.25,1.61Zm-17.68,39.09,3.82,12.38L304,709.71l-2.41-14.18Z"/><rect class="cls-13" x="101.7" y="270.87" width="5.35" height="38.78"/><rect class="cls-13" x="101.7" y="312.66" width="5.35" height="100.1"/><rect class="cls-13" x="101.7" y="415.77" width="5.35" height="3.01"/><rect class="cls-13" x="101.7" y="421.8" width="5.35" height="7.25"/><polygon class="cls-14" points="101.7 296.85 101.7 296.85 101.7 291.65 101.7 286.46 101.7 281.26 101.7 276.06 82.45 276.06 82.45 281.26 92.08 281.26 92.08 286.46 87.58 286.46 87.58 291.65 90.46 291.65 90.46 296.85 84.18 296.85 84.18 302.05 101.7 302.05 101.7 296.85"/><path class="cls-1" d="M104.38,439.9h0Z"/><path class="cls-1" d="M104.38,463.86l-.14-.17h.29Z"/><path class="cls-1" d="M104.38,439.89h0Z"/><path class="cls-1" d="M104.38,463.86l-.14-.17h.29Z"/><path class="cls-1" d="M118.41,470.32c-.6,0-1.19,0-1.78-.08a18.44,18.44,0,0,1-12.25-6.38l.15-.17h0a11.9,11.9,0,0,0-.15-23.79h0c.1-.12.21-.24.32-.35a18.43,18.43,0,0,1,4.82-3.83,6.7,6.7,0,0,1,.7-.37,18.61,18.61,0,0,1,8.19-1.92,18.45,18.45,0,1,1,0,36.9Z"/><path class="cls-1" d="M90.35,470.32a18.45,18.45,0,1,1,5.18-36.16,17.92,17.92,0,0,1,3,1.18c.26.12.51.26.75.4a18.13,18.13,0,0,1,4.77,3.8c.11.11.22.23.32.35h0a11.9,11.9,0,0,0-.14,23.79h0l.14.17a18.44,18.44,0,0,1-12.25,6.38C91.54,470.29,91,470.32,90.35,470.32Z"/><path class="cls-1" d="M104.53,463.69l-.15.17-.14-.17h.29Z"/><path class="cls-15" d="M104.38,493.16a14.73,14.73,0,0,1-12.25-22.92,18.44,18.44,0,0,0,12.25-6.38,18.44,18.44,0,0,0,12.25,6.38,14.73,14.73,0,0,1-12.25,22.92Z"/><path class="cls-1" d="M92.49,451.79a11.89,11.89,0,0,1,11.89-11.89h0a11.9,11.9,0,0,1,.14,23.79h-.28A11.89,11.89,0,0,1,92.49,451.79Z"/><path class="cls-14" d="M108.33,421.8h-7.68a1.51,1.51,0,0,1,0-3h7.68a1.51,1.51,0,0,1,1.51,1.5,1.52,1.52,0,0,1-1.51,1.51Z"/><path class="cls-16" d="M104.63,439h-.5a31.27,31.27,0,0,0-4.34-3.29,13.57,13.57,0,0,0-2.37-.93,1.58,1.58,0,0,1-.11-.58c0-.83,1.83-1,1.83-3.66a1.52,1.52,0,0,1,1.51-1.51h7.68a1.52,1.52,0,0,1,1.51,1.51c0,2.94,1.84,2.83,1.84,3.66a1.25,1.25,0,0,1-.1.51,13.52,13.52,0,0,0-2.61,1,4.51,4.51,0,0,0-.54.29A14.2,14.2,0,0,0,104.63,439Z"/><path class="cls-14" d="M108.33,415.77h-7.68a1.51,1.51,0,0,1,0-3h7.68a1.51,1.51,0,1,1,0,3Z"/><path class="cls-14" d="M108.33,312.66h-7.68a1.51,1.51,0,0,1,0-3h7.68a1.51,1.51,0,1,1,0,3Z"/><path class="cls-17" d="M499.05,731.75l-5.62-.09c-.07,0-.1,0-.1.09l-.09,5.43c0,.07,0,.1.1.1l3.45.06a.22.22,0,0,1,.24.25l0,1.58a.22.22,0,0,1-.26.24l-3.45,0a.08.08,0,0,0-.1.09l-.09,5.45c0,.07,0,.1.1.1l5.62.1a.22.22,0,0,1,.25.25l0,1.58a.22.22,0,0,1-.25.24l-7.88-.13a.22.22,0,0,1-.24-.25l.28-17a.22.22,0,0,1,.25-.25l7.88.14a.22.22,0,0,1,.25.25l0,1.57C499.31,731.67,499.22,731.75,499.05,731.75Z"/><path class="cls-17" d="M505.85,746.25a4.45,4.45,0,0,1-1.16-3.25l0-.65a.22.22,0,0,1,.25-.25l1.85,0a.22.22,0,0,1,.24.26v.52a2.78,2.78,0,0,0,.55,1.85,1.83,1.83,0,0,0,1.46.71,1.89,1.89,0,0,0,1.5-.64,2.5,2.5,0,0,0,.62-1.73,2.55,2.55,0,0,0-.29-1.28,4,4,0,0,0-.81-1c-.34-.3-.89-.73-1.64-1.31a23.44,23.44,0,0,1-2-1.66,5.94,5.94,0,0,1-1.2-1.65,4.64,4.64,0,0,1-.47-2.23,4.32,4.32,0,0,1,1.26-3.19,4.68,4.68,0,0,1,6.33.19,4.67,4.67,0,0,1,1.16,3.37V735a.22.22,0,0,1-.26.24l-1.85,0a.22.22,0,0,1-.24-.25v-.68a2.73,2.73,0,0,0-.55-1.82,1.86,1.86,0,0,0-1.48-.71,1.8,1.8,0,0,0-1.44.59,2.52,2.52,0,0,0-.58,1.7,2.64,2.64,0,0,0,.53,1.7,11.43,11.43,0,0,0,2.09,1.87c1,.77,1.73,1.39,2.23,1.86a5.24,5.24,0,0,1,1.15,1.56,4.42,4.42,0,0,1,.38,2,4.59,4.59,0,0,1-1.28,3.34,4.71,4.71,0,0,1-6.39-.08Z"/><path class="cls-17" d="M528.31,730.41l0,1.58a.22.22,0,0,1-.25.24l-3.28-.05c-.07,0-.1,0-.1.1l-.25,15.07a.21.21,0,0,1-.26.24l-1.89,0a.22.22,0,0,1-.25-.25l.25-15.07c0-.07,0-.1-.1-.1l-3.1-.06c-.17,0-.25-.08-.24-.25l0-1.58a.23.23,0,0,1,.26-.24l9,.15A.22.22,0,0,1,528.31,730.41Z"/><path class="cls-17" d="M539.6,747.63l-.51-2.89a.08.08,0,0,0,0-.07l-.09,0-4.07-.07a.12.12,0,0,0-.09,0,.07.07,0,0,0,0,.07l-.57,2.87a.24.24,0,0,1-.28.22l-1.9,0a.28.28,0,0,1-.19-.08.22.22,0,0,1,0-.2l4-16.94a.25.25,0,0,1,.28-.22l2.22,0c.17,0,.26.08.27.23l3.47,17.06v0a.2.2,0,0,1-.23.22l-2,0A.26.26,0,0,1,539.6,747.63Zm-4.3-5,3.33.06s.07,0,.07-.1l-1.55-8.91s0-.05,0-.05l-.05.05-1.82,8.85C535.23,742.65,535.25,742.68,535.3,742.68Z"/><path class="cls-17" d="M555.5,746.87a4.67,4.67,0,0,1-3.41,1.19l-4.17-.07a.22.22,0,0,1-.25-.25l.28-17a.23.23,0,0,1,.26-.25l3.82.07a5,5,0,0,1,3.54,1.24,4.46,4.46,0,0,1,1.23,3.49,3.84,3.84,0,0,1-2,3.69q-.14.07,0,.12a4.22,4.22,0,0,1,1.54,1.7,5.58,5.58,0,0,1,.52,2.56A4.73,4.73,0,0,1,555.5,746.87Zm-1.75-1.66a3.32,3.32,0,0,0,.7-2.19,3.54,3.54,0,0,0-.61-2.27,2.18,2.18,0,0,0-1.79-.84l-1.75,0a.09.09,0,0,0-.1.1l-.1,5.85a.09.09,0,0,0,.1.1l1.73,0A2.27,2.27,0,0,0,553.75,745.21Zm-3.43-12.51-.09,5.3c0,.07,0,.1.1.1l1.6,0a2.36,2.36,0,0,0,1.84-.68,2.84,2.84,0,0,0,.68-2,3,3,0,0,0-.61-2.07,2.31,2.31,0,0,0-1.82-.77l-1.6,0A.08.08,0,0,0,550.32,732.7Z"/><path class="cls-17" d="M562.82,748l.28-17c0-.17.09-.25.26-.25l1.9,0c.16,0,.24.08.24.25l-.25,15.07c0,.07,0,.1.1.1l5.6.1a.22.22,0,0,1,.24.25l0,1.58a.22.22,0,0,1-.26.24l-7.85-.13C562.9,748.24,562.82,748.16,562.82,748Z"/><path class="cls-17" d="M576.74,748.22l.28-17a.22.22,0,0,1,.26-.24l1.9,0a.22.22,0,0,1,.24.25l-.28,17a.22.22,0,0,1-.25.25l-1.9,0A.22.22,0,0,1,576.74,748.22Z"/><path class="cls-17" d="M586.62,747.6a4.39,4.39,0,0,1-1.16-3.26v-.65a.22.22,0,0,1,.25-.25l1.85,0a.23.23,0,0,1,.25.26v.52a2.76,2.76,0,0,0,.54,1.85,1.84,1.84,0,0,0,1.47.71,1.89,1.89,0,0,0,1.5-.64,2.82,2.82,0,0,0,.32-3,3.5,3.5,0,0,0-.81-1c-.34-.3-.88-.74-1.64-1.32a23.44,23.44,0,0,1-2-1.66,5.75,5.75,0,0,1-1.2-1.64,4.69,4.69,0,0,1-.46-2.23,4.34,4.34,0,0,1,1.25-3.2A4.28,4.28,0,0,1,590,731a4.22,4.22,0,0,1,3.2,1.33,4.63,4.63,0,0,1,1.15,3.37v.62a.22.22,0,0,1-.25.25l-1.85,0a.23.23,0,0,1-.25-.26v-.67a2.75,2.75,0,0,0-.54-1.83,1.88,1.88,0,0,0-1.49-.71,1.86,1.86,0,0,0-1.44.59,2.47,2.47,0,0,0-.57,1.7,2.61,2.61,0,0,0,.52,1.7,12.17,12.17,0,0,0,2.09,1.87c1,.77,1.73,1.39,2.23,1.86a5.24,5.24,0,0,1,1.15,1.56,4.34,4.34,0,0,1,.38,2,4.61,4.61,0,0,1-1.28,3.34,4.7,4.7,0,0,1-6.38-.08Z"/><path class="cls-17" d="M607.3,731.48l1.9,0a.21.21,0,0,1,.24.25l-.28,17a.22.22,0,0,1-.25.25l-1.9,0a.22.22,0,0,1-.25-.25l.12-7.37a.09.09,0,0,0-.09-.11l-3.78-.06a.09.09,0,0,0-.1.1l-.12,7.37c0,.17-.09.25-.26.25l-1.9,0c-.16,0-.24-.09-.24-.26l.28-17c0-.17.09-.25.26-.25l1.9,0c.16,0,.24.09.24.26L603,739a.09.09,0,0,0,.1.1l3.77.06c.07,0,.1,0,.1-.1l.12-7.35A.22.22,0,0,1,607.3,731.48Z"/><path class="cls-17" d="M624.24,733.83l-5.63-.09a.09.09,0,0,0-.1.1l-.09,5.42c0,.07,0,.1.1.1l3.45.06a.22.22,0,0,1,.24.26l0,1.57a.23.23,0,0,1-.26.25l-3.45-.06a.09.09,0,0,0-.1.1l-.09,5.45a.09.09,0,0,0,.1.1l5.62.09c.17,0,.25.09.25.26l0,1.57a.22.22,0,0,1-.25.25l-7.87-.13a.23.23,0,0,1-.25-.26l.28-17a.22.22,0,0,1,.26-.24l7.87.13a.22.22,0,0,1,.25.25l0,1.58A.22.22,0,0,1,624.24,733.83Z"/><path class="cls-17" d="M630.41,749.11l.28-17c0-.17.09-.25.26-.25l4.1.07a4.31,4.31,0,0,1,3.27,1.33,4.75,4.75,0,0,1,1.17,3.47l-.13,8a4.77,4.77,0,0,1-1.29,3.43,4.38,4.38,0,0,1-3.32,1.22l-4.1-.07A.23.23,0,0,1,630.41,749.11Zm2.53-1.78h1.82a1.83,1.83,0,0,0,1.54-.72,3.29,3.29,0,0,0,.63-2l.13-7.8a3.16,3.16,0,0,0-.54-2A1.82,1.82,0,0,0,635,734l-1.83,0c-.07,0-.1,0-.1.1l-.22,13.15C632.84,747.3,632.87,747.33,632.94,747.33Z"/><path class="cls-18" d="M564.86,641.61h-5.05a.44.44,0,0,0-.42.54l1.76,7.51a.44.44,0,0,0,.43.33h6.57a.42.42,0,0,0,.42-.33l1.77-7.51a.44.44,0,0,0-.43-.54Z"/><rect class="cls-1" x="557.65" y="649.99" width="14.43" height="4.51" rx="1.57"/><g class="cls-19"><path class="cls-13" d="M542.35,692.45A26.62,26.62,0,0,1,554.87,689c6.21,0,12.27,5,19.93,5,8.68,0,12.47-2.79,12.47-2.79l.11,25.67H541.59l.76-25.67"/></g><path class="cls-1" d="M569.12,666.89V654.51h-8.51v12.38a2.83,2.83,0,0,1-2.05,2.71,22.52,22.52,0,1,0,12.61,0A2.83,2.83,0,0,1,569.12,666.89Z"/><circle class="cls-20" cx="556.99" cy="698.63" r="3.51"/><circle class="cls-20" cx="565.69" cy="706.71" r="2.33"/><circle class="cls-20" cx="576.85" cy="699.73" r="2.68"/><path class="cls-11" d="M176.37,309.82V294.87a.2.2,0,0,1,.22-.22h3.61a3.82,3.82,0,0,1,2.9,1.12,4.18,4.18,0,0,1,1.08,3v7.08a4.2,4.2,0,0,1-1.08,3,3.82,3.82,0,0,1-2.9,1.12h-3.61A.2.2,0,0,1,176.37,309.82Zm2.2-1.61,1.61,0a1.61,1.61,0,0,0,1.34-.65,2.91,2.91,0,0,0,.53-1.77v-6.86a2.83,2.83,0,0,0-.51-1.78,1.63,1.63,0,0,0-1.36-.66h-1.61a.08.08,0,0,0-.09.09v11.57C178.48,308.19,178.51,308.21,178.57,308.21Z"/><path class="cls-11" d="M197,296.47h-4.95c-.05,0-.08,0-.08.09v4.77c0,.06,0,.09.08.09h3a.19.19,0,0,1,.22.22V303a.19.19,0,0,1-.22.22h-3c-.05,0-.08,0-.08.09v4.8c0,.06,0,.08.08.08H197a.2.2,0,0,1,.22.22v1.39a.19.19,0,0,1-.22.22h-6.93a.2.2,0,0,1-.22-.22V294.87a.2.2,0,0,1,.22-.22H197a.19.19,0,0,1,.22.22v1.38A.19.19,0,0,1,197,296.47Z"/><path class="cls-11" d="M209.76,294.65h1.67a.19.19,0,0,1,.22.22v14.95a.19.19,0,0,1-.22.22h-1.67a.19.19,0,0,1-.22-.22V298.91s0-.06,0-.06,0,0-.07,0l-2.11,3.94a.22.22,0,0,1-.2.15.21.21,0,0,1-.2-.15l-2.09-3.92a.1.1,0,0,0-.08,0s0,0,0,.06v10.89a.19.19,0,0,1-.22.22h-1.67a.19.19,0,0,1-.22-.22V294.87a.19.19,0,0,1,.22-.22h1.67a.34.34,0,0,1,.27.15l2.3,4.13a.1.1,0,0,0,.14,0l2.28-4.13A.29.29,0,0,1,209.76,294.65Z"/><path class="cls-11" d="M224.76,296.47h-4.95a.08.08,0,0,0-.09.09v4.77a.08.08,0,0,0,.09.09h3a.19.19,0,0,1,.22.22V303a.19.19,0,0,1-.22.22h-3a.08.08,0,0,0-.09.09v4.8c0,.06,0,.08.09.08h4.95a.2.2,0,0,1,.22.22v1.39a.2.2,0,0,1-.22.22h-6.93a.19.19,0,0,1-.22-.22V294.87a.19.19,0,0,1,.22-.22h6.93a.2.2,0,0,1,.22.22v1.38A.2.2,0,0,1,224.76,296.47Z"/><path class="cls-11" d="M236.83,294.65h1.65a.19.19,0,0,1,.22.22v14.95a.19.19,0,0,1-.22.22h-1.89a.24.24,0,0,1-.24-.18l-3.74-10.05s0,0-.07,0a.05.05,0,0,0,0,.06l0,10a.19.19,0,0,1-.22.22h-1.67a.19.19,0,0,1-.22-.22V294.87a.19.19,0,0,1,.22-.22h1.87a.23.23,0,0,1,.24.17l3.76,10.05a.06.06,0,0,0,.07.06s0,0,0-.08v-10A.19.19,0,0,1,236.83,294.65Z"/><path class="cls-11" d="M252.36,294.87v1.38a.2.2,0,0,1-.22.22h-2.88a.08.08,0,0,0-.09.09v13.26a.2.2,0,0,1-.22.22h-1.67a.19.19,0,0,1-.22-.22V296.56a.08.08,0,0,0-.09-.09h-2.73a.19.19,0,0,1-.22-.22v-1.38a.19.19,0,0,1,.22-.22h7.9A.2.2,0,0,1,252.36,294.87Z"/><path class="cls-11" d="M264.83,296.47h-4.95a.08.08,0,0,0-.09.09v4.77a.08.08,0,0,0,.09.09h3a.19.19,0,0,1,.22.22V303a.19.19,0,0,1-.22.22h-3a.08.08,0,0,0-.09.09v4.8c0,.06,0,.08.09.08h4.95a.19.19,0,0,1,.21.22v1.39c0,.15-.07.22-.21.22H257.9a.19.19,0,0,1-.22-.22V294.87a.19.19,0,0,1,.22-.22h6.93c.14,0,.21.07.21.22v1.38C265,296.4,265,296.47,264.83,296.47Z"/><path class="cls-11" d="M270.48,309.82V294.87a.19.19,0,0,1,.22-.22h3.6a3.84,3.84,0,0,1,2.91,1.12,4.18,4.18,0,0,1,1.08,3v7.08a4.2,4.2,0,0,1-1.08,3A3.84,3.84,0,0,1,274.3,310h-3.6A.19.19,0,0,1,270.48,309.82Zm2.2-1.61,1.6,0a1.58,1.58,0,0,0,1.34-.65,2.85,2.85,0,0,0,.53-1.77v-6.86a2.89,2.89,0,0,0-.5-1.78,1.65,1.65,0,0,0-1.37-.66h-1.6a.08.08,0,0,0-.09.09v11.57C272.59,308.19,272.62,308.21,272.68,308.21Z"/><path class="cls-11" d="M291.06,304v-1.38a.19.19,0,0,1,.22-.22h5.32a.19.19,0,0,1,.22.22V304a.19.19,0,0,1-.22.22h-5.32A.19.19,0,0,1,291.06,304Z"/><path class="cls-11" d="M310.55,312.08A15.88,15.88,0,0,1,309,308a23.63,23.63,0,0,1,0-10.45,15.7,15.7,0,0,1,1.56-4.12.28.28,0,0,1,.26-.16h1.61a.21.21,0,0,1,.17.08.21.21,0,0,1,0,.19,21.35,21.35,0,0,0-1.31,4.19,23.52,23.52,0,0,0-.52,5.06,23.17,23.17,0,0,0,.52,5,21.14,21.14,0,0,0,1.31,4.15l0,.08c0,.12-.07.18-.2.18h-1.65A.27.27,0,0,1,310.55,312.08Z"/><path class="cls-11" d="M324.49,309.84l-.48-2.53a.05.05,0,0,0,0-.06.09.09,0,0,0-.07,0h-3.59a.13.13,0,0,0-.08,0,.06.06,0,0,0,0,.06l-.46,2.53a.22.22,0,0,1-.24.2h-1.67a.19.19,0,0,1-.17-.07.19.19,0,0,1,0-.17l3.28-15a.22.22,0,0,1,.24-.19h2c.15,0,.23.06.25.19l3.29,15v0c0,.13-.06.2-.19.2h-1.72A.23.23,0,0,1,324.49,309.84Zm-3.85-4.29h2.93s.06,0,.06-.08l-1.49-7.81s0-.05-.05-.05,0,0,0,.05l-1.47,7.81S320.6,305.55,320.64,305.55Z"/><path class="cls-11" d="M331.59,309.82V294.87a.2.2,0,0,1,.22-.22h3.61a3.82,3.82,0,0,1,2.9,1.12,4.18,4.18,0,0,1,1.08,3v7.08a4.2,4.2,0,0,1-1.08,3,3.82,3.82,0,0,1-2.9,1.12h-3.61A.2.2,0,0,1,331.59,309.82Zm2.2-1.61,1.61,0a1.6,1.6,0,0,0,1.34-.65,2.91,2.91,0,0,0,.53-1.77v-6.86a2.83,2.83,0,0,0-.51-1.78,1.63,1.63,0,0,0-1.36-.66h-1.61a.08.08,0,0,0-.09.09v11.57C333.7,308.19,333.73,308.21,333.79,308.21Z"/><path class="cls-11" d="M345.33,309.15a3.8,3.8,0,0,1-1.07-2.8v-1.74a.19.19,0,0,1,.22-.22h1.67a.19.19,0,0,1,.22.22v1.78a2.08,2.08,0,0,0,.5,1.44,1.75,1.75,0,0,0,2.57,0,2.08,2.08,0,0,0,.49-1.44V294.87a.2.2,0,0,1,.22-.22h1.68a.2.2,0,0,1,.22.22v11.48a4,4,0,0,1-6.72,2.8Z"/><path class="cls-11" d="M357.68,309.64a1.48,1.48,0,0,1,0-2,1.43,1.43,0,0,1,2,2,1.48,1.48,0,0,1-2,0Z"/><path class="cls-11" d="M367.71,293.44a15.77,15.77,0,0,1,1.52,4.09,21.86,21.86,0,0,1,.59,5.16,22.09,22.09,0,0,1-.6,5.27,15,15,0,0,1-1.56,4.12.28.28,0,0,1-.26.16h-1.63a.21.21,0,0,1-.17-.08.19.19,0,0,1,0-.18,21.69,21.69,0,0,0,1.32-4.18,23.08,23.08,0,0,0,.53-5.08,22.65,22.65,0,0,0-.53-5,21.14,21.14,0,0,0-1.32-4.13l0-.09c0-.12.07-.18.2-.18h1.67A.29.29,0,0,1,367.71,293.44Z"/><path class="cls-11" d="M176.37,336.21V321.26a.2.2,0,0,1,.22-.22h3.61a3.82,3.82,0,0,1,2.9,1.12,4.19,4.19,0,0,1,1.08,3v7.08a4.2,4.2,0,0,1-1.08,3,3.82,3.82,0,0,1-2.9,1.12h-3.61A.2.2,0,0,1,176.37,336.21Zm2.2-1.6,1.61,0a1.61,1.61,0,0,0,1.34-.65,2.91,2.91,0,0,0,.53-1.77V325.3a2.83,2.83,0,0,0-.51-1.78,1.63,1.63,0,0,0-1.36-.66h-1.61a.08.08,0,0,0-.09.09v11.57A.08.08,0,0,0,178.57,334.61Z"/><path class="cls-11" d="M195.84,336.25l-2-6.55a.09.09,0,0,0-.09-.07h-1.53a.08.08,0,0,0-.09.09v6.49a.2.2,0,0,1-.22.22h-1.67a.19.19,0,0,1-.22-.22V321.26a.19.19,0,0,1,.22-.22h3.93a3.52,3.52,0,0,1,3.31,2.1,5.15,5.15,0,0,1,.48,2.27,4.86,4.86,0,0,1-.58,2.41,3.38,3.38,0,0,1-1.56,1.48c0,.05-.06.09,0,.14l2.24,6.75,0,.09c0,.1-.06.15-.19.15H196.1A.25.25,0,0,1,195.84,336.25ZM192.1,323v4.93c0,.05,0,.08.09.08h1.62a1.75,1.75,0,0,0,1.45-.69,2.84,2.84,0,0,0,.55-1.84,2.94,2.94,0,0,0-.55-1.88,1.75,1.75,0,0,0-1.45-.69h-1.62A.08.08,0,0,0,192.1,323Z"/><path class="cls-11" d="M203.25,336.21V321.26a.19.19,0,0,1,.22-.22h1.67a.19.19,0,0,1,.22.22v14.95a.19.19,0,0,1-.22.22h-1.67A.19.19,0,0,1,203.25,336.21Z"/><path class="cls-11" d="M213.87,336.23l-3.17-15v0c0-.13.07-.19.2-.19h1.83a.21.21,0,0,1,.24.19l2.09,11.42s0,0,0,0,0,0,0,0l2.05-11.42a.22.22,0,0,1,.24-.19h1.76c.16,0,.23.08.2.24l-3.17,15c0,.13-.09.2-.24.2h-1.87A.23.23,0,0,1,213.87,336.23Z"/><path class="cls-11" d="M231.88,322.86h-4.95a.08.08,0,0,0-.09.09v4.77a.08.08,0,0,0,.09.09h3a.2.2,0,0,1,.22.22v1.38a.2.2,0,0,1-.22.22h-3a.08.08,0,0,0-.09.09v4.8a.08.08,0,0,0,.09.09h4.95a.19.19,0,0,1,.22.22v1.38a.19.19,0,0,1-.22.22H225a.2.2,0,0,1-.22-.22V321.26A.2.2,0,0,1,225,321h6.93a.19.19,0,0,1,.22.22v1.38A.19.19,0,0,1,231.88,322.86Z"/><path class="cls-11" d="M244,321h1.65a.19.19,0,0,1,.22.22v14.95a.19.19,0,0,1-.22.22h-1.89a.24.24,0,0,1-.24-.18l-3.74-10.05a0,0,0,0,0-.06,0,.06.06,0,0,0,0,.06l0,10a.19.19,0,0,1-.22.22h-1.67a.2.2,0,0,1-.22-.22V321.26a.2.2,0,0,1,.22-.22h1.87a.23.23,0,0,1,.24.17l3.77,10.05q0,.08.06.06s0,0,0-.08v-10A.2.2,0,0,1,244,321Z"/><path class="cls-11" d="M267.18,321.26v1.38a.2.2,0,0,1-.22.22h-2.88a.08.08,0,0,0-.09.09v13.26a.19.19,0,0,1-.22.22H262.1a.19.19,0,0,1-.22-.22V323a.08.08,0,0,0-.09-.09h-2.73a.2.2,0,0,1-.22-.22v-1.38a.2.2,0,0,1,.22-.22H267A.2.2,0,0,1,267.18,321.26Z"/><path class="cls-11" d="M272.7,335.51a3.94,3.94,0,0,1-1.1-2.93v-7.67a4,4,0,0,1,1.1-2.94,3.9,3.9,0,0,1,2.9-1.11,3.82,3.82,0,0,1,4,4.05v7.67a4,4,0,0,1-1.11,2.93,4,4,0,0,1-2.94,1.1A3.93,3.93,0,0,1,272.7,335.51ZM277,334.2a2.21,2.21,0,0,0,.53-1.53V324.8a2.21,2.21,0,0,0-.53-1.53,1.8,1.8,0,0,0-1.41-.58,1.73,1.73,0,0,0-1.37.58,2.2,2.2,0,0,0-.52,1.53v7.87a2.2,2.2,0,0,0,.52,1.53,1.73,1.73,0,0,0,1.37.58A1.8,1.8,0,0,0,277,334.2Z"/><path class="cls-11" d="M299.94,335.33a4.12,4.12,0,0,1-3,1.1h-3.68a.2.2,0,0,1-.22-.22V321.26a.2.2,0,0,1,.22-.22h3.37a4.42,4.42,0,0,1,3.13,1,3.93,3.93,0,0,1,1.13,3.05,3.37,3.37,0,0,1-1.69,3.27c-.07.05-.08.08,0,.11a3.69,3.69,0,0,1,1.37,1.48,4.78,4.78,0,0,1,.5,2.24A4.14,4.14,0,0,1,299.94,335.33ZM295.17,323v4.66a.08.08,0,0,0,.09.09h1.41a2.08,2.08,0,0,0,1.61-.63,2.49,2.49,0,0,0,.57-1.75,2.65,2.65,0,0,0-.57-1.81,2.06,2.06,0,0,0-1.61-.65h-1.41A.08.08,0,0,0,295.17,323Zm3.2,10.95A2.87,2.87,0,0,0,299,332a3,3,0,0,0-.58-2,1.89,1.89,0,0,0-1.58-.72h-1.54a.08.08,0,0,0-.09.09v5.14a.08.08,0,0,0,.09.09h1.52A2,2,0,0,0,298.37,333.9Z"/><path class="cls-11" d="M313.41,322.86h-5a.08.08,0,0,0-.09.09v4.77a.08.08,0,0,0,.09.09h3a.19.19,0,0,1,.22.22v1.38a.19.19,0,0,1-.22.22h-3a.08.08,0,0,0-.09.09v4.8a.08.08,0,0,0,.09.09h5a.2.2,0,0,1,.22.22v1.38a.2.2,0,0,1-.22.22h-6.93a.19.19,0,0,1-.22-.22V321.26a.19.19,0,0,1,.22-.22h6.93a.2.2,0,0,1,.22.22v1.38A.2.2,0,0,1,313.41,322.86Z"/><path class="cls-11" d="M324.88,321h1.68a.2.2,0,0,1,.22.22v14.95a.2.2,0,0,1-.22.22h-1.68c-.14,0-.21-.07-.21-.22v-6.49a.08.08,0,0,0-.09-.09h-3.32a.08.08,0,0,0-.09.09v6.49a.19.19,0,0,1-.22.22h-1.67a.19.19,0,0,1-.22-.22V321.26a.19.19,0,0,1,.22-.22H321a.19.19,0,0,1,.22.22v6.46a.08.08,0,0,0,.09.09h3.32a.08.08,0,0,0,.09-.09v-6.46C324.67,321.11,324.74,321,324.88,321Z"/><path class="cls-11" d="M338.59,336.23l-.49-2.53a.06.06,0,0,0,0-.06.11.11,0,0,0-.08,0h-3.58a.11.11,0,0,0-.08,0,.06.06,0,0,0,0,.06l-.46,2.53a.22.22,0,0,1-.25.2h-1.67a.18.18,0,0,1-.16-.07.19.19,0,0,1,0-.17l3.28-15a.22.22,0,0,1,.24-.19h2c.15,0,.23.06.24.19l3.3,15v0a.18.18,0,0,1-.2.2h-1.71A.23.23,0,0,1,338.59,336.23Zm-3.85-4.29h2.92s.07,0,.07-.08l-1.5-7.81s0-.05,0-.05,0,0,0,.05l-1.48,7.81C334.67,331.91,334.69,331.94,334.74,331.94Z"/><path class="cls-11" d="M346.79,336.23l-3.17-15v0c0-.13.07-.19.2-.19h1.83a.21.21,0,0,1,.24.19L348,332.65s0,0,0,0,0,0,0,0l2.05-11.42a.22.22,0,0,1,.24-.19h1.76c.16,0,.23.08.2.24l-3.17,15c0,.13-.09.2-.24.2H347A.23.23,0,0,1,346.79,336.23Z"/><path class="cls-11" d="M364.8,322.86h-4.95a.08.08,0,0,0-.09.09v4.77a.08.08,0,0,0,.09.09h3a.2.2,0,0,1,.22.22v1.38a.2.2,0,0,1-.22.22h-3a.08.08,0,0,0-.09.09v4.8a.08.08,0,0,0,.09.09h4.95a.19.19,0,0,1,.22.22v1.38a.19.19,0,0,1-.22.22h-6.93a.2.2,0,0,1-.22-.22V321.26a.2.2,0,0,1,.22-.22h6.93a.19.19,0,0,1,.22.22v1.38A.19.19,0,0,1,364.8,322.86Z"/><path class="cls-11" d="M378.15,336.21V321.26a.19.19,0,0,1,.22-.22H380a.19.19,0,0,1,.22.22v14.95a.19.19,0,0,1-.22.22h-1.67A.19.19,0,0,1,378.15,336.21Z"/><path class="cls-11" d="M392.14,336.25l-2-6.55a.08.08,0,0,0-.08-.07h-1.54a.08.08,0,0,0-.09.09v6.49a.2.2,0,0,1-.22.22h-1.67a.19.19,0,0,1-.22-.22V321.26a.19.19,0,0,1,.22-.22h3.93a3.52,3.52,0,0,1,3.31,2.1,5.15,5.15,0,0,1,.48,2.27,4.75,4.75,0,0,1-.58,2.41,3.38,3.38,0,0,1-1.56,1.48c0,.05-.06.09,0,.14l2.24,6.75,0,.09c0,.1-.06.15-.19.15H392.4A.25.25,0,0,1,392.14,336.25ZM388.4,323v4.93c0,.05,0,.08.09.08h1.62a1.75,1.75,0,0,0,1.45-.69,2.84,2.84,0,0,0,.56-1.84,2.94,2.94,0,0,0-.56-1.88,1.75,1.75,0,0,0-1.45-.69h-1.62A.08.08,0,0,0,388.4,323Z"/><path class="cls-11" d="M405.4,336.25l-2-6.55a.08.08,0,0,0-.08-.07h-1.54a.08.08,0,0,0-.09.09v6.49a.19.19,0,0,1-.22.22h-1.67a.19.19,0,0,1-.22-.22V321.26a.19.19,0,0,1,.22-.22h3.93a3.55,3.55,0,0,1,2,.55,3.49,3.49,0,0,1,1.33,1.55,5.15,5.15,0,0,1,.48,2.27,4.85,4.85,0,0,1-.57,2.41,3.45,3.45,0,0,1-1.57,1.48c0,.05-.06.09,0,.14l2.24,6.75,0,.09c0,.1-.06.15-.19.15h-1.72A.25.25,0,0,1,405.4,336.25ZM401.66,323v4.93c0,.05,0,.08.09.08h1.62a1.79,1.79,0,0,0,1.46-.69,2.9,2.9,0,0,0,.55-1.84,3,3,0,0,0-.55-1.88,1.79,1.79,0,0,0-1.46-.69h-1.62A.08.08,0,0,0,401.66,323Z"/><path class="cls-11" d="M418.81,336.23l-.48-2.53a.06.06,0,0,0,0-.06.12.12,0,0,0-.08,0h-3.59a.08.08,0,0,0-.07,0,.07.07,0,0,0,0,.06l-.46,2.53c0,.13-.09.2-.24.2h-1.67a.21.21,0,0,1-.17-.07.23.23,0,0,1,0-.17l3.28-15a.22.22,0,0,1,.24-.19h2a.21.21,0,0,1,.24.19l3.3,15v0a.18.18,0,0,1-.2.2h-1.72A.23.23,0,0,1,418.81,336.23ZM415,331.94h2.93a.07.07,0,0,0,.07-.08l-1.5-7.81s0-.05,0-.05,0,0-.05.05l-1.47,7.81C414.9,331.91,414.92,331.94,415,331.94Z"/><path class="cls-11" d="M432.23,321.26v1.38a.2.2,0,0,1-.22.22h-2.88a.08.08,0,0,0-.09.09v13.26a.2.2,0,0,1-.22.22h-1.67a.19.19,0,0,1-.22-.22V323a.08.08,0,0,0-.09-.09h-2.73a.2.2,0,0,1-.22-.22v-1.38a.2.2,0,0,1,.22-.22H432A.2.2,0,0,1,432.23,321.26Z"/><path class="cls-11" d="M437.55,336.21V321.26a.19.19,0,0,1,.22-.22h1.67a.19.19,0,0,1,.22.22v14.95a.19.19,0,0,1-.22.22h-1.67A.19.19,0,0,1,437.55,336.21Z"/><path class="cls-11" d="M446.48,335.51a3.94,3.94,0,0,1-1.1-2.93v-7.67a4,4,0,0,1,1.1-2.94,3.9,3.9,0,0,1,2.9-1.11,3.82,3.82,0,0,1,4.05,4.05v7.67a4,4,0,0,1-1.11,2.93,4,4,0,0,1-2.94,1.1A3.93,3.93,0,0,1,446.48,335.51Zm4.31-1.31a2.21,2.21,0,0,0,.53-1.53V324.8a2.21,2.21,0,0,0-.53-1.53,1.8,1.8,0,0,0-1.41-.58,1.73,1.73,0,0,0-1.37.58,2.2,2.2,0,0,0-.52,1.53v7.87a2.2,2.2,0,0,0,.52,1.53,1.73,1.73,0,0,0,1.37.58A1.8,1.8,0,0,0,450.79,334.2Z"/><path class="cls-11" d="M465.57,321h1.65a.2.2,0,0,1,.22.22v14.95a.2.2,0,0,1-.22.22h-1.89a.25.25,0,0,1-.25-.18l-3.73-10.05s0,0-.07,0a.06.06,0,0,0,0,.06l0,10a.2.2,0,0,1-.22.22h-1.67a.19.19,0,0,1-.22-.22V321.26a.19.19,0,0,1,.22-.22h1.86a.25.25,0,0,1,.25.17l3.76,10.05q0,.08.06.06a.08.08,0,0,0,.05-.08v-10A.19.19,0,0,1,465.57,321Z"/><path class="cls-11" d="M479.25,336.23l-.49-2.53a.06.06,0,0,0,0-.06.11.11,0,0,0-.08,0h-3.58a.11.11,0,0,0-.08,0,.06.06,0,0,0,0,.06l-.46,2.53a.22.22,0,0,1-.25.2h-1.67a.19.19,0,0,1-.16-.07.19.19,0,0,1,0-.17l3.28-15a.22.22,0,0,1,.24-.19h2c.15,0,.23.06.24.19l3.3,15v0a.18.18,0,0,1-.2.2h-1.71A.23.23,0,0,1,479.25,336.23Zm-3.85-4.29h2.92c.05,0,.07,0,.07-.08l-1.5-7.81s0-.05,0-.05,0,0,0,.05l-1.48,7.81C475.33,331.91,475.35,331.94,475.4,331.94Z"/><path class="cls-11" d="M486.35,336.21V321.26a.19.19,0,0,1,.22-.22h1.67a.19.19,0,0,1,.22.22v13.26a.08.08,0,0,0,.09.09h4.92c.15,0,.23.07.23.22v1.38c0,.15-.08.22-.23.22h-6.9A.19.19,0,0,1,486.35,336.21Z"/><path class="cls-11" d="M498.6,336.21V321.26a.19.19,0,0,1,.22-.22h1.67a.19.19,0,0,1,.22.22v13.26a.08.08,0,0,0,.09.09h4.92c.15,0,.23.07.23.22v1.38c0,.15-.08.22-.23.22h-6.9A.19.19,0,0,1,498.6,336.21Z"/><path class="cls-11" d="M512.65,336.19V329.9l0-.11-3.06-8.51,0-.09c0-.1.07-.15.2-.15h1.76a.24.24,0,0,1,.26.17l1.87,6.07s0,.05.07.05a.06.06,0,0,0,.06-.05l1.87-6.07a.26.26,0,0,1,.27-.17h1.76c.16,0,.22.08.17.24l-3.05,8.51,0,.11v6.29a.19.19,0,0,1-.22.22h-1.67A.2.2,0,0,1,512.65,336.19Z"/><path class="cls-11" d="M176.37,362.6v-15a.2.2,0,0,1,.22-.22h3.61a3.82,3.82,0,0,1,2.9,1.12,4.19,4.19,0,0,1,1.08,3v7.08a4.2,4.2,0,0,1-1.08,3,3.82,3.82,0,0,1-2.9,1.12h-3.61A.2.2,0,0,1,176.37,362.6Zm2.2-1.6,1.61,0a1.63,1.63,0,0,0,1.34-.64,3,3,0,0,0,.53-1.78v-6.86a2.85,2.85,0,0,0-.51-1.78,1.63,1.63,0,0,0-1.36-.66h-1.61a.08.08,0,0,0-.09.09v11.57A.08.08,0,0,0,178.57,361Z"/><path class="cls-11" d="M191,361.8a4.54,4.54,0,0,1-1.08-3.16v-11a.19.19,0,0,1,.22-.22h1.67a.2.2,0,0,1,.22.22v11.21a2.58,2.58,0,0,0,.51,1.67,1.78,1.78,0,0,0,2.73,0,2.53,2.53,0,0,0,.52-1.67V347.65a.19.19,0,0,1,.22-.22h1.67a.19.19,0,0,1,.22.22v11a4.5,4.5,0,0,1-1.1,3.16,4.1,4.1,0,0,1-5.8,0Z"/><path class="cls-11" d="M210.68,349.25h-5a.08.08,0,0,0-.09.09v4.77a.08.08,0,0,0,.09.09h3a.2.2,0,0,1,.22.22v1.39a.2.2,0,0,1-.22.22h-3c-.06,0-.09,0-.09.08v4.8a.08.08,0,0,0,.09.09h5a.19.19,0,0,1,.22.22v1.38a.19.19,0,0,1-.22.22h-6.93a.2.2,0,0,1-.22-.22v-15a.2.2,0,0,1,.22-.22h6.93a.19.19,0,0,1,.22.22V349A.19.19,0,0,1,210.68,349.25Z"/><path class="cls-11" d="M231.66,347.65V349a.19.19,0,0,1-.22.22h-2.88a.08.08,0,0,0-.09.09V362.6a.19.19,0,0,1-.22.22h-1.67a.19.19,0,0,1-.22-.22V349.34a.08.08,0,0,0-.09-.09h-2.72a.19.19,0,0,1-.22-.22v-1.38a.19.19,0,0,1,.22-.22h7.89A.19.19,0,0,1,231.66,347.65Z"/><path class="cls-11" d="M237.18,361.9a4,4,0,0,1-1.1-2.93V351.3a4,4,0,0,1,1.1-2.94,3.9,3.9,0,0,1,2.9-1.11,3.82,3.82,0,0,1,4,4.05V359A4,4,0,0,1,243,361.9a4,4,0,0,1-2.94,1.1A3.93,3.93,0,0,1,237.18,361.9Zm4.31-1.31a2.21,2.21,0,0,0,.53-1.53v-7.87a2.21,2.21,0,0,0-.53-1.53,1.8,1.8,0,0,0-1.41-.58,1.73,1.73,0,0,0-1.37.58,2.25,2.25,0,0,0-.52,1.53v7.87a2.25,2.25,0,0,0,.52,1.53,1.73,1.73,0,0,0,1.37.58A1.8,1.8,0,0,0,241.49,360.59Z"/><path class="cls-11" d="M263.33,362.62l-.48-2.53a.06.06,0,0,0,0-.06.08.08,0,0,0-.07,0h-3.59a.12.12,0,0,0-.08,0,.07.07,0,0,0,0,.06l-.46,2.53a.22.22,0,0,1-.24.2h-1.67a.19.19,0,0,1-.17-.07.17.17,0,0,1,0-.17l3.28-15a.22.22,0,0,1,.24-.19h2a.21.21,0,0,1,.24.19l3.3,15v0a.18.18,0,0,1-.2.2h-1.72A.23.23,0,0,1,263.33,362.62Zm-3.85-4.29h2.93s.06,0,.06-.08L261,350.44s0,0-.05,0,0,0,0,0l-1.47,7.81C259.42,358.31,259.44,358.33,259.48,358.33Z"/><path class="cls-11" d="M276.86,347.43h1.64a.19.19,0,0,1,.22.22v15a.19.19,0,0,1-.22.22h-1.89a.25.25,0,0,1-.24-.17l-3.74-10.06a0,0,0,0,0-.06,0,.06.06,0,0,0-.05.06l0,10a.19.19,0,0,1-.22.22h-1.67a.2.2,0,0,1-.22-.22v-15a.2.2,0,0,1,.22-.22h1.87a.24.24,0,0,1,.24.17l3.77,10q0,.08.06.06s0,0,0-.08v-10C276.63,347.5,276.71,347.43,276.86,347.43Z"/><path class="cls-11" d="M285.53,361.94a3.68,3.68,0,0,1-1.09-2.79v-8a3.68,3.68,0,0,1,1.09-2.79,4.43,4.43,0,0,1,5.75,0,3.68,3.68,0,0,1,1.1,2.81V352a.19.19,0,0,1-.22.22h-1.67a.19.19,0,0,1-.22-.22v-1a2,2,0,0,0-.52-1.45,1.93,1.93,0,0,0-2.7,0,2,2,0,0,0-.52,1.45v8.09a2,2,0,0,0,.52,1.45,1.93,1.93,0,0,0,2.7,0,2,2,0,0,0,.52-1.45v-2.42a.08.08,0,0,0-.09-.09h-1.67a.19.19,0,0,1-.22-.22v-1.36a.19.19,0,0,1,.22-.22h3.65a.19.19,0,0,1,.22.22v4.07a3.65,3.65,0,0,1-1.1,2.79,4.43,4.43,0,0,1-5.75,0Z"/><path class="cls-11" d="M305.25,349.25H300.3a.08.08,0,0,0-.09.09v4.77a.08.08,0,0,0,.09.09h3a.19.19,0,0,1,.22.22v1.39a.2.2,0,0,1-.22.22h-3c-.06,0-.09,0-.09.08v4.8a.08.08,0,0,0,.09.09h4.95a.2.2,0,0,1,.22.22v1.38a.2.2,0,0,1-.22.22h-6.93a.19.19,0,0,1-.22-.22v-15a.19.19,0,0,1,.22-.22h6.93a.2.2,0,0,1,.22.22V349A.2.2,0,0,1,305.25,349.25Z"/><path class="cls-11" d="M316.75,362.65l-2-6.56a.08.08,0,0,0-.08-.06H313.1c-.06,0-.09,0-.09.08v6.49a.19.19,0,0,1-.22.22h-1.67a.19.19,0,0,1-.22-.22v-15a.19.19,0,0,1,.22-.22h3.93a3.52,3.52,0,0,1,3.32,2.1,5.29,5.29,0,0,1,.47,2.27,4.85,4.85,0,0,1-.57,2.41,3.55,3.55,0,0,1-1.56,1.49.12.12,0,0,0,0,.13l2.24,6.75,0,.09c0,.1-.07.15-.2.15H317A.25.25,0,0,1,316.75,362.65ZM313,349.34v4.93c0,.06,0,.08.09.08h1.62a1.77,1.77,0,0,0,1.46-.69,2.89,2.89,0,0,0,.55-1.83,3,3,0,0,0-.55-1.89,1.77,1.77,0,0,0-1.46-.69H313.1A.08.08,0,0,0,313,349.34Z"/><path class="cls-11" d="M323.61,364.64a.18.18,0,0,1,0-.17l.63-4.88a.21.21,0,0,1,.22-.2h1.46c.16,0,.22.08.19.24L325,364.51a.21.21,0,0,1-.24.2h-1A.21.21,0,0,1,323.61,364.64Z"/><path class="cls-11" d="M339.31,362.6v-15a.19.19,0,0,1,.22-.22h3.61a3.82,3.82,0,0,1,2.9,1.12,4.19,4.19,0,0,1,1.08,3v7.08a4.2,4.2,0,0,1-1.08,3,3.82,3.82,0,0,1-2.9,1.12h-3.61A.19.19,0,0,1,339.31,362.6Zm2.2-1.6,1.61,0a1.63,1.63,0,0,0,1.34-.64,3,3,0,0,0,.53-1.78v-6.86a2.85,2.85,0,0,0-.51-1.78,1.63,1.63,0,0,0-1.36-.66h-1.61a.08.08,0,0,0-.09.09v11.57A.08.08,0,0,0,341.51,361Z"/><path class="cls-11" d="M352.93,362.6v-15a.19.19,0,0,1,.22-.22h1.67a.2.2,0,0,1,.22.22v15a.2.2,0,0,1-.22.22h-1.67A.19.19,0,0,1,352.93,362.6Z"/><path class="cls-11" d="M361.6,361.91a3.91,3.91,0,0,1-1.06-2.85v-.57c0-.15.07-.22.21-.22h1.63a.19.19,0,0,1,.22.22V359a2.46,2.46,0,0,0,.51,1.62,1.63,1.63,0,0,0,1.3.6,1.65,1.65,0,0,0,1.3-.58,2.2,2.2,0,0,0,.52-1.53,2.26,2.26,0,0,0-.27-1.12,3.52,3.52,0,0,0-.73-.87c-.3-.26-.79-.63-1.46-1.13a22.2,22.2,0,0,1-1.76-1.43,5.18,5.18,0,0,1-1.08-1.43,4.2,4.2,0,0,1-.44-2,3.61,3.61,0,0,1,3.8-3.87,3.71,3.71,0,0,1,2.83,1.12,4.11,4.11,0,0,1,1.07,2.95v.55a.2.2,0,0,1-.22.22h-1.63a.19.19,0,0,1-.22-.22v-.59a2.45,2.45,0,0,0-.5-1.6,1.66,1.66,0,0,0-1.33-.6,1.6,1.6,0,0,0-1.25.54,2.16,2.16,0,0,0-.48,1.5,2.34,2.34,0,0,0,.48,1.49,10.5,10.5,0,0,0,1.87,1.61c.88.66,1.54,1.2,2,1.61a4.71,4.71,0,0,1,1,1.35,3.93,3.93,0,0,1,.36,1.75,4.07,4.07,0,0,1-1.08,3,4.14,4.14,0,0,1-5.62,0Z"/><path class="cls-11" d="M381.12,347.65V349a.19.19,0,0,1-.22.22H378a.08.08,0,0,0-.09.09V362.6a.19.19,0,0,1-.22.22H376a.19.19,0,0,1-.22-.22V349.34a.08.08,0,0,0-.09-.09H373a.2.2,0,0,1-.22-.22v-1.38a.2.2,0,0,1,.22-.22h7.9A.19.19,0,0,1,381.12,347.65Z"/><path class="cls-11" d="M392.29,362.65l-2-6.56a.1.1,0,0,0-.09-.06h-1.54c-.06,0-.09,0-.09.08v6.49a.19.19,0,0,1-.22.22h-1.67a.19.19,0,0,1-.22-.22v-15a.19.19,0,0,1,.22-.22h3.94a3.55,3.55,0,0,1,2,.55,3.62,3.62,0,0,1,1.33,1.55,5.29,5.29,0,0,1,.47,2.27,4.85,4.85,0,0,1-.57,2.41,3.45,3.45,0,0,1-1.56,1.49.12.12,0,0,0-.05.13l2.25,6.75,0,.09c0,.1-.07.15-.2.15h-1.72A.26.26,0,0,1,392.29,362.65Zm-3.74-13.31v4.93c0,.06,0,.08.09.08h1.63a1.77,1.77,0,0,0,1.45-.69,2.83,2.83,0,0,0,.55-1.83,3,3,0,0,0-.55-1.89,1.77,1.77,0,0,0-1.45-.69h-1.63A.08.08,0,0,0,388.55,349.34Z"/><path class="cls-11" d="M406.85,349.25h-5a.08.08,0,0,0-.09.09v4.77a.08.08,0,0,0,.09.09h3a.2.2,0,0,1,.22.22v1.39a.2.2,0,0,1-.22.22h-3c-.06,0-.09,0-.09.08v4.8a.08.08,0,0,0,.09.09h5a.19.19,0,0,1,.22.22v1.38a.19.19,0,0,1-.22.22h-6.93a.2.2,0,0,1-.22-.22v-15a.2.2,0,0,1,.22-.22h6.93a.19.19,0,0,1,.22.22V349A.19.19,0,0,1,406.85,349.25Z"/><path class="cls-11" d="M413,361.91a3.92,3.92,0,0,1-1.07-2.85v-.57a.2.2,0,0,1,.22-.22h1.63a.19.19,0,0,1,.22.22V359a2.46,2.46,0,0,0,.51,1.62,1.61,1.61,0,0,0,1.29.6,1.66,1.66,0,0,0,1.31-.58,2.2,2.2,0,0,0,.52-1.53,2.17,2.17,0,0,0-.28-1.12,3.28,3.28,0,0,0-.72-.87c-.3-.26-.79-.63-1.46-1.13a22.2,22.2,0,0,1-1.76-1.43,5.18,5.18,0,0,1-1.08-1.43,4.2,4.2,0,0,1-.44-2,3.61,3.61,0,0,1,3.8-3.87,3.71,3.71,0,0,1,2.83,1.12,4.11,4.11,0,0,1,1.07,2.95v.55a.2.2,0,0,1-.22.22h-1.63a.19.19,0,0,1-.22-.22v-.59a2.4,2.4,0,0,0-.51-1.6,1.62,1.62,0,0,0-1.32-.6,1.6,1.6,0,0,0-1.25.54,2.16,2.16,0,0,0-.48,1.5,2.34,2.34,0,0,0,.48,1.49,10.5,10.5,0,0,0,1.87,1.61c.88.66,1.54,1.2,2,1.61a4.71,4.71,0,0,1,1,1.35,3.93,3.93,0,0,1,.36,1.75,4.07,4.07,0,0,1-1.08,3,4.14,4.14,0,0,1-5.62,0Z"/><path class="cls-11" d="M425.71,361.91a3.92,3.92,0,0,1-1.07-2.85v-.57a.19.19,0,0,1,.22-.22h1.63a.2.2,0,0,1,.22.22V359a2.51,2.51,0,0,0,.5,1.62,1.63,1.63,0,0,0,1.3.6,1.66,1.66,0,0,0,1.31-.58,2.2,2.2,0,0,0,.52-1.53,2.17,2.17,0,0,0-.28-1.12,3.28,3.28,0,0,0-.72-.87c-.3-.26-.79-.63-1.47-1.13s-1.33-1-1.75-1.43a5.18,5.18,0,0,1-1.08-1.43,4.08,4.08,0,0,1-.44-2,3.82,3.82,0,0,1,1-2.83,3.77,3.77,0,0,1,2.75-1,3.72,3.72,0,0,1,2.83,1.12,4.11,4.11,0,0,1,1.06,2.95v.55a.19.19,0,0,1-.22.22h-1.62a.19.19,0,0,1-.22-.22v-.59a2.4,2.4,0,0,0-.51-1.6,1.65,1.65,0,0,0-1.32-.6,1.6,1.6,0,0,0-1.25.54,2.17,2.17,0,0,0-.49,1.5,2.34,2.34,0,0,0,.49,1.49,10.14,10.14,0,0,0,1.87,1.61c.88.66,1.54,1.2,2,1.61a4.5,4.5,0,0,1,1,1.35,3.93,3.93,0,0,1,.36,1.75,4.1,4.1,0,0,1-1.07,3,4.14,4.14,0,0,1-5.62,0Z"/><path class="cls-11" d="M437.15,364.64a.22.22,0,0,1,0-.17l.64-4.88a.2.2,0,0,1,.22-.2h1.45c.16,0,.23.08.2.24l-1.06,4.88c0,.14-.09.2-.24.2h-1A.24.24,0,0,1,437.15,364.64Z"/><path class="cls-11" d="M177.17,388.29a3.93,3.93,0,0,1-1.1-2.93v-7.67a4,4,0,0,1,1.1-2.94,3.9,3.9,0,0,1,2.9-1.11,3.83,3.83,0,0,1,4.05,4.05v7.67a3.94,3.94,0,0,1-1.12,2.93,4,4,0,0,1-2.93,1.1A3.93,3.93,0,0,1,177.17,388.29Zm4.31-1.31a2.2,2.2,0,0,0,.52-1.53v-7.87a2.2,2.2,0,0,0-.52-1.53,1.83,1.83,0,0,0-1.41-.58,1.76,1.76,0,0,0-1.38.58,2.24,2.24,0,0,0-.51,1.53v7.87a2.24,2.24,0,0,0,.51,1.53,1.76,1.76,0,0,0,1.38.58A1.83,1.83,0,0,0,181.48,387Z"/><path class="cls-11" d="M195.68,389l-2-6.56a.09.09,0,0,0-.09-.06H192c-.06,0-.09,0-.09.08V389a.19.19,0,0,1-.22.22h-1.67a.2.2,0,0,1-.22-.22V374a.2.2,0,0,1,.22-.22H194a3.55,3.55,0,0,1,2,.55,3.62,3.62,0,0,1,1.33,1.55,5.29,5.29,0,0,1,.47,2.27,4.85,4.85,0,0,1-.57,2.41,3.45,3.45,0,0,1-1.56,1.49.12.12,0,0,0,0,.13l2.25,6.75,0,.09c0,.1-.07.15-.2.15H196A.27.27,0,0,1,195.68,389Zm-3.74-13.31v4.93c0,.06,0,.08.09.08h1.63a1.77,1.77,0,0,0,1.45-.69,2.83,2.83,0,0,0,.55-1.83,3,3,0,0,0-.55-1.89,1.77,1.77,0,0,0-1.45-.69H192A.08.08,0,0,0,191.94,375.73Z"/><path class="cls-11" d="M217.94,375.64H213a.08.08,0,0,0-.09.09v4.77a.08.08,0,0,0,.09.09h3c.14,0,.21.07.21.22v1.39a.19.19,0,0,1-.21.22h-3c-.06,0-.09,0-.09.08v4.8a.08.08,0,0,0,.09.09h4.95a.2.2,0,0,1,.22.22V389a.2.2,0,0,1-.22.22H211a.19.19,0,0,1-.22-.22V374a.19.19,0,0,1,.22-.22h6.93a.2.2,0,0,1,.22.22v1.38A.2.2,0,0,1,217.94,375.64Z"/><path class="cls-11" d="M223,389.13a.19.19,0,0,1,0-.18l3.06-7.37a.11.11,0,0,0,0-.13L223,374.08l0-.09c0-.11.07-.17.2-.17h1.72a.25.25,0,0,1,.24.17l2,5.3s0,.07.06.07.06,0,.07-.07l2-5.3a.24.24,0,0,1,.24-.17h1.72a.18.18,0,0,1,.16.07.18.18,0,0,1,0,.19l-3,7.39a.15.15,0,0,0,0,.13l3,7.35,0,.09c0,.11-.07.17-.2.17h-1.7a.25.25,0,0,1-.24-.17l-2-5.28c0-.05,0-.07-.07-.07s0,0-.06.07l-2,5.28a.25.25,0,0,1-.24.17h-1.72A.16.16,0,0,1,223,389.13Z"/><path class="cls-11" d="M237.32,388.3a3.93,3.93,0,0,1-1.08-2.89V377.6a3.72,3.72,0,0,1,3.95-4,3.94,3.94,0,0,1,2.9,1.08,3.89,3.89,0,0,1,1.08,2.88V378c0,.15-.07.22-.21.22l-1.68.09a.2.2,0,0,1-.22-.22v-.57a2,2,0,0,0-.51-1.45,1.78,1.78,0,0,0-1.36-.55,1.74,1.74,0,0,0-1.34.55,2.08,2.08,0,0,0-.5,1.45v8.09a2.08,2.08,0,0,0,.5,1.45,1.74,1.74,0,0,0,1.34.55,1.78,1.78,0,0,0,1.36-.55,2,2,0,0,0,.51-1.45V385a.2.2,0,0,1,.22-.22l1.68.09c.14,0,.21.07.21.22v.33a3.73,3.73,0,0,1-4,4A3.88,3.88,0,0,1,237.32,388.3Z"/><path class="cls-11" d="M249.78,389V374a.2.2,0,0,1,.22-.22h1.67a.19.19,0,0,1,.22.22V389a.19.19,0,0,1-.22.22H250A.2.2,0,0,1,249.78,389Z"/><path class="cls-11" d="M265.55,374v1.38a.19.19,0,0,1-.22.22h-2.88a.08.08,0,0,0-.09.09V389a.19.19,0,0,1-.22.22h-1.67a.19.19,0,0,1-.22-.22V375.73a.08.08,0,0,0-.09-.09h-2.72a.19.19,0,0,1-.22-.22V374a.19.19,0,0,1,.22-.22h7.89A.19.19,0,0,1,265.55,374Z"/><path class="cls-11" d="M278,375.64h-4.95a.08.08,0,0,0-.09.09v4.77a.08.08,0,0,0,.09.09h3a.2.2,0,0,1,.22.22v1.39a.2.2,0,0,1-.22.22h-3c-.06,0-.09,0-.09.08v4.8a.08.08,0,0,0,.09.09H278a.19.19,0,0,1,.22.22V389a.19.19,0,0,1-.22.22h-6.93a.2.2,0,0,1-.22-.22V374a.2.2,0,0,1,.22-.22H278a.19.19,0,0,1,.22.22v1.38A.19.19,0,0,1,278,375.64Z"/><path class="cls-11" d="M290.78,373.82h1.67a.2.2,0,0,1,.22.22V389a.2.2,0,0,1-.22.22h-1.67a.19.19,0,0,1-.22-.22V378.08s0-.06,0-.06a.09.09,0,0,0-.07,0L288.33,382a.21.21,0,0,1-.19.15.21.21,0,0,1-.2-.15l-2.09-3.92a.12.12,0,0,0-.08,0s0,0,0,.07V389a.19.19,0,0,1-.22.22h-1.67a.19.19,0,0,1-.22-.22V374a.19.19,0,0,1,.22-.22h1.67a.31.31,0,0,1,.26.15l2.31,4.14.07,0,.06,0,2.29-4.14A.29.29,0,0,1,290.78,373.82Z"/><path class="cls-11" d="M305.77,375.64h-4.94a.08.08,0,0,0-.09.09v4.77a.08.08,0,0,0,.09.09h3a.19.19,0,0,1,.22.22v1.39a.2.2,0,0,1-.22.22h-3c-.06,0-.09,0-.09.08v4.8a.08.08,0,0,0,.09.09h4.94a.19.19,0,0,1,.22.22V389a.19.19,0,0,1-.22.22h-6.92a.19.19,0,0,1-.22-.22V374a.19.19,0,0,1,.22-.22h6.92a.19.19,0,0,1,.22.22v1.38A.19.19,0,0,1,305.77,375.64Z"/><path class="cls-11" d="M317.85,373.82h1.65a.2.2,0,0,1,.22.22V389a.2.2,0,0,1-.22.22h-1.89a.26.26,0,0,1-.25-.17L313.63,379a.08.08,0,0,0-.07,0,.05.05,0,0,0,0,.06l0,10a.2.2,0,0,1-.22.22h-1.67a.19.19,0,0,1-.22-.22V374a.19.19,0,0,1,.22-.22h1.87a.25.25,0,0,1,.24.17L317.52,384s0,.07.06.06.05,0,.05-.08V374A.19.19,0,0,1,317.85,373.82Z"/><path class="cls-11" d="M333.37,374v1.38a.19.19,0,0,1-.22.22h-2.88c-.06,0-.08,0-.08.09V389c0,.15-.08.22-.23.22h-1.67a.2.2,0,0,1-.22-.22V375.73c0-.06,0-.09-.08-.09h-2.73a.19.19,0,0,1-.22-.22V374a.19.19,0,0,1,.22-.22h7.89A.19.19,0,0,1,333.37,374Z"/><path class="cls-7" d="M648.58,60.37V39.69a.27.27,0,0,1,.3-.31h4.68a4.81,4.81,0,0,1,3.74,1.54A5.85,5.85,0,0,1,658.7,45V55a5.86,5.86,0,0,1-1.4,4.12,4.8,4.8,0,0,1-3.74,1.53h-4.68A.27.27,0,0,1,648.58,60.37Zm2.28-1.58,2.67,0a2.59,2.59,0,0,0,2.15-1,4.6,4.6,0,0,0,.83-2.79v-9.8a4.55,4.55,0,0,0-.79-2.83,2.61,2.61,0,0,0-2.19-1h-2.67a.11.11,0,0,0-.12.12V58.67A.11.11,0,0,0,650.86,58.79Z"/><path class="cls-7" d="M675.43,60.43l-3.1-9.4a.12.12,0,0,0-.12-.09h-2.65a.11.11,0,0,0-.12.12v9.31c0,.2-.1.3-.31.3h-1.55a.27.27,0,0,1-.3-.3V39.69a.27.27,0,0,1,.3-.31h5A4.48,4.48,0,0,1,676.19,41a6.39,6.39,0,0,1,1.37,4.24,6.51,6.51,0,0,1-.85,3.41,4.69,4.69,0,0,1-2.31,2,.11.11,0,0,0-.09.15l3.31,9.52,0,.12q0,.21-.27.21H675.8A.35.35,0,0,1,675.43,60.43Zm-6-19v7.7a.11.11,0,0,0,.12.12h2.74a2.73,2.73,0,0,0,2.25-1.08,4.51,4.51,0,0,0,.85-2.88,4.53,4.53,0,0,0-.85-2.88,2.7,2.7,0,0,0-2.25-1.1h-2.74A.11.11,0,0,0,669.44,41.39Z"/><path class="cls-7" d="M685.31,60.37V39.69a.28.28,0,0,1,.31-.31h1.55a.27.27,0,0,1,.3.31V60.37a.27.27,0,0,1-.3.3h-1.55A.27.27,0,0,1,685.31,60.37Z"/><path class="cls-7" d="M699.7,60.4l-4.41-20.68v-.06a.25.25,0,0,1,.27-.28h1.71a.29.29,0,0,1,.33.28l3.29,17s0,.06.06.06,0,0,.06-.06l3.25-17a.32.32,0,0,1,.34-.28h1.64c.22,0,.31.12.27.34L702.1,60.4a.29.29,0,0,1-.33.27H700A.31.31,0,0,1,699.7,60.4Z"/><path class="cls-7" d="M723.67,41.27h-7.06a.11.11,0,0,0-.12.12v7.54c0,.09,0,.13.12.13h4.44a.27.27,0,0,1,.3.3v1.31a.27.27,0,0,1-.3.3h-4.44a.11.11,0,0,0-.12.12v7.58a.11.11,0,0,0,.12.12h7.06a.27.27,0,0,1,.3.3v1.28a.27.27,0,0,1-.3.3h-9a.27.27,0,0,1-.3-.3V39.69a.27.27,0,0,1,.3-.31h9a.27.27,0,0,1,.3.31V41A.27.27,0,0,1,723.67,41.27Z"/><path class="cls-7" d="M740.76,39.38h1.52a.27.27,0,0,1,.3.31V60.37a.27.27,0,0,1-.3.3h-1.8a.33.33,0,0,1-.33-.24l-5.93-15.72c0-.06-.05-.09-.09-.08s-.06,0-.06.11l0,15.63c0,.2-.1.3-.31.3h-1.55a.27.27,0,0,1-.3-.3V39.69a.27.27,0,0,1,.3-.31H734a.34.34,0,0,1,.33.25l6,15.75c0,.06.05.09.09.08s.06-.05.06-.11V39.69A.28.28,0,0,1,740.76,39.38Z"/><path class="cls-7" d="M771.78,39.69V41c0,.2-.1.3-.31.3h-4a.11.11,0,0,0-.12.12v19c0,.2-.1.3-.31.3h-1.55a.27.27,0,0,1-.3-.3v-19a.11.11,0,0,0-.12-.12h-3.77c-.21,0-.31-.1-.31-.3V39.69a.28.28,0,0,1,.31-.31h10.18A.28.28,0,0,1,771.78,39.69Z"/><path class="cls-7" d="M779.55,59.46a5.28,5.28,0,0,1-1.45-3.87V44.46a5.26,5.26,0,0,1,1.45-3.86,5.09,5.09,0,0,1,3.79-1.46,5,5,0,0,1,5.29,5.32V55.59a5.23,5.23,0,0,1-1.46,3.85,5.67,5.67,0,0,1-7.62,0Zm6.05-1.36a3.32,3.32,0,0,0,.87-2.38V44.37A3.41,3.41,0,0,0,785.6,42a3,3,0,0,0-2.26-.92,2.87,2.87,0,0,0-2.22.92,3.44,3.44,0,0,0-.86,2.42V55.72a3.36,3.36,0,0,0,.86,2.38,2.85,2.85,0,0,0,2.22.93A3,3,0,0,0,785.6,58.1Z"/><path class="cls-7" d="M816.64,59.15a5.31,5.31,0,0,1-4,1.52H808a.27.27,0,0,1-.3-.3V39.69a.27.27,0,0,1,.3-.31h4.38a5.65,5.65,0,0,1,4.1,1.45A5.45,5.45,0,0,1,818,45q0,3.4-2.52,4.65s-.06,0-.06.06a.13.13,0,0,0,0,.07,5.48,5.48,0,0,1,2.68,5.17A5.73,5.73,0,0,1,816.64,59.15Zm-6.78-17.76v7.33a.11.11,0,0,0,.12.12h2.4a3.31,3.31,0,0,0,2.55-1,3.85,3.85,0,0,0,.92-2.74,4.11,4.11,0,0,0-.92-2.84,3.24,3.24,0,0,0-2.55-1H810A.11.11,0,0,0,809.86,41.39ZM815,57.68a4.6,4.6,0,0,0,.91-3,4.7,4.7,0,0,0-.91-3.07,3.11,3.11,0,0,0-2.53-1.09H810a.11.11,0,0,0-.12.12v8a.11.11,0,0,0,.12.12h2.52A3.13,3.13,0,0,0,815,57.68Z"/><path class="cls-7" d="M835,41.27H828a.11.11,0,0,0-.12.12v7.54c0,.09,0,.13.12.13h4.44a.27.27,0,0,1,.31.3v1.31a.27.27,0,0,1-.31.3H828a.11.11,0,0,0-.12.12v7.58a.11.11,0,0,0,.12.12H835a.27.27,0,0,1,.3.3v1.28a.27.27,0,0,1-.3.3h-9a.27.27,0,0,1-.3-.3V39.69a.27.27,0,0,1,.3-.31h9a.27.27,0,0,1,.3.31V41A.27.27,0,0,1,835,41.27Z"/><path class="cls-7" d="M851.43,39.38H853a.27.27,0,0,1,.3.31V60.37a.27.27,0,0,1-.3.3h-1.55a.27.27,0,0,1-.3-.3V51.09c0-.08,0-.12-.13-.12h-5.41a.11.11,0,0,0-.12.12v9.28c0,.2-.1.3-.31.3h-1.55a.27.27,0,0,1-.3-.3V39.69a.27.27,0,0,1,.3-.31h1.55a.28.28,0,0,1,.31.31v9.24c0,.09,0,.13.12.13H851a.12.12,0,0,0,.13-.13V39.69A.27.27,0,0,1,851.43,39.38Z"/><path class="cls-7" d="M869.92,60.4l-.76-3.77a.11.11,0,0,0,0-.09.17.17,0,0,0-.1,0H863.5a.17.17,0,0,0-.1,0,.11.11,0,0,0,0,.09l-.76,3.77a.29.29,0,0,1-.33.27h-1.55a.26.26,0,0,1-.28-.33L865,39.66a.32.32,0,0,1,.34-.28h1.82a.3.3,0,0,1,.34.28l4.62,20.68v.06a.24.24,0,0,1-.27.27h-1.59A.31.31,0,0,1,869.92,60.4Zm-6.08-5.66h4.8q.09,0,.09-.12L866.3,42.67q0-.09-.06-.09s0,0-.06.09l-2.43,11.95Q863.75,54.74,863.84,54.74Z"/><path class="cls-7" d="M880.84,60.4l-4.41-20.68v-.06a.25.25,0,0,1,.27-.28h1.7a.3.3,0,0,1,.34.28l3.28,17s0,.06.06.06a.1.1,0,0,0,.07-.06l3.25-17a.32.32,0,0,1,.33-.28h1.65c.22,0,.31.12.27.34L883.24,60.4a.29.29,0,0,1-.33.27h-1.74A.31.31,0,0,1,880.84,60.4Z"/><path class="cls-7" d="M904.8,41.27h-7a.11.11,0,0,0-.12.12v7.54c0,.09,0,.13.12.13h4.44a.27.27,0,0,1,.3.3v1.31a.27.27,0,0,1-.3.3h-4.44a.11.11,0,0,0-.12.12v7.58a.11.11,0,0,0,.12.12h7c.21,0,.31.1.31.3v1.28c0,.2-.1.3-.31.3h-9a.27.27,0,0,1-.3-.3V39.69a.27.27,0,0,1,.3-.31h9a.28.28,0,0,1,.31.31V41C905.11,41.17,905,41.27,904.8,41.27Z"/><path class="cls-10" d="M684.31,133.36l2.53-20.68a.32.32,0,0,1,.33-.3h1.52a.25.25,0,0,1,.2.09.22.22,0,0,1,0,.21l-2.52,20.68a.45.45,0,0,1-.12.21.29.29,0,0,1-.21.09h-1.53Q684.25,133.66,684.31,133.36Z"/><path class="cls-10" d="M703.08,133.42l-1.86-9.4a.08.08,0,0,0-.09-.09h-2.59l-.07,0a.11.11,0,0,0-.05.09l-1.12,9.31a.45.45,0,0,1-.12.21.31.31,0,0,1-.22.09h-1.52q-.3,0-.24-.3l2.52-20.68a.33.33,0,0,1,.34-.3h4.86a3.8,3.8,0,0,1,3,1.3,5.2,5.2,0,0,1,1.13,3.5c0,.22,0,.58-.06,1.07a7.36,7.36,0,0,1-1.25,3.4,5.41,5.41,0,0,1-2.49,2,.14.14,0,0,0-.12.15l2.07,9.52v.06c0,.18-.11.27-.31.27h-1.52A.33.33,0,0,1,703.08,133.42Zm-3.43-19.13a.1.1,0,0,0,0,.09l-.94,7.7a.12.12,0,0,0,0,.09.09.09,0,0,0,.06,0h2.67a3,3,0,0,0,2.32-1.08,5.11,5.11,0,0,0,1.18-2.87,7.56,7.56,0,0,0,0-.76,3.74,3.74,0,0,0-.68-2.36,2.26,2.26,0,0,0-1.87-.87h-2.65A.23.23,0,0,0,699.65,114.29Z"/><path class="cls-10" d="M720.71,133.42l-1.85-9.4a.08.08,0,0,0-.09-.09h-2.59l-.07,0a.11.11,0,0,0-.05.09l-1.12,9.31a.39.39,0,0,1-.13.21.29.29,0,0,1-.21.09h-1.52q-.3,0-.24-.3l2.52-20.68a.32.32,0,0,1,.34-.3h4.86a3.8,3.8,0,0,1,3,1.3,5.2,5.2,0,0,1,1.13,3.5c0,.22,0,.58-.06,1.07a7.36,7.36,0,0,1-1.25,3.4,5.41,5.41,0,0,1-2.49,2,.14.14,0,0,0-.12.15l2.07,9.52v.06c0,.18-.11.27-.31.27h-1.52A.35.35,0,0,1,720.71,133.42Zm-3.42-19.13a.1.1,0,0,0,0,.09l-1,7.7a.13.13,0,0,0,0,.09.09.09,0,0,0,.06,0h2.67a3,3,0,0,0,2.31-1.08,5,5,0,0,0,1.19-2.87,7.56,7.56,0,0,0,0-.76,3.74,3.74,0,0,0-.68-2.36,2.26,2.26,0,0,0-1.87-.87H717.4A.2.2,0,0,0,717.29,114.29Z"/><path class="cls-10" d="M738.32,133.39l-.27-3.77a.11.11,0,0,0-.12-.12h-5.35a.2.2,0,0,0-.11,0,.11.11,0,0,0-.05.09l-1.21,3.77a.36.36,0,0,1-.37.27h-1.49a.23.23,0,0,1-.21-.09.25.25,0,0,1,0-.24l7-20.68a.32.32,0,0,1,.34-.27h1.79c.19,0,.28.09.28.27l1.94,20.68q0,.33-.3.33h-1.52C738.42,133.66,738.32,133.57,738.32,133.39Zm-5.2-5.66h4.66q.09,0,.09-.12l-.88-12c0-.06,0-.09,0-.09s-.06,0-.1.09l-3.83,12Q733,127.73,733.12,127.73Z"/><path class="cls-10" d="M757.58,112.68l-.19,1.28a.31.31,0,0,1-.3.3H753.2a.18.18,0,0,0-.11,0,.11.11,0,0,0-.05.09l-2.31,19a.45.45,0,0,1-.12.21.29.29,0,0,1-.21.09h-1.52c-.21,0-.29-.1-.25-.3l2.32-19a.08.08,0,0,0,0-.07.14.14,0,0,0-.1,0H747.2a.27.27,0,0,1-.22-.09.23.23,0,0,1-.05-.21l.15-1.28a.32.32,0,0,1,.34-.3h9.88C757.48,112.38,757.58,112.48,757.58,112.68Z"/><path class="cls-10" d="M762.71,133.36l2.53-20.68a.32.32,0,0,1,.33-.3h1.52a.25.25,0,0,1,.2.09.23.23,0,0,1,.05.21l-2.53,20.68a.45.45,0,0,1-.12.21.29.29,0,0,1-.21.09H763C762.75,133.66,762.67,133.56,762.71,133.36Z"/><path class="cls-10" d="M774.82,132.68a4.49,4.49,0,0,1-1.22-3.3c0-.17,0-.43.06-.79L775,117.45a6.09,6.09,0,0,1,1.9-3.84,5.46,5.46,0,0,1,3.85-1.48,4.49,4.49,0,0,1,3.3,1.22,4.36,4.36,0,0,1,1.23,3.25c0,.17,0,.45-.06.85l-1.37,11.14a6.07,6.07,0,0,1-1.9,3.86,5.55,5.55,0,0,1-3.88,1.46A4.4,4.4,0,0,1,774.82,132.68Zm5.82-1.59a3.83,3.83,0,0,0,1.14-2.38l1.4-11.35a3,3,0,0,0,0-.48,2.93,2.93,0,0,0-.73-2.07,2.49,2.49,0,0,0-1.94-.79,3.06,3.06,0,0,0-2.25.93,3.9,3.9,0,0,0-1.13,2.41l-1.4,11.35a3.57,3.57,0,0,0,0,.54,2.81,2.81,0,0,0,.7,2,2.44,2.44,0,0,0,1.89.76A3.21,3.21,0,0,0,780.64,131.09Z"/><path class="cls-10" d="M802.49,112.47a.35.35,0,0,1,.25-.09h1.46q.27,0,.27.3l-2.55,20.68a.33.33,0,0,1-.34.3h-1.73a.33.33,0,0,1-.31-.24l-3.8-15.72c0-.06,0-.09-.09-.08s-.06,0-.06.11l-1.88,15.63a.57.57,0,0,1-.13.21.29.29,0,0,1-.21.09h-1.52q-.3,0-.24-.3l2.52-20.68a.32.32,0,0,1,.33-.3h1.71a.26.26,0,0,1,.3.24l3.87,15.75c0,.06,0,.09.06.08s.07,0,.09-.11l1.91-15.66A.29.29,0,0,1,802.49,112.47Z"/><path class="cls-10" d="M818.19,133.39l-.28-3.77a.11.11,0,0,0-.12-.12h-5.35a.2.2,0,0,0-.11,0,.1.1,0,0,0,0,.09l-1.22,3.77a.35.35,0,0,1-.36.27h-1.5a.23.23,0,0,1-.21-.09.25.25,0,0,1,0-.24l7-20.68a.31.31,0,0,1,.33-.27h1.8a.24.24,0,0,1,.27.27l2,20.68c0,.22-.11.33-.31.33h-1.52Q818.19,133.66,818.19,133.39Zm-5.2-5.66h4.65q.09,0,.09-.12l-.88-12q0-.09,0-.09s-.05,0-.09.09l-3.84,12C812.89,127.69,812.93,127.73,813,127.73Z"/><path class="cls-10" d="M827.37,133.36l2.53-20.68a.32.32,0,0,1,.33-.3h1.52a.25.25,0,0,1,.2.09.22.22,0,0,1,0,.21l-2.34,19a.11.11,0,0,0,.12.12h6.76q.3,0,.24.3l-.15,1.28a.29.29,0,0,1-.09.21.37.37,0,0,1-.25.09h-8.66C827.41,133.66,827.33,133.56,827.37,133.36Z"/><path class="cls-10" d="M843.61,133.36l2.53-20.68a.32.32,0,0,1,.33-.3H848a.25.25,0,0,1,.2.09.22.22,0,0,1,0,.21l-2.34,19a.11.11,0,0,0,.12.12h6.76q.3,0,.24.3l-.15,1.28a.29.29,0,0,1-.09.21.35.35,0,0,1-.25.09h-8.67Q843.55,133.66,843.61,133.36Z"/><path class="cls-10" d="M862.16,133.33l1.1-9.09a.25.25,0,0,1,0-.08.08.08,0,0,0,0-.08l-2.71-11.34v-.09c0-.18.09-.27.28-.27h1.61a.32.32,0,0,1,.18.06.29.29,0,0,1,.12.18l1.8,8.91a.1.1,0,0,0,.18,0l4-8.91a.46.46,0,0,1,.4-.24h1.58c.1,0,.17,0,.2.1a.35.35,0,0,1,0,.26l-5.44,11.34a.25.25,0,0,0-.06.16l-1.1,9.09a.45.45,0,0,1-.12.21.29.29,0,0,1-.21.09h-1.52C862.2,133.63,862.12,133.53,862.16,133.33Z"/><path class="cls-9" d="M670.85,308l8.94-4.46,3.63,5.73v.18l-8.06,4.83,0,1.59,4.38,3.09,4.13-3.12.52.89-7.73,6.08-5.94-4.57Zm8.46,3-3.11-4.67-.72.39-.11,6.68Z"/><path class="cls-9" d="M698.72,307.92a7.58,7.58,0,0,1-1.1,1.75,9.36,9.36,0,0,1-1.14,1.13l3.15,2.41-.1,5.58-7.37,4.32a3.54,3.54,0,0,0-1.67-1.55,2.71,2.71,0,0,0-1.12-.23,2,2,0,0,0-1.09.33,1.34,1.34,0,0,0-.51.62,1.11,1.11,0,0,0,0,.8,1.07,1.07,0,0,0,.45.55l-.37,1a3.67,3.67,0,0,1-2-2,4.11,4.11,0,0,1-.05-2.81,8.76,8.76,0,0,1,2.45-3.38c.3-.29.61-.58.93-.86l-2.76-2.25.08-5.18,7.72-4.31a3.85,3.85,0,0,0,1.5,1.36,2.71,2.71,0,0,0,1.21.3,1.94,1.94,0,0,0,1.17-.37,1.69,1.69,0,0,0,.67-1.14h0l1.05,0A12.46,12.46,0,0,1,698.72,307.92ZM691.44,315c-.84.7-1.67,1.42-2.47,2.18a14,14,0,0,0-1.09,1.09,4.27,4.27,0,0,1,2.23-.82,4.66,4.66,0,0,1,2.37.5,5,5,0,0,1,2.26,2.41l.08-4.82-2-1.66Zm4-4.7A9.83,9.83,0,0,0,696.8,309c.12-.15.24-.29.35-.45a4.21,4.21,0,0,1-1.3.37,4.29,4.29,0,0,1-2.29-.37,4.38,4.38,0,0,1-2.26-2.41l-.08,4.82,1.5,1.59Z"/><path class="cls-9" d="M710.38,320.37l1.23-.64.53.71L707,323l-4-3.47.7-1.28.15-9.13a2.54,2.54,0,0,0,0-.55,1.62,1.62,0,0,0-.21-.51,1.58,1.58,0,0,0-.65-.55,1.78,1.78,0,0,0-.85-.18v-.53l6.13-5.94H709l-.08,4.25,4.4.07-1.77,2-2.66,0-.19,11.44Z"/><path class="cls-9" d="M717.52,316.86l3.33,3.43-3.38,3.27-3.32-3.43Z"/><path class="cls-11" d="M630.84,270.25l-13.5-17.5a.29.29,0,0,1,0-.46l4.23-3.25a5.64,5.64,0,0,1,4.4-1.31,6.16,6.16,0,0,1,4,2.58l6.39,8.28a6.19,6.19,0,0,1,1.48,4.53,5.66,5.66,0,0,1-2.38,3.93l-4.22,3.26A.29.29,0,0,1,630.84,270.25Zm1.12-3.87,1.86-1.47a2.39,2.39,0,0,0,1-2,4.38,4.38,0,0,0-1-2.55l-6.2-8a4.24,4.24,0,0,0-2.2-1.63,2.43,2.43,0,0,0-2.19.46l-1.88,1.45a.12.12,0,0,0,0,.19l10.44,13.53C631.84,266.43,631.9,266.44,632,266.38Z"/><path class="cls-11" d="M646.73,236.91l-6.51,3.33a.11.11,0,0,0-.06.17l3.21,6.29a.12.12,0,0,0,.18.05l4-2a.29.29,0,0,1,.44.14l.93,1.83a.29.29,0,0,1-.14.44l-4,2a.11.11,0,0,0,0,.17l3.22,6.31a.12.12,0,0,0,.18.06l6.51-3.33a.29.29,0,0,1,.44.14l.93,1.83a.28.28,0,0,1-.14.43l-9.12,4.66a.29.29,0,0,1-.44-.14l-10-19.68a.28.28,0,0,1,.14-.44l9.12-4.66a.28.28,0,0,1,.43.14l.94,1.83A.28.28,0,0,1,646.73,236.91Z"/><path class="cls-11" d="M666.54,227.27l2.38-.67a.3.3,0,0,1,.41.22l6,21.28a.29.29,0,0,1-.23.4l-2.38.67a.28.28,0,0,1-.4-.22l-4.37-15.52c0-.07,0-.09-.07-.08a.19.19,0,0,0-.09.09l-1.43,6.45a.33.33,0,0,1-.22.3.32.32,0,0,1-.34-.15l-4.54-4.73a.18.18,0,0,0-.13,0s0,.05,0,.11l4.36,15.49a.29.29,0,0,1-.23.4l-2.37.67a.28.28,0,0,1-.4-.23l-6-21.28a.3.3,0,0,1,.23-.4l2.38-.67a.46.46,0,0,1,.43.12l5,5a.17.17,0,0,0,.1,0,.1.1,0,0,0,.08-.06l1.6-6.8A.42.42,0,0,1,666.54,227.27Z"/><path class="cls-11" d="M692,226.42l-7.29.57c-.09,0-.13,0-.12.14l.54,7c0,.09.06.13.14.12l4.47-.35a.28.28,0,0,1,.35.3l.16,2a.28.28,0,0,1-.3.35l-4.47.35c-.09,0-.12.05-.12.14l.55,7.06c0,.09.05.13.14.12l7.29-.56c.22,0,.33.08.35.3l.16,2a.29.29,0,0,1-.3.35l-10.21.79a.29.29,0,0,1-.35-.3l-1.71-22a.29.29,0,0,1,.3-.35l10.21-.79a.29.29,0,0,1,.35.3l.16,2A.29.29,0,0,1,692,226.42Z"/><path class="cls-11" d="M712.85,224.94l2.42.28a.29.29,0,0,1,.29.36l-2.48,22a.29.29,0,0,1-.36.29l-2.78-.32a.34.34,0,0,1-.32-.29l-3.83-15.39a.08.08,0,0,0-.09-.05c-.05,0-.07,0-.08.07L704,246.52a.28.28,0,0,1-.36.28l-2.45-.27a.29.29,0,0,1-.29-.36l2.48-22a.29.29,0,0,1,.36-.29l2.74.31a.36.36,0,0,1,.33.3l3.86,15.39q0,.1.09.09s.07,0,.07-.11l1.66-14.66A.29.29,0,0,1,712.85,224.94Z"/><path class="cls-11" d="M738.21,231.6l-.61,2a.29.29,0,0,1-.41.21l-4.06-1.28a.12.12,0,0,0-.17.08l-5.9,18.69a.29.29,0,0,1-.41.22l-2.36-.75a.29.29,0,0,1-.21-.41L730,231.62c0-.08,0-.13-.09-.16l-3.84-1.22a.28.28,0,0,1-.21-.4l.62-2a.29.29,0,0,1,.41-.21L738,231.19A.28.28,0,0,1,738.21,231.6Z"/><path class="cls-11" d="M756.51,243l-6.46-3.44a.11.11,0,0,0-.17,0l-3.32,6.23a.11.11,0,0,0,.05.17l4,2.11a.29.29,0,0,1,.14.44l-1,1.81a.28.28,0,0,1-.44.13l-4-2.11a.11.11,0,0,0-.17.06l-3.34,6.25a.12.12,0,0,0,.06.18l6.45,3.44a.29.29,0,0,1,.14.44l-1,1.8a.29.29,0,0,1-.44.14l-9-4.82a.29.29,0,0,1-.14-.44L748.3,236a.29.29,0,0,1,.44-.14l9,4.82a.29.29,0,0,1,.13.44l-1,1.81A.29.29,0,0,1,756.51,243Z"/><path class="cls-11" d="M753.39,264.5l13.85-17.24a.29.29,0,0,1,.45,0l4.16,3.34a5.72,5.72,0,0,1,2.31,4,6.24,6.24,0,0,1-1.57,4.5L766,267.19a6.21,6.21,0,0,1-4,2.5,5.68,5.68,0,0,1-4.38-1.4L753.44,265A.28.28,0,0,1,753.39,264.5Zm4,.18,1.87,1.46a2.41,2.41,0,0,0,2.15.5,4.31,4.31,0,0,0,2.25-1.55l6.35-7.91a4.16,4.16,0,0,0,1.06-2.52,2.38,2.38,0,0,0-1-2l-1.84-1.49a.12.12,0,0,0-.19,0L757.39,264.5A.12.12,0,0,0,757.41,264.68Z"/><path class="cls-11" d="M605,432.86a5.78,5.78,0,0,1,1.85-4.17l8.1-8.23a5.51,5.51,0,0,1,8.27-.06,5.51,5.51,0,0,1,.09,8.3l-.36.37a.29.29,0,0,1-.46,0l-1.85-1.64a.29.29,0,0,1,0-.46l.59-.6a3,3,0,0,0,1-2.07,2.64,2.64,0,0,0-.86-2,2.55,2.55,0,0,0-2-.81,3,3,0,0,0-2,1L609,431a3,3,0,0,0-1,2,2.53,2.53,0,0,0,.84,2,2.6,2.6,0,0,0,2,.82,2.92,2.92,0,0,0,2-1l.59-.6a.29.29,0,0,1,.46,0l1.67,1.82a.29.29,0,0,1,0,.46l-.34.35a5.52,5.52,0,0,1-8.32.06A5.69,5.69,0,0,1,605,432.86Z"/><path class="cls-11" d="M619.79,447.42l12.67-18.12a.29.29,0,0,1,.45-.08l2,1.42a.29.29,0,0,1,.08.45l-11.24,16.06c0,.08,0,.13,0,.18l6,4.18a.28.28,0,0,1,.08.45l-1.17,1.68a.3.3,0,0,1-.46.08l-8.36-5.85A.29.29,0,0,1,619.79,447.42Z"/><path class="cls-11" d="M638.49,458a5.84,5.84,0,0,1,.38-4.61l4.85-10.25a5.83,5.83,0,0,1,3.32-3.23,5.75,5.75,0,0,1,4.58.35,5.64,5.64,0,0,1,2.85,8l-4.84,10.26a6.13,6.13,0,0,1-11.14-.48Zm6.59,1a3.28,3.28,0,0,0,1.67-1.71l5-10.52a3.21,3.21,0,0,0,.26-2.38,2.65,2.65,0,0,0-1.51-1.66,2.53,2.53,0,0,0-2.21-.09,3.25,3.25,0,0,0-1.65,1.71l-5,10.52a3.31,3.31,0,0,0-.28,2.37,2.6,2.6,0,0,0,1.47,1.65A2.66,2.66,0,0,0,645.08,458.92Z"/><path class="cls-11" d="M674.29,448.63l-.54,2a.29.29,0,0,1-.4.23l-4.11-1.12a.12.12,0,0,0-.16.09l-5.15,18.91a.29.29,0,0,1-.4.23l-2.39-.65a.28.28,0,0,1-.22-.4L666.07,449a.12.12,0,0,0-.09-.16l-3.89-1.06a.29.29,0,0,1-.23-.4l.54-2a.29.29,0,0,1,.4-.23l11.26,3.07A.29.29,0,0,1,674.29,448.63Z"/><path class="cls-11" d="M689.27,450.17l2.46.22a.29.29,0,0,1,.29.35l-2,22a.29.29,0,0,1-.35.3l-2.46-.23a.28.28,0,0,1-.3-.35l.86-9.55a.13.13,0,0,0-.12-.14l-4.89-.44c-.09,0-.13,0-.14.12l-.86,9.55a.29.29,0,0,1-.35.3L679,472.1c-.22,0-.31-.14-.3-.36l2-22c0-.22.13-.32.35-.3l2.46.22a.29.29,0,0,1,.3.35l-.86,9.52c0,.09,0,.14.12.14l4.89.44a.11.11,0,0,0,.14-.11l.85-9.52A.29.29,0,0,1,689.27,450.17Z"/><path class="cls-11" d="M700.93,472.66l-1.16-22.07a.28.28,0,0,1,.31-.34l2.46-.13a.28.28,0,0,1,.34.31L704,472.5a.28.28,0,0,1-.31.34l-2.46.13A.28.28,0,0,1,700.93,472.66Z"/><path class="cls-11" d="M719.81,447.59l2.39-.49a.29.29,0,0,1,.38.26L727,469a.29.29,0,0,1-.25.39L724,470a.34.34,0,0,1-.4-.18l-8.37-13.46a.08.08,0,0,0-.11,0,.09.09,0,0,0-.05.09l3,14.46a.28.28,0,0,1-.25.38l-2.43.49a.28.28,0,0,1-.38-.25l-4.39-21.67a.28.28,0,0,1,.25-.38l2.71-.55a.36.36,0,0,1,.4.19l8.4,13.45c0,.06.07.08.11.06a.1.1,0,0,0,0-.12L719.55,448A.29.29,0,0,1,719.81,447.59Z"/><path class="cls-11" d="M738.68,464.31a5.47,5.47,0,0,1-3-3.22l-4.46-11a5.49,5.49,0,0,1,0-4.44,6.58,6.58,0,0,1,7.88-3.18,5.52,5.52,0,0,1,3.07,3.25l.51,1.26a.29.29,0,0,1-.18.43l-2.29.92a.29.29,0,0,1-.43-.18l-.53-1.32a3.07,3.07,0,0,0-1.51-1.71,2.88,2.88,0,0,0-3.71,1.5,3,3,0,0,0,.09,2.28L738.52,460a3,3,0,0,0,1.51,1.7,2.85,2.85,0,0,0,3.71-1.5,3.05,3.05,0,0,0-.1-2.27l-1.34-3.32a.12.12,0,0,0-.17-.07l-2.29.93a.29.29,0,0,1-.42-.18l-.76-1.87a.29.29,0,0,1,.18-.42l5-2a.29.29,0,0,1,.43.18l2.25,5.58a5.49,5.49,0,0,1,0,4.44,6.56,6.56,0,0,1-7.88,3.18Z"/><path class="cls-11" d="M769.18,448a5.77,5.77,0,0,1-3.9-2.38l-7.08-9.11a5.51,5.51,0,0,1,1-8.21,5.81,5.81,0,0,1,4.35-1.37,5.73,5.73,0,0,1,3.89,2.37l.32.42a.28.28,0,0,1-.06.45l-1.87,1.62a.29.29,0,0,1-.46-.06l-.52-.66a3,3,0,0,0-1.92-1.23,2.64,2.64,0,0,0-2.08.59,2.53,2.53,0,0,0-1.06,1.85,3.07,3.07,0,0,0,.72,2.16l7.35,9.44a3,3,0,0,0,1.9,1.24,2.57,2.57,0,0,0,2.07-.58,2.61,2.61,0,0,0,1.08-1.87,3,3,0,0,0-.72-2.16l-.51-.67a.28.28,0,0,1,0-.45l2-1.42a.29.29,0,0,1,.46.06l.3.38a5.54,5.54,0,0,1-1,8.26A5.7,5.7,0,0,1,769.18,448Z"/><path class="cls-11" d="M785.67,433.71a5.88,5.88,0,0,1-4.3-1.7L773,424.4a5.83,5.83,0,0,1-2.13-4.11,5.73,5.73,0,0,1,1.66-4.29,5.64,5.64,0,0,1,8.44-.42l8.42,7.61a5.82,5.82,0,0,1,2.11,4.11,5.88,5.88,0,0,1-1.71,4.31A5.81,5.81,0,0,1,785.67,433.71Zm2.84-6a3.25,3.25,0,0,0-1.16-2.09l-8.63-7.81a3.24,3.24,0,0,0-2.2-.93,2.67,2.67,0,0,0-2,1,2.61,2.61,0,0,0-.73,2.09,3.31,3.31,0,0,0,1.17,2.08l8.63,7.8a3.22,3.22,0,0,0,2.19,1,2.56,2.56,0,0,0,2-.93A2.7,2.7,0,0,0,788.51,427.68Z"/><path class="cls-11" d="M796.59,422a2,2,0,0,1-1.55-.41,2,2,0,0,1-.86-1.35,2.2,2.2,0,0,1,1.76-2.41,2,2,0,0,1,1.55.4,2,2,0,0,1,.46,2.91A2,2,0,0,1,796.59,422Z"/><path class="cls-12" d="M809.59,376.85a127.15,127.15,0,0,0-2.25-68.44"/><path class="cls-12" d="M584.19,308.41a127.31,127.31,0,0,0-2.51,67.34"/><path class="cls-17" d="M627.81,372.37,620,365.58l3.31-3V343.13l-5.47-5-3.44,2.09v22.31l3.4,3-7.56,6.8-9.07-7.17,3-2.65V341.62l-3-3.4-3,1.89L597,338.6,608,331l5.8,6.46L624.13,331,632,337.8,642.8,331l8.25,7.12v22.53l3.68,3.76,3.39-2.55,0,2.89-11.69,7.58-7.81-6.79,3.31-3V343.13l-5.46-5-4.15,2.51v21.08l4.09,3.65Z"/><path class="cls-17" d="M688.88,372.37l-7.81-6.79,3.31-3V343.13l-5.47-5-3.44,2.09v22.31l3.4,3-7.55,6.8-9.07-7.17,3-2.65V341.62l-3-3.4-3,1.89-1.14-1.51,11-7.56,5.8,6.46L685.2,331,693,337.8,703.88,331l8.24,7.16v22.49l3.69,3.76,3.39-2.55,0,2.89-11.69,7.58-7.81-6.79,3.31-3V343.13l-5.47-5-4.14,2.51v21.08l4.09,3.65Z"/><path class="cls-17" d="M728.58,330.2l6.26,3.75,4,8.66L743.57,331h1.87a4.29,4.29,0,0,0,3.42,1.94,4.19,4.19,0,0,0,2.11-.48,4.29,4.29,0,0,0,1.59-1.46h2.35a35.69,35.69,0,0,1-.84,4.36,12.16,12.16,0,0,1-1.44,3.56,6.53,6.53,0,0,1-2.87,2.51,6.71,6.71,0,0,1-2.94.49,11,11,0,0,1-2.94-.6,19,19,0,0,1-2.16-.86L740,345l8,17.21a4.31,4.31,0,0,0,.71,1.16,2.23,2.23,0,0,0,1.17.67,2.56,2.56,0,0,0,1.34-.11,5.54,5.54,0,0,0,1.2-.64,21.18,21.18,0,0,0,2.28-1.71l2.15,2-11.05,7.71-7.58-4.88-3.52-7.92-4.8,12.25v-.1l0,.11h-.82a5.22,5.22,0,0,0-3.41-1.94,5.32,5.32,0,0,0-2.65.33,5.24,5.24,0,0,0-2.14,1.61h-1.68a20.36,20.36,0,0,1,.66-4.11,11.86,11.86,0,0,1,1.69-3.77,7.22,7.22,0,0,1,3.21-2.55,7.42,7.42,0,0,1,2.95-.46,10.56,10.56,0,0,1,2.94.57c.32.1.64.22,1,.35l2-4.87-7.23-16.22a5.24,5.24,0,0,0-1-1.6,2.77,2.77,0,0,0-1.66-.82,3.52,3.52,0,0,0-1.83.34,12.53,12.53,0,0,0-1.6,1l-.45.3-1.24-1.89Z"/><path class="cls-17" d="M766.25,330.2l6.26,3.75,4,8.66L781.24,331h1.87a4.29,4.29,0,0,0,3.42,1.94,4.19,4.19,0,0,0,2.11-.48,4.29,4.29,0,0,0,1.59-1.46h2.35a35.69,35.69,0,0,1-.84,4.36,12.16,12.16,0,0,1-1.44,3.56,6.55,6.55,0,0,1-2.86,2.51,6.77,6.77,0,0,1-3,.49,11,11,0,0,1-2.94-.6,19,19,0,0,1-2.16-.86L777.64,345l8,17.21a4.31,4.31,0,0,0,.71,1.16,2.23,2.23,0,0,0,1.17.67,2.56,2.56,0,0,0,1.34-.11,5.54,5.54,0,0,0,1.2-.64,21.18,21.18,0,0,0,2.28-1.71l2.15,2-11,7.71-7.58-4.88-3.53-7.92-4.79,12.25v-.1l0,.11h-.81a5.26,5.26,0,0,0-3.42-1.94,5.32,5.32,0,0,0-2.65.33,5.24,5.24,0,0,0-2.14,1.61h-1.68a21.09,21.09,0,0,1,.66-4.11,11.65,11.65,0,0,1,1.69-3.77,7.22,7.22,0,0,1,3.21-2.55,7.42,7.42,0,0,1,3-.46,10.56,10.56,0,0,1,2.94.57c.32.1.64.22,1,.35l2-4.87L764,339.62a5.24,5.24,0,0,0-1-1.6,2.77,2.77,0,0,0-1.66-.82,3.52,3.52,0,0,0-1.83.34,12.53,12.53,0,0,0-1.6,1l-.45.3-1.24-1.89Z"/><path class="cls-7" d="M828.76,703a5.34,5.34,0,0,1-1.42-4l.18-10.65A5.09,5.09,0,0,1,833,683a5.09,5.09,0,0,1,5.34,5.49V689a.26.26,0,0,1-.31.29l-2.28.09a.27.27,0,0,1-.29-.31v-.78a2.8,2.8,0,0,0-.67-2,2.63,2.63,0,0,0-3.68-.06,2.88,2.88,0,0,0-.72,2l-.18,11a2.78,2.78,0,0,0,.65,2,2.37,2.37,0,0,0,1.82.78,2.44,2.44,0,0,0,1.86-.72,2.8,2.8,0,0,0,.74-2v-.78a.26.26,0,0,1,.31-.29l2.27.15a.28.28,0,0,1,.3.31v.45a5.32,5.32,0,0,1-1.55,3.92,5.38,5.38,0,0,1-4,1.42A5.32,5.32,0,0,1,828.76,703Z"/><path class="cls-7" d="M845.74,704.18l.34-20.4a.27.27,0,0,1,.3-.3l2.28,0a.27.27,0,0,1,.3.31l-.3,18.08c0,.08,0,.12.11.13l6.72.11a.27.27,0,0,1,.3.3l0,1.89a.28.28,0,0,1-.31.3l-9.42-.16A.25.25,0,0,1,845.74,704.18Z"/><path class="cls-7" d="M863.48,703.51a5.39,5.39,0,0,1-1.43-4l.17-10.47a5.44,5.44,0,0,1,1.57-4,5.27,5.27,0,0,1,4-1.45,5.21,5.21,0,0,1,5.43,5.61L873,699.68a5.38,5.38,0,0,1-1.58,4,5.46,5.46,0,0,1-4,1.44A5.36,5.36,0,0,1,863.48,703.51Zm5.91-1.69a3,3,0,0,0,.75-2.07l.18-10.74a2.93,2.93,0,0,0-.68-2.09,2.45,2.45,0,0,0-1.91-.83,2.4,2.4,0,0,0-1.89.76,3.06,3.06,0,0,0-.74,2.08l-.17,10.73a3,3,0,0,0,.67,2.1,2.4,2.4,0,0,0,1.86.83A2.45,2.45,0,0,0,869.39,701.82Z"/><path class="cls-7" d="M891.49,684.53l0,1.89a.27.27,0,0,1-.31.3l-3.93-.07a.11.11,0,0,0-.12.12l-.3,18.09a.25.25,0,0,1-.3.29l-2.28,0a.28.28,0,0,1-.3-.31l.3-18.09c0-.08,0-.12-.11-.12l-3.73-.06c-.19,0-.29-.11-.29-.31l0-1.89a.27.27,0,0,1,.31-.29l10.77.18A.26.26,0,0,1,891.49,684.53Z"/><path class="cls-7" d="M906.7,684.49l2.28,0a.28.28,0,0,1,.3.31l-.34,20.4a.27.27,0,0,1-.31.29l-2.28,0a.25.25,0,0,1-.29-.3l.15-8.85a.11.11,0,0,0-.12-.12l-4.53-.08a.11.11,0,0,0-.12.12l-.15,8.85a.26.26,0,0,1-.31.29l-2.27,0a.27.27,0,0,1-.3-.31l.34-20.4c0-.2.1-.29.3-.29l2.28,0a.27.27,0,0,1,.3.3l-.15,8.82a.11.11,0,0,0,.12.12l4.53.08a.11.11,0,0,0,.12-.12l.15-8.82A.25.25,0,0,1,906.7,684.49Z"/><path class="cls-7" d="M917.16,705.36,917.5,685a.27.27,0,0,1,.3-.3l2.28,0a.27.27,0,0,1,.3.3l-.34,20.4a.28.28,0,0,1-.31.3l-2.28,0A.26.26,0,0,1,917.16,705.36Z"/><path class="cls-7" d="M937.36,685l2.25,0a.27.27,0,0,1,.29.31l-.34,20.4c0,.2-.1.29-.3.29l-2.58,0a.34.34,0,0,1-.33-.25L931.48,692a.08.08,0,0,0-.15,0l-.2,13.62c0,.2-.1.29-.3.29l-2.28,0a.27.27,0,0,1-.3-.3l.34-20.4a.27.27,0,0,1,.31-.29l2.55,0a.33.33,0,0,1,.33.24l4.9,13.8c0,.06,0,.08.08.07a.09.09,0,0,0,.07-.1l.22-13.62A.27.27,0,0,1,937.36,685Z"/><path class="cls-7" d="M948.86,705a5.06,5.06,0,0,1-1.42-3.83l.18-11a5.09,5.09,0,0,1,1.55-3.79,5.39,5.39,0,0,1,3.94-1.37,5.45,5.45,0,0,1,3.9,1.5,5.06,5.06,0,0,1,1.44,3.87l0,1.26a.26.26,0,0,1-.3.29l-2.28,0c-.21,0-.31-.11-.3-.31l0-1.32a2.8,2.8,0,0,0-.67-2,2.39,2.39,0,0,0-1.83-.78,2.44,2.44,0,0,0-1.86.72,2.8,2.8,0,0,0-.74,2l-.18,11a2.82,2.82,0,0,0,.67,2,2.64,2.64,0,0,0,3.69.06,2.8,2.8,0,0,0,.74-2l.05-3.3a.11.11,0,0,0-.12-.12l-2.28,0c-.19,0-.29-.1-.29-.31l0-1.85a.28.28,0,0,1,.31-.3l5,.08a.27.27,0,0,1,.3.31l-.09,5.55a5.06,5.06,0,0,1-1.56,3.78,5.51,5.51,0,0,1-4,1.38A5.38,5.38,0,0,1,948.86,705Z"/><path class="cls-7" d="M977.57,705.42a5.29,5.29,0,0,1-1.42-4l.18-10.64a5.25,5.25,0,0,1,1.55-3.91,5.41,5.41,0,0,1,9.27,4.09v.48a.27.27,0,0,1-.31.29l-2.28.08a.27.27,0,0,1-.3-.3l0-.78a2.78,2.78,0,0,0-.67-2,2.43,2.43,0,0,0-1.84-.78,2.31,2.31,0,0,0-1.84.72,2.76,2.76,0,0,0-.72,2l-.18,11a2.77,2.77,0,0,0,.65,2,2.63,2.63,0,0,0,3.68.06,2.76,2.76,0,0,0,.73-2l0-.78a.27.27,0,0,1,.3-.3l2.28.16a.26.26,0,0,1,.29.3v.46a5.11,5.11,0,0,1-5.52,5.33A5.25,5.25,0,0,1,977.57,705.42Z"/><path class="cls-7" d="M995.64,705.71a5.39,5.39,0,0,1-1.43-4l.17-10.47a5.44,5.44,0,0,1,1.57-4,5.27,5.27,0,0,1,4-1.45,5.21,5.21,0,0,1,5.43,5.61l-.17,10.47a5.38,5.38,0,0,1-1.58,4,5.48,5.48,0,0,1-4,1.44A5.34,5.34,0,0,1,995.64,705.71Zm5.91-1.69a3,3,0,0,0,.75-2.07l.18-10.74a3,3,0,0,0-.68-2.1,2.48,2.48,0,0,0-1.91-.82,2.37,2.37,0,0,0-1.89.76,3.05,3.05,0,0,0-.74,2.07l-.17,10.74a3,3,0,0,0,.66,2.1,2.42,2.42,0,0,0,1.87.83A2.45,2.45,0,0,0,1001.55,704Z"/><path class="cls-7" d="M1008.5,706.64a1.83,1.83,0,0,1-.52-1.38,1.92,1.92,0,0,1,.56-1.38,1.89,1.89,0,0,1,1.39-.51,1.85,1.85,0,0,1,1.37.56,1.92,1.92,0,0,1-1.43,3.28A1.85,1.85,0,0,1,1008.5,706.64Z"/><path class="cls-11" d="M729.83,644.72a14.84,14.84,0,0,0-2-7.58,68.69,68.69,0,0,0-4.33-6.64l-.15-.22-2,1.39a10.61,10.61,0,0,0-1.44,1.14,5.14,5.14,0,0,0-1.07,1.5,4.7,4.7,0,0,0-.07,3.59,5.2,5.2,0,0,0,1.18,1.81l-1.57,1.1a12.05,12.05,0,0,1-5.84-6.18,10,10,0,0,1,.59-9,20.37,20.37,0,0,1,3.85-4.5l-1.44-2.07a17.16,17.16,0,0,1-1.67-2.79,8.82,8.82,0,0,1-.76-3.15,15,15,0,0,1,1.49-6.3l3.56-8.77-11.47,8a8,8,0,0,1-2.45,1.27,5.53,5.53,0,0,1-2.74,0,8.67,8.67,0,0,1-3.38-1.81,15.64,15.64,0,0,1-2.61-2.84,27.36,27.36,0,0,1-3.56-6.82l1.81-1.17a5.23,5.23,0,0,0,2,1.21,5.45,5.45,0,0,0,2.34.21,6.78,6.78,0,0,0,2.25-.7,15,15,0,0,0,2-1.26l22.46-15.65c3.44-2.39,7.08-4.65,11.17-5.56a22.66,22.66,0,0,1,12.36.9c6.83,2.41,12.5,7.42,17,13.11a62.45,62.45,0,0,1,9.84,18.33,63.88,63.88,0,0,1,2.71,11.07L765.2,642a29.78,29.78,0,0,0-29.43,23.2l-2.34,1.64a35.65,35.65,0,0,1,7.12-26,71.7,71.7,0,0,0,1-7.43,12.74,12.74,0,0,0-2.74-9.81L733,615.25l-4.46-6.42a27.09,27.09,0,0,1-4.36-8.41,16.1,16.1,0,0,1-.38-6.26L721.14,596a14.39,14.39,0,0,0-.4,6.18,15.83,15.83,0,0,0,2.81,5.7l4.47,6.43,5.84,8.39a23.59,23.59,0,0,1,2.89,5.1,15.88,15.88,0,0,1,1,5.75c0,6.13-2.78,12.06-6.8,16.68l-2.15-1.44A10.59,10.59,0,0,0,729.83,644.72ZM727,592.58a13,13,0,0,0-.12,7.13,24.68,24.68,0,0,0,3.94,7.51l4.47,6.42,5.85,8.4a17.82,17.82,0,0,1,2.79,5.48,18.32,18.32,0,0,1,.45,6.13c-.09,1.14-.22,2.27-.37,3.39a35.53,35.53,0,0,1,9.5-6.43Zm13.65,14.55,8.79-16.32a19.89,19.89,0,0,0-7-3.47,14.38,14.38,0,0,0-7.34.06,20.88,20.88,0,0,0-6,3.09Q734.88,598.8,740.67,607.13Zm6.24,9,9.65-18c-.22-.3-.45-.6-.69-.89a38.88,38.88,0,0,0-4.16-4.54l-9.2,17.08Zm23.19,11.21a80,80,0,0,0-11.66-26.59l-9.69,18q3.75,5.37,7.49,10.75A35,35,0,0,1,770.1,627.29Z"/><path class="cls-11" d="M790.47,612.79,779.68,587.3,797,566.42l15.29,10.23.19.45-14.68,20.83,1.69,4,14.25,2.84,6.81-12.28,2.27,1.66-12.48,23.55Zm13.46-27.4-12.84-8.14L789.74,579l7.06,16.67Z"/><path class="cls-11" d="M863.27,602.11l-11.39-6.61,3.4-4.58-4.69-24.27-8-4.89-3.8,3.43,5.39,27.88,5,3-7.8,10.32-13.06-6.78,3.14-4-5.06-26.15-4.59-3.52L818.44,569l-1.78-1.61,11.86-12.09,8.8,6.68,11.38-10.58,11.43,6.56L872,546.84l12.05,6.92,5.41,28.14,5.51,3.8,3.62-4,.76,3.6-12.77,12.3L875.21,591l3.41-4.58-4.69-24.26-8-4.9-4.58,4.14,5.09,26.33,6,3.57Z"/><path class="cls-11" d="M905.19,555.88l24.14-12.3,10,15.47v.48l-21.74,13.28,0,4.33,12,8.27,11.13-8.57,1.42,2.42-20.81,16.66L905,583.68Zm23,7.88-8.55-12.56-1.94,1.06-.15,18.11Z"/><path class="cls-11" d="M995.12,598.05l-16.59,7-8.11-10.93,4-2.64,4.86-24.24-5.85-7.54-4.92,2.52-5.4,27,3.49,4.62-11.13,6.6-9.52-11.22,4.43-2.54,5.23-26.12-2.92-5-4.24,1.6-1-2.17,15.56-6.69,5.88,10,12.5-6.29,10.1,13.24L986,592.3l3.49,4.62,4.33-2.07Z"/><path class="cls-11" d="M1019.6,609.71l3.74-.49.66,2.31-15.44,1.75-7.29-13.52,3.33-1.8,8.78-23a6.77,6.77,0,0,0,.42-1.44,4.14,4.14,0,0,0-.06-1.49,4.52,4.52,0,0,0-1.14-2,5,5,0,0,0-2-1.24l.52-1.35,21.11-9.48,1.8.68-4.12,10.78,11.15,4.25-6.36,3.47-6.75-2.57-11.05,29Z"/><path class="cls-11" d="M1045.92,586.51l27.08.55,1.49,18.34-.23.42-25.44,1.45-2.07,3.79,6.63,12.94,13.85-2.3.12,2.8-26.21,4.86-8.53-18.5Zm16.56,17.81-1.6-15.12-2.21,0L1050,605.12Z"/><path class="cls-11" d="M1099.2,596.74l-1.82-1,11.08-14.17,8.63,47-18.39,23.43-25.32-3.32L1068.1,632l19-24.29,14.25,1.61Zm-17.67,39.09,3.82,12.38,18.57-23.74-2.41-14.18Z"/><path class="cls-5" d="M938.92,641v13.25H881.71c-21.83,0-34.46-19.87-34.46-19.87s5.93,4.51,16.73,4.51,14.51-3.76,20-3.76h54.91Z"/><path class="cls-3" d="M938.92,650.92H888.7a4.94,4.94,0,0,1-3.27-1.21,5.15,5.15,0,0,1-3.72,1.21c-12.14,0-23.13-7.88-28.62-13.76"/><path class="cls-21" d="M986.61,635.1H938.92v10H942c2.92,0,2.92-1.87,5.83-1.87s2.92,1.87,5.84,1.87,2.87-1.87,5.83-1.87,2.81,1.87,5.83,1.87,2.91-1.87,5.83-1.87,2.92,1.87,5.83,1.87,2.92-1.87,5.83-1.87,3.64,1.63,3.76,1.84c3.29,0,5.68-1.78,5.68-5C992.29,636.69,989.9,635.1,986.61,635.1Zm1.14,6.89a2.08,2.08,0,1,1,2.08-2.08A2.08,2.08,0,0,1,987.75,642Z"/><path class="cls-21" d="M761.07,83.62V96.87h57.21c21.83,0,34.47-19.87,34.47-19.87s-5.94,4.51-16.74,4.51-14.51-3.76-20-3.76H761.07Z"/><path class="cls-3" d="M761.07,93.57h50.22a4.94,4.94,0,0,0,3.27-1.21,5.18,5.18,0,0,0,3.72,1.21c12.15,0,23.14-7.88,28.62-13.76"/><path class="cls-22" d="M707.71,82.76c0,3.21,2.38,5,5.68,5,.11-.21.83-1.84,3.75-1.84s2.91,1.87,5.83,1.87,2.94-1.87,5.83-1.87,2.92,1.87,5.83,1.87,2.88-1.87,5.83-1.87,2.92,1.87,5.84,1.87,2.91-1.87,5.83-1.87S755,87.78,758,87.78h3.11v-10H713.39C710.09,77.75,707.71,79.34,707.71,82.76Zm2.45-.2a2.08,2.08,0,1,1,2.08,2.08A2.08,2.08,0,0,1,710.16,82.56Z"/><path d="M489,539.58h-3.68s-.06,0-.06.07v3.54s0,.07.06.07h2.26a.14.14,0,0,1,.16.16v1a.14.14,0,0,1-.16.16h-2.26s-.06,0-.06.07v3.56s0,.07.06.07H489c.11,0,.17.05.17.16v1c0,.11-.06.16-.17.16h-5.15a.14.14,0,0,1-.16-.16V538.39c0-.11.05-.17.16-.17H489a.15.15,0,0,1,.17.17v1C489.17,539.53,489.11,539.58,489,539.58Z"/><path d="M493.6,549a2.9,2.9,0,0,1-.79-2.12v-.43a.14.14,0,0,1,.16-.16h1.21a.15.15,0,0,1,.17.16v.35a1.81,1.81,0,0,0,.37,1.2,1.2,1.2,0,0,0,1,.45,1.27,1.27,0,0,0,1-.43,1.87,1.87,0,0,0,.18-2,2.56,2.56,0,0,0-.54-.65c-.23-.19-.59-.47-1.09-.84s-1-.77-1.31-1.06a4.16,4.16,0,0,1-.8-1.07,3,3,0,0,1-.32-1.45,2.84,2.84,0,0,1,.78-2.1,3.05,3.05,0,0,1,4.14.06,3,3,0,0,1,.8,2.19v.41a.15.15,0,0,1-.17.16h-1.21a.14.14,0,0,1-.16-.16v-.45a1.78,1.78,0,0,0-.38-1.18,1.21,1.21,0,0,0-1-.45,1.18,1.18,0,0,0-.93.4,1.62,1.62,0,0,0-.36,1.12,1.69,1.69,0,0,0,.36,1.1,8,8,0,0,0,1.39,1.2c.65.49,1.15.89,1.48,1.2a3.44,3.44,0,0,1,.77,1,2.93,2.93,0,0,1,.27,1.3,3,3,0,0,1-.8,2.2,3.1,3.1,0,0,1-4.18,0Z"/><path d="M508.1,538.39v1a.14.14,0,0,1-.16.16H505.8a.06.06,0,0,0-.07.07v9.85a.14.14,0,0,1-.16.16h-1.24a.14.14,0,0,1-.16-.16v-9.85a.06.06,0,0,0-.07-.07h-2a.14.14,0,0,1-.16-.16v-1c0-.11,0-.17.16-.17h5.87C508.05,538.22,508.1,538.28,508.1,538.39Z"/><path d="M508.91,549.37a1,1,0,0,1-.3-.75,1,1,0,0,1,1.05-1,1,1,0,0,1,1,1,1.05,1.05,0,0,1-.29.75,1,1,0,0,1-.75.29A1,1,0,0,1,508.91,549.37Z"/><path d="M521.91,548.28a.05.05,0,0,0,.05,0h3.74c.11,0,.17.05.17.16v1c0,.11-.06.16-.17.16h-5.49a.14.14,0,0,1-.16-.16v-1.08a.28.28,0,0,1,.07-.21l.5-.75q1.56-2.24,2.4-3.63a5.78,5.78,0,0,0,1-2.78,1.89,1.89,0,0,0-.33-1.17,1.1,1.1,0,0,0-1.74,0,1.74,1.74,0,0,0-.31,1.13v.66a.14.14,0,0,1-.16.16h-1.28a.14.14,0,0,1-.16-.16V541a3,3,0,0,1,.83-2.07,2.73,2.73,0,0,1,2-.79,2.58,2.58,0,0,1,2,.82,3.07,3.07,0,0,1,.75,2.16,5,5,0,0,1-.29,1.62,9,9,0,0,1-.87,1.78c-.27.43-.84,1.3-1.72,2.6l-.8,1.16A0,0,0,0,0,521.91,548.28Z"/><path d="M530.23,549a3.07,3.07,0,0,1-.8-2.22v-5.65a3.11,3.11,0,0,1,.8-2.23,2.82,2.82,0,0,1,2.13-.83,2.85,2.85,0,0,1,2.13.83,3.07,3.07,0,0,1,.81,2.23v5.65a3,3,0,0,1-.81,2.22,2.82,2.82,0,0,1-2.13.84A2.79,2.79,0,0,1,530.23,549Zm3.12-1a1.72,1.72,0,0,0,.38-1.16V541a1.72,1.72,0,0,0-.38-1.16,1.25,1.25,0,0,0-1-.44,1.23,1.23,0,0,0-1,.44A1.67,1.67,0,0,0,531,541v5.85a1.67,1.67,0,0,0,.38,1.16,1.23,1.23,0,0,0,1,.44A1.25,1.25,0,0,0,533.35,548Z"/><path d="M540.9,548.28a.05.05,0,0,0,.05,0h3.74c.11,0,.17.05.17.16v1c0,.11-.06.16-.17.16H539.2a.14.14,0,0,1-.16-.16v-1.08a.33.33,0,0,1,.06-.21l.51-.75q1.56-2.24,2.4-3.63a5.78,5.78,0,0,0,1-2.78,1.89,1.89,0,0,0-.33-1.17,1.05,1.05,0,0,0-.88-.43,1,1,0,0,0-.86.42,1.74,1.74,0,0,0-.31,1.13v.66c0,.11-.06.16-.17.16h-1.27a.14.14,0,0,1-.16-.16V541a3,3,0,0,1,.83-2.07,2.73,2.73,0,0,1,2-.79,2.58,2.58,0,0,1,2,.82,3.07,3.07,0,0,1,.75,2.16,5,5,0,0,1-.29,1.62,9,9,0,0,1-.87,1.78c-.27.43-.85,1.3-1.72,2.6l-.8,1.16A0,0,0,0,0,540.9,548.28Z"/><path d="M549.22,549a3.07,3.07,0,0,1-.8-2.22v-5.65a3.11,3.11,0,0,1,.8-2.23,2.82,2.82,0,0,1,2.12-.83,2.86,2.86,0,0,1,2.14.83,3.07,3.07,0,0,1,.81,2.23v5.65a3,3,0,0,1-.81,2.22,2.83,2.83,0,0,1-2.14.84A2.79,2.79,0,0,1,549.22,549Zm3.12-1a1.72,1.72,0,0,0,.38-1.16V541a1.72,1.72,0,0,0-.38-1.16,1.33,1.33,0,0,0-2,0A1.72,1.72,0,0,0,550,541v5.85a1.72,1.72,0,0,0,.37,1.16,1.33,1.33,0,0,0,2,0Z"/><path class="cls-23" d="M381.91,510.53v30.7c0,.3,0,.62,0,.92H367.53a9.92,9.92,0,0,1-6.54-2.4s-2,2.16-6.66,2.38c-.24,0-.52,0-.78,0a58.91,58.91,0,0,1-12.48-1.36c-1.94-.4-3.86-.88-5.74-1.46-16.7-5.06-30.88-16-39-24.68a68.72,68.72,0,0,0,21.78,3.4c19.06,0,27.1-5.86,36.3-7.24a25.58,25.58,0,0,1,3.76-.28Z"/><path class="cls-23" d="M381.89,542.15a25.74,25.74,0,0,1-.78,6.6H353.55c-43,0-68.12-38.5-68.9-39.72a44.56,44.56,0,0,0,11.66,5.62c8.14,8.7,22.32,19.62,39,24.68,1.88.58,3.8,1.06,5.74,1.46a58.91,58.91,0,0,0,12.48,1.36c.26,0,.54,0,.78,0,4.64-.22,6.66-2.38,6.66-2.38a9.92,9.92,0,0,0,6.54,2.4Z"/><path class="cls-23" d="M468,510.53v38.22H381.11a25.74,25.74,0,0,0,.78-6.6c0-.3,0-.62,0-.92v-30.7H468Z"/><path class="cls-24" d="M468,542.15H381.89"/><path class="cls-25" d="M563.35,510.53H468v20.05h6.22c5.84,0,5.84-3.74,11.66-3.74s5.84,3.74,11.67,3.74,5.74-3.74,11.66-3.74,5.63,3.74,11.66,3.74c5.84,0,5.84-3.74,11.67-3.74s5.83,3.74,11.66,3.74,5.83-3.74,11.66-3.74,7.28,3.27,7.51,3.69c6.58,0,11.36-3.56,11.36-10C574.71,513.7,569.93,510.53,563.35,510.53Zm2.29,13.78a4.16,4.16,0,1,1,4.15-4.16A4.16,4.16,0,0,1,565.64,524.31Z"/><path class="cls-26" d="M453.19,516.29c-.1-1.92-.28-3.84-.52-5.76-1.22-10.14-4.26-20.12-10.2-28.4a37.66,37.66,0,0,0-16.06-13c-6.46-2.66-13.6-3-20.6-3h-45.7a29,29,0,0,1-4-.2,12,12,0,0,1-3.76-1.2,9.35,9.35,0,0,1-3-2.52,9.06,9.06,0,0,1-1.6-3.58l-3.6-.12a45.64,45.64,0,0,0-1.62,12.74,25.41,25.41,0,0,0,.86,6.38,14.29,14.29,0,0,0,2.9,5.7,9.16,9.16,0,0,0,3.76,2.62,13.5,13.5,0,0,0,4.56.6H378l-13.26,8.62c-3,2-6.12,4.12-8,7.2a14.83,14.83,0,0,0-2,5,20.06,20.06,0,0,0-.32,3.46,25.58,25.58,0,0,1,3.76-.28H376v-5.46c0-3.56.18-7.22,1.58-10.48a24.1,24.1,0,0,1,6.46-8.1h5.42a26.4,26.4,0,0,0-5.46,8.94c-1.84,5-2,10.2-2.06,15.1v30.7c0,.3,0,.62,0,.92a25.74,25.74,0,0,1-.78,6.6c-.1.36-.22.72-.34,1.08a25.81,25.81,0,0,1-4.48,7.46,121.89,121.89,0,0,1-8.52,9.18,59.54,59.54,0,0,0-34.54,28.76H338a49.74,49.74,0,0,1,62.46-3.68l41.86-23a104.93,104.93,0,0,0,6.86-17.74c.2-.68.38-1.36.56-2,.6-2.18,1.1-4.38,1.54-6.6A101.12,101.12,0,0,0,453.19,516.29Zm-53,9.44,28.92-14.62a70.19,70.19,0,0,1,1.36,10.2c0,.62.06,1.26.1,1.88l-30.38,15.38Zm0-39.24a34.63,34.63,0,0,1,11.2,1.54A23.86,23.86,0,0,1,421.47,495a33.21,33.21,0,0,1,6.3,11.44l-8.2,4.14-19.42,9.82Zm-4.8,78.3a59.8,59.8,0,0,0-19.16-.26c1.28-1.38,2.54-2.8,3.74-4.28a30.3,30.3,0,0,0,5.26-8.84,22.13,22.13,0,0,0,.76-2.66,32.73,32.73,0,0,0,.62-6.6c0-.3,0-.6,0-.9V524.17l0-13.06v-.58c0-4.78.28-9.4,1.76-13.48a21.81,21.81,0,0,1,7-9.64Zm33.46-16-.06.44a129.39,129.39,0,0,1-7.54,26.88,58.33,58.33,0,0,0-21.06-10.24V544l3.56-1.8,26.92-13.64a119.51,119.51,0,0,1-.88,13.64C429.49,544.37,429.19,546.57,428.81,548.75Zm-74.84,0a3.88,3.88,0,0,1,0,.48,24.38,24.38,0,0,1-4.5,12.26,17.83,17.83,0,0,1-5.3,4.64l1.56,4c9.92-2.48,19.36-8,25.24-16.36a28.27,28.27,0,0,0,2.82-5Z"/><circle class="cls-27" cx="1031.23" cy="91.87" r="27.68"/><path class="cls-28" d="M1033.72,80h0Z"/><path class="cls-28" d="M1042.62,90.93s0,.13,0,.31c0-.11,0-.21,0-.32Z"/><path class="cls-28" d="M1042.66,92.88v.31h0C1042.66,93.09,1042.66,93,1042.66,92.88Z"/><path class="cls-9" d="M1049.57,89.14c-1.77-26-27.29-9.43-32.27-17.68l-1.11,0c-2.35,9.76,3,8.74,10.35,8.59-3.46,2.24-8.26,4.35-7.24,9.34-4.44,0-7.51,4.73-5.16,8.65h1c-.47-2.53,2.19-3.25,4.18-3,.05,3.3.16,7.52-3.13,9.36l.48,1.23c16.17-4.23,4.52-18,11.74-25.62l.74-.05v23.75c-6.41-.14-13.29,3.37-15.83,9.26l.71.58c5.09-4.9,13.7-5.65,19.41-1.36l12.82-7A32.36,32.36,0,0,0,1049.57,89.14Zm-9.79,18.3a18,18,0,0,0-8.08-3.47l-.47-.07v-24c5.18,0,10,1.41,10.94,7.66h0a22.14,22.14,0,0,1,.45,3.69A40.09,40.09,0,0,1,1039.78,107.44Z"/><circle class="cls-3" cx="1020.83" cy="415.76" r="31.75"/><path class="cls-4" d="M1033.63,437.66A28.26,28.26,0,0,1,1008,438"/><line class="cls-3" x1="989.07" y1="417.6" x2="971.32" y2="417.6"/><line class="cls-3" x1="989.07" y1="413.92" x2="971.32" y2="413.92"/><path class="cls-22" d="M943.63,420.6h26.55a1.14,1.14,0,0,0,1.14-1.14v-7.39a1.15,1.15,0,0,0-1.14-1.15H943.73c-2.71,0-5.19,1.19-5.19,4.84C938.54,419.25,940.69,420.6,943.63,420.6Zm.06-7.06a2.22,2.22,0,1,1-2.22,2.22A2.22,2.22,0,0,1,943.69,413.54Z"/><path class="cls-29" d="M1007.72,394.6c1.21-8.31,4.67-9.45,4.67-9.45h0a31.8,31.8,0,0,1,36.46,15.71s-6.89,17.64-22.07,17.64S1006.39,403.72,1007.72,394.6Z"/><path class="cls-4" d="M1042.41,402.76s-6.94,10.56-17.2,10.32"/><path class="cls-4" d="M1017.81,409.75a15.62,15.62,0,0,1-3.78-12.06"/><path class="cls-4" d="M1042.77,392.81S1034.21,407,1027.31,407s-9-7-8.55-10.35"/><path class="cls-4" d="M1016,392.81s.1-6.36,1.22-8.18"/><path class="cls-4" d="M1024.41,384.21s-4.5,14.69,1.47,16.76c3.11,1.08,5.78-.3,7.68-2.8"/><path class="cls-4" d="M1036.24,388a8.48,8.48,0,0,1-7.32,6.39"/></g></svg>