<svg xmlns="http://www.w3.org/2000/svg" viewBox="0 0 809.5 357.83"><defs><style>.cls-1{fill:#6ea4c3;}.cls-1,.cls-2{stroke:#000;stroke-linecap:round;stroke-linejoin:round;stroke-width:1.5px;}.cls-2{fill:#fbf6f2;}</style></defs><g id="Layer_1" data-name="Layer 1"><path class="cls-1" d="M419.75,29.87A29.12,29.12,0,0,1,390.63,59c-37,0-53.83,15.7-77.1,37.42-25.34,23.65-56.88,53.09-116.84,53.09s-91.5-29.44-116.84-53.09C56.57,74.69,39.75,59,2.75,59l-2,0V.76h2c60,0,91.5,29.43,116.84,53.08,23.27,21.72,40.09,37.42,77.1,37.42s53.82-15.7,77.09-37.42C299.12,30.18,330.66.75,390.63.75A29.12,29.12,0,0,1,419.75,29.87Z"/><path class="cls-2" d="M808.75,237.45a29.13,29.13,0,0,1-29.12,29.13c-37,0-53.83,15.69-77.1,37.41-25.34,23.65-56.88,53.09-116.84,53.09S494.19,327.64,468.85,304c-23.28-21.72-40.1-37.41-77.1-37.41S337.93,282.27,314.66,304c-25.34,23.65-56.88,53.09-116.84,53.09S106.32,327.64,81,304c-23.27-21.72-40.09-37.41-77.09-37.41-1.06,0-2.11,0-3.14,0V208.36c1,0,2.08,0,3.14,0,60,0,91.5,29.43,116.84,53.08,23.27,21.72,40.09,37.42,77.09,37.42s53.82-15.7,77.09-37.42c25.34-23.65,56.88-53.08,116.84-53.08s91.5,29.43,116.84,53.08c23.27,21.72,40.09,37.42,77.1,37.42s53.82-15.7,77.09-37.42c25.34-23.65,56.88-53.08,116.85-53.08A29.12,29.12,0,0,1,808.75,237.45Z"/></g></svg>