<svg xmlns="http://www.w3.org/2000/svg" viewBox="0 0 594.72 184.09"><defs><style>.cls-1{fill:#ff958b;stroke:#0a111c;stroke-miterlimit:10;stroke-width:1.5px;}</style></defs><g id="Layer_1" data-name="Layer 1"><path class="cls-1" d="M.75,183.34V177.5c6.39,0,9.86-3.65,9.86-8V14.81c0-4.56-3.47-8.22-9.86-8.22V.75H68.68V6.59c-6.4,0-9.86,3.66-9.86,8.22V169.47c0,4.38,3.46,8,9.86,8v5.84Z"/><path class="cls-1" d="M256.55,169.47v-105H198.48v5.84c6.4,0,9.86,3.65,9.86,8v89.07a10.08,10.08,0,0,1-10.08,10.08h0a10,10,0,0,1-10-10V.75h-59.7V6.59c6.57,0,10.22,3.65,10.22,8V46.22c-6.2,0-12.59-.18-18.62.91-27.38,5.67-46.93,29-46.93,57.16V125.1a58.16,58.16,0,0,0,46.93,57.33,68.14,68.14,0,0,0,10.59.91H266.41V177.5C260,177.5,256.55,173.85,256.55,169.47Zm-117.77,8h-7.07a9,9,0,0,1-9-9V61.05a9,9,0,0,1,9-9h7.07Z"/><path class="cls-1" d="M533.53,183.34V60.53a8.47,8.47,0,0,0-8.47-8.47h-8V169.47c0,4.38,3.83,8,10.41,8v5.84H467.07V60.53a8.47,8.47,0,0,0-8.47-8.47h-7.78V169.47c0,4.38,3.65,8,10.22,8v5.84H390.19V177.5c6.76,0,10.41-3.65,10.41-8V60.09c0-4.38-3.65-8-10.41-8V46.22H525.31a69.27,69.27,0,0,1,10.78.91l1.46.36a57,57,0,0,1,32.68,19.72,51.65,51.65,0,0,1,12.6,28.31c1.46,9.31.73,19.17.73,30.31v43.64c0,4.38,3.65,8,10.41,8v5.84Z"/><circle class="cls-1" cx="232.45" cy="24.85" r="24.1"/><path class="cls-1" d="M328.3,46.22A57.33,57.33,0,0,0,271,103.55V126a57.34,57.34,0,0,0,114.67,0V103.55A57.34,57.34,0,0,0,328.3,46.22Zm8,119.35a8,8,0,1,1-16.07,0V62.39a8,8,0,0,1,16.07,0Z"/></g></svg>