<svg xmlns="http://www.w3.org/2000/svg" viewBox="0 0 509 509"><defs><style>.cls-1{fill:#f4e9df;}.cls-1,.cls-2,.cls-3{stroke:#000;stroke-linecap:round;stroke-linejoin:round;stroke-width:1.5px;}.cls-2{fill:#ff958b;}.cls-3{fill:#fc6565;}</style></defs><g id="Layer_1" data-name="Layer 1"><path class="cls-1" d="M.75.75h507.5a0,0,0,0,1,0,0v0A507.5,507.5,0,0,1,.75,508.25h0a0,0,0,0,1,0,0V.75A0,0,0,0,1,.75.75Z"/><path class="cls-2" d="M.75.75H395.47a0,0,0,0,1,0,0v0A394.72,394.72,0,0,1,.75,395.47h0a0,0,0,0,1,0,0V.75A0,0,0,0,1,.75.75Z"/><path class="cls-3" d="M.75.75H281.88a0,0,0,0,1,0,0v0A281.13,281.13,0,0,1,.75,281.88h0a0,0,0,0,1,0,0V.75A0,0,0,0,1,.75.75Z"/></g></svg>