<svg xmlns="http://www.w3.org/2000/svg" viewBox="0 0 899.62 332.31"><defs><style>.cls-1{fill:#6ea4c3;}.cls-1,.cls-2{stroke:#0a111c;stroke-miterlimit:10;stroke-width:1.5px;}.cls-2{fill:#f4e9df;}</style></defs><g id="Layer_1" data-name="Layer 1"><circle class="cls-1" cx="24.38" cy="24.38" r="23.63"/><circle class="cls-2" cx="213.41" cy="24.38" r="23.63"/><circle class="cls-2" cx="591.48" cy="24.38" r="23.63"/><circle class="cls-2" cx="24.38" cy="118.9" r="23.63"/><circle class="cls-2" cx="118.9" cy="71.64" r="23.63"/><circle class="cls-2" cx="213.41" cy="118.9" r="23.63"/><circle class="cls-2" cx="307.93" cy="71.64" r="23.63"/><circle class="cls-2" cx="402.45" cy="118.9" r="23.63"/><circle class="cls-1" cx="496.96" cy="71.64" r="23.63"/><circle class="cls-2" cx="591.48" cy="118.9" r="23.63"/><circle class="cls-2" cx="24.38" cy="213.41" r="23.63"/><circle class="cls-1" cx="118.9" cy="166.15" r="23.63"/><circle class="cls-2" cx="213.41" cy="213.41" r="23.63"/><circle class="cls-2" cx="307.93" cy="166.15" r="23.63"/><circle class="cls-2" cx="402.45" cy="213.41" r="23.63"/><circle class="cls-2" cx="496.96" cy="166.15" r="23.63"/><circle class="cls-2" cx="591.48" cy="213.41" r="23.63"/><circle class="cls-2" cx="118.9" cy="260.67" r="23.63"/><circle class="cls-2" cx="307.93" cy="260.67" r="23.63"/><circle class="cls-2" cx="496.96" cy="260.67" r="23.63"/><circle class="cls-2" cx="780.72" cy="24.38" r="23.63"/><circle class="cls-2" cx="686.21" cy="71.64" r="23.63"/><circle class="cls-1" cx="780.72" cy="118.9" r="23.63"/><circle class="cls-2" cx="875.24" cy="71.64" r="23.63"/><circle class="cls-2" cx="686.21" cy="166.15" r="23.63"/><circle class="cls-2" cx="780.72" cy="213.41" r="23.63"/><circle class="cls-2" cx="875.24" cy="166.15" r="23.63"/><circle class="cls-2" cx="686.21" cy="260.67" r="23.63"/><circle class="cls-2" cx="875.24" cy="260.67" r="23.63"/><circle class="cls-2" cx="24.38" cy="307.93" r="23.63"/><circle class="cls-2" cx="118.9" cy="260.67" r="23.63"/><circle class="cls-2" cx="213.41" cy="307.93" r="23.63"/><circle class="cls-1" cx="307.93" cy="260.67" r="23.63"/><circle class="cls-2" cx="402.45" cy="307.93" r="23.63"/><circle class="cls-2" cx="496.96" cy="260.67" r="23.63"/><circle class="cls-1" cx="686.21" cy="260.67" r="23.63"/><circle class="cls-2" cx="780.72" cy="307.93" r="23.63"/><circle class="cls-2" cx="591.59" cy="307.93" r="23.63"/><circle class="cls-2" cx="875.24" cy="260.67" r="23.63"/><circle class="cls-2" cx="402.45" cy="24.38" r="23.63"/></g></svg>