<svg id="Content" xmlns="http://www.w3.org/2000/svg" viewBox="0 0 1567.4 333.33"><defs><style>.cls-1{fill:#fc6565;}.cls-1,.cls-2,.cls-3{stroke:#0a111c;stroke-miterlimit:10;stroke-width:3px;}.cls-2{fill:#ff958b;}.cls-3{fill:#f4e9df;}</style></defs><path class="cls-1" d="M101.74,16.66A193.3,193.3,0,0,0,2.37,112.09H351.22A193,193,0,0,0,101.74,16.66Z"/><path class="cls-2" d="M124.26,166.86a135.37,135.37,0,0,0-69.55,66.79H298.87a135.1,135.1,0,0,0-174.61-66.79Z"/><path class="cls-3" d="M146.87,283.87a77,77,0,0,0-39.62,38.05H246.34a76.92,76.92,0,0,0-99.47-38.05Z"/><path class="cls-2" d="M492.71,331.83V321.26c11.56,0,17.84-6.61,17.84-14.53V26.94c0-8.26-6.28-14.87-17.84-14.87V1.5H615.59V12.07c-11.56,0-17.83,6.61-17.83,14.87V306.73c0,7.92,6.27,14.53,17.83,14.53v10.57Z"/><path class="cls-2" d="M955.48,306.72V116.79H850.43v10.57c11.57,0,17.83,6.6,17.83,14.53V303A18.23,18.23,0,0,1,850,321.26h0a18.09,18.09,0,0,1-18.09-18.09V1.5h-108V12.07c11.88,0,18.48,6.6,18.48,14.54V83.75c-11.21,0-22.78-.31-33.68,1.65-49.55,10.26-84.9,52.53-84.9,103.41v37.65a105.21,105.21,0,0,0,84.9,103.72,122.85,122.85,0,0,0,19.15,1.65H973.32V321.26C961.75,321.26,955.48,314.66,955.48,306.72ZM742.42,321.26H729.64A16.26,16.26,0,0,1,713.37,305V110.59a16.27,16.27,0,0,1,16.27-16.27h12.78Z"/><path class="cls-2" d="M1456.56,331.83V109.65a15.32,15.32,0,0,0-15.32-15.33h-14.4V306.73c0,7.92,6.93,14.53,18.82,14.53v10.57H1336.33V109.65A15.33,15.33,0,0,0,1321,94.32h-14.07V306.73c0,7.92,6.6,14.53,18.49,14.53v10.57H1197.25V321.26c12.23,0,18.83-6.61,18.83-14.53V108.86c0-7.93-6.6-14.54-18.83-14.54V83.75H1441.7a125.91,125.91,0,0,1,19.49,1.65l2.64.66A103.21,103.21,0,0,1,1523,121.74c14.54,16.85,20.48,33.7,22.79,51.2,2.65,16.85,1.32,34.69,1.32,54.84v79c0,7.92,6.61,14.53,18.83,14.53v10.57Z"/><circle class="cls-2" cx="911.88" cy="45.1" r="43.6"/><path class="cls-2" d="M1085.29,83.75A103.73,103.73,0,0,0,981.56,187.48V228.1a103.73,103.73,0,1,0,207.45,0V187.48A103.73,103.73,0,0,0,1085.29,83.75Zm14.53,215.93a14.54,14.54,0,1,1-29.07,0V113a14.54,14.54,0,0,1,29.07,0Z"/></svg>