<?xml version="1.0" encoding="utf-8"?>
<!-- Generator: Adobe Illustrator 26.3.1, SVG Export Plug-In . SVG Version: 6.00 Build 0)  -->
<svg version="1.1" id="Layer_1" xmlns="http://www.w3.org/2000/svg" xmlns:xlink="http://www.w3.org/1999/xlink" x="0px" y="0px"
	 viewBox="0 0 80 28" style="enable-background:new 0 0 80 28;" xml:space="preserve">
<style type="text/css">
	.st0{fill:#FFFFFF;}
	.st1{fill-rule:evenodd;clip-rule:evenodd;fill:#FFFFFF;}
</style>
<path class="st0" d="M12.5,26.8h6.6L25,9h-5.3l-3.8,12.4h-0.1L12.1,9H6.6L12.5,26.8z"/>
<path class="st0" d="M33.9,27.2c4.2,0,7.3-2.2,8.4-5.5l-4.5-1.4c-0.7,1.4-2.1,2.2-3.8,2.2c-2.2,0-3.6-1.3-4-3.4h12.5
	C43.2,11.8,39,8.6,34,8.6c-5.4,0-9.1,3.6-9.1,9.3C24.9,23.5,28.5,27.2,33.9,27.2z M30.2,15.8C30.8,14,32,13,34,13
	c1.9,0,3.2,1,3.6,2.8H30.2z"/>
<path class="st0" d="M45.2,26.8h5.2v-26h-5.2V26.8z"/>
<path class="st0" d="M53.6,26.8h5.2v-26h-5.2V26.8z"/>
<path class="st0" d="M67,27.2c2,0,4.3-0.6,6-2.3c0.7,1.4,2,2.1,3.8,2.1c1,0,2-0.2,3.1-0.7v-3.9c-0.5,0.1-1,0.2-1.5,0.2
	c-0.9,0-1.2-0.4-1.2-1.3v-5.2c0-5-2.5-7.5-7.5-7.5c-4.1,0-6.9,1.8-8.3,5.4l3.9,1.6c1.1-1.9,2.4-2.6,4-2.6c1.7,0,2.7,0.9,2.9,2.7
	l-5,1.1c-4.2,0.9-6,2.7-6,5.6C61.3,25.3,63.3,27.2,67,27.2z M66.6,21.4c0-1,0.7-1.5,2.1-1.9l3.7-1v1.4c0,1.8-1.4,3.2-3.5,3.2
	C67.5,23.1,66.6,22.5,66.6,21.4z"/>
<path class="st1" d="M5.2,26.8H0V9h5.2V26.8z"/>
</svg>
