<svg xmlns="http://www.w3.org/2000/svg" viewBox="0 0 800 800"><path d="M452.5,725.86l-3.75.75-5.25-6-5.25-9,1.5-.75,1.5,3.75Zm-14.25-45.75,13.5,4.5,3.75,6v1.5l-9-1.5-1.5-6-4.5-1.5ZM347.5,649.36l-4.5-6,11.25-2.25,4.5,6.75-8.25,3.75Zm17.25-10.5L376,642.61l6-2.25,2.25,1.5-.75,1.5-9.75,3H365.5l-2.25-3,.75-1.5-3-2.25Zm-104.26-294-6.75,7.5-6.75-.75-5.25-4.5-14.25,5.25-4.5-10.5-1.5.75,3,3,.75,4.5-7.5-4.5-1.5,3h-3.75l-2.25-2.25,3,4.5-1.5,5.25,3.75,2.25-3,3.75,2.25,7.5-3.75.75-8.25-6-1.5.75-7.51-8.25-6-2.25-2.25,3h-3l3.75-12-3-10.5-3,.75-4.5-10.5L166,317.13l-24.75-28.5,2.25-8.25L136,257.13l3-15-4.5-21-15-21-14.25-11.25.75-6-3.75-7.5,16.5-42-2.25-11.25,4.5-14.25.75-11.25-5.25-21-5.25-3.75,1.5-5.25.75-12,243.77.75v228l91.5,82.5,72.76,67.49,74.25,69,72.76,71.25v9l3,3,1.5,5.25,3,.75,1.5,2.25,3,7.5-.75.75,3,4.5v5.25h3l2.25,3,6,3.75,3,3,.75,3-6.75,6-9.75,6-1.5,5.25-5.25,4.5,1.5,3-1.5,6.75,1.5,8.25-2.25,1.5v9l-5.25,6-1.5,3.75h-4.5l1.5,4.5-2.25,3,3.75,3v6.75l-2.25,5.25,3,3.75,8.25.75,3,3,.75,9.75-3.75,2.25-.75,2.25L670,732.61l-5.25-1.5-2.25,1.5L523.76,745.36l-4.5-12.75,4.5,8.25v-5.25l-4.5-4.5-3,4.5-2.25-12,2.25-2.25-4.5-15.75-4.5-8.25L496,686.11l-29.26-24.75-8.25-1.5-2.25,4.5-6.75-2.25-1.5-2.25,2.25-3-1.5-4.5-7.5-11.25L427,642.61l-8.25-1.5-16.5-7.5-3-6-12-9.75-7.5-3-15,.75-8.25-3.74-7.5-.75-18.76,1.5-3-5.25-7.5-3.75,2.25-9-1.5-3.75,1.5-6.75-3.75-3.75,3-12-1.5-4.5L307,558.62l-1.5-3.75,2.25-7.5-1.5-4.5-6.75-1.5-9-12.75-7.5-2.25-3-9.75-6.75-6-14.25-21-11.25-9L244,460.37l2.25-3.75,2.25,2.25,3.75-3,2.25-12.75-6.75-9.75-10.5.75-6-3.75L217,413.12l1.5-8.24-3-9.75-3.75-3,.75-18.75,5.25-2.25,3,6-.75,2.25v6.75l15.75,11.25,6.75-.75-6.75-2.25-6-18-6.75-3v-8.25l-3.75-1.5v-4.5l4.5-3,17.25-3,17.25,2.25,3-4.5,4.5-.75v2.25h1.5l-1.5-3.75,1.5-1.5-6.75,3Z" fill="#efefef"/></svg>