<svg xmlns="http://www.w3.org/2000/svg" width="460.579" height="239" viewBox="0 0 460.579 239"><g transform="translate(11722.012 533.094)"><path d="M76.466-85.2A93.6,93.6,0,0,0,63.985-88.66,72.528,72.528,0,0,0,50.05-89.83a47.643,47.643,0,0,0-17.433,3.172A40.553,40.553,0,0,0,18.24-77.142a44.355,44.355,0,0,0-9.75,15.73A61.742,61.742,0,0,0,4.966-39.65q0,13.39,4.8,22.49A31.477,31.477,0,0,0,23.634-3.445Q32.707,1.17,45.5,1.17A71.3,71.3,0,0,0,64.013-.975,78.221,78.221,0,0,0,79.3-6.89v-10.3a82.18,82.18,0,0,1-16.276,6.15A68.573,68.573,0,0,1,45.317-8.684q-11.18.13-18.07-4.277A25.667,25.667,0,0,1,17.172-25.05a45.609,45.609,0,0,1-3.185-17.59q0-11.7,3.653-20.059A27.053,27.053,0,0,1,28.925-75.543q7.631-4.486,19.435-4.486a64.879,64.879,0,0,1,16.16,1.755,121.079,121.079,0,0,1,11.947,3.705Zm60.84,43.056v26.494L138.4,0h8.164l-.833-41.366q-.26-10.894-2.509-17.757a17.578,17.578,0,0,0-7.878-10.153q-5.63-3.29-16-3.29a57.33,57.33,0,0,0-10.152.858,69.311,69.311,0,0,0-8.8,2.145q-4.03,1.287-7.227,2.587v10.244q4.16-1.794,8.475-3.237a70.068,70.068,0,0,1,8.657-2.3,44.607,44.607,0,0,1,8.658-.857,22.844,22.844,0,0,1,10.6,2.119,12.6,12.6,0,0,1,5.9,6.734A33,33,0,0,1,137.306-42.146Zm1.873,23.374q-3.043,2.159-6.995,4.525a46.573,46.573,0,0,1-8.905,4.055,34.374,34.374,0,0,1-11.14,1.69,22.487,22.487,0,0,1-8.151-1.247,9.462,9.462,0,0,1-4.641-3.522,9.519,9.519,0,0,1-1.483-5.318,7.762,7.762,0,0,1,2.73-6.11q2.73-2.393,8.71-2.886l31.1-2.626-.311-5.59-31.07.936a25.177,25.177,0,0,0-9.79,2.275,18.672,18.672,0,0,0-7.553,6.175A16.76,16.76,0,0,0,88.763-16.38a17.583,17.583,0,0,0,2.38,9.4,15.463,15.463,0,0,0,6.773,5.928,23.764,23.764,0,0,0,10.217,2.067A34.46,34.46,0,0,0,119.067-.611a36.514,36.514,0,0,0,8.71-4.173,54.31,54.31,0,0,0,6.9-5.395q3.068-2.847,5.485-5.238Zm31.694-36.554.1-44.123h-9.933l1.716,45.526L161.927,0h10.089ZM245.44-14.794a55.377,55.377,0,0,1-12.025,4.667,53.042,53.042,0,0,1-13.741,1.78q-9.023,0-14.69-3.718a21.818,21.818,0,0,1-8.359-10.425,41.929,41.929,0,0,1-2.691-15.677A33.417,33.417,0,0,1,196.507-52.1a17.461,17.461,0,0,1,7.9-8.425q5.33-2.808,13.573-2.808a31.85,31.85,0,0,1,12.051,2.08,15.309,15.309,0,0,1,7.747,6.67Q240.421-50,240.137-42.3l4.211-3.534-54.366.65-.154,5.667,57.407.39q.207-1.69.285-3.185t.078-2.848a35.22,35.22,0,0,0-2.847-14.975,19.642,19.642,0,0,0-8.84-9.256q-5.993-3.172-15.38-3.172a38.9,38.9,0,0,0-12.9,2.185,31.723,31.723,0,0,0-11.219,6.773,32.488,32.488,0,0,0-7.878,11.725,44.849,44.849,0,0,0-2.925,17.043q0,11.726,3.939,19.708a26.963,26.963,0,0,0,11.492,12.09q7.553,4.108,18.24,4.108A52.887,52.887,0,0,0,233.622-.819a74.672,74.672,0,0,0,11.818-4.3Zm26.025,7.956-.987-48.283.156-44.33H260.7l1.769,45.63-.886,51.013q4.55,1.274,8.645,2.092T278.238.559a69.422,69.422,0,0,0,8.022.455,40.352,40.352,0,0,0,18.186-4.095,31.08,31.08,0,0,0,13.208-12.635q4.953-8.54,4.953-21.906,0-11.464-3.224-19.291a25.728,25.728,0,0,0-9.061-11.83,23.431,23.431,0,0,0-13.585-4,29.455,29.455,0,0,0-9.854,1.56,33.908,33.908,0,0,0-7.943,3.977,46.942,46.942,0,0,0-6.435,5.29q-2.912,2.873-5.408,5.447l1.507,2.836q2.029-1.353,4.577-2.913a51.646,51.646,0,0,1,5.577-2.938,39.238,39.238,0,0,1,6.447-2.262,29.161,29.161,0,0,1,7.319-.884q8.036,0,12.871,3.887a22.021,22.021,0,0,1,7.032,10.3,43.1,43.1,0,0,1,2.2,14.054,31.516,31.516,0,0,1-2.43,12.454,20.391,20.391,0,0,1-7.942,9.282q-5.512,3.562-14.665,3.8-6.837.183-13.26-.182t-11.206-.858Z" transform="translate(-11723.532 -433.644)" fill="#fff"/><path d="M52.2-51.45c-7.95,0-13.65,0-20.7-.9,6-23.85,8.1-30.9,9.6-34.2a66.025,66.025,0,0,1,16.35-2.1c13.8,0,17.1,5.4,17.1,15.75C74.55-58.95,65.85-51.45,52.2-51.45Zm-22.35,5.7c.45-1.8.9-3.6,1.35-5.25a46.026,46.026,0,0,0,15.6,2.85C54.15-30.6,62.1-13.35,68.25,0h12.9l.15-1.05c-4.05-1.05-5.7-1.2-8.4-4.8C67.35-13.65,58.2-30,50.85-48.45,65.85-50.1,80.1-61.2,80.1-74.7c0-9.6-4.65-15.3-20.7-15.3H18.9l-.15.9L28.8-87.75c6.9.9,6.9,1.65-3.45,43.5C15.15-3.9,14.85-3.6,9.3-2.85L-3.15-1.05V0h44.1l.15-1.05L25.35-2.7C19.5-3.3,19.5-4.2,29.85-45.75Zm102.6,38.7c0-13.8,10.2-50.7,14.25-63.45C109.65-71.1,87-39.3,87-12.3c0,9.6,2.85,13.8,8.85,13.8,11.85,0,22.35-16.95,42-58.65l.9.45c-4.2,12.75-11.7,38.85-11.7,51,0,4.95,1.95,7.2,4.65,7.2,6.9,0,13.8-9.6,19.35-22.35l-.6-.6c-6.15,12-12,18.75-15.6,18.75C133.35-2.7,132.45-4.35,132.45-7.05Zm-34.5,4.5c-3.6,0-5.7-1.95-5.7-10.05,0-21.15,15.45-52.35,48.75-56.1C119.4-16.05,105.15-2.55,97.95-2.55Zm83.1-60.9c0-4.95-1.95-7.2-4.65-7.2-6.9,0-13.8,9.6-19.35,22.35l.6.6c6.3-12,12-18.75,15.45-18.75,1.65,0,2.55,1.65,2.55,4.35,0,11.25-11.55,49.95-15,62.1h5.25c19.2-54.6,35.85-66.6,44.55-66.6,3,0,4.35,1.35,4.35,3.9,0,10.5-14.4,45.75-14.4,57,0,4.95,1.95,7.2,4.65,7.2,7.05,0,13.95-9.6,19.5-22.35l-.6-.6c-6.3,12-12,18.75-15.6,18.75-1.5,0-2.4-1.65-2.4-4.35,0-12.15,14.1-45.75,14.1-57.15,0-3.3-1.95-6.3-7.8-6.3-12.75,0-25.8,15-42.9,57.9l-.75-.3C173.1-26.4,181.05-54.3,181.05-63.45Zm88.05-5.4c5.7,0,8.55,2.7,8.55,6.45,0,7.05-11.7,15.9-35.7,21.75C246.45-55.8,256.2-68.85,269.1-68.85ZM282.75-63c0-4.65-3.45-7.65-10.05-7.65-25.05,0-39,27.45-39,49.8,0,13.2,7.2,22.35,16.8,22.35,11.1,0,20.1-9.45,28.2-25.5l-.9-.6c-6.6,12.3-14.55,22.5-24.9,22.5-7.35,0-13.65-7.5-13.65-20.1a64.5,64.5,0,0,1,2.55-17.55C268.05-44.55,282.75-55.05,282.75-63Zm30.6-.45c0-4.95-1.95-7.2-4.65-7.2-6.9,0-13.95,9.6-19.5,22.35l.75.45c6.15-11.85,11.85-18.6,15.45-18.6,1.5,0,2.4,1.65,2.4,4.35,0,12.15-14.1,45.6-14.1,57.15,0,3.3,2.1,6.15,7.8,6.15,12.75,0,25.65-14.85,43.05-57.75l.6.3c-2.7,8.25-6.9,22.5-8.25,28.95-1.95,7.95-3.45,16.2-5.4,25.05-3.9,20.4-7.65,24-26.7,24a86.224,86.224,0,0,1-20.7-2.85c-.15,5.25,4.8,7.65,16.2,7.65,24.75,0,35.1-16.35,38.4-38.55,2.55-16.8,11.25-46.05,14.4-57.15h-5.4c-19.05,54.45-35.55,66.6-44.4,66.6-2.85,0-4.35-1.35-4.35-3.9C298.95-16.95,313.35-52.2,313.35-63.45Z" transform="translate(-11614.532 -320.644)" fill="#fff"/><path d="M90.479,1H0V-1H90.479Z" transform="translate(-11722.012 -365.249)" fill="#fff"/></g></svg>