<svg xmlns="http://www.w3.org/2000/svg" xmlns:xlink="http://www.w3.org/1999/xlink" viewBox="0 0 1920 1080"><defs><style>.cls-1{fill:none;}.cls-2{fill:#ff958b;}.cls-3{fill:#0a111c;}.cls-4{clip-path:url(#clip-path);}.cls-12,.cls-5{fill:#f4e9df;}.cls-10,.cls-5,.cls-6,.cls-8{stroke:#0e1828;stroke-miterlimit:10;}.cls-6{fill:#316287;}.cls-7{clip-path:url(#clip-path-2);}.cls-8{fill:#fc6565;}.cls-9{clip-path:url(#clip-path-3);}.cls-10,.cls-14{fill:#6ea4c3;}.cls-11{clip-path:url(#clip-path-4);}.cls-12,.cls-14{stroke:#000;stroke-linecap:round;stroke-linejoin:round;}.cls-13{clip-path:url(#clip-path-5);}</style><clipPath id="clip-path"><rect class="cls-1" x="-2220" width="1920" height="1080"/></clipPath><clipPath id="clip-path-2"><rect class="cls-1" x="-3" width="1920" height="1080"/></clipPath><clipPath id="clip-path-3"><rect class="cls-1" x="2220" width="1920" height="1080" transform="translate(6360 1080) rotate(-180)"/></clipPath><clipPath id="clip-path-4"><rect class="cls-1" x="-3" y="-1380.05" width="1920" height="1080.1" transform="translate(1914 -1680) rotate(-180)"/></clipPath><clipPath id="clip-path-5"><rect class="cls-1" x="2220" y="-1380.05" width="1920" height="1080.1"/></clipPath></defs><title>Lines-Small-Pink</title><g id="Backgrounds"><rect class="cls-2" x="0.5" y="0.5" width="1919" height="1079"/><path class="cls-3" d="M1919,1V1079H1V1H1919m1-1H0V1080H1920V0Z"/></g><g id="Pattern"><g class="cls-4"><rect class="cls-5" x="-861.37" y="-105.89" width="88.54" height="2313.03" transform="translate(503.5 884.88) rotate(44.97)"/><rect class="cls-6" x="-736.09" y="19.27" width="88.54" height="2313.03" transform="translate(628.62 832.96) rotate(44.97)"/><rect class="cls-6" x="-610.81" y="144.43" width="88.54" height="2313.03" transform="translate(753.73 781.03) rotate(44.97)"/></g><g class="cls-7"><rect class="cls-8" x="228.12" y="-1232.36" width="88.54" height="2313.03" transform="translate(26.08 -214.71) rotate(44.97)"/><rect class="cls-8" x="102.62" y="-1357.75" width="88.54" height="2313.03" transform="translate(-99.25 -162.69) rotate(44.97)"/><rect class="cls-8" x="353.4" y="-1107.2" width="88.54" height="2313.03" transform="translate(151.2 -266.64) rotate(44.97)"/><rect class="cls-8" x="478.68" y="-982.04" width="88.54" height="2313.03" transform="translate(276.31 -318.56) rotate(44.97)"/><rect class="cls-8" x="603.96" y="-856.87" width="88.54" height="2313.03" transform="translate(401.43 -370.49) rotate(44.97)"/><rect class="cls-8" x="729.24" y="-731.71" width="88.54" height="2313.03" transform="translate(526.54 -422.42) rotate(44.97)"/><rect class="cls-8" x="854.52" y="-606.55" width="88.54" height="2313.03" transform="translate(651.66 -474.34) rotate(44.97)"/><rect class="cls-8" x="979.79" y="-481.38" width="88.54" height="2313.03" transform="translate(776.77 -526.27) rotate(44.97)"/><rect class="cls-8" x="1105.07" y="-356.22" width="88.54" height="2313.03" transform="translate(901.89 -578.2) rotate(44.97)"/><rect class="cls-8" x="1230.35" y="-231.06" width="88.54" height="2313.03" transform="translate(1027.01 -630.12) rotate(44.97)"/><rect class="cls-8" x="1355.63" y="-105.89" width="88.54" height="2313.03" transform="translate(1152.12 -682.05) rotate(44.97)"/><rect class="cls-8" x="1480.91" y="19.27" width="88.54" height="2313.03" transform="translate(1277.24 -733.97) rotate(44.97)"/><rect class="cls-8" x="1606.19" y="144.43" width="88.54" height="2313.03" transform="translate(1402.35 -785.9) rotate(44.97)"/></g><g class="cls-9"><rect class="cls-10" x="2692.82" y="-105.89" width="88.54" height="2313.03" transform="translate(5415.97 -140.66) rotate(135.03)"/><rect class="cls-10" x="2567.54" y="19.27" width="88.54" height="2313.03" transform="translate(5290.52 161.59) rotate(135.03)"/><rect class="cls-10" x="2442.26" y="144.43" width="88.54" height="2313.03" transform="translate(5165.08 463.85) rotate(135.03)"/></g><g class="cls-11"><path class="cls-12" d="M1920.53-4269c0,117.81-57.82,179.77-104.29,229.55-42.68,45.73-73.51,78.77-73.51,151.47s30.83,105.74,73.51,151.47c46.47,49.78,104.29,111.74,104.29,229.55s-57.83,179.76-104.29,229.54c-42.68,45.73-73.51,78.76-73.51,151.46s30.83,105.73,73.51,151.46c46.46,49.78,104.29,111.74,104.29,229.55s-57.83,179.76-104.29,229.54c-42.68,45.72-73.51,78.76-73.51,151.46s30.83,105.73,73.51,151.45c46.46,49.78,104.29,111.74,104.29,229.54s-57.83,179.76-104.29,229.54c-42.68,45.73-73.51,78.76-73.51,151.46s30.83,105.74,73.51,151.46c46.46,49.78,104.29,111.74,104.29,229.54s-57.83,179.76-104.29,229.55c-9.5,10.17-18.4,19.72-26.52,29.22-27.21,31.84-45.48,63.1-46.9,115.54q-.09,3.29-.09,6.7c0,72.69,30.83,105.73,73.51,151.45C1862.7-638.75,1920.53-576.8,1920.53-459h0c0,117.81-57.83,179.77-104.29,229.55-42.68,45.72-73.51,78.76-73.51,151.46s30.83,105.73,73.51,151.46c46.46,49.78,104.29,111.74,104.29,229.54S1862.7,482.8,1816.24,532.59c-42.68,45.72-73.51,78.76-73.51,151.45s30.83,105.73,73.51,151.46c46.46,49.78,104.29,111.73,104.29,229.54s-57.83,179.76-104.29,229.54c-42.68,45.72-73.51,78.76-73.51,151.46s30.83,105.73,73.51,151.46c46.46,49.78,104.29,111.73,104.29,229.54s-57.83,179.76-104.29,229.54c-42.68,45.73-73.51,78.76-73.51,151.46s30.83,105.73,73.51,151.46c46.46,49.78,104.29,111.74,104.29,229.54a57.22,57.22,0,1,1-114.44,0c0-72.69-30.83-105.73-73.51-151.46-46.46-49.78-104.29-111.73-104.29-229.54s57.83-179.76,104.29-229.54c42.68-45.73,73.51-78.76,73.51-151.46s-30.83-105.74-73.51-151.46c-46.46-49.78-104.29-111.74-104.29-229.54s57.83-179.76,104.29-229.54c42.68-45.73,73.51-78.77,73.51-151.46s-30.83-105.73-73.51-151.46C1686.12,863.8,1628.29,801.85,1628.29,684s57.83-179.76,104.29-229.54c42.68-45.72,73.51-78.76,73.51-151.46s-30.83-105.73-73.51-151.46C1686.12,101.8,1628.29,39.84,1628.29-78s57.83-179.76,104.29-229.54c42.68-45.73,73.51-78.77,73.51-151.47s-30.83-105.74-73.51-151.47c-46.47-49.78-104.29-111.74-104.29-229.55q0-5.52.17-10.88c2.75-88.67,39-144.57,76.38-188.09,9.34-10.85,18.75-21,27.74-30.58,42.68-45.72,73.51-78.76,73.51-151.47h0c0-72.69-30.83-105.72-73.51-151.44-46.46-49.79-104.29-111.74-104.29-229.55s57.83-179.76,104.29-229.54c42.68-45.73,73.51-78.76,73.51-151.46s-30.83-105.73-73.51-151.45c-46.46-49.79-104.29-111.74-104.29-229.54s57.83-179.76,104.29-229.55c42.68-45.72,73.51-78.76,73.51-151.45s-30.83-105.74-73.51-151.47c-46.46-49.78-104.29-111.74-104.29-229.54s57.83-179.76,104.29-229.54c42.68-45.73,73.51-78.76,73.51-151.46s-30.83-105.74-73.51-151.47c-46.47-49.79-104.29-111.74-104.29-229.55s57.82-179.77,104.29-229.55c42.68-45.73,73.51-78.77,73.51-151.47a57.22,57.22,0,0,1,57.22-57.22A57.22,57.22,0,0,1,1920.53-4269Z"/><path class="cls-12" d="M1512.71-4269c0,117.81-57.83,179.77-104.29,229.55-42.68,45.73-73.51,78.77-73.51,151.47s30.83,105.74,73.51,151.47c46.46,49.78,104.29,111.74,104.29,229.55s-57.83,179.76-104.29,229.54c-42.68,45.73-73.51,78.76-73.51,151.46s30.83,105.73,73.51,151.46c46.46,49.78,104.29,111.74,104.29,229.55s-57.83,179.76-104.29,229.54c-42.68,45.72-73.51,78.76-73.51,151.46s30.83,105.73,73.51,151.45c46.46,49.78,104.29,111.74,104.29,229.54s-57.83,179.76-104.29,229.54c-42.68,45.73-73.51,78.76-73.51,151.46s30.83,105.74,73.51,151.46c46.46,49.78,104.28,111.73,104.29,229.51v0c0,3.69-.06,7.31-.17,10.89-3.43,110.79-59.11,170.44-104.12,218.67-7.5,8-14.63,15.67-21.29,23.21-31.26,35.35-52.22,68.33-52.22,128.25q0,3.4.09,6.7c1.85,68.07,32.08,100.46,73.42,144.75,46.46,49.79,104.29,111.74,104.29,229.55h0v0c0,117.81-57.83,179.77-104.29,229.55-42.68,45.72-73.51,78.76-73.51,151.46s30.83,105.73,73.51,151.46c46.46,49.78,104.29,111.74,104.29,229.54s-57.83,179.76-104.29,229.55c-42.68,45.72-73.51,78.76-73.51,151.45s30.83,105.73,73.51,151.46c46.46,49.78,104.29,111.73,104.29,229.54s-57.83,179.76-104.29,229.54c-42.68,45.72-73.51,78.76-73.51,151.46s30.83,105.73,73.51,151.46c46.46,49.78,104.29,111.73,104.29,229.54s-57.83,179.76-104.29,229.54c-42.68,45.73-73.51,78.76-73.51,151.46s30.83,105.73,73.51,151.46c46.46,49.78,104.29,111.74,104.29,229.54a57.22,57.22,0,0,1-114.44,0c0-72.69-30.84-105.73-73.51-151.46-46.46-49.78-104.29-111.73-104.29-229.54s57.83-179.76,104.29-229.54c42.67-45.73,73.51-78.76,73.51-151.46s-30.83-105.74-73.51-151.46c-46.46-49.78-104.29-111.74-104.29-229.54s57.83-179.76,104.29-229.54c42.67-45.73,73.51-78.77,73.51-151.46s-30.83-105.73-73.51-151.46C1278.3,863.8,1220.47,801.85,1220.47,684s57.83-179.76,104.29-229.54c42.67-45.72,73.51-78.76,73.51-151.46s-30.84-105.73-73.51-151.46C1278.3,101.8,1220.47,39.84,1220.47-78s57.83-179.76,104.29-229.54c42.67-45.73,73.51-78.77,73.51-151.47s-30.84-105.74-73.51-151.47c-45-48.22-100.69-107.88-104.13-218.67-.11-3.58-.16-7.2-.16-10.88,0-117.81,57.83-179.76,104.29-229.55l4.11-4.41c39.22-42.09,67.52-74.56,69.31-140.35q.09-3.3.09-6.7c0-72.69-30.83-105.73-73.51-151.45-46.46-49.79-104.29-111.74-104.29-229.55s57.83-179.76,104.29-229.54c42.67-45.73,73.51-78.76,73.51-151.46s-30.83-105.73-73.51-151.45c-46.46-49.79-104.29-111.74-104.29-229.54s57.83-179.76,104.29-229.55c42.67-45.72,73.51-78.76,73.51-151.45s-30.84-105.74-73.51-151.47c-46.46-49.78-104.29-111.74-104.29-229.54s57.83-179.76,104.29-229.54c42.67-45.73,73.51-78.76,73.51-151.46s-30.84-105.74-73.51-151.47c-46.47-49.79-104.29-111.74-104.29-229.55s57.82-179.77,104.29-229.55c42.67-45.73,73.51-78.77,73.51-151.47a57.22,57.22,0,0,1,57.22-57.22A57.22,57.22,0,0,1,1512.71-4269Z"/><path class="cls-12" d="M1104.89-4269c0,117.81-57.83,179.77-104.29,229.55-42.68,45.73-73.51,78.77-73.51,151.47s30.83,105.74,73.51,151.47c46.46,49.78,104.29,111.74,104.29,229.55s-57.83,179.76-104.29,229.54c-42.68,45.73-73.51,78.76-73.51,151.46s30.83,105.73,73.51,151.46c46.46,49.78,104.29,111.74,104.29,229.55s-57.83,179.76-104.29,229.54c-42.68,45.72-73.51,78.76-73.51,151.46s30.83,105.73,73.51,151.45c46.46,49.78,104.29,111.74,104.29,229.54s-57.83,179.76-104.29,229.54c-42.68,45.73-73.51,78.76-73.51,151.46s30.83,105.74,73.51,151.46c46.45,49.78,104.28,111.73,104.29,229.51v0c0,3.69-.06,7.31-.17,10.89-3.43,110.79-59.11,170.44-104.12,218.67-7.5,8-14.63,15.67-21.29,23.21C948-932.89,927.09-899.91,927.09-840q0,3.4.09,6.7c1.84,68.07,32.07,100.46,73.42,144.75,46.46,49.79,104.29,111.74,104.29,229.55h0v0c0,117.81-57.83,179.77-104.29,229.55C957.92-183.7,927.09-150.66,927.09-78S957.92,27.77,1000.6,73.5c46.46,49.78,104.29,111.74,104.29,229.54S1047.06,482.8,1000.6,532.59c-42.68,45.72-73.51,78.76-73.51,151.45s30.83,105.73,73.51,151.46c46.46,49.78,104.29,111.73,104.29,229.54s-57.83,179.76-104.29,229.54c-42.68,45.72-73.51,78.76-73.51,151.46s30.83,105.73,73.51,151.46c46.46,49.78,104.29,111.73,104.29,229.54s-57.83,179.76-104.29,229.54c-42.68,45.73-73.51,78.76-73.51,151.46s30.83,105.73,73.51,151.46c46.46,49.78,104.29,111.74,104.29,229.54a57.22,57.22,0,0,1-114.44,0c0-72.69-30.84-105.73-73.52-151.46C870.47,2387.8,812.64,2325.85,812.64,2208s57.83-179.76,104.29-229.54c42.68-45.73,73.52-78.76,73.52-151.46s-30.84-105.74-73.52-151.46C870.47,1625.8,812.64,1563.84,812.64,1446s57.83-179.76,104.29-229.54c42.68-45.73,73.52-78.77,73.52-151.46s-30.84-105.73-73.52-151.46C870.47,863.8,812.64,801.85,812.64,684S870.47,504.28,916.93,454.5c42.68-45.72,73.52-78.76,73.52-151.46s-30.84-105.73-73.52-151.46C870.47,101.8,812.64,39.84,812.64-78S870.47-257.72,916.93-307.5c42.68-45.73,73.52-78.77,73.52-151.47s-30.84-105.74-73.52-151.47c-45-48.22-100.69-107.88-104.12-218.67-.11-3.58-.17-7.2-.17-10.88,0-117.81,57.83-179.76,104.29-229.55l4.12-4.41c39.22-42.09,67.52-74.56,69.31-140.35q.09-3.3.09-6.7c0-72.69-30.84-105.73-73.52-151.45-46.46-49.79-104.29-111.74-104.29-229.55s57.83-179.76,104.29-229.54c42.68-45.73,73.52-78.76,73.52-151.46s-30.84-105.73-73.52-151.45c-46.46-49.79-104.29-111.74-104.29-229.54s57.83-179.76,104.29-229.55c42.68-45.72,73.52-78.76,73.52-151.45s-30.84-105.74-73.52-151.47C870.47-2946.24,812.64-3008.2,812.64-3126s57.83-179.76,104.29-229.54c42.68-45.73,73.52-78.76,73.52-151.46s-30.84-105.74-73.52-151.47c-46.46-49.79-104.29-111.74-104.29-229.55s57.83-179.77,104.29-229.55c42.68-45.73,73.52-78.77,73.52-151.47a57.22,57.22,0,0,1,57.22-57.22A57.22,57.22,0,0,1,1104.89-4269Z"/><path class="cls-12" d="M697.06-4269c0,117.81-57.82,179.77-104.29,229.55-42.67,45.73-73.51,78.77-73.51,151.47s30.84,105.74,73.51,151.47c46.47,49.78,104.29,111.74,104.29,229.55s-57.82,179.76-104.29,229.54c-42.67,45.73-73.51,78.76-73.51,151.46s30.84,105.73,73.51,151.46c46.47,49.78,104.29,111.74,104.29,229.55s-57.82,179.76-104.29,229.54c-42.67,45.72-73.51,78.76-73.51,151.46s30.84,105.73,73.51,151.45c46.47,49.78,104.29,111.74,104.29,229.54s-57.82,179.76-104.29,229.54c-42.67,45.73-73.51,78.76-73.51,151.46s30.84,105.74,73.51,151.46c46.46,49.78,104.29,111.73,104.29,229.52h0c0,117.81-57.82,179.76-104.29,229.55-8,8.57-15.58,16.7-22.63,24.72-30.52,34.79-50.88,67.67-50.88,126.74,0,72.69,30.84,105.73,73.51,151.45C639.24-638.75,697.06-576.8,697.06-459h0c0,117.81-57.82,179.77-104.29,229.55C550.1-183.7,519.26-150.66,519.26-78S550.1,27.77,592.77,73.5C639.24,123.28,697.06,185.24,697.06,303S639.24,482.8,592.77,532.59C550.1,578.31,519.26,611.35,519.26,684S550.1,789.77,592.77,835.5C639.24,885.28,697.06,947.23,697.06,1065s-57.82,179.76-104.29,229.54c-42.67,45.72-73.51,78.76-73.51,151.46s30.84,105.73,73.51,151.46c46.47,49.78,104.29,111.73,104.29,229.54s-57.82,179.76-104.29,229.54c-42.67,45.73-73.51,78.76-73.51,151.46s30.84,105.73,73.51,151.46c46.47,49.78,104.29,111.74,104.29,229.54a57.22,57.22,0,1,1-114.44,0c0-72.69-30.83-105.73-73.51-151.46C462.65,2387.8,404.82,2325.85,404.82,2208s57.83-179.76,104.29-229.54c42.68-45.73,73.51-78.76,73.51-151.46s-30.83-105.74-73.51-151.46C462.65,1625.8,404.82,1563.84,404.82,1446s57.83-179.76,104.29-229.54c42.68-45.73,73.51-78.77,73.51-151.46s-30.83-105.73-73.51-151.46C462.65,863.8,404.82,801.85,404.82,684S462.65,504.28,509.11,454.5c42.68-45.72,73.51-78.76,73.51-151.46s-30.83-105.73-73.51-151.46C462.65,101.8,404.82,39.84,404.82-78S462.65-257.72,509.11-307.5c42.68-45.73,73.51-78.77,73.51-151.47s-30.83-105.74-73.51-151.47C462.65-660.22,404.82-722.18,404.82-840h0c0-110,50.39-171.26,94.88-219.43l1.47-1.59,7.94-8.53c42.68-45.72,73.51-78.76,73.51-151.46s-30.83-105.73-73.51-151.45c-46.46-49.79-104.29-111.74-104.29-229.55s57.83-179.76,104.29-229.54c42.68-45.73,73.51-78.76,73.51-151.46s-30.83-105.73-73.51-151.45c-46.46-49.79-104.29-111.74-104.29-229.54s57.83-179.76,104.29-229.55c42.68-45.72,73.51-78.76,73.51-151.45s-30.83-105.74-73.51-151.47C462.65-2946.24,404.82-3008.2,404.82-3126s57.83-179.76,104.29-229.54c42.68-45.73,73.51-78.76,73.51-151.46s-30.83-105.74-73.51-151.47c-46.46-49.79-104.29-111.74-104.29-229.55s57.83-179.77,104.29-229.55c42.68-45.73,73.51-78.77,73.51-151.47a57.22,57.22,0,0,1,57.22-57.22A57.22,57.22,0,0,1,697.06-4269Z"/><path class="cls-12" d="M289.24-4269c0,117.81-57.82,179.77-104.29,229.55-42.67,45.73-73.51,78.77-73.51,151.47s30.84,105.74,73.51,151.47c46.47,49.78,104.29,111.74,104.29,229.55S231.41-3327.24,185-3277.46c-42.68,45.73-73.51,78.76-73.51,151.46s30.84,105.73,73.51,151.46c46.46,49.78,104.29,111.74,104.29,229.55S231.41-2565.23,185-2515.45c-42.67,45.72-73.51,78.76-73.51,151.46s30.83,105.73,73.51,151.45c46.46,49.78,104.29,111.74,104.29,229.54S231.41-1803.24,185-1753.46c-42.67,45.73-73.51,78.76-73.51,151.46s30.84,105.74,73.51,151.46c46.46,49.78,104.29,111.73,104.29,229.52h0c0,117.81-57.83,179.76-104.29,229.55-8,8.57-15.59,16.7-22.63,24.72C131.8-931.94,111.44-899.06,111.44-840c0,72.69,30.84,105.73,73.51,151.45C231.41-638.75,289.24-576.8,289.24-459h0c0,117.81-57.83,179.77-104.29,229.55C142.27-183.7,111.44-150.66,111.44-78S142.28,27.77,185,73.5C231.41,123.28,289.24,185.24,289.24,303S231.41,482.8,185,532.59c-42.67,45.72-73.51,78.76-73.51,151.45S142.27,789.77,185,835.5C231.41,885.28,289.24,947.23,289.24,1065S231.41,1244.8,185,1294.58c-42.67,45.72-73.51,78.76-73.51,151.46S142.28,1551.77,185,1597.5c46.46,49.78,104.29,111.73,104.29,229.54S231.41,2006.8,185,2056.58c-42.67,45.73-73.51,78.76-73.51,151.46S142.28,2313.77,185,2359.5c46.46,49.78,104.29,111.74,104.29,229.54a57.22,57.22,0,0,1-114.44,0c0-72.69-30.83-105.73-73.51-151.46C54.83,2387.8-3,2325.85-3,2208s57.83-179.76,104.29-229.54C144,1932.77,174.8,1899.74,174.8,1827S144,1721.3,101.29,1675.58C54.83,1625.8-3,1563.84-3,1446s57.83-179.76,104.29-229.54C144,1170.77,174.8,1137.73,174.8,1065S144,959.31,101.29,913.58C54.83,863.8-3,801.85-3,684S54.83,504.28,101.29,454.5C144,408.78,174.8,375.74,174.8,303S144,197.31,101.29,151.58C54.83,101.8-3,39.84-3-78S54.83-257.72,101.29-307.5C144-353.23,174.8-386.27,174.8-459S144-564.71,101.29-610.44C54.83-660.22-3-722.18-3-840h0c0-110,50.38-171.26,94.88-219.43l1.47-1.59c2.67-2.88,5.33-5.73,7.94-8.53C144-1115.26,174.8-1148.3,174.8-1221S144-1326.73,101.29-1372.45C54.83-1422.24-3-1484.19-3-1602s57.83-179.76,104.29-229.54C144-1877.27,174.8-1910.3,174.8-1983S144-2088.73,101.29-2134.45C54.83-2184.24-3-2246.19-3-2364s57.83-179.76,104.29-229.55C144-2639.26,174.8-2672.3,174.8-2745S144-2850.73,101.29-2896.46C54.83-2946.24-3-3008.2-3-3126s57.83-179.76,104.29-229.54C144-3401.27,174.8-3434.3,174.8-3507S144-3612.74,101.29-3658.47C54.83-3708.26-3-3770.21-3-3888s57.83-179.77,104.29-229.55C144-4163.3,174.8-4196.34,174.8-4269A57.22,57.22,0,0,1,232-4326.26,57.22,57.22,0,0,1,289.24-4269Z"/></g><g class="cls-13"><path class="cls-14" d="M993-4269c0,117.81,57.83,179.77,104.29,229.55,42.68,45.73,73.51,78.77,73.51,151.47s-30.83,105.74-73.51,151.47C1050.83-3686.77,993-3624.81,993-3507s57.83,179.76,104.29,229.54c42.68,45.73,73.51,78.76,73.51,151.46s-30.83,105.73-73.51,151.46C1050.83-2924.76,993-2862.8,993-2745s57.83,179.76,104.29,229.54c42.68,45.72,73.51,78.76,73.51,151.46s-30.83,105.73-73.51,151.45C1050.83-2162.76,993-2100.8,993-1983s57.83,179.76,104.29,229.54c42.68,45.73,73.51,78.76,73.51,151.46s-30.83,105.74-73.51,151.46C1050.83-1400.76,993-1338.8,993-1221s57.83,179.76,104.29,229.55c8.77,9.39,17,18.25,24.64,27,28.24,32.61,47.33,64.1,48.78,117.73q.09,3.3.09,6.7c0,72.69-30.83,105.73-73.51,151.45C1050.83-638.75,993-576.8,993-459h0c0,117.81,57.83,179.77,104.29,229.55C1140-183.7,1170.8-150.66,1170.8-78S1140,27.77,1097.29,73.5C1050.83,123.28,993,185.24,993,303s57.83,179.76,104.29,229.55C1140,578.31,1170.8,611.35,1170.8,684S1140,789.77,1097.29,835.5C1050.83,885.28,993,947.23,993,1065s57.83,179.76,104.29,229.54c42.68,45.72,73.51,78.76,73.51,151.46s-30.83,105.73-73.51,151.46C1050.83,1647.28,993,1709.23,993,1827s57.83,179.76,104.29,229.54c42.68,45.73,73.51,78.76,73.51,151.46s-30.83,105.73-73.51,151.46C1050.83,2409.28,993,2471.24,993,2589a57.22,57.22,0,1,0,114.44,0c0-72.69,30.84-105.73,73.51-151.46,46.47-49.78,104.29-111.73,104.29-229.54S1227.42,2028.28,1181,1978.5c-42.67-45.73-73.51-78.76-73.51-151.46s30.83-105.74,73.51-151.46c46.47-49.78,104.29-111.74,104.29-229.54S1227.42,1266.28,1181,1216.5c-42.67-45.73-73.51-78.77-73.51-151.46s30.83-105.73,73.51-151.46c46.47-49.78,104.29-111.73,104.29-229.54S1227.42,504.28,1181,454.5c-42.67-45.72-73.51-78.76-73.51-151.46s30.84-105.73,73.51-151.46C1227.42,101.8,1285.24,39.84,1285.24-78S1227.42-257.72,1181-307.5c-42.67-45.73-73.51-78.77-73.51-151.47s30.84-105.74,73.51-151.47c46.47-49.78,104.29-111.74,104.29-229.55,0-3.68,0-7.3-.16-10.88-2.83-91.12-41-147.64-79.5-191.67-1.78-2-3.56-4-5.34-6q-3.73-4.17-7.44-8.2-6-6.52-11.85-12.77c-42.67-45.72-73.51-78.76-73.51-151.47h0c0-72.69,30.84-105.72,73.51-151.44,46.47-49.79,104.29-111.74,104.29-229.55s-57.82-179.76-104.29-229.54c-42.67-45.73-73.51-78.76-73.51-151.46s30.83-105.73,73.51-151.45c46.47-49.79,104.29-111.74,104.29-229.54s-57.82-179.76-104.29-229.55c-42.67-45.72-73.51-78.76-73.51-151.45s30.84-105.74,73.51-151.47c46.47-49.78,104.29-111.74,104.29-229.54s-57.82-179.76-104.29-229.54c-42.67-45.73-73.51-78.76-73.51-151.46s30.84-105.74,73.51-151.47c46.47-49.79,104.29-111.74,104.29-229.55s-57.82-179.77-104.29-229.55c-42.67-45.73-73.51-78.77-73.51-151.47a57.22,57.22,0,0,0-57.22-57.22A57.22,57.22,0,0,0,993-4269Z"/><path class="cls-14" d="M1400.82-4269c0,117.81,57.83,179.77,104.29,229.55,42.68,45.73,73.52,78.77,73.52,151.47s-30.84,105.74-73.52,151.47c-46.46,49.78-104.29,111.74-104.29,229.55s57.83,179.76,104.29,229.54c42.68,45.73,73.52,78.76,73.52,151.46s-30.84,105.73-73.52,151.46c-46.46,49.78-104.29,111.74-104.29,229.55s57.83,179.76,104.29,229.54c42.68,45.72,73.52,78.76,73.52,151.46s-30.84,105.73-73.52,151.45c-46.46,49.78-104.29,111.74-104.29,229.54s57.83,179.76,104.29,229.54c42.68,45.73,73.52,78.76,73.52,151.46s-30.84,105.74-73.52,151.46c-46.46,49.78-104.29,111.74-104.29,229.54s57.83,179.76,104.29,229.55c8.77,9.39,17,18.25,24.64,27,28.24,32.61,47.33,64.1,48.79,117.73q.09,3.3.09,6.7c0,72.69-30.84,105.73-73.52,151.45C1458.65-638.75,1400.82-576.8,1400.82-459h0c0,117.81,57.83,179.77,104.29,229.55,42.68,45.72,73.52,78.76,73.52,151.46S1547.79,27.77,1505.11,73.5c-46.46,49.78-104.29,111.74-104.29,229.54s57.83,179.76,104.29,229.55c42.68,45.72,73.52,78.76,73.52,151.45s-30.84,105.73-73.52,151.46c-46.46,49.78-104.29,111.73-104.29,229.54s57.83,179.76,104.29,229.54c42.68,45.72,73.52,78.76,73.52,151.46s-30.84,105.73-73.52,151.46c-46.46,49.78-104.29,111.73-104.29,229.54s57.83,179.76,104.29,229.54c42.68,45.73,73.52,78.76,73.52,151.46s-30.84,105.73-73.52,151.46c-46.46,49.78-104.29,111.74-104.29,229.54a57.22,57.22,0,0,0,114.44,0c0-72.69,30.84-105.73,73.52-151.46,46.46-49.78,104.29-111.73,104.29-229.54s-57.83-179.76-104.29-229.54c-42.68-45.73-73.52-78.76-73.52-151.46s30.84-105.74,73.52-151.46c46.46-49.78,104.29-111.74,104.29-229.54s-57.83-179.76-104.29-229.54c-42.68-45.73-73.52-78.77-73.52-151.46s30.84-105.73,73.52-151.46c46.46-49.78,104.29-111.73,104.29-229.54s-57.83-179.76-104.29-229.54c-42.68-45.72-73.52-78.76-73.52-151.46s30.84-105.73,73.52-151.46C1635.24,101.8,1693.07,39.84,1693.07-78s-57.83-179.76-104.29-229.54c-42.68-45.73-73.52-78.77-73.52-151.47s30.84-105.74,73.52-151.47c46.46-49.78,104.29-111.74,104.29-229.55,0-3.68-.06-7.3-.17-10.88-2.83-91.12-41-147.64-79.5-191.67-1.78-2-3.56-4-5.34-6q-3.74-4.17-7.44-8.2-6-6.52-11.84-12.77c-42.68-45.72-73.52-78.76-73.52-151.47h0c0-72.69,30.84-105.72,73.52-151.44,46.46-49.79,104.29-111.74,104.29-229.55s-57.83-179.76-104.29-229.54c-42.68-45.73-73.52-78.76-73.52-151.46s30.84-105.73,73.52-151.45c46.46-49.79,104.29-111.74,104.29-229.54s-57.83-179.76-104.29-229.55c-42.68-45.72-73.52-78.76-73.52-151.45s30.84-105.74,73.52-151.47c46.46-49.78,104.29-111.74,104.29-229.54s-57.83-179.76-104.29-229.54c-42.68-45.73-73.52-78.76-73.52-151.46s30.84-105.74,73.52-151.47c46.46-49.79,104.29-111.74,104.29-229.55s-57.83-179.77-104.29-229.55c-42.68-45.73-73.52-78.77-73.52-151.47a57.22,57.22,0,0,0-57.22-57.22A57.22,57.22,0,0,0,1400.82-4269Z"/><path class="cls-14" d="M1808.65-4269c0,117.81,57.82,179.77,104.29,229.55,42.67,45.73,73.51,78.77,73.51,151.47s-30.84,105.74-73.51,151.47c-46.47,49.78-104.29,111.74-104.29,229.55s57.82,179.76,104.29,229.54c42.68,45.73,73.51,78.76,73.51,151.46s-30.84,105.73-73.51,151.46c-46.47,49.78-104.29,111.74-104.29,229.55s57.82,179.76,104.29,229.54c42.67,45.72,73.51,78.76,73.51,151.46s-30.83,105.73-73.51,151.45c-46.47,49.78-104.29,111.74-104.29,229.54s57.82,179.76,104.29,229.54c42.67,45.73,73.51,78.76,73.51,151.46s-30.84,105.74-73.51,151.46c-46.47,49.78-104.29,111.74-104.29,229.54s57.82,179.76,104.29,229.55c9.49,10.17,18.4,19.72,26.52,29.22,27.2,31.84,45.47,63.1,46.9,115.54q.09,3.29.09,6.7c0,72.69-30.84,105.73-73.51,151.45C1866.47-638.75,1808.65-576.8,1808.65-459h0c0,117.81,57.82,179.77,104.29,229.55,42.68,45.72,73.51,78.76,73.51,151.46S1955.61,27.77,1912.94,73.5c-46.47,49.78-104.29,111.74-104.29,229.54s57.82,179.76,104.29,229.55c42.67,45.72,73.51,78.76,73.51,151.45s-30.83,105.73-73.51,151.46c-46.47,49.78-104.29,111.73-104.29,229.54s57.82,179.76,104.29,229.54c42.67,45.72,73.51,78.76,73.51,151.46s-30.84,105.73-73.51,151.46c-46.47,49.78-104.29,111.73-104.29,229.54s57.82,179.76,104.29,229.54c42.67,45.73,73.51,78.76,73.51,151.46s-30.84,105.73-73.51,151.46c-46.47,49.78-104.29,111.74-104.29,229.54a57.22,57.22,0,0,0,114.44,0c0-72.69,30.83-105.73,73.51-151.46,46.46-49.78,104.29-111.73,104.29-229.54s-57.83-179.76-104.29-229.54c-42.68-45.73-73.51-78.76-73.51-151.46s30.83-105.74,73.51-151.46c46.46-49.78,104.29-111.74,104.29-229.54s-57.83-179.76-104.29-229.54c-42.68-45.73-73.51-78.77-73.51-151.46s30.83-105.73,73.51-151.46c46.46-49.78,104.29-111.73,104.29-229.54S2043.06,504.28,1996.6,454.5c-42.68-45.72-73.51-78.76-73.51-151.46s30.83-105.73,73.51-151.46C2043.06,101.8,2100.89,39.84,2100.89-78S2043.06-257.72,1996.6-307.5c-42.68-45.73-73.51-78.77-73.51-151.47s30.83-105.74,73.51-151.47c46.46-49.78,104.29-111.74,104.29-229.55q0-5.52-.17-10.88c-2.75-88.67-39-144.57-76.39-188.09-9.33-10.85-18.74-21-27.73-30.58-42.68-45.72-73.51-78.76-73.51-151.47h0c0-72.69,30.83-105.72,73.51-151.44,46.46-49.79,104.29-111.74,104.29-229.55s-57.83-179.76-104.29-229.54c-42.68-45.73-73.51-78.76-73.51-151.46s30.83-105.73,73.51-151.45c46.46-49.79,104.29-111.74,104.29-229.54s-57.83-179.76-104.29-229.55c-42.68-45.72-73.51-78.76-73.51-151.45s30.83-105.74,73.51-151.47c46.46-49.78,104.29-111.74,104.29-229.54s-57.83-179.76-104.29-229.54c-42.68-45.73-73.51-78.76-73.51-151.46s30.83-105.74,73.51-151.47c46.46-49.79,104.29-111.74,104.29-229.55s-57.83-179.77-104.29-229.55c-42.68-45.73-73.51-78.77-73.51-151.47a57.22,57.22,0,0,0-57.22-57.22A57.22,57.22,0,0,0,1808.65-4269Z"/></g></g></svg>