<svg xmlns="http://www.w3.org/2000/svg" xmlns:xlink="http://www.w3.org/1999/xlink" viewBox="0 0 1920 1080"><defs><style>.cls-1{fill:none;}.cls-2{fill:#ff958b;}.cls-3{fill:#0a111c;}.cls-4{clip-path:url(#clip-path);}.cls-13,.cls-15,.cls-5{fill:#f4e9df;}.cls-10,.cls-12,.cls-13,.cls-5,.cls-6,.cls-8{stroke:#0e1828;stroke-miterlimit:10;}.cls-6{fill:#316287;}.cls-7{clip-path:url(#clip-path-2);}.cls-12,.cls-8{fill:#fc6565;}.cls-9{clip-path:url(#clip-path-3);}.cls-10,.cls-17{fill:#6ea4c3;}.cls-11{clip-path:url(#clip-path-4);}.cls-12,.cls-13{stroke-width:1.2px;}.cls-14{clip-path:url(#clip-path-5);}.cls-15,.cls-17{stroke:#000;stroke-linecap:round;stroke-linejoin:round;}.cls-16{clip-path:url(#clip-path-6);}</style><clipPath id="clip-path"><rect class="cls-1" x="-2220" y="-1380" width="1920" height="1080"/></clipPath><clipPath id="clip-path-2"><rect class="cls-1" x="-3" y="-1380" width="1920" height="1080"/></clipPath><clipPath id="clip-path-3"><rect class="cls-1" x="2220" y="-1380" width="1920" height="1080" transform="translate(6360 -1680) rotate(-180)"/></clipPath><clipPath id="clip-path-4"><rect class="cls-1" x="-3" width="1920" height="1080"/></clipPath><clipPath id="clip-path-5"><rect class="cls-1" x="-3" y="-2760.05" width="1920" height="1080.1" transform="translate(1914 -4440) rotate(-180)"/></clipPath><clipPath id="clip-path-6"><rect class="cls-1" x="2220" y="-2760.05" width="1920" height="1080.1"/></clipPath></defs><title>Lines-Large-Pink</title><g id="Backgrounds"><rect class="cls-2" x="0.5" y="0.5" width="1919" height="1079"/><path class="cls-3" d="M1919,1V1079H1V1H1919m1-1H0V1080H1920V0Z"/></g><g id="Pattern"><g class="cls-4"><rect class="cls-5" x="-861.37" y="-1485.89" width="88.54" height="2313.03" transform="translate(-471.85 481.14) rotate(44.97)"/><rect class="cls-6" x="-736.09" y="-1360.73" width="88.54" height="2313.03" transform="translate(-346.74 429.21) rotate(44.97)"/><rect class="cls-6" x="-610.81" y="-1235.57" width="88.54" height="2313.03" transform="translate(-221.62 377.29) rotate(44.97)"/></g><g class="cls-7"><rect class="cls-8" x="854.52" y="-1986.55" width="88.54" height="2313.03" transform="translate(-323.7 -878.08) rotate(44.97)"/><rect class="cls-8" x="979.79" y="-1861.38" width="88.54" height="2313.03" transform="translate(-198.58 -930.01) rotate(44.97)"/><rect class="cls-8" x="1105.07" y="-1736.22" width="88.54" height="2313.03" transform="translate(-73.47 -981.94) rotate(44.97)"/><rect class="cls-8" x="1230.35" y="-1611.06" width="88.54" height="2313.03" transform="translate(51.65 -1033.86) rotate(44.97)"/><rect class="cls-8" x="1355.63" y="-1485.89" width="88.54" height="2313.03" transform="translate(176.76 -1085.79) rotate(44.97)"/><rect class="cls-8" x="1480.91" y="-1360.73" width="88.54" height="2313.03" transform="translate(301.88 -1137.72) rotate(44.97)"/><rect class="cls-8" x="1606.19" y="-1235.57" width="88.54" height="2313.03" transform="translate(427 -1189.64) rotate(44.97)"/></g><g class="cls-9"><rect class="cls-10" x="2692.82" y="-1485.89" width="88.54" height="2313.03" transform="translate(4440.61 -2496.92) rotate(135.03)"/><rect class="cls-10" x="2567.54" y="-1360.73" width="88.54" height="2313.03" transform="translate(4315.17 -2194.67) rotate(135.03)"/><rect class="cls-10" x="2442.26" y="-1235.57" width="88.54" height="2313.03" transform="translate(4189.72 -1892.41) rotate(135.03)"/></g><g class="cls-11"><polygon class="cls-12" points="1916.83 773.92 1916.86 928.4 -5.04 617.53 -5.08 463.05 1916.83 773.92"/><polygon class="cls-13" points="1916.9 1083.43 1916.93 1237.91 -4.97 927.04 -5.01 772.56 1916.9 1083.43"/><polygon class="cls-12" points="1916.9 155.43 1916.93 309.91 -4.97 -0.96 -5.01 -155.44 1916.9 155.43"/><polygon class="cls-13" points="1916.9 465.43 1916.93 619.91 -4.97 309.04 -5.01 154.56 1916.9 465.43"/></g><g class="cls-14"><path class="cls-15" d="M1920.53-5649c0,117.81-57.82,179.77-104.29,229.55-42.68,45.73-73.51,78.77-73.51,151.47s30.83,105.74,73.51,151.47c46.47,49.78,104.29,111.74,104.29,229.55s-57.83,179.76-104.29,229.54c-42.68,45.73-73.51,78.76-73.51,151.46s30.83,105.73,73.51,151.46c46.46,49.78,104.29,111.74,104.29,229.55s-57.83,179.76-104.29,229.54c-42.68,45.72-73.51,78.76-73.51,151.46s30.83,105.73,73.51,151.45c46.46,49.78,104.29,111.74,104.29,229.54s-57.83,179.76-104.29,229.54c-42.68,45.73-73.51,78.76-73.51,151.46s30.83,105.74,73.51,151.46c46.46,49.78,104.29,111.74,104.29,229.54s-57.83,179.76-104.29,229.55c-9.5,10.17-18.4,19.72-26.52,29.22-27.21,31.84-45.48,63.1-46.9,115.54q-.09,3.29-.09,6.7c0,72.69,30.83,105.73,73.51,151.45,46.46,49.79,104.29,111.74,104.29,229.55h0c0,117.81-57.83,179.77-104.29,229.55-42.68,45.72-73.51,78.76-73.51,151.46s30.83,105.73,73.51,151.46c46.46,49.78,104.29,111.74,104.29,229.54S1862.7-897.2,1816.24-847.41c-42.68,45.72-73.51,78.76-73.51,151.45s30.83,105.73,73.51,151.46c46.46,49.78,104.29,111.73,104.29,229.54S1862.7-135.2,1816.24-85.42C1773.56-39.7,1742.73-6.66,1742.73,66s30.83,105.73,73.51,151.46c46.46,49.78,104.29,111.73,104.29,229.54S1862.7,626.8,1816.24,676.58c-42.68,45.73-73.51,78.76-73.51,151.46s30.83,105.73,73.51,151.46c46.46,49.78,104.29,111.74,104.29,229.54a57.22,57.22,0,0,1-114.44,0c0-72.69-30.83-105.73-73.51-151.46-46.46-49.78-104.29-111.73-104.29-229.54s57.83-179.76,104.29-229.54c42.68-45.73,73.51-78.76,73.51-151.46s-30.83-105.74-73.51-151.46C1686.12,245.8,1628.29,183.84,1628.29,66s57.83-179.76,104.29-229.54c42.68-45.73,73.51-78.77,73.51-151.46s-30.83-105.73-73.51-151.46C1686.12-516.2,1628.29-578.15,1628.29-696s57.83-179.76,104.29-229.54c42.68-45.72,73.51-78.76,73.51-151.46s-30.83-105.73-73.51-151.46c-46.46-49.78-104.29-111.74-104.29-229.54s57.83-179.76,104.29-229.54c42.68-45.73,73.51-78.77,73.51-151.47s-30.83-105.74-73.51-151.47c-46.47-49.78-104.29-111.74-104.29-229.55q0-5.52.17-10.88c2.75-88.67,39-144.57,76.38-188.09,9.34-10.85,18.75-20.95,27.74-30.58,42.68-45.72,73.51-78.76,73.51-151.47h0c0-72.69-30.83-105.72-73.51-151.44-46.46-49.79-104.29-111.74-104.29-229.55s57.83-179.76,104.29-229.54c42.68-45.73,73.51-78.76,73.51-151.46s-30.83-105.73-73.51-151.45c-46.46-49.79-104.29-111.74-104.29-229.54s57.83-179.76,104.29-229.55c42.68-45.72,73.51-78.76,73.51-151.45s-30.83-105.74-73.51-151.47c-46.46-49.78-104.29-111.74-104.29-229.54s57.83-179.76,104.29-229.54c42.68-45.73,73.51-78.76,73.51-151.46s-30.83-105.74-73.51-151.47c-46.47-49.79-104.29-111.74-104.29-229.55s57.82-179.77,104.29-229.55c42.68-45.73,73.51-78.77,73.51-151.47a57.22,57.22,0,0,1,57.22-57.22A57.22,57.22,0,0,1,1920.53-5649Z"/><path class="cls-15" d="M1512.71-5649c0,117.81-57.83,179.77-104.29,229.55-42.68,45.73-73.51,78.77-73.51,151.47s30.83,105.74,73.51,151.47c46.46,49.78,104.29,111.74,104.29,229.55s-57.83,179.76-104.29,229.54c-42.68,45.73-73.51,78.76-73.51,151.46s30.83,105.73,73.51,151.46c46.46,49.78,104.29,111.74,104.29,229.55s-57.83,179.76-104.29,229.54c-42.68,45.72-73.51,78.76-73.51,151.46s30.83,105.73,73.51,151.45c46.46,49.78,104.29,111.74,104.29,229.54s-57.83,179.76-104.29,229.54c-42.68,45.73-73.51,78.76-73.51,151.46s30.83,105.74,73.51,151.46c46.46,49.78,104.28,111.73,104.29,229.51v0c0,3.69-.06,7.31-.17,10.89-3.43,110.79-59.11,170.44-104.12,218.67-7.5,8-14.63,15.67-21.29,23.21-31.26,35.35-52.22,68.33-52.22,128.25q0,3.4.09,6.7c1.85,68.07,32.08,100.46,73.42,144.75,46.46,49.79,104.29,111.74,104.29,229.55h0v0c0,117.81-57.83,179.77-104.29,229.55-42.68,45.72-73.51,78.76-73.51,151.46s30.83,105.73,73.51,151.46c46.46,49.78,104.29,111.74,104.29,229.54s-57.83,179.76-104.29,229.55c-42.68,45.72-73.51,78.76-73.51,151.45s30.83,105.73,73.51,151.46c46.46,49.78,104.29,111.73,104.29,229.54S1454.88-135.2,1408.42-85.42C1365.74-39.7,1334.91-6.66,1334.91,66s30.83,105.73,73.51,151.46c46.46,49.78,104.29,111.73,104.29,229.54s-57.83,179.76-104.29,229.54c-42.68,45.73-73.51,78.76-73.51,151.46s30.83,105.73,73.51,151.46c46.46,49.78,104.29,111.74,104.29,229.54a57.22,57.22,0,1,1-114.44,0c0-72.69-30.84-105.73-73.51-151.46C1278.3,1007.8,1220.47,945.85,1220.47,828s57.83-179.76,104.29-229.54c42.67-45.73,73.51-78.76,73.51-151.46s-30.83-105.74-73.51-151.46C1278.3,245.8,1220.47,183.84,1220.47,66s57.83-179.76,104.29-229.54c42.67-45.73,73.51-78.77,73.51-151.46s-30.83-105.73-73.51-151.46C1278.3-516.2,1220.47-578.15,1220.47-696s57.83-179.76,104.29-229.54c42.67-45.72,73.51-78.76,73.51-151.46s-30.84-105.73-73.51-151.46c-46.46-49.78-104.29-111.74-104.29-229.54s57.83-179.76,104.29-229.54c42.67-45.73,73.51-78.77,73.51-151.47s-30.84-105.74-73.51-151.47c-45-48.22-100.69-107.88-104.13-218.67-.11-3.58-.16-7.2-.16-10.88,0-117.81,57.83-179.76,104.29-229.55l4.11-4.41c39.22-42.09,67.52-74.56,69.31-140.35q.09-3.3.09-6.7c0-72.69-30.83-105.73-73.51-151.45-46.46-49.79-104.29-111.74-104.29-229.55s57.83-179.76,104.29-229.54c42.67-45.73,73.51-78.76,73.51-151.46s-30.83-105.73-73.51-151.45c-46.46-49.79-104.29-111.74-104.29-229.54s57.83-179.76,104.29-229.55c42.67-45.72,73.51-78.76,73.51-151.45s-30.84-105.74-73.51-151.47c-46.46-49.78-104.29-111.74-104.29-229.54s57.83-179.76,104.29-229.54c42.67-45.73,73.51-78.76,73.51-151.46s-30.84-105.74-73.51-151.47c-46.47-49.79-104.29-111.74-104.29-229.55s57.82-179.77,104.29-229.55c42.67-45.73,73.51-78.77,73.51-151.47a57.22,57.22,0,0,1,57.22-57.22A57.22,57.22,0,0,1,1512.71-5649Z"/><path class="cls-15" d="M1104.89-5649c0,117.81-57.83,179.77-104.29,229.55-42.68,45.73-73.51,78.77-73.51,151.47s30.83,105.74,73.51,151.47c46.46,49.78,104.29,111.74,104.29,229.55s-57.83,179.76-104.29,229.54c-42.68,45.73-73.51,78.76-73.51,151.46s30.83,105.73,73.51,151.46c46.46,49.78,104.29,111.74,104.29,229.55s-57.83,179.76-104.29,229.54c-42.68,45.72-73.51,78.76-73.51,151.46s30.83,105.73,73.51,151.45c46.46,49.78,104.29,111.74,104.29,229.54s-57.83,179.76-104.29,229.54c-42.68,45.73-73.51,78.76-73.51,151.46s30.83,105.74,73.51,151.46c46.45,49.78,104.28,111.73,104.29,229.51v0c0,3.69-.06,7.31-.17,10.89-3.43,110.79-59.11,170.44-104.12,218.67-7.5,8-14.63,15.67-21.29,23.21-31.27,35.35-52.22,68.33-52.22,128.25q0,3.4.09,6.7c1.84,68.07,32.07,100.46,73.42,144.75,46.46,49.79,104.29,111.74,104.29,229.55h0v0c0,117.81-57.83,179.77-104.29,229.55-42.68,45.72-73.51,78.76-73.51,151.46s30.83,105.73,73.51,151.46c46.46,49.78,104.29,111.74,104.29,229.54S1047.06-897.2,1000.6-847.41c-42.68,45.72-73.51,78.76-73.51,151.45s30.83,105.73,73.51,151.46c46.46,49.78,104.29,111.73,104.29,229.54S1047.06-135.2,1000.6-85.42C957.92-39.7,927.09-6.66,927.09,66s30.83,105.73,73.51,151.46c46.46,49.78,104.29,111.73,104.29,229.54S1047.06,626.8,1000.6,676.58c-42.68,45.73-73.51,78.76-73.51,151.46s30.83,105.73,73.51,151.46c46.46,49.78,104.29,111.74,104.29,229.54a57.22,57.22,0,0,1-114.44,0c0-72.69-30.84-105.73-73.52-151.46C870.47,1007.8,812.64,945.85,812.64,828S870.47,648.28,916.93,598.5c42.68-45.73,73.52-78.76,73.52-151.46S959.61,341.3,916.93,295.58C870.47,245.8,812.64,183.84,812.64,66S870.47-113.72,916.93-163.5c42.68-45.73,73.52-78.77,73.52-151.46s-30.84-105.73-73.52-151.46C870.47-516.2,812.64-578.15,812.64-696S870.47-875.72,916.93-925.5c42.68-45.72,73.52-78.76,73.52-151.46s-30.84-105.73-73.52-151.46C870.47-1278.2,812.64-1340.16,812.64-1458s57.83-179.76,104.29-229.54c42.68-45.73,73.52-78.77,73.52-151.47s-30.84-105.74-73.52-151.47c-45-48.22-100.69-107.88-104.12-218.67-.11-3.58-.17-7.2-.17-10.88,0-117.81,57.83-179.76,104.29-229.55l4.12-4.41c39.22-42.09,67.52-74.56,69.31-140.35q.09-3.3.09-6.7c0-72.69-30.84-105.73-73.52-151.45-46.46-49.79-104.29-111.74-104.29-229.55s57.83-179.76,104.29-229.54c42.68-45.73,73.52-78.76,73.52-151.46s-30.84-105.73-73.52-151.45c-46.46-49.79-104.29-111.74-104.29-229.54s57.83-179.76,104.29-229.55c42.68-45.72,73.52-78.76,73.52-151.45s-30.84-105.74-73.52-151.47C870.47-4326.24,812.64-4388.2,812.64-4506s57.83-179.76,104.29-229.54c42.68-45.73,73.52-78.76,73.52-151.46s-30.84-105.74-73.52-151.47c-46.46-49.79-104.29-111.74-104.29-229.55s57.83-179.77,104.29-229.55c42.68-45.73,73.52-78.77,73.52-151.47a57.22,57.22,0,0,1,57.22-57.22A57.22,57.22,0,0,1,1104.89-5649Z"/><path class="cls-15" d="M697.06-5649c0,117.81-57.82,179.77-104.29,229.55-42.67,45.73-73.51,78.77-73.51,151.47s30.84,105.74,73.51,151.47c46.47,49.78,104.29,111.74,104.29,229.55s-57.82,179.76-104.29,229.54c-42.67,45.73-73.51,78.76-73.51,151.46s30.84,105.73,73.51,151.46c46.47,49.78,104.29,111.74,104.29,229.55s-57.82,179.76-104.29,229.54c-42.67,45.72-73.51,78.76-73.51,151.46s30.84,105.73,73.51,151.45c46.47,49.78,104.29,111.74,104.29,229.54s-57.82,179.76-104.29,229.54c-42.67,45.73-73.51,78.76-73.51,151.46s30.84,105.74,73.51,151.46c46.46,49.78,104.29,111.73,104.29,229.52h0c0,117.81-57.82,179.76-104.29,229.55-8,8.57-15.58,16.7-22.63,24.72-30.52,34.79-50.88,67.67-50.88,126.74,0,72.69,30.84,105.73,73.51,151.45,46.47,49.79,104.29,111.74,104.29,229.55h0c0,117.81-57.82,179.77-104.29,229.55-42.67,45.72-73.51,78.76-73.51,151.46s30.84,105.73,73.51,151.46c46.47,49.78,104.29,111.74,104.29,229.54S639.24-897.2,592.77-847.41C550.1-801.69,519.26-768.65,519.26-696S550.1-590.23,592.77-544.5C639.24-494.72,697.06-432.77,697.06-315S639.24-135.2,592.77-85.42C550.1-39.7,519.26-6.66,519.26,66S550.1,171.77,592.77,217.5C639.24,267.28,697.06,329.23,697.06,447S639.24,626.8,592.77,676.58C550.1,722.31,519.26,755.34,519.26,828S550.1,933.77,592.77,979.5c46.47,49.78,104.29,111.74,104.29,229.54a57.22,57.22,0,1,1-114.44,0c0-72.69-30.83-105.73-73.51-151.46C462.65,1007.8,404.82,945.85,404.82,828S462.65,648.28,509.11,598.5c42.68-45.73,73.51-78.76,73.51-151.46S551.79,341.3,509.11,295.58C462.65,245.8,404.82,183.84,404.82,66S462.65-113.72,509.11-163.5c42.68-45.73,73.51-78.77,73.51-151.46s-30.83-105.73-73.51-151.46C462.65-516.2,404.82-578.15,404.82-696S462.65-875.72,509.11-925.5c42.68-45.72,73.51-78.76,73.51-151.46s-30.83-105.73-73.51-151.46C462.65-1278.2,404.82-1340.16,404.82-1458s57.83-179.76,104.29-229.54c42.68-45.73,73.51-78.77,73.51-151.47s-30.83-105.74-73.51-151.47c-46.46-49.78-104.29-111.74-104.29-229.55h0c0-110,50.39-171.26,94.88-219.43l1.47-1.59,7.94-8.53c42.68-45.72,73.51-78.76,73.51-151.46s-30.83-105.73-73.51-151.45c-46.46-49.79-104.29-111.74-104.29-229.55s57.83-179.76,104.29-229.54c42.68-45.73,73.51-78.76,73.51-151.46s-30.83-105.73-73.51-151.45c-46.46-49.79-104.29-111.74-104.29-229.54s57.83-179.76,104.29-229.55c42.68-45.72,73.51-78.76,73.51-151.45s-30.83-105.74-73.51-151.47C462.65-4326.24,404.82-4388.2,404.82-4506s57.83-179.76,104.29-229.54c42.68-45.73,73.51-78.76,73.51-151.46s-30.83-105.74-73.51-151.47c-46.46-49.79-104.29-111.74-104.29-229.55s57.83-179.77,104.29-229.55c42.68-45.73,73.51-78.77,73.51-151.47a57.22,57.22,0,0,1,57.22-57.22A57.22,57.22,0,0,1,697.06-5649Z"/><path class="cls-15" d="M289.24-5649c0,117.81-57.82,179.77-104.29,229.55-42.67,45.73-73.51,78.77-73.51,151.47s30.84,105.74,73.51,151.47c46.47,49.78,104.29,111.74,104.29,229.55S231.41-4707.24,185-4657.46c-42.68,45.73-73.51,78.76-73.51,151.46s30.84,105.73,73.51,151.46c46.46,49.78,104.29,111.74,104.29,229.55S231.41-3945.23,185-3895.45c-42.67,45.72-73.51,78.76-73.51,151.46s30.83,105.73,73.51,151.45c46.46,49.78,104.29,111.74,104.29,229.54S231.41-3183.24,185-3133.46c-42.67,45.73-73.51,78.76-73.51,151.46s30.84,105.74,73.51,151.46c46.46,49.78,104.29,111.73,104.29,229.52h0c0,117.81-57.83,179.76-104.29,229.55-8,8.57-15.59,16.7-22.63,24.72-30.52,34.79-50.88,67.67-50.88,126.74,0,72.69,30.84,105.73,73.51,151.45,46.46,49.79,104.29,111.74,104.29,229.55h0c0,117.81-57.83,179.77-104.29,229.55-42.68,45.72-73.51,78.76-73.51,151.46S142.28-1352.23,185-1306.5c46.46,49.78,104.29,111.74,104.29,229.54S231.41-897.2,185-847.41c-42.67,45.72-73.51,78.76-73.51,151.45S142.27-590.23,185-544.5C231.41-494.72,289.24-432.77,289.24-315S231.41-135.2,185-85.42C142.28-39.7,111.44-6.66,111.44,66S142.28,171.77,185,217.5C231.41,267.28,289.24,329.23,289.24,447S231.41,626.8,185,676.58c-42.67,45.73-73.51,78.76-73.51,151.46S142.28,933.77,185,979.5c46.46,49.78,104.29,111.74,104.29,229.54a57.22,57.22,0,0,1-114.44,0c0-72.69-30.83-105.73-73.51-151.46C54.83,1007.8-3,945.85-3,828S54.83,648.28,101.29,598.5C144,552.77,174.8,519.74,174.8,447S144,341.3,101.29,295.58C54.83,245.8-3,183.84-3,66S54.83-113.72,101.29-163.5C144-209.23,174.8-242.27,174.8-315S144-420.69,101.29-466.42C54.83-516.2-3-578.15-3-696S54.83-875.72,101.29-925.5C144-971.22,174.8-1004.26,174.8-1077S144-1182.69,101.29-1228.42C54.83-1278.2-3-1340.16-3-1458s57.83-179.76,104.29-229.54C144-1733.23,174.8-1766.27,174.8-1839S144-1944.71,101.29-1990.44C54.83-2040.22-3-2102.18-3-2220h0c0-110,50.38-171.26,94.88-219.43l1.47-1.59c2.67-2.88,5.33-5.73,7.94-8.53C144-2495.26,174.8-2528.3,174.8-2601S144-2706.73,101.29-2752.45C54.83-2802.24-3-2864.19-3-2982s57.83-179.76,104.29-229.54C144-3257.27,174.8-3290.3,174.8-3363S144-3468.73,101.29-3514.45C54.83-3564.24-3-3626.19-3-3744s57.83-179.76,104.29-229.55C144-4019.26,174.8-4052.3,174.8-4125S144-4230.73,101.29-4276.46C54.83-4326.24-3-4388.2-3-4506s57.83-179.76,104.29-229.54C144-4781.27,174.8-4814.3,174.8-4887S144-4992.74,101.29-5038.47C54.83-5088.26-3-5150.21-3-5268s57.83-179.77,104.29-229.55C144-5543.3,174.8-5576.34,174.8-5649A57.22,57.22,0,0,1,232-5706.26,57.22,57.22,0,0,1,289.24-5649Z"/></g><g class="cls-16"><path class="cls-17" d="M993-5649c0,117.81,57.83,179.77,104.29,229.55,42.68,45.73,73.51,78.77,73.51,151.47s-30.83,105.74-73.51,151.47C1050.83-5066.77,993-5004.81,993-4887s57.83,179.76,104.29,229.54c42.68,45.73,73.51,78.76,73.51,151.46s-30.83,105.73-73.51,151.46C1050.83-4304.76,993-4242.8,993-4125s57.83,179.76,104.29,229.54c42.68,45.72,73.51,78.76,73.51,151.46s-30.83,105.73-73.51,151.45C1050.83-3542.76,993-3480.8,993-3363s57.83,179.76,104.29,229.54c42.68,45.73,73.51,78.76,73.51,151.46s-30.83,105.74-73.51,151.46C1050.83-2780.76,993-2718.8,993-2601s57.83,179.76,104.29,229.55c8.77,9.39,17,18.25,24.64,27,28.24,32.61,47.33,64.1,48.78,117.73q.09,3.3.09,6.7c0,72.69-30.83,105.73-73.51,151.45C1050.83-2018.75,993-1956.8,993-1839h0c0,117.81,57.83,179.77,104.29,229.55,42.68,45.72,73.51,78.76,73.51,151.46s-30.83,105.73-73.51,151.46C1050.83-1256.72,993-1194.76,993-1077s57.83,179.76,104.29,229.55C1140-801.69,1170.8-768.65,1170.8-696S1140-590.23,1097.29-544.5C1050.83-494.72,993-432.77,993-315s57.83,179.76,104.29,229.54C1140-39.7,1170.8-6.66,1170.8,66S1140,171.77,1097.29,217.5C1050.83,267.28,993,329.23,993,447s57.83,179.76,104.29,229.54C1140,722.31,1170.8,755.34,1170.8,828S1140,933.77,1097.29,979.5C1050.83,1029.28,993,1091.24,993,1209a57.22,57.22,0,1,0,114.44,0c0-72.69,30.84-105.73,73.51-151.46,46.47-49.78,104.29-111.73,104.29-229.54S1227.42,648.28,1181,598.5c-42.67-45.73-73.51-78.76-73.51-151.46S1138.27,341.3,1181,295.58C1227.42,245.8,1285.24,183.84,1285.24,66S1227.42-113.72,1181-163.5c-42.67-45.73-73.51-78.77-73.51-151.46s30.83-105.73,73.51-151.46c46.47-49.78,104.29-111.73,104.29-229.54S1227.42-875.72,1181-925.5c-42.67-45.72-73.51-78.76-73.51-151.46s30.84-105.73,73.51-151.46c46.47-49.78,104.29-111.74,104.29-229.54S1227.42-1637.72,1181-1687.5c-42.67-45.73-73.51-78.77-73.51-151.47s30.84-105.74,73.51-151.47c46.47-49.78,104.29-111.74,104.29-229.55,0-3.68,0-7.3-.16-10.88-2.83-91.12-41-147.64-79.5-191.67-1.78-2-3.56-4.05-5.34-6q-3.73-4.17-7.44-8.2-6-6.53-11.85-12.77c-42.67-45.72-73.51-78.76-73.51-151.47h0c0-72.69,30.84-105.72,73.51-151.44,46.47-49.79,104.29-111.74,104.29-229.55s-57.82-179.76-104.29-229.54c-42.67-45.73-73.51-78.76-73.51-151.46s30.83-105.73,73.51-151.45c46.47-49.79,104.29-111.74,104.29-229.54s-57.82-179.76-104.29-229.55c-42.67-45.72-73.51-78.76-73.51-151.45s30.84-105.74,73.51-151.47c46.47-49.78,104.29-111.74,104.29-229.54s-57.82-179.76-104.29-229.54c-42.67-45.73-73.51-78.76-73.51-151.46s30.84-105.74,73.51-151.47c46.47-49.79,104.29-111.74,104.29-229.55s-57.82-179.77-104.29-229.55c-42.67-45.73-73.51-78.77-73.51-151.47a57.22,57.22,0,0,0-57.22-57.22A57.22,57.22,0,0,0,993-5649Z"/><path class="cls-17" d="M1400.82-5649c0,117.81,57.83,179.77,104.29,229.55,42.68,45.73,73.52,78.77,73.52,151.47s-30.84,105.74-73.52,151.47c-46.46,49.78-104.29,111.74-104.29,229.55s57.83,179.76,104.29,229.54c42.68,45.73,73.52,78.76,73.52,151.46s-30.84,105.73-73.52,151.46c-46.46,49.78-104.29,111.74-104.29,229.55s57.83,179.76,104.29,229.54c42.68,45.72,73.52,78.76,73.52,151.46s-30.84,105.73-73.52,151.45c-46.46,49.78-104.29,111.74-104.29,229.54s57.83,179.76,104.29,229.54c42.68,45.73,73.52,78.76,73.52,151.46s-30.84,105.74-73.52,151.46c-46.46,49.78-104.29,111.74-104.29,229.54s57.83,179.76,104.29,229.55c8.77,9.39,17,18.25,24.64,27,28.24,32.61,47.33,64.1,48.79,117.73q.09,3.3.09,6.7c0,72.69-30.84,105.73-73.52,151.45-46.46,49.79-104.29,111.74-104.29,229.55h0c0,117.81,57.83,179.77,104.29,229.55,42.68,45.72,73.52,78.76,73.52,151.46s-30.84,105.73-73.52,151.46c-46.46,49.78-104.29,111.74-104.29,229.54s57.83,179.76,104.29,229.55c42.68,45.72,73.52,78.76,73.52,151.45s-30.84,105.73-73.52,151.46c-46.46,49.78-104.29,111.73-104.29,229.54s57.83,179.76,104.29,229.54C1547.79-39.7,1578.63-6.66,1578.63,66s-30.84,105.73-73.52,151.46c-46.46,49.78-104.29,111.73-104.29,229.54s57.83,179.76,104.29,229.54c42.68,45.73,73.52,78.76,73.52,151.46s-30.84,105.73-73.52,151.46c-46.46,49.78-104.29,111.74-104.29,229.54a57.22,57.22,0,0,0,114.44,0c0-72.69,30.84-105.73,73.52-151.46,46.46-49.78,104.29-111.73,104.29-229.54s-57.83-179.76-104.29-229.54c-42.68-45.73-73.52-78.76-73.52-151.46s30.84-105.74,73.52-151.46C1635.24,245.8,1693.07,183.84,1693.07,66s-57.83-179.76-104.29-229.54c-42.68-45.73-73.52-78.77-73.52-151.46s30.84-105.73,73.52-151.46c46.46-49.78,104.29-111.73,104.29-229.54s-57.83-179.76-104.29-229.54c-42.68-45.72-73.52-78.76-73.52-151.46s30.84-105.73,73.52-151.46c46.46-49.78,104.29-111.74,104.29-229.54s-57.83-179.76-104.29-229.54c-42.68-45.73-73.52-78.77-73.52-151.47s30.84-105.74,73.52-151.47c46.46-49.78,104.29-111.74,104.29-229.55,0-3.68-.06-7.3-.17-10.88-2.83-91.12-41-147.64-79.5-191.67-1.78-2-3.56-4.05-5.34-6q-3.74-4.17-7.44-8.2-6-6.53-11.84-12.77c-42.68-45.72-73.52-78.76-73.52-151.47h0c0-72.69,30.84-105.72,73.52-151.44,46.46-49.79,104.29-111.74,104.29-229.55s-57.83-179.76-104.29-229.54c-42.68-45.73-73.52-78.76-73.52-151.46s30.84-105.73,73.52-151.45c46.46-49.79,104.29-111.74,104.29-229.54s-57.83-179.76-104.29-229.55c-42.68-45.72-73.52-78.76-73.52-151.45s30.84-105.74,73.52-151.47c46.46-49.78,104.29-111.74,104.29-229.54s-57.83-179.76-104.29-229.54c-42.68-45.73-73.52-78.76-73.52-151.46s30.84-105.74,73.52-151.47c46.46-49.79,104.29-111.74,104.29-229.55s-57.83-179.77-104.29-229.55c-42.68-45.73-73.52-78.77-73.52-151.47a57.22,57.22,0,0,0-57.22-57.22A57.22,57.22,0,0,0,1400.82-5649Z"/><path class="cls-17" d="M1808.65-5649c0,117.81,57.82,179.77,104.29,229.55,42.67,45.73,73.51,78.77,73.51,151.47s-30.84,105.74-73.51,151.47c-46.47,49.78-104.29,111.74-104.29,229.55s57.82,179.76,104.29,229.54c42.68,45.73,73.51,78.76,73.51,151.46s-30.84,105.73-73.51,151.46c-46.47,49.78-104.29,111.74-104.29,229.55s57.82,179.76,104.29,229.54c42.67,45.72,73.51,78.76,73.51,151.46s-30.83,105.73-73.51,151.45c-46.47,49.78-104.29,111.74-104.29,229.54s57.82,179.76,104.29,229.54c42.67,45.73,73.51,78.76,73.51,151.46s-30.84,105.74-73.51,151.46c-46.47,49.78-104.29,111.74-104.29,229.54s57.82,179.76,104.29,229.55c9.49,10.17,18.4,19.72,26.52,29.22,27.2,31.84,45.47,63.1,46.9,115.54q.09,3.29.09,6.7c0,72.69-30.84,105.73-73.51,151.45-46.47,49.79-104.29,111.74-104.29,229.55h0c0,117.81,57.82,179.77,104.29,229.55,42.68,45.72,73.51,78.76,73.51,151.46s-30.84,105.73-73.51,151.46c-46.47,49.78-104.29,111.74-104.29,229.54s57.82,179.76,104.29,229.55c42.67,45.72,73.51,78.76,73.51,151.45s-30.83,105.73-73.51,151.46c-46.47,49.78-104.29,111.73-104.29,229.54s57.82,179.76,104.29,229.54C1955.61-39.7,1986.45-6.66,1986.45,66s-30.84,105.73-73.51,151.46c-46.47,49.78-104.29,111.73-104.29,229.54s57.82,179.76,104.29,229.54c42.67,45.73,73.51,78.76,73.51,151.46s-30.84,105.73-73.51,151.46c-46.47,49.78-104.29,111.74-104.29,229.54a57.22,57.22,0,0,0,114.44,0c0-72.69,30.83-105.73,73.51-151.46,46.46-49.78,104.29-111.73,104.29-229.54S2043.06,648.28,1996.6,598.5c-42.68-45.73-73.51-78.76-73.51-151.46s30.83-105.74,73.51-151.46C2043.06,245.8,2100.89,183.84,2100.89,66S2043.06-113.72,1996.6-163.5c-42.68-45.73-73.51-78.77-73.51-151.46s30.83-105.73,73.51-151.46c46.46-49.78,104.29-111.73,104.29-229.54S2043.06-875.72,1996.6-925.5c-42.68-45.72-73.51-78.76-73.51-151.46s30.83-105.73,73.51-151.46c46.46-49.78,104.29-111.74,104.29-229.54s-57.83-179.76-104.29-229.54c-42.68-45.73-73.51-78.77-73.51-151.47s30.83-105.74,73.51-151.47c46.46-49.78,104.29-111.74,104.29-229.55q0-5.52-.17-10.88c-2.75-88.67-39-144.57-76.39-188.09-9.33-10.85-18.74-20.95-27.73-30.58-42.68-45.72-73.51-78.76-73.51-151.47h0c0-72.69,30.83-105.72,73.51-151.44,46.46-49.79,104.29-111.74,104.29-229.55s-57.83-179.76-104.29-229.54c-42.68-45.73-73.51-78.76-73.51-151.46s30.83-105.73,73.51-151.45c46.46-49.79,104.29-111.74,104.29-229.54s-57.83-179.76-104.29-229.55c-42.68-45.72-73.51-78.76-73.51-151.45s30.83-105.74,73.51-151.47c46.46-49.78,104.29-111.74,104.29-229.54s-57.83-179.76-104.29-229.54c-42.68-45.73-73.51-78.76-73.51-151.46s30.83-105.74,73.51-151.47c46.46-49.79,104.29-111.74,104.29-229.55s-57.83-179.77-104.29-229.55c-42.68-45.73-73.51-78.77-73.51-151.47a57.22,57.22,0,0,0-57.22-57.22A57.22,57.22,0,0,0,1808.65-5649Z"/></g></g></svg>