<svg id="Background" xmlns="http://www.w3.org/2000/svg" viewBox="0 0 396.5 306.15"><defs><style>.cls-1{fill:#ffe9e9;}.cls-2{fill:#f4959a;}.cls-3{fill:#fff;}.cls-4{fill:#ffb4b4;}</style></defs><path class="cls-1" d="M104.78,217.45c0-.14,0-.27,0-.4a2.12,2.12,0,0,0-.17-.69,1.61,1.61,0,0,0-.17-.28,1.54,1.54,0,0,0-.46-.42,1.11,1.11,0,0,0-.29-.14,2.24,2.24,0,0,0-.71-.13H88.28a4,4,0,0,0-3.13,2.08c-1.29,1.92-2.57,3.14-3.52,3.14-1.29,0-1.56-1.95-1.8-3.23a4.75,4.75,0,0,0-.23-1,1.44,1.44,0,0,0-1.39-1H58.06a1.93,1.93,0,0,1-.34,0,1.09,1.09,0,0,0-.55.12,1.78,1.78,0,0,0-.45.34,2.22,2.22,0,0,0-.57,1.67v.08h0v0c0,2,0,13.35,0,13.44,0,.42,0,.84,0,1.26v28.87a8.68,8.68,0,0,0,0,1,1.77,1.77,0,0,0,1.8,1.7H78.23c1.67,0,1.68-1.52,1.88-2.43.35-1.57.34-2.63,2-2.63,2.41,0,3.42,2.39,4.19,3.7a3.15,3.15,0,0,0,2.34,1.38c4.84,0,8.94,0,13.77,0h.68a1.76,1.76,0,0,0,1.67-1.58,5.15,5.15,0,0,0,0-.68V247.27a5.42,5.42,0,0,0,0-.57,1.71,1.71,0,0,0-.78-1.33,7.74,7.74,0,0,0-.8-.44l-6.82-3.41a5.62,5.62,0,0,1-.8-.44,1.74,1.74,0,0,1,0-2.83,4.78,4.78,0,0,1,.8-.44c1.53-.77,3.06-1.52,4.58-2.3l1-.54h0c.32-.15.72-.38,1-.53s.59-.32.91-.5a1.35,1.35,0,0,0,.48-.4,1.37,1.37,0,0,0,.23-.4,1.78,1.78,0,0,0,.13-.71h0c0-.2,0-.39,0-.58V217.45Z"/><path class="cls-1" d="M110,149.31q-1.81-8.37-3.61-16.72c-.19-.93-.39-1.85-.59-2.77l-1.23-5.67c-.58-2.74-1.15-5.48-1.73-8.22-.35-1.63-.69-3.26-1-4.89-.3-1.37-.6-2.74-.91-4.11a3.18,3.18,0,0,0-.42-1,2.68,2.68,0,0,0-.47-.54l-.21-.16a3.09,3.09,0,0,0-.77-.39,2.22,2.22,0,0,0-.67-.1H62.51a1.51,1.51,0,0,0-.3,0,2,2,0,0,0-.81.35l-.14.1a5.92,5.92,0,0,0-.45.41,3.19,3.19,0,0,0-.51.71,3,3,0,0,0-.27.87c0,.11,0,.22,0,.33a3.4,3.4,0,0,1-.07.34c-.24,1.09-.49,2.18-.73,3.27s-.49,2.18-.73,3.27c-.76,3.52-5.24,24.63-6.36,29.83-.38,1.75-.75,3.5-1.14,5.24a2.92,2.92,0,0,0,2.95,3.67H67.39c.22,0,.45,0,.68,0a2.81,2.81,0,0,0,2.56-1.79c.13-.31.23-.64.34-1,.39-1.19.76-2.39,1.18-3.57a2.75,2.75,0,0,1,2.65-2H85.53a8.77,8.77,0,0,1,1,.05,2.62,2.62,0,0,1,1.83,1,3.9,3.9,0,0,1,.6,1.23l1.14,3.46c.66,2,1.42,2.55,3.5,2.55h13c.3,0,.61,0,.91,0A2.87,2.87,0,0,0,110,151,3.71,3.71,0,0,0,110,149.31ZM82.83,131.93c0,.08-.11.15-.16.22a2.89,2.89,0,0,1-.38.4,3.19,3.19,0,0,1-.44.31,2.58,2.58,0,0,1-1.32.35,2.92,2.92,0,0,1-1.8-.64,2.87,2.87,0,0,1-.39-.39,2.57,2.57,0,0,1-.42-.72,2.31,2.31,0,0,1-.1-.28,3,3,0,0,1-.11-.92,2.89,2.89,0,0,1,.84-2.09,2.57,2.57,0,0,1,.88-.57,3,3,0,0,1,1-.21,2.66,2.66,0,0,1,1.59.47,3.62,3.62,0,0,1,.42.36,3.46,3.46,0,0,1,.34.44,2.45,2.45,0,0,1,.26.51,2.82,2.82,0,0,1,.22,1.16A3,3,0,0,1,82.83,131.93Z"/><path class="cls-1" d="M104.35,206v-25.1c0-.23,0-.46,0-.68a1.84,1.84,0,0,0-1.9-2c-.46,0-.92,0-1.37,0h-9a3.46,3.46,0,0,1-.46,0,1.86,1.86,0,0,1-.34-.06l-.31-.11a1.65,1.65,0,0,1-.69-.62,1.83,1.83,0,0,1-.24-.59,1.86,1.86,0,0,1,0-.34c0-.31,0-.61,0-.92V162.69a6.91,6.91,0,0,0,0-.91,1.74,1.74,0,0,0-.34-.92,1.51,1.51,0,0,0-.45-.42,1.62,1.62,0,0,0-.59-.23,1.86,1.86,0,0,0-.34,0H57.79a2,2,0,0,1-.35,0h-.23A1.56,1.56,0,0,0,56,161a2.16,2.16,0,0,0-.29,1.2q0,8.51,0,17h0v26.7c0,.34,0,.68,0,1a1.76,1.76,0,0,0,1.78,1.72c.27,0,.53,0,.8,0h44.15a1.78,1.78,0,0,0,1.84-1.78C104.37,206.57,104.35,206.3,104.35,206Z"/><path class="cls-1" d="M106.57,51.11V51a3.09,3.09,0,0,0,0-.43,2.06,2.06,0,0,0-.17-.68,1.66,1.66,0,0,0-1.24-1,2.22,2.22,0,0,0-.37,0H94.4c-2.36,0-4.72,0-7.08,0a3.25,3.25,0,0,0-.85.1,2.36,2.36,0,0,0-.93.53l-.22.21c-1.09,1.17-2.24,2.27-3.38,3.4l-.13.14a2.82,2.82,0,0,1-.44.41,2,2,0,0,1-.63.35l-.22.06a1.42,1.42,0,0,1-.46,0,1.58,1.58,0,0,1-.5-.12,2.35,2.35,0,0,1-.7-.48l-.2-.2c-1.21-1.2-2.45-2.39-3.62-3.64a2.14,2.14,0,0,0-1.63-.77,1.32,1.32,0,0,0-.28,0H55.55A2.19,2.19,0,0,0,55,49a1.28,1.28,0,0,0-.59.36,2.25,2.25,0,0,0-.28.41L54,50a2.6,2.6,0,0,0-.15.67c0,.22,0,.45,0,.68,0,2.77,0,5.55,0,8.33,0,1.14,0,2.28,0,3.42,0,.41,0,.83,0,1.25V94.57a8.64,8.64,0,0,0,0,1.14,1.75,1.75,0,0,0,1.77,1.6H71.79c.23,0,.46,0,.69,0a1.75,1.75,0,0,0,1.66-1.58,7.09,7.09,0,0,0,0-.8c0-1.6,0-3.19,0-4.79a7.09,7.09,0,0,1,0-.8A1.75,1.75,0,0,1,77,88.06a7.81,7.81,0,0,1,.67.62L79,90.05a1.81,1.81,0,0,0,2.39,0l1.46-1.44a4.87,4.87,0,0,1,.68-.61,1.75,1.75,0,0,1,2.7,1.21,5.31,5.31,0,0,1,0,.8c0,1.63,0,3.27,0,4.9a7.09,7.09,0,0,0,0,.8A1.76,1.76,0,0,0,88,97.3c.23,0,.46,0,.69,0h15.51c.23,0,.46,0,.69,0a1.69,1.69,0,0,0,1.61-1.36,4.35,4.35,0,0,0,.08-1v-8q0-8.5,0-17a.93.93,0,0,0,0-.23Q106.58,60.41,106.57,51.11Z"/><path class="cls-2" d="M59.28,124.9c.93-1.05,1.83-2.14,2.73-3.22a42.54,42.54,0,0,1,3-3.42,11.27,11.27,0,0,1,2.24-1.77,5.2,5.2,0,0,1,4.6-.5,24.69,24.69,0,0,1,10,6.32c1.38,1.53,2.62,3.16,3.91,4.76a43.38,43.38,0,0,0,3.72,4.18,19.42,19.42,0,0,0,8.42,4.81,6.61,6.61,0,0,0,2.93.22c2.24-.39,4.15-1.25,5.2-3.43.06-.13.14-.27.33-.26-.2-.93-.39-1.85-.59-2.77-.41-1.89-.83-3.78-1.23-5.67-.59-2.74-1.16-5.48-1.74-8.22-.34-1.63-.69-3.26-1-4.89-.3-1.37-.59-2.74-.9-4.11a3,3,0,0,0-.43-1,2.68,2.68,0,0,0-.47-.54,3.09,3.09,0,0,0-1-.55,2.18,2.18,0,0,0-.67-.1H62.52a1.83,1.83,0,0,0-1.11.37.71.71,0,0,1-.14.1,5.92,5.92,0,0,0-.45.41,3.15,3.15,0,0,0-.5.71,2.53,2.53,0,0,0-.27.87c0,.11,0,.22,0,.33l-.06.34c-.25,1.09-.49,2.18-.74,3.27s-.49,2.18-.72,3.27c-.76,3.52-2.88,13.33-2.88,13.46.2-.11.62-.36.81-.49A14,14,0,0,0,59.28,124.9Z"/><path class="cls-2" d="M65.13,176a7.46,7.46,0,0,1,4.06,2.17,13.62,13.62,0,0,1,2.49,3.52A46.5,46.5,0,0,0,74,185.77a26.8,26.8,0,0,0,3.64,4.52,14,14,0,0,0,4.06,2.89,7.77,7.77,0,0,0,5.11.56,9.24,9.24,0,0,0,2.62-1.08,14,14,0,0,0,3.39-2.85,31.46,31.46,0,0,0,2.75-3.63c1.42-2.15,2.87-4.29,4.33-6.42.37-.53.79-1,1.19-1.52h-9a3.54,3.54,0,0,1-.46,0,2,2,0,0,1-.34-.06l-.3-.11a1.73,1.73,0,0,1-.7-.61,2,2,0,0,1-.24-.6c0-.11,0-.22,0-.34,0-.31,0-.61,0-.91v-12.9c0-.3,0-.61,0-.91a1.92,1.92,0,0,0-.34-.92,1.79,1.79,0,0,0-.45-.42,1.74,1.74,0,0,0-.6-.23,1.86,1.86,0,0,0-.34,0h-31a1.54,1.54,0,0,0-1.16.81,2.08,2.08,0,0,0-.29,1.2q0,8.51,0,17a16.54,16.54,0,0,1,5.52-2.87A8.43,8.43,0,0,1,65.13,176Z"/><path class="cls-2" d="M106.58,51.11V51a3.09,3.09,0,0,0,0-.43,1.85,1.85,0,0,0-.18-.68,1.64,1.64,0,0,0-1.24-1,2.22,2.22,0,0,0-.37,0H94.41c-2.36,0-4.72,0-7.08,0a3.25,3.25,0,0,0-.85.1,2.36,2.36,0,0,0-.93.53l-.21.21c-1.1,1.17-2.25,2.27-3.38,3.4l-.14.14a2.82,2.82,0,0,1-.44.41,2,2,0,0,1-.85.41,1.41,1.41,0,0,1-.46,0,1.65,1.65,0,0,1-.5-.12,2.49,2.49,0,0,1-.7-.48l-.2-.2c-1.21-1.2-2.44-2.39-3.62-3.64a2.14,2.14,0,0,0-1.63-.77,1.37,1.37,0,0,0-.28,0H55.56A2.19,2.19,0,0,0,55,49a1.3,1.3,0,0,0-.58.36,1.56,1.56,0,0,0-.28.41L54,50a3.09,3.09,0,0,0-.15.67c0,.22,0,.45,0,.68v8.33c0,1.14,0,2.28,0,3.42.35,0,.49.34.63.59.76,1.32,1.52,2.64,2.25,4a48.23,48.23,0,0,0,2.48,4.23,17.34,17.34,0,0,0,2.31,2.82,9.21,9.21,0,0,0,2.3,1.67,5.86,5.86,0,0,0,5.88-.25A9.41,9.41,0,0,0,72.14,74a42.37,42.37,0,0,0,2.79-3.75c.64-1,1.28-1.9,1.95-2.82a19.93,19.93,0,0,1,1.37-1.67,4.41,4.41,0,0,1,2.55-1.42c.78-.14,1.57-.28,2.36-.4a15.93,15.93,0,0,0,5.49-1.81c.86-.49,1.7-1,2.55-1.52s1.49-.92,2.24-1.36a8.34,8.34,0,0,1,2.2-.92,4.32,4.32,0,0,1,3.21.37,7,7,0,0,1,1.56,1.15,14,14,0,0,1,2.5,3.24c.66,1.16,1.25,2.35,1.86,3.53a29.17,29.17,0,0,0,1.79,3.3,1.85,1.85,0,0,0,0-.23Q106.59,60.41,106.58,51.11Z"/><path class="cls-2" d="M104.78,217.73c0-.23,0-.45,0-.68a2.06,2.06,0,0,0-.17-.68,1.87,1.87,0,0,0-.16-.28,1.49,1.49,0,0,0-.47-.43,1.55,1.55,0,0,0-.29-.14,2.23,2.23,0,0,0-.7-.13H94l-5.73,0a4,4,0,0,0-3.12,2.08c-1.3,1.92-2.57,3.14-3.53,3.14-1.29,0-1.55-1.95-1.8-3.22a4.47,4.47,0,0,0-.23-1,1.42,1.42,0,0,0-1.38-1H57.73a1.15,1.15,0,0,0-.56.12,1.78,1.78,0,0,0-.45.34,2.24,2.24,0,0,0-.58,1.68v5.71c0,1.74,0,4.19,0,7.75a.83.83,0,0,1,.59.33c.51.51,1,1.05,1.55,1.52a28,28,0,0,0,20.06,7,15.45,15.45,0,0,0,7.56-2.28c2.13-1.32,4.21-2.72,6.28-4.14.85-.58,1.71-1.14,2.57-1.69a7.94,7.94,0,0,1,2-.89,2.89,2.89,0,0,1,3,.81,8.34,8.34,0,0,1,1.13,1.57L102,235c.33-.15.73-.37,1-.53s.6-.32.91-.49a1.31,1.31,0,0,0,.48-.41,1.18,1.18,0,0,0,.23-.4,1.88,1.88,0,0,0,.14-.8c0-.19,0-.38,0-.57Z"/><path class="cls-3" d="M344.48,217.45c0-.14,0-.27,0-.4a2.12,2.12,0,0,0-.18-.69,1.52,1.52,0,0,0-.62-.7,1,1,0,0,0-.3-.14,2.18,2.18,0,0,0-.7-.13H328a4,4,0,0,0-3.13,2.08c-1.29,1.92-2.57,3.14-3.52,3.14-1.3,0-1.56-1.95-1.8-3.23a5.5,5.5,0,0,0-.24-1,1.42,1.42,0,0,0-1.38-1H297.76a1.93,1.93,0,0,1-.34,0,1.09,1.09,0,0,0-.55.12,1.62,1.62,0,0,0-.45.34,2.22,2.22,0,0,0-.57,1.67v.08h0v0c0,2,0,13.35,0,13.44,0,.42,0,.84,0,1.26v28.87a8.68,8.68,0,0,0,0,1,1.77,1.77,0,0,0,1.8,1.7h20.22c1.68,0,1.69-1.52,1.89-2.43.34-1.57.34-2.63,2-2.63,2.41,0,3.42,2.39,4.19,3.7a3.13,3.13,0,0,0,2.34,1.38c4.83,0,8.93,0,13.76,0h.69a1.76,1.76,0,0,0,1.67-1.58,5.15,5.15,0,0,0,0-.68V247.27c0-.19,0-.38,0-.57a1.74,1.74,0,0,0-.78-1.33,7.74,7.74,0,0,0-.8-.44L336,241.52a5.51,5.51,0,0,1-.79-.44,1.73,1.73,0,0,1,0-2.83,4.78,4.78,0,0,1,.8-.44c1.52-.77,3.06-1.52,4.58-2.3l1-.54h0c.33-.15.73-.38,1-.53s.6-.32.92-.5a1.24,1.24,0,0,0,.47-.4,1,1,0,0,0,.23-.4,1.8,1.8,0,0,0,.14-.71h0c0-.2,0-.39,0-.58v-14C344.47,217.68,344.48,217.57,344.48,217.45Z"/><path class="cls-3" d="M349.68,149.31l-3.6-16.72c-.2-.93-.39-1.85-.59-2.77-.41-1.89-.83-3.78-1.23-5.67l-1.74-8.22c-.34-1.63-.69-3.26-1-4.89q-.44-2.06-.9-4.11a3,3,0,0,0-.43-1,2.63,2.63,0,0,0-.46-.54l-.21-.16a3.09,3.09,0,0,0-.77-.39,2.29,2.29,0,0,0-.68-.1H302.21a1.56,1.56,0,0,0-.31,0,2,2,0,0,0-.8.35l-.14.1a3.6,3.6,0,0,0-.45.41,2.9,2.9,0,0,0-.51.71,3,3,0,0,0-.27.87c0,.11,0,.22-.05.33a1.86,1.86,0,0,1-.06.34c-.24,1.09-.49,2.18-.73,3.27s-.49,2.18-.73,3.27c-.76,3.52-5.25,24.63-6.37,29.83-.37,1.75-.74,3.5-1.14,5.24a2.93,2.93,0,0,0,3,3.67h13.47c.23,0,.46,0,.69,0a2.78,2.78,0,0,0,2.55-1.79,8,8,0,0,0,.34-1c.4-1.19.76-2.39,1.18-3.57a2.76,2.76,0,0,1,2.66-2h10.73a8.88,8.88,0,0,1,1,.05,2.64,2.64,0,0,1,1.83,1,3.88,3.88,0,0,1,.59,1.23c.39,1.15.77,2.31,1.15,3.46.66,2,1.42,2.55,3.5,2.55h13c.3,0,.61,0,.91,0A2.88,2.88,0,0,0,349.7,151,3.71,3.71,0,0,0,349.68,149.31Zm-27.15-17.38-.17.22a2.83,2.83,0,0,1-.37.4,2.77,2.77,0,0,1-.45.31,2.57,2.57,0,0,1-1.31.35,2.9,2.9,0,0,1-1.8-.64,2.4,2.4,0,0,1-.39-.39,2.6,2.6,0,0,1-.43-.72l-.09-.28a3.36,3.36,0,0,1-.12-.92,2.89,2.89,0,0,1,.85-2.09,2.63,2.63,0,0,1,.87-.57,3.12,3.12,0,0,1,1.06-.21,2.63,2.63,0,0,1,1.58.47,2.94,2.94,0,0,1,.42.36,3.55,3.55,0,0,1,.35.44,3.06,3.06,0,0,1,.26.51,3.19,3.19,0,0,1,.22,1.16A3,3,0,0,1,322.53,131.93Z"/><path class="cls-3" d="M344.05,206v-25.1c0-.23,0-.46,0-.68a1.85,1.85,0,0,0-1.91-2c-.45,0-.91,0-1.36,0h-9a3.39,3.39,0,0,1-.45,0,1.86,1.86,0,0,1-.34-.06l-.31-.11a1.6,1.6,0,0,1-.69-.62,1.47,1.47,0,0,1-.24-.59,1.27,1.27,0,0,1,0-.34c0-.31,0-.61,0-.92V162.69c0-.3,0-.61,0-.91a1.74,1.74,0,0,0-.34-.92,1.51,1.51,0,0,0-.45-.42,1.77,1.77,0,0,0-.59-.23,2,2,0,0,0-.34,0H297.48a1.93,1.93,0,0,1-.34,0h-.23a1.56,1.56,0,0,0-1.17.81,2.08,2.08,0,0,0-.29,1.2q0,8.51,0,17h0v26.7c0,.34,0,.68,0,1a1.76,1.76,0,0,0,1.78,1.72c.26,0,.53,0,.8,0h44.15a1.78,1.78,0,0,0,1.83-1.78C344.06,206.57,344.05,206.3,344.05,206Z"/><path class="cls-3" d="M346.27,51.11V51c0-.14,0-.29,0-.43a2.06,2.06,0,0,0-.17-.68,1.66,1.66,0,0,0-1.25-1,2,2,0,0,0-.36,0H334.09c-2.35,0-4.71,0-7.07,0a3.25,3.25,0,0,0-.85.1,2.4,2.4,0,0,0-.94.53l-.21.21c-1.09,1.17-2.25,2.27-3.38,3.4a1.85,1.85,0,0,1-.14.14,2.76,2.76,0,0,1-.43.41,2.21,2.21,0,0,1-.63.35l-.23.06a1.41,1.41,0,0,1-.46,0,1.53,1.53,0,0,1-.49-.12,2.35,2.35,0,0,1-.7-.48l-.2-.2c-1.22-1.2-2.45-2.39-3.63-3.64a2.11,2.11,0,0,0-1.62-.77,1.42,1.42,0,0,0-.29,0H295.25a2.19,2.19,0,0,0-.54.08,1.28,1.28,0,0,0-.59.36,1.56,1.56,0,0,0-.28.41,2.18,2.18,0,0,0-.11.27,2.6,2.6,0,0,0-.15.67,5.08,5.08,0,0,0,0,.68c0,2.77,0,5.55,0,8.33l0,3.42c0,.41,0,.83,0,1.25V94.57a8.64,8.64,0,0,0,0,1.14,1.75,1.75,0,0,0,1.77,1.6h16.09c.23,0,.46,0,.68,0a1.74,1.74,0,0,0,1.66-1.58,7.06,7.06,0,0,0,0-.8V90.13c0-.27,0-.54,0-.8a1.76,1.76,0,0,1,2.81-1.27,7.81,7.81,0,0,1,.67.62l1.37,1.37a1.82,1.82,0,0,0,2.4,0l1.46-1.44a4.8,4.8,0,0,1,.67-.61A1.76,1.76,0,0,1,326,89.21a5.31,5.31,0,0,1,0,.8v4.9a7.06,7.06,0,0,0,0,.8,1.75,1.75,0,0,0,1.66,1.59c.23,0,.45,0,.68,0h15.52c.23,0,.46,0,.68,0a1.7,1.7,0,0,0,1.62-1.36,5.77,5.77,0,0,0,.08-1v-8q0-8.5,0-17a1.85,1.85,0,0,0,0-.23Q346.28,60.41,346.27,51.11Z"/><path class="cls-2" d="M299,124.9c.93-1.05,1.84-2.14,2.74-3.22a42.54,42.54,0,0,1,3-3.42,11.21,11.21,0,0,1,2.23-1.77,5.23,5.23,0,0,1,4.61-.5,24.58,24.58,0,0,1,10,6.32c1.39,1.53,2.63,3.16,3.92,4.76a44.66,44.66,0,0,0,3.71,4.18,19.51,19.51,0,0,0,8.43,4.81,6.6,6.6,0,0,0,2.93.22c2.24-.39,4.14-1.25,5.2-3.43.06-.13.14-.27.32-.26-.19-.93-.39-1.85-.59-2.77l-1.23-5.67c-.58-2.74-1.15-5.48-1.73-8.22-.35-1.63-.69-3.26-1-4.89-.3-1.37-.6-2.74-.91-4.11a3.18,3.18,0,0,0-.42-1,2.68,2.68,0,0,0-.47-.54,3.09,3.09,0,0,0-1-.55,2.24,2.24,0,0,0-.68-.1H302.22a1.83,1.83,0,0,0-1.11.37l-.14.1a5.92,5.92,0,0,0-.45.41,3.19,3.19,0,0,0-.51.71,3,3,0,0,0-.27.87c0,.11,0,.22,0,.33a3.4,3.4,0,0,1-.07.34c-.24,1.09-.49,2.18-.73,3.27s-.49,2.18-.73,3.27c-.76,3.52-2.87,13.33-2.87,13.46.2-.11.61-.36.8-.49A13.54,13.54,0,0,0,299,124.9Z"/><path class="cls-2" d="M304.83,176a7.4,7.4,0,0,1,4.05,2.17,13.42,13.42,0,0,1,2.5,3.52,46.5,46.5,0,0,0,2.32,4.05,26.74,26.74,0,0,0,3.63,4.52,13.91,13.91,0,0,0,4.07,2.89,7.77,7.77,0,0,0,5.11.56,9.24,9.24,0,0,0,2.62-1.08,14.23,14.23,0,0,0,3.39-2.85,31.38,31.38,0,0,0,2.74-3.63q2.14-3.23,4.34-6.42c.36-.53.79-1,1.19-1.52h-9a3.46,3.46,0,0,1-.46,0,1.86,1.86,0,0,1-.34-.06l-.31-.11a1.7,1.7,0,0,1-.69-.61,2,2,0,0,1-.24-.6,1.86,1.86,0,0,1,0-.34c0-.31,0-.61,0-.91v-12.9a6.91,6.91,0,0,0,0-.91,1.74,1.74,0,0,0-.34-.92,1.51,1.51,0,0,0-.45-.42,1.62,1.62,0,0,0-.59-.23,1.86,1.86,0,0,0-.34,0h-31a1.56,1.56,0,0,0-1.17.81,2.08,2.08,0,0,0-.29,1.2q0,8.51,0,17A16.54,16.54,0,0,1,301,176.3,8.43,8.43,0,0,1,304.83,176Z"/><path class="cls-2" d="M346.28,51.11V51a3.09,3.09,0,0,0,0-.43,2.06,2.06,0,0,0-.17-.68,1.66,1.66,0,0,0-1.25-1,2,2,0,0,0-.36,0H334.11c-2.36,0-4.72,0-7.08,0a3.25,3.25,0,0,0-.85.1,2.29,2.29,0,0,0-.93.53l-.22.21c-1.09,1.17-2.25,2.27-3.38,3.4l-.13.14a2.82,2.82,0,0,1-.44.41,2,2,0,0,1-.85.41,1.42,1.42,0,0,1-.46,0,1.58,1.58,0,0,1-.5-.12,2.35,2.35,0,0,1-.7-.48l-.2-.2c-1.21-1.2-2.45-2.39-3.62-3.64a2.14,2.14,0,0,0-1.63-.77,1.32,1.32,0,0,0-.28,0H295.26a2.19,2.19,0,0,0-.54.08,1.28,1.28,0,0,0-.59.36,1.84,1.84,0,0,0-.28.41l-.11.27a2.6,2.6,0,0,0-.15.67c0,.22,0,.45,0,.68,0,2.77,0,5.55,0,8.33,0,1.14,0,2.28,0,3.42.36,0,.49.34.64.59q1.14,2,2.24,4c.79,1.44,1.57,2.88,2.49,4.23a17.34,17.34,0,0,0,2.31,2.82,9.21,9.21,0,0,0,2.3,1.67,5.86,5.86,0,0,0,5.88-.25,9.41,9.41,0,0,0,2.39-2.1,42.37,42.37,0,0,0,2.79-3.75c.64-1,1.27-1.9,1.94-2.82A20,20,0,0,1,318,65.78a4.39,4.39,0,0,1,2.54-1.42c.79-.14,1.58-.28,2.36-.4a15.91,15.91,0,0,0,5.5-1.81c.86-.49,1.7-1,2.54-1.52s1.49-.92,2.25-1.36a8.34,8.34,0,0,1,2.2-.92,4.33,4.33,0,0,1,3.21.37,6.93,6.93,0,0,1,1.55,1.15,13.76,13.76,0,0,1,2.5,3.24c.66,1.16,1.26,2.35,1.86,3.53a30.85,30.85,0,0,0,1.79,3.3.93.93,0,0,0,0-.23Q346.29,60.41,346.28,51.11Z"/><path class="cls-2" d="M344.48,217.73c0-.23,0-.45,0-.68a2.06,2.06,0,0,0-.17-.68,1.31,1.31,0,0,0-.17-.28,1.45,1.45,0,0,0-.46-.43,1.55,1.55,0,0,0-.29-.14,2.24,2.24,0,0,0-.71-.13h-9l-5.72,0a4,4,0,0,0-3.13,2.08c-1.29,1.92-2.57,3.14-3.52,3.14-1.29,0-1.56-1.95-1.8-3.22a4.47,4.47,0,0,0-.23-1,1.43,1.43,0,0,0-1.38-1h-20.5a1.11,1.11,0,0,0-.55.12,1.78,1.78,0,0,0-.45.34,2.25,2.25,0,0,0-.59,1.68c0,1.43,0,1.88,0,5.71,0,1.74,0,4.19,0,7.75a.83.83,0,0,1,.6.33c.51.51,1,1.05,1.54,1.52a28,28,0,0,0,20.07,7,15.38,15.38,0,0,0,7.55-2.28c2.14-1.32,4.22-2.72,6.29-4.14.84-.58,1.7-1.14,2.57-1.69a7.78,7.78,0,0,1,2-.89,2.88,2.88,0,0,1,3,.81,7.54,7.54,0,0,1,1.13,1.57c.33.56.75,1.24,1.08,1.79.32-.15.72-.37,1.05-.53s.59-.32.91-.49a1.49,1.49,0,0,0,.48-.41,1.37,1.37,0,0,0,.23-.4,2,2,0,0,0,.14-.8c0-.19,0-.38,0-.57Z"/><path class="cls-1" d="M224.63,217.45c0-.14,0-.27,0-.4a1.9,1.9,0,0,0-.18-.69,1.52,1.52,0,0,0-.62-.7,1,1,0,0,0-.3-.14,2.18,2.18,0,0,0-.7-.13H208.13a4,4,0,0,0-3.13,2.08c-1.29,1.92-2.57,3.14-3.52,3.14-1.3,0-1.56-1.95-1.8-3.23a4.77,4.77,0,0,0-.24-1,1.42,1.42,0,0,0-1.38-1H177.91a1.93,1.93,0,0,1-.34,0,1.09,1.09,0,0,0-.55.12,1.62,1.62,0,0,0-.45.34,2.22,2.22,0,0,0-.57,1.67v.08h0v0c0,2,0,13.35,0,13.44,0,.42,0,.84,0,1.26v28.87a8.68,8.68,0,0,0,0,1,1.77,1.77,0,0,0,1.8,1.7h20.22c1.68,0,1.69-1.52,1.89-2.43.34-1.57.34-2.63,2-2.63,2.41,0,3.42,2.39,4.19,3.7a3.15,3.15,0,0,0,2.34,1.38c4.83,0,8.93,0,13.76,0h.69a1.76,1.76,0,0,0,1.67-1.58,5.15,5.15,0,0,0,0-.68V247.27c0-.19,0-.38,0-.57a1.74,1.74,0,0,0-.78-1.33,7.74,7.74,0,0,0-.8-.44l-6.82-3.41a5.12,5.12,0,0,1-.8-.44,1.74,1.74,0,0,1,0-2.83,4.78,4.78,0,0,1,.8-.44c1.53-.77,3.06-1.52,4.58-2.3l1-.54h0c.32-.15.72-.38,1.05-.53s.59-.32.91-.5a1.24,1.24,0,0,0,.47-.4,1.22,1.22,0,0,0,.24-.4,2,2,0,0,0,.13-.71h0c0-.2,0-.39,0-.58V217.45Z"/><path class="cls-1" d="M229.83,149.31l-3.6-16.72c-.19-.93-.39-1.85-.59-2.77-.41-1.89-.83-3.78-1.23-5.67-.58-2.74-1.15-5.48-1.73-8.22-.35-1.63-.69-3.26-1.05-4.89q-.44-2.06-.9-4.11a3,3,0,0,0-.43-1,2.63,2.63,0,0,0-.46-.54l-.21-.16a3.09,3.09,0,0,0-.77-.39,2.24,2.24,0,0,0-.68-.1H182.36a1.46,1.46,0,0,0-.3,0,2,2,0,0,0-.81.35l-.14.1a3.6,3.6,0,0,0-.45.41,2.9,2.9,0,0,0-.51.71,3,3,0,0,0-.27.87c0,.11,0,.22,0,.33a1.86,1.86,0,0,1-.06.34c-.24,1.09-.49,2.18-.73,3.27s-.49,2.18-.73,3.27c-.76,3.52-5.24,24.63-6.36,29.83-.38,1.75-.75,3.5-1.14,5.24a2.92,2.92,0,0,0,2.95,3.67h13.47c.23,0,.46,0,.69,0a2.81,2.81,0,0,0,2.56-1.79,10,10,0,0,0,.33-1c.4-1.19.77-2.39,1.19-3.57a2.74,2.74,0,0,1,2.65-2h10.73a8.88,8.88,0,0,1,1,.05,2.64,2.64,0,0,1,1.83,1,4.13,4.13,0,0,1,.6,1.23l1.14,3.46c.66,2,1.42,2.55,3.5,2.55h13c.3,0,.61,0,.91,0a2.87,2.87,0,0,0,2.44-2.11A3.58,3.58,0,0,0,229.83,149.31Zm-27.15-17.38c-.05.08-.11.15-.16.22a2.89,2.89,0,0,1-.38.4,3.19,3.19,0,0,1-.44.31,2.61,2.61,0,0,1-1.32.35,2.82,2.82,0,0,1-2.19-1,2.86,2.86,0,0,1-.43-.72l-.09-.28a3,3,0,0,1-.11-.92,2.89,2.89,0,0,1,.84-2.09,2.57,2.57,0,0,1,.88-.57,3,3,0,0,1,1.05-.21,2.66,2.66,0,0,1,1.59.47,3.62,3.62,0,0,1,.42.36,4.7,4.7,0,0,1,.34.44,3.06,3.06,0,0,1,.26.51,3,3,0,0,1,.22,1.16A3,3,0,0,1,202.68,131.93Z"/><path class="cls-1" d="M224.2,206v-25.1c0-.23,0-.46,0-.68a1.84,1.84,0,0,0-1.91-2c-.45,0-.91,0-1.36,0h-9a3.39,3.39,0,0,1-.45,0,1.86,1.86,0,0,1-.34-.06l-.31-.11a1.65,1.65,0,0,1-.69-.62,1.63,1.63,0,0,1-.24-.59,1.86,1.86,0,0,1,0-.34c0-.31,0-.61,0-.92V162.69c0-.3,0-.61,0-.91a1.74,1.74,0,0,0-.34-.92,1.51,1.51,0,0,0-.45-.42,1.69,1.69,0,0,0-.59-.23,2,2,0,0,0-.34,0H177.63a1.93,1.93,0,0,1-.34,0h-.23a1.56,1.56,0,0,0-1.17.81,2.08,2.08,0,0,0-.29,1.2q0,8.51,0,17h0v26.7c0,.34,0,.68,0,1a1.76,1.76,0,0,0,1.78,1.72c.26,0,.53,0,.8,0h44.15a1.78,1.78,0,0,0,1.84-1.78C224.22,206.57,224.2,206.3,224.2,206Z"/><path class="cls-1" d="M226.42,51.11V51a3.09,3.09,0,0,0,0-.43,2.06,2.06,0,0,0-.17-.68,1.66,1.66,0,0,0-1.25-1,2,2,0,0,0-.36,0H214.25c-2.36,0-4.72,0-7.08,0a3.25,3.25,0,0,0-.85.1,2.29,2.29,0,0,0-.93.53l-.22.21c-1.09,1.17-2.25,2.27-3.38,3.4a.93.93,0,0,1-.14.14,2.38,2.38,0,0,1-.43.41,2.21,2.21,0,0,1-.63.35l-.22.06a1.48,1.48,0,0,1-.47,0,1.59,1.59,0,0,1-.49-.12,2.35,2.35,0,0,1-.7-.48c-.07-.06-.13-.13-.2-.2-1.21-1.2-2.45-2.39-3.62-3.64a2.14,2.14,0,0,0-1.63-.77,1.46,1.46,0,0,0-.29,0H175.4a2.19,2.19,0,0,0-.54.08,1.28,1.28,0,0,0-.59.36,1.84,1.84,0,0,0-.28.41,2.18,2.18,0,0,0-.11.27,2.6,2.6,0,0,0-.15.67c0,.22,0,.45,0,.68,0,2.77,0,5.55,0,8.33,0,1.14,0,2.28,0,3.42,0,.41,0,.83,0,1.25V94.57a8.64,8.64,0,0,0,0,1.14,1.75,1.75,0,0,0,1.77,1.6h16.09c.23,0,.46,0,.68,0A1.76,1.76,0,0,0,194,95.72a7.09,7.09,0,0,0,0-.8V90.13a7.06,7.06,0,0,1,0-.8,1.75,1.75,0,0,1,2.8-1.27,7.81,7.81,0,0,1,.67.62l1.38,1.37a1.81,1.81,0,0,0,2.39,0l1.46-1.44a4.87,4.87,0,0,1,.68-.61,1.75,1.75,0,0,1,2.7,1.21,5.31,5.31,0,0,1,0,.8v4.9c0,.27,0,.54,0,.8a1.75,1.75,0,0,0,1.66,1.59c.23,0,.46,0,.68,0H224c.23,0,.46,0,.68,0a1.7,1.7,0,0,0,1.62-1.36,5,5,0,0,0,.08-1v-8q0-8.5,0-17a.93.93,0,0,0,0-.23Q226.43,60.41,226.42,51.11Z"/><path class="cls-4" d="M179.12,124.9c.94-1.05,1.84-2.14,2.74-3.22a42.54,42.54,0,0,1,3-3.42,11.5,11.5,0,0,1,2.23-1.77,5.23,5.23,0,0,1,4.61-.5,24.69,24.69,0,0,1,10,6.32c1.38,1.53,2.62,3.16,3.91,4.76a44.66,44.66,0,0,0,3.71,4.18,19.51,19.51,0,0,0,8.43,4.81,6.6,6.6,0,0,0,2.93.22c2.24-.39,4.15-1.25,5.2-3.43.06-.13.14-.27.33-.26l-.6-2.77c-.4-1.89-.82-3.78-1.22-5.67-.59-2.74-1.16-5.48-1.74-8.22-.35-1.63-.69-3.26-1-4.89-.3-1.37-.59-2.74-.91-4.11a3,3,0,0,0-.42-1,2.68,2.68,0,0,0-.47-.54,3.09,3.09,0,0,0-1-.55,2.22,2.22,0,0,0-.67-.1H182.37a1.83,1.83,0,0,0-1.11.37l-.14.1a5.92,5.92,0,0,0-.45.41,3.55,3.55,0,0,0-.51.71,2.75,2.75,0,0,0-.26.87c0,.11,0,.22-.05.33l-.06.34c-.25,1.09-.49,2.18-.74,3.27s-.49,2.18-.72,3.27c-.76,3.52-2.88,13.33-2.88,13.46.2-.11.62-.36.8-.49A13.54,13.54,0,0,0,179.12,124.9Z"/><path class="cls-4" d="M185,176A7.4,7.4,0,0,1,189,178.2a13.42,13.42,0,0,1,2.5,3.52,46.5,46.5,0,0,0,2.32,4.05,27.25,27.25,0,0,0,3.63,4.52,14,14,0,0,0,4.07,2.89,7.77,7.77,0,0,0,5.11.56,9.24,9.24,0,0,0,2.62-1.08,14,14,0,0,0,3.39-2.85,31.38,31.38,0,0,0,2.74-3.63q2.15-3.23,4.34-6.42c.36-.53.79-1,1.19-1.52h-9a3.46,3.46,0,0,1-.46,0,1.86,1.86,0,0,1-.34-.06,2.09,2.09,0,0,1-.3-.11,1.67,1.67,0,0,1-.7-.61,2,2,0,0,1-.24-.6c0-.11,0-.22,0-.34,0-.31,0-.61,0-.91v-12.9c0-.3,0-.61,0-.91a1.92,1.92,0,0,0-.34-.92,1.67,1.67,0,0,0-.46-.42,1.62,1.62,0,0,0-.59-.23,1.86,1.86,0,0,0-.34,0h-31a1.56,1.56,0,0,0-1.17.81,2.16,2.16,0,0,0-.29,1.2q0,8.51,0,17a16.54,16.54,0,0,1,5.52-2.87A8.43,8.43,0,0,1,185,176Z"/><path class="cls-4" d="M226.43,51.11V51a3.09,3.09,0,0,0,0-.43,2.34,2.34,0,0,0-.18-.68,1.66,1.66,0,0,0-1.24-1,2.22,2.22,0,0,0-.37,0H214.26c-2.36,0-4.72,0-7.08,0a3.25,3.25,0,0,0-.85.1,2.36,2.36,0,0,0-.93.53l-.22.21c-1.09,1.17-2.24,2.27-3.37,3.4l-.14.14a2.82,2.82,0,0,1-.44.41,2,2,0,0,1-.85.41,1.41,1.41,0,0,1-.46,0,1.58,1.58,0,0,1-.5-.12,2.49,2.49,0,0,1-.7-.48l-.2-.2c-1.21-1.2-2.45-2.39-3.62-3.64a2.14,2.14,0,0,0-1.63-.77,1.32,1.32,0,0,0-.28,0H175.41a2.19,2.19,0,0,0-.54.08,1.33,1.33,0,0,0-.59.36,1.82,1.82,0,0,0-.27.41,2.21,2.21,0,0,0-.12.27,3.09,3.09,0,0,0-.15.67c0,.22,0,.45,0,.68,0,2.77,0,5.55,0,8.33,0,1.14,0,2.28,0,3.42.35,0,.49.34.63.59q1.14,2,2.25,4a48.23,48.23,0,0,0,2.48,4.23,17.34,17.34,0,0,0,2.31,2.82,9.21,9.21,0,0,0,2.3,1.67,5.86,5.86,0,0,0,5.88-.25A9.41,9.41,0,0,0,192,74a42.37,42.37,0,0,0,2.79-3.75c.64-1,1.27-1.9,1.95-2.82a18.14,18.14,0,0,1,1.37-1.67,4.38,4.38,0,0,1,2.55-1.42c.78-.14,1.57-.28,2.36-.4a15.93,15.93,0,0,0,5.49-1.81c.86-.49,1.7-1,2.55-1.52s1.48-.92,2.24-1.36a8.34,8.34,0,0,1,2.2-.92,4.32,4.32,0,0,1,3.21.37,6.71,6.71,0,0,1,1.55,1.15,14.07,14.07,0,0,1,2.51,3.24c.65,1.16,1.25,2.35,1.86,3.53a27.67,27.67,0,0,0,1.79,3.3,1.81,1.81,0,0,0,0-.23Q226.44,60.41,226.43,51.11Z"/><path class="cls-4" d="M224.63,217.73c0-.23,0-.45,0-.68a2.06,2.06,0,0,0-.17-.68,1.87,1.87,0,0,0-.16-.28,1.49,1.49,0,0,0-.47-.43,1.55,1.55,0,0,0-.29-.14,2.23,2.23,0,0,0-.7-.13h-9l-5.72,0a4,4,0,0,0-3.13,2.08c-1.29,1.92-2.57,3.14-3.52,3.14-1.29,0-1.56-1.95-1.8-3.22a4.47,4.47,0,0,0-.23-1,1.42,1.42,0,0,0-1.38-1h-20.5a1.14,1.14,0,0,0-.55.12,1.78,1.78,0,0,0-.45.34,2.2,2.2,0,0,0-.58,1.68v5.71c0,1.74,0,4.19,0,7.75a.83.83,0,0,1,.6.33c.51.51,1,1.05,1.55,1.52a28,28,0,0,0,20.06,7,15.45,15.45,0,0,0,7.56-2.28c2.13-1.32,4.21-2.72,6.28-4.14.85-.58,1.7-1.14,2.57-1.69a7.78,7.78,0,0,1,2-.89,2.9,2.9,0,0,1,3,.81,8.34,8.34,0,0,1,1.13,1.57c.32.56.74,1.24,1.07,1.79.33-.15.72-.37,1.05-.53s.6-.32.91-.49a1.49,1.49,0,0,0,.48-.41,1.18,1.18,0,0,0,.23-.4,2,2,0,0,0,.14-.8c0-.19,0-.38,0-.57Z"/></svg>