<svg id="Background" xmlns="http://www.w3.org/2000/svg" viewBox="0 0 396.5 306.15"><defs><style>.cls-1{fill:#ffb4b4;}.cls-2{fill:#705a55;}</style></defs><path class="cls-1" d="M307.36,139.07c-2.69-5.27-5.35-10.56-8.27-15.7A62.39,62.39,0,0,0,288,109a31.46,31.46,0,0,0-6.9-5.12,19.41,19.41,0,0,0-14.27-1.64,37.56,37.56,0,0,0-9.78,4.12c-3.36,2-6.64,4-10,6-3.76,2.26-7.5,4.57-11.32,6.74a70.18,70.18,0,0,1-24.41,8.06c-3.5.53-7,1.15-10.49,1.77a19.7,19.7,0,0,0-11.3,6.31,85.31,85.31,0,0,0-6.12,7.43c-3,4.1-5.8,8.32-8.64,12.52a190.73,190.73,0,0,1-12.41,16.68,42.7,42.7,0,0,1-10.61,9.35c-8.52,5.1-17.24,5.35-26.13,1.08a39.93,39.93,0,0,1-10.23-7.41,77.24,77.24,0,0,1-10.28-12.52c-4.08-6-7.54-12.42-11-18.79-3.25-5.93-6.61-11.79-10-17.66-.65-1.14-1.25-2.45-2.83-2.65h0c0,1.86.07,3.71.07,5.57q0,67.18,0,134.37a37.06,37.06,0,0,0,.13,5.06c.58,4.3,3.49,6.86,7.87,7.09.84.05,1.69,0,2.54,0h69c1,0,2,.05,3,0a7.8,7.8,0,0,0,7.39-7,32.26,32.26,0,0,0,.07-3.55V243.46a35,35,0,0,1,0-3.55,7.79,7.79,0,0,1,12.47-5.63,28.44,28.44,0,0,1,3,2.75c2.06,2,4.09,4,6.13,6.06a8.08,8.08,0,0,0,10.64,0c2.18-2.13,4.32-4.29,6.5-6.42a22.6,22.6,0,0,1,3-2.72,7.82,7.82,0,0,1,12,5.4,24.55,24.55,0,0,1,.11,3.54c0,7.27,0,14.53,0,21.8a30,30,0,0,0,.07,3.55,7.82,7.82,0,0,0,7.37,7.07c1,.08,2,0,3,0h69c1,0,2,.05,3,0a7.54,7.54,0,0,0,7.18-6,21.28,21.28,0,0,0,.35-4.52c0-11.84,0-23.67,0-35.5q0-37.77.05-75.55l0-.05a1.88,1.88,0,0,1-.14-.24C312.08,148.89,309.83,143.92,307.36,139.07Z"/><path class="cls-2" d="M315.42,152.73a5.28,5.28,0,0,1-.16.94c-.05-.08-.08-.16-.13-.24-3.05-4.53-5.3-9.51-7.78-14.36-2.68-5.27-5.33-10.56-8.26-15.7A62.6,62.6,0,0,0,288,109a32.55,32.55,0,0,0-6.89-5.12,19.42,19.42,0,0,0-14.27-1.64,37.25,37.25,0,0,0-9.78,4.11c-3.36,2-6.66,4-10,6-3.75,2.27-7.51,4.58-11.32,6.74a70,70,0,0,1-24.41,8.06c-3.51.54-7,1.17-10.49,1.77a19.73,19.73,0,0,0-11.29,6.32,83.64,83.64,0,0,0-6.13,7.43c-3,4.11-5.8,8.31-8.64,12.52a188.37,188.37,0,0,1-12.41,16.69,43.07,43.07,0,0,1-10.61,9.34c-8.52,5.1-17.24,5.35-26.13,1.07a39.93,39.93,0,0,1-10.23-7.41,76.17,76.17,0,0,1-10.27-12.51c-4.1-6-7.56-12.42-11-18.79-3.25-5.93-6.61-11.8-10-17.66-.65-1.14-1.25-2.46-2.83-2.65h-.06c0-5.05-.11-10.12-.11-15.19,0-12.35,0-24.68,0-37,0-1,0-2,.11-3a13,13,0,0,1,.67-3,12,12,0,0,1,.5-1.18A7.83,7.83,0,0,1,83.6,62a5.67,5.67,0,0,1,2.63-1.59,9.85,9.85,0,0,1,2.39-.36h78.11A10.76,10.76,0,0,1,168,60c2.86,0,5.12,1.22,7.25,3.46,5.21,5.52,10.71,10.8,16.1,16.16.29.3.58.59.89.88a9.89,9.89,0,0,0,3.11,2.11,7.56,7.56,0,0,0,2.19.57,7.43,7.43,0,0,0,2.06-.06c.33-.07.65-.17,1-.26a10,10,0,0,0,2.81-1.55,15,15,0,0,0,1.93-1.82l.62-.63c5-5,10.17-9.93,15-15.11.33-.34.64-.65,1-.93a10.4,10.4,0,0,1,4.16-2.35,13.17,13.17,0,0,1,3.77-.46q15.72.1,31.45.08h31.44c2.45,0,4.91,0,7.36,0s4.91,0,7.36,0a14,14,0,0,1,1.61.15,7.34,7.34,0,0,1,5.54,4.24,9.68,9.68,0,0,1,.76,3.06,13.37,13.37,0,0,1,0,1.9v.63Q315.4,111.38,315.42,152.73Z"/></svg>