<svg id="Background" xmlns="http://www.w3.org/2000/svg" viewBox="0 0 396.5 306.15"><defs><style>.cls-1{fill:none;}.cls-2{fill:#ffe9e9;}.cls-3{fill:#705a55;}</style></defs><path class="cls-1" d="M162.8,152.45a4.71,4.71,0,0,0-.47-.61,4.55,4.55,0,0,0-.58-.49,3.57,3.57,0,0,0-2.17-.65,4.3,4.3,0,0,0-1.44.3,3.68,3.68,0,0,0-1.2.77,4,4,0,0,0-1.16,2.87,4.63,4.63,0,0,0,.16,1.26c0,.12.08.25.13.37a3.74,3.74,0,0,0,.58,1,3.79,3.79,0,0,0,.53.53,4,4,0,0,0,2.47.88,3.59,3.59,0,0,0,1.8-.48,3.2,3.2,0,0,0,.61-.43,3.74,3.74,0,0,0,.51-.54,3.3,3.3,0,0,0,.22-.3,4,4,0,0,0,.67-2.2,4.35,4.35,0,0,0-.3-1.58A4.1,4.1,0,0,0,162.8,152.45Z"/><path class="cls-2" d="M342.83,144.43a11.62,11.62,0,0,0-1.55-2.15,3.93,3.93,0,0,0-4.14-1.1,9.87,9.87,0,0,0-2.69,1.21c-1.19.75-2.36,1.52-3.52,2.31-2.83,1.94-5.68,3.86-8.6,5.67A21.06,21.06,0,0,1,312,153.49,38.28,38.28,0,0,1,284.54,144c-.75-.64-1.42-1.37-2.12-2.07a1.2,1.2,0,0,0-.79-.46v.1c0,.57,0,1.14,0,1.72v39.5a13.27,13.27,0,0,0,0,1.41,2.42,2.42,0,0,0,2.46,2.32h27.68c2.29,0,2.3-2.09,2.57-3.32.48-2.16.48-3.61,2.72-3.61,3.29,0,4.68,3.28,5.73,5.07a4.34,4.34,0,0,0,3.21,1.89c6.61,0,12.22,0,18.83,0,.31,0,.62,0,.93,0a2.41,2.41,0,0,0,2.29-2.16,7.38,7.38,0,0,0,0-.94q0-9.84,0-19.67c0-.26,0-.53,0-.78a2.34,2.34,0,0,0-1.07-1.82,10.43,10.43,0,0,0-1.09-.6l-9.34-4.67a8.19,8.19,0,0,1-1.09-.6,2.39,2.39,0,0,1,0-3.88,8.19,8.19,0,0,1,1.09-.6c2.09-1,4.19-2.08,6.27-3.14l1.43-.74-.2-.34C343.68,145.85,343.21,145.08,342.83,144.43Z"/><path class="cls-2" d="M366.78,165.46a4.5,4.5,0,0,0-.73-.15,1.52,1.52,0,0,0-.06.2l-.05.18h0a10.74,10.74,0,0,1-1.57,3.25,5.81,5.81,0,0,1-3.92,2.52,6.54,6.54,0,0,1-3.19-.43,8.7,8.7,0,0,1-2.86-1.64h0l-.08-.06h0a4.52,4.52,0,0,0-.5.58,10.45,10.45,0,0,0-1.37,6.89,10.59,10.59,0,1,0,14.34-11.35Z"/><path class="cls-2" d="M200,180.69,195,157.82h0a.48.48,0,0,0-.39.35c-1.44,3-4,4.16-7.12,4.68a9,9,0,0,1-4-.3A26.48,26.48,0,0,1,171.94,156a61.27,61.27,0,0,1-5.08-5.71c-1.76-2.19-3.46-4.42-5.36-6.51-3.77-4.17-8.54-6.74-13.72-8.66a7.14,7.14,0,0,0-6.3.69,15.79,15.79,0,0,0-3,2.41,61.68,61.68,0,0,0-4.13,4.7c-1.23,1.48-2.46,3-3.73,4.4a19.42,19.42,0,0,1-3.93,3.36c-.25.17-.8.51-1.08.66l0,0c-1.93,9-4,18.69-4.78,22.4-.51,2.39-1,4.78-1.56,7.16a4,4,0,0,0,4,5h18.43c.32,0,.63,0,.94,0a3.84,3.84,0,0,0,3.5-2.46c.18-.43.31-.88.46-1.32.54-1.63,1-3.27,1.62-4.89a3.78,3.78,0,0,1,3.63-2.7c.31,0,.62,0,.93,0H166.5c.46,0,.93,0,1.4.06a3.61,3.61,0,0,1,2.51,1.43,5.18,5.18,0,0,1,.81,1.67c.53,1.58,1,3.16,1.57,4.74.9,2.73,1.93,3.48,4.79,3.48h17.81c.41,0,.83,0,1.25,0A3.92,3.92,0,0,0,200,183,5,5,0,0,0,200,180.69Zm-37.16-23.77a4.2,4.2,0,0,1-.74.84,3.14,3.14,0,0,1-.6.43,3.59,3.59,0,0,1-1.8.48,4,4,0,0,1-2.46-.88,3,3,0,0,1-.53-.53,3.76,3.76,0,0,1-.59-1c0-.12-.09-.24-.13-.37a4.27,4.27,0,0,1-.15-1.26,4,4,0,0,1,1.15-2.87,3.65,3.65,0,0,1,1.2-.78,4.06,4.06,0,0,1,1.44-.29,3.5,3.5,0,0,1,2.17.65,3,3,0,0,1,.57.5,3.51,3.51,0,0,1,.48.6,4.52,4.52,0,0,1,.36.69,4.15,4.15,0,0,1,.29,1.58A4,4,0,0,1,162.79,156.92Z"/><path class="cls-2" d="M269,144.4l-1,1.29c-.34.44-.62.84-.83,1.14q-2.88,4.2-5.7,8.43a43.24,43.24,0,0,1-3.75,5,19.91,19.91,0,0,1-4.63,3.9,13.09,13.09,0,0,1-3.59,1.48,10.7,10.7,0,0,1-7-.78,19.29,19.29,0,0,1-5.56-4,37.47,37.47,0,0,1-5-6.19,59.64,59.64,0,0,1-3.18-5.54,18.51,18.51,0,0,0-3.41-4.81,10.27,10.27,0,0,0-5.55-3,11.63,11.63,0,0,0-5.24.37,22.88,22.88,0,0,0-7.55,3.93h0V182.2c0,.47,0,.94,0,1.41a2.41,2.41,0,0,0,2.43,2.35c.36,0,.73,0,1.09,0H269.8c.36,0,.73,0,1.09,0a2.43,2.43,0,0,0,2.51-2.44c0-.36,0-.73,0-1.09V148.08c0-.31,0-.62,0-.93a2.53,2.53,0,0,0-2.61-2.7c-.62,0-1.25,0-1.87,0h0Z"/><path class="cls-2" d="M110.65,144c-.83-1.62-1.65-3.25-2.55-4.83a18.67,18.67,0,0,0-3.42-4.44,9.92,9.92,0,0,0-2.12-1.58,6.06,6.06,0,0,0-4.4-.51,11.89,11.89,0,0,0-3,1.27c-1,.6-2,1.24-3.07,1.86s-2.31,1.41-3.49,2.08a21.59,21.59,0,0,1-7.51,2.48c-1.08.16-2.15.35-3.23.54a6.06,6.06,0,0,0-3.48,1.95,25.56,25.56,0,0,0-1.88,2.28c-.92,1.27-1.79,2.57-2.67,3.86A57.72,57.72,0,0,1,66,154.09,13.23,13.23,0,0,1,62.74,157a8,8,0,0,1-8.05.33A12.36,12.36,0,0,1,51.54,155a23.39,23.39,0,0,1-3.16-3.85c-1.26-1.86-2.32-3.83-3.4-5.79s-2-3.63-3.07-5.43c-.2-.35-.38-.76-.87-.82h0c0,.58,0,1.15,0,1.72v41.37a11.61,11.61,0,0,0,0,1.56A2.39,2.39,0,0,0,43.51,186h22c.31,0,.62,0,.93,0a2.4,2.4,0,0,0,2.28-2.16,10,10,0,0,0,0-1.1v-6.55a10.1,10.1,0,0,1,0-1.1,2.39,2.39,0,0,1,3.83-1.73,8.2,8.2,0,0,1,.92.85L75.41,176a2.49,2.49,0,0,0,3.28,0l2-2a7.27,7.27,0,0,1,.92-.84,2.4,2.4,0,0,1,3.7,1.66,7.94,7.94,0,0,1,0,1.09q0,3.36,0,6.71a10,10,0,0,0,0,1.1A2.39,2.39,0,0,0,87.64,186c.31,0,.62,0,.94,0h21.23c.31,0,.62,0,.93,0a2.3,2.3,0,0,0,2.21-1.86,5.89,5.89,0,0,0,.11-1.39c0-3.64,0-7.29,0-10.93q0-11.62,0-23.26v0l0-.07A41.88,41.88,0,0,1,110.65,144Z"/><path class="cls-3" d="M113.13,148.2a1.47,1.47,0,0,1,0,.29.25.25,0,0,0,0-.07,41.88,41.88,0,0,1-2.39-4.42c-.83-1.62-1.64-3.25-2.54-4.84a19.13,19.13,0,0,0-3.43-4.43,10.17,10.17,0,0,0-2.12-1.58,6,6,0,0,0-4.39-.5,11.23,11.23,0,0,0-3,1.26c-1,.6-2.06,1.24-3.08,1.86s-2.31,1.41-3.49,2.07a21.61,21.61,0,0,1-7.51,2.49c-1.08.16-2.16.36-3.23.54a6.12,6.12,0,0,0-3.48,1.95,25.56,25.56,0,0,0-1.88,2.28c-.92,1.27-1.79,2.56-2.67,3.86A56.07,56.07,0,0,1,66,154.1,13.17,13.17,0,0,1,62.74,157a8,8,0,0,1-8.05.33A12.36,12.36,0,0,1,51.54,155a23.9,23.9,0,0,1-3.16-3.85c-1.26-1.86-2.33-3.83-3.4-5.79s-2-3.63-3.07-5.44c-.2-.35-.38-.75-.87-.81h0c0-1.56,0-3.12,0-4.68,0-3.8,0-7.6,0-11.4,0-.31,0-.62,0-.93a3.72,3.72,0,0,1,.2-.91,3,3,0,0,1,.16-.36,2,2,0,0,1,.38-.57,1.65,1.65,0,0,1,.81-.49,2.67,2.67,0,0,1,.73-.11,2.25,2.25,0,0,1,.26,0H67.2a.75.75,0,0,0,.15,0l.39,0A2.93,2.93,0,0,1,70,120.71c1.61,1.7,3.3,3.33,5,5l.27.27a3.25,3.25,0,0,0,1,.65,2.54,2.54,0,0,0,.67.17,2,2,0,0,0,.64,0l.3-.08a3,3,0,0,0,.86-.47,4.53,4.53,0,0,0,.6-.56l.19-.2c1.54-1.54,3.13-3,4.62-4.65a3.84,3.84,0,0,1,.3-.28,3.18,3.18,0,0,1,1.28-.73,4.19,4.19,0,0,1,1.16-.14q4.83,0,9.68,0h14.21a4,4,0,0,1,.5,0,2.24,2.24,0,0,1,1.7,1.31,2.77,2.77,0,0,1,.24.94,5.61,5.61,0,0,1,0,.58v.2Q113.12,135.47,113.13,148.2Z"/><path class="cls-3" d="M269,144.4l-1.05,1.29c-.33.44-.61.84-.82,1.14q-2.88,4.2-5.69,8.43a45.75,45.75,0,0,1-3.76,5,20.37,20.37,0,0,1-4.63,3.9,13.09,13.09,0,0,1-3.59,1.48,10.7,10.7,0,0,1-7-.78,19.23,19.23,0,0,1-5.56-4,36.46,36.46,0,0,1-5-6.19,59.64,59.64,0,0,1-3.18-5.54,18.51,18.51,0,0,0-3.41-4.81,10.19,10.19,0,0,0-5.55-3,11.35,11.35,0,0,0-5.24.37,22.67,22.67,0,0,0-7.55,3.92h0q0-11.62,0-23.26a2.91,2.91,0,0,1,.39-1.64,2.12,2.12,0,0,1,1.6-1.1,1.71,1.71,0,0,1,.32,0h42.15a2.5,2.5,0,0,1,1.28.37,2.24,2.24,0,0,1,.62.57,2.58,2.58,0,0,1,.46,1.26,10.4,10.4,0,0,1,0,1.25v17.64c0,.42,0,.83,0,1.25a3.55,3.55,0,0,0,.06.47,2.23,2.23,0,0,0,.33.81,2.28,2.28,0,0,0,1,.84,2.6,2.6,0,0,0,.42.15,3.4,3.4,0,0,0,.46.09c.21,0,.42,0,.62,0H269Z"/><path class="cls-3" d="M366.05,165.32l-.06.19-.05.18h0a10.74,10.74,0,0,1-1.57,3.25,5.81,5.81,0,0,1-3.92,2.52,6.43,6.43,0,0,1-3.19-.44,8.36,8.36,0,0,1-2.85-1.63h0l-.08-.06a10.24,10.24,0,0,1,1.13-1.51,9.06,9.06,0,0,1,1.36-1.2,10.3,10.3,0,0,1,2.44-1.28,8.6,8.6,0,0,1,.9-.29,9.69,9.69,0,0,1,1.38-.29,8.92,8.92,0,0,1,1.37-.08,10.93,10.93,0,0,1,2.76.38l.38.25Z"/><path class="cls-3" d="M348.14,122.9v19.7c0,.26,0,.52,0,.78v0a2.56,2.56,0,0,1-.18,1,1.55,1.55,0,0,1-.32.55,1.77,1.77,0,0,1-.65.55c-.43.24-.8.48-1.25.69s-1,.51-1.44.72l-.2-.34c-.41-.69-.88-1.46-1.26-2.11a11.17,11.17,0,0,0-1.55-2.15,3.94,3.94,0,0,0-4.14-1.1,10.18,10.18,0,0,0-2.69,1.21c-1.19.75-2.36,1.52-3.52,2.31-2.83,1.94-5.68,3.86-8.6,5.66A21,21,0,0,1,312,153.49,38.33,38.33,0,0,1,284.54,144c-.75-.64-1.42-1.37-2.12-2.07a1.22,1.22,0,0,0-.79-.46c0-1.28,0-15.6,0-18.29v0h0V123a3,3,0,0,1,.78-2.29,2.27,2.27,0,0,1,.62-.46,1.53,1.53,0,0,1,.75-.16h28a1.93,1.93,0,0,1,1.89,1.36,6.65,6.65,0,0,1,.32,1.35c.33,1.74.69,4.41,2.46,4.41,1.3,0,3.06-1.67,4.82-4.3.59-.87,2-2.82,4.28-2.84l7.83,0h12.28a2.93,2.93,0,0,1,1,.17,2.46,2.46,0,0,1,.4.19,2.12,2.12,0,0,1,.64.59,2,2,0,0,1,.22.38,2.71,2.71,0,0,1,.24.93C348.14,122.53,348.14,122.72,348.14,122.9Z"/><path class="cls-3" d="M195,157.82h0a.48.48,0,0,0-.39.35c-1.44,3-4,4.16-7.12,4.68a9,9,0,0,1-4-.3A26.48,26.48,0,0,1,171.94,156a61.27,61.27,0,0,1-5.08-5.71c-1.76-2.19-3.46-4.42-5.36-6.51-3.77-4.17-8.54-6.74-13.72-8.66a7.14,7.14,0,0,0-6.3.69,15.79,15.79,0,0,0-3,2.41,61.68,61.68,0,0,0-4.13,4.7c-1.23,1.48-2.46,3-3.73,4.4a19.42,19.42,0,0,1-3.93,3.36c-.25.17-.8.51-1.08.66l0,0c1.77-8.3,3.43-16.12,3.93-18.42.32-1.49.66-3,1-4.48s.67-3,1-4.48c0-.15.06-.3.09-.45l.06-.47a4.07,4.07,0,0,1,.37-1.18,4.13,4.13,0,0,1,.7-1,5.48,5.48,0,0,1,.61-.56l.19-.13a2.84,2.84,0,0,1,1.11-.49,2.73,2.73,0,0,1,.41,0h48.56c.15,0,.31,0,.46,0a3,3,0,0,1,.93.14,4.31,4.31,0,0,1,1.05.53l.29.22a4,4,0,0,1,.63.73,4.43,4.43,0,0,1,.59,1.42q.63,2.81,1.23,5.62c.49,2.23,1,4.46,1.43,6.69q1.18,5.63,2.38,11.26c.55,2.58,1.12,5.16,1.68,7.75Z"/></svg>