<svg xmlns="http://www.w3.org/2000/svg" viewBox="0 0 675 150"><defs><style>.cls-1{fill:none;}.cls-2{fill:#fff;}</style></defs><g id="Content"><path class="cls-1" d="M248.66,73.74a8,8,0,0,0-.95-1.2,7.71,7.71,0,0,0-1.15-1,7,7,0,0,0-4.33-1.3,8.37,8.37,0,0,0-2.89.59,7.44,7.44,0,0,0-2.4,1.55,8,8,0,0,0-2.31,5.73,8.76,8.76,0,0,0,.32,2.51,6.81,6.81,0,0,0,.26.76,7.52,7.52,0,0,0,1.16,2,8.17,8.17,0,0,0,1.06,1.06,7.93,7.93,0,0,0,4.94,1.75,7.13,7.13,0,0,0,3.59-1,7.8,7.8,0,0,0,2.24-1.94,6.25,6.25,0,0,0,.44-.61A8.1,8.1,0,0,0,250,78.29a8.27,8.27,0,0,0-.6-3.16A7.58,7.58,0,0,0,248.66,73.74Z"/><path d="M608.56,57.72a22.54,22.54,0,0,0-3.09-4.3,7.85,7.85,0,0,0-8.27-2.21,20.14,20.14,0,0,0-5.39,2.43q-3.55,2.23-7,4.62c-5.66,3.88-11.34,7.71-17.19,11.32a42,42,0,0,1-20.67,6.24c-20.75.84-39.1-5.46-54.88-19-1.5-1.29-2.84-2.75-4.23-4.15a2.36,2.36,0,0,0-1.59-.91v.19c0,1.15,0,2.29,0,3.44v79a26.31,26.31,0,0,0,0,2.81,4.84,4.84,0,0,0,4.92,4.64c.52,0,1,0,1.56,0h53.77c4.59,0,4.61-4.18,5.15-6.65.95-4.32.95-7.21,5.43-7.21,6.59,0,9.36,6.54,11.45,10.12.93,1.58,3.82,3.8,6.42,3.78,13.21-.09,24.43,0,37.65,0,.62,0,1.25,0,1.87,0a4.8,4.8,0,0,0,4.57-4.31,14.71,14.71,0,0,0,0-1.88V96.25c0-.52,0-1,0-1.56A4.72,4.72,0,0,0,617,91.05a22,22,0,0,0-2.19-1.19l-18.67-9.34a15.21,15.21,0,0,1-2.17-1.2,4.76,4.76,0,0,1,0-7.75,14.79,14.79,0,0,1,2.18-1.2c4.17-2.09,8.37-4.15,12.53-6.28l2.85-1.48-.39-.69C610.26,60.55,609.33,59,608.56,57.72Z"/><path d="M656.45,99.77a8,8,0,0,0-1.47-.31c0,.14-.09.26-.12.4l-.09.35h0a21.91,21.91,0,0,1-3.14,6.49,11.53,11.53,0,0,1-7.85,5,12.89,12.89,0,0,1-6.36-.86,17.41,17.41,0,0,1-5.72-3.26h0l-.15-.13v0a7.93,7.93,0,0,0-1,1.17,20.85,20.85,0,0,0-2.74,13.77,21.17,21.17,0,1,0,28.68-22.68Z"/><path d="M322.94,130.21q-4.94-22.86-9.85-45.72H313a1,1,0,0,0-.79.7c-2.88,6-8.1,8.32-14.23,9.37a18,18,0,0,1-8-.6,53,53,0,0,1-23.06-13.16,122.39,122.39,0,0,1-10.16-11.42c-3.52-4.38-6.92-8.84-10.71-13C238.52,48,229,42.91,218.64,39.07a14.22,14.22,0,0,0-12.59,1.38,31,31,0,0,0-6.11,4.82,122.67,122.67,0,0,0-8.25,9.38c-2.46,3-4.92,5.92-7.47,8.8a38,38,0,0,1-7.85,6.73c-.5.33-1.59,1-2.16,1.31l-.07,0c-3.86,18.1-8,37.36-9.56,44.78-1,4.77-2,9.56-3.12,14.32a8,8,0,0,0,8.09,10c.41,0,.83,0,1.25,0h35.6c.63,0,1.25,0,1.88,0a7.67,7.67,0,0,0,7-4.91c.37-.86.63-1.76.93-2.65,1.07-3.26,2.08-6.54,3.23-9.77a7.55,7.55,0,0,1,7.26-5.4c.62,0,1.25,0,1.87,0h27.49c.93,0,1.87,0,2.8.12a7.18,7.18,0,0,1,5,2.84,10.43,10.43,0,0,1,1.63,3.35c1.05,3.15,2.08,6.31,3.13,9.47,1.81,5.46,3.87,7,9.58,7h35.6a23.18,23.18,0,0,0,2.5,0,7.85,7.85,0,0,0,6.67-5.76A10.15,10.15,0,0,0,322.94,130.21ZM248.65,82.68c-.14.21-.29.42-.44.61a7.59,7.59,0,0,1-1,1.08,7.37,7.37,0,0,1-1.21.86,7.11,7.11,0,0,1-3.59,1,7.92,7.92,0,0,1-4.93-1.75,7.08,7.08,0,0,1-1.06-1.06,7.39,7.39,0,0,1-1.17-2c-.1-.24-.18-.49-.26-.75a8.54,8.54,0,0,1-.31-2.52A8,8,0,0,1,237,72.39a7.4,7.4,0,0,1,2.39-1.55,8.41,8.41,0,0,1,2.89-.59,7.08,7.08,0,0,1,4.33,1.3,7.24,7.24,0,0,1,1.15,1,7.83,7.83,0,0,1,.95,1.2,8.7,8.7,0,0,1,.72,1.39,8.26,8.26,0,0,1,.59,3.16A8.15,8.15,0,0,1,248.65,82.68Z"/><path d="M460.86,57.65c-.68.87-1.4,1.72-2.08,2.58s-1.23,1.68-1.65,2.29q-5.75,8.38-11.39,16.85a88.42,88.42,0,0,1-7.5,9.95A39.83,39.83,0,0,1,429,97.11a25.86,25.86,0,0,1-7.17,3,21.34,21.34,0,0,1-14-1.56,38.4,38.4,0,0,1-11.13-7.89,73.55,73.55,0,0,1-9.93-12.38,119,119,0,0,1-6.35-11.07,37.23,37.23,0,0,0-6.83-9.62A20.44,20.44,0,0,0,362.5,51.6a23,23,0,0,0-10.48.74,46,46,0,0,0-15.11,7.85h0l0,0q0,36.51,0,73c0,.93-.05,1.88,0,2.81a4.83,4.83,0,0,0,4.86,4.7c.72,0,1.45,0,2.18,0h118.6c.73,0,1.46,0,2.19,0a4.87,4.87,0,0,0,5-4.87c.05-.73,0-1.46,0-2.19q0-34.34,0-68.66c0-.63,0-1.25,0-1.88-.14-3.33-1.93-5.19-5.22-5.39-1.24-.07-2.49-.07-3.73-.11h0Z"/><path d="M144.4,56.85c-1.65-3.24-3.29-6.5-5.09-9.66a37.75,37.75,0,0,0-6.84-8.87,19.33,19.33,0,0,0-4.25-3.16,12,12,0,0,0-8.78-1,23.27,23.27,0,0,0-6,2.54c-2.07,1.2-4.09,2.48-6.14,3.71-2.32,1.39-4.62,2.82-7,4.15a43.18,43.18,0,0,1-15,5c-2.16.33-4.31.71-6.46,1.09a12.14,12.14,0,0,0-7,3.89,53.05,53.05,0,0,0-3.76,4.57c-1.84,2.52-3.58,5.12-5.32,7.71A121.3,121.3,0,0,1,55.15,77a26,26,0,0,1-6.53,5.75,16,16,0,0,1-16.08.67,24.62,24.62,0,0,1-6.3-4.56,46.9,46.9,0,0,1-6.33-7.71c-2.51-3.71-4.64-7.64-6.79-11.56C11.12,56,9.05,52.36,7,48.75c-.4-.7-.76-1.51-1.74-1.63h0c0,1.14,0,2.28,0,3.42v82.71a23,23,0,0,0,.08,3.11,4.78,4.78,0,0,0,4.85,4.37c.52,0,1,0,1.56,0H54.19c.63,0,1.25,0,1.87,0a4.81,4.81,0,0,0,4.55-4.34c.08-.72,0-1.45,0-2.18V121.1c0-.73,0-1.46,0-2.18a4.79,4.79,0,0,1,7.67-3.47,17.22,17.22,0,0,1,1.83,1.7c1.26,1.23,2.51,2.48,3.77,3.73a5,5,0,0,0,6.55,0c1.34-1.31,2.66-2.64,4-4a13.81,13.81,0,0,1,1.84-1.67,4.81,4.81,0,0,1,7.4,3.32,15.79,15.79,0,0,1,.06,2.18c0,4.47,0,9,0,13.42a19.78,19.78,0,0,0,0,2.18,4.8,4.8,0,0,0,4.54,4.35c.62.05,1.25,0,1.87,0h42.45c.62,0,1.25,0,1.87,0A4.66,4.66,0,0,0,149,137a12.88,12.88,0,0,0,.21-2.78c0-7.29,0-14.57,0-21.85l0-46.5v0c0-.06-.06-.1-.09-.15A87.58,87.58,0,0,1,144.4,56.85Z"/><path class="cls-2" d="M149.37,65.26a3.07,3.07,0,0,1-.1.58l-.08-.15a83.69,83.69,0,0,1-4.79-8.84c-1.65-3.24-3.28-6.5-5.08-9.66a38.48,38.48,0,0,0-6.85-8.87,19.79,19.79,0,0,0-4.24-3.15,11.93,11.93,0,0,0-8.78-1,22.62,22.62,0,0,0-6,2.53c-2.07,1.2-4.1,2.48-6.15,3.71-2.31,1.4-4.62,2.82-7,4.15a43.11,43.11,0,0,1-15,5c-2.16.33-4.31.72-6.46,1.09a12.13,12.13,0,0,0-7,3.89,51.37,51.37,0,0,0-3.77,4.57c-1.84,2.53-3.57,5.12-5.32,7.71A115.79,115.79,0,0,1,55.15,77a26.4,26.4,0,0,1-6.53,5.75,16,16,0,0,1-16.08.66,24.62,24.62,0,0,1-6.3-4.56,47.19,47.19,0,0,1-6.32-7.7c-2.52-3.71-4.65-7.65-6.8-11.57C11.12,56,9.05,52.36,7,48.75c-.4-.7-.77-1.51-1.74-1.63h0c0-3.11-.07-6.23-.07-9.35,0-7.6,0-15.19,0-22.79,0-.63,0-1.25.07-1.86a7.84,7.84,0,0,1,.41-1.82c.1-.26.2-.51.31-.73a4.62,4.62,0,0,1,.76-1.14,3.5,3.5,0,0,1,1.62-1,5.83,5.83,0,0,1,1.47-.22H57.85a6.78,6.78,0,0,1,.77-.05,5.89,5.89,0,0,1,4.46,2.13c3.21,3.4,6.59,6.65,9.91,10l.55.54a6.15,6.15,0,0,0,1.91,1.3,4.81,4.81,0,0,0,1.35.35,4.47,4.47,0,0,0,1.27,0c.2,0,.4-.1.6-.16a6.16,6.16,0,0,0,1.73-.95,9,9,0,0,0,1.19-1.12l.38-.39c3.09-3.09,6.26-6.11,9.24-9.3a7.8,7.8,0,0,1,.59-.57,6.4,6.4,0,0,1,2.56-1.45,8.07,8.07,0,0,1,2.32-.28q9.67.06,19.36.05h23.88c1.51,0,3,0,4.53,0a7.92,7.92,0,0,1,1,.09,4.51,4.51,0,0,1,3.41,2.61,5.83,5.83,0,0,1,.47,1.88,9.14,9.14,0,0,1,0,1.17v.39Z"/><path class="cls-2" d="M460.87,57.65c-.69.87-1.4,1.72-2.09,2.59s-1.23,1.68-1.65,2.28q-5.75,8.4-11.38,16.85a88.8,88.8,0,0,1-7.51,9.95A39.53,39.53,0,0,1,429,97.11a25.39,25.39,0,0,1-7.17,3,21.24,21.24,0,0,1-14-1.56,38.17,38.17,0,0,1-11.12-7.89,73.12,73.12,0,0,1-9.94-12.38,120,120,0,0,1-6.35-11.07,37.23,37.23,0,0,0-6.83-9.62,20.43,20.43,0,0,0-11.08-5.94,23,23,0,0,0-10.48.74,45.65,45.65,0,0,0-15.1,7.85h0l0,0v0q0-23.25,0-46.5a5.74,5.74,0,0,1,.79-3.28,4.2,4.2,0,0,1,3.19-2.21,3.45,3.45,0,0,1,.64,0c.31,0,.62,0,.94,0h81.46c.62,0,1.25,0,1.87,0a5.63,5.63,0,0,1,.93.1,5,5,0,0,1,1.63.64,4.49,4.49,0,0,1,1.23,1.15,5,5,0,0,1,.93,2.51,23.14,23.14,0,0,1,0,2.5V50.39c0,.84,0,1.67,0,2.5a5.75,5.75,0,0,0,.12.94,4.77,4.77,0,0,0,.65,1.63,4.6,4.6,0,0,0,1.9,1.67,4.67,4.67,0,0,0,.84.31,5.65,5.65,0,0,0,.93.17c.41,0,.83,0,1.24,0h24.7Z"/><path class="cls-2" d="M655,99.47c0,.13-.08.26-.12.39l-.09.35h0a21.67,21.67,0,0,1-3.14,6.49,11.56,11.56,0,0,1-7.84,5,13,13,0,0,1-6.37-.87,17.1,17.1,0,0,1-5.71-3.26h0l-.15-.13a19.72,19.72,0,0,1,2.26-3,18.77,18.77,0,0,1,2.72-2.41,20.14,20.14,0,0,1,4.87-2.55c.58-.22,1.19-.42,1.81-.59a18.92,18.92,0,0,1,2.75-.57,19.43,19.43,0,0,1,2.75-.17,21.71,21.71,0,0,1,5.5.77c.07,0,.64.41.77.5Z"/><path class="cls-2" d="M619.19,14.67c0,.33,0,.66,0,1V54.06c0,.52,0,1,0,1.56v0a5.14,5.14,0,0,1-.37,1.94,3.12,3.12,0,0,1-.63,1.09,3.69,3.69,0,0,1-1.31,1.11c-.86.48-1.6,1-2.5,1.37s-2,1-2.87,1.44l-.4-.68c-.82-1.37-1.76-2.91-2.52-4.21a22.54,22.54,0,0,0-3.09-4.3,7.87,7.87,0,0,0-8.28-2.2,19.91,19.91,0,0,0-5.38,2.42q-3.57,2.23-7,4.62c-5.66,3.88-11.35,7.72-17.19,11.32a42,42,0,0,1-20.68,6.25c-20.75.83-39.1-5.47-54.88-19-1.49-1.28-2.84-2.75-4.23-4.15a2.42,2.42,0,0,0-1.58-.91c0-2.56,0-31.19-.06-36.57v-.06h0v-.2a6.08,6.08,0,0,1,1.56-4.58A4.49,4.49,0,0,1,489,9.37a3.08,3.08,0,0,1,1.51-.32c.31,0,.62,0,.93,0h55.13a3.87,3.87,0,0,1,3.77,2.72,12.75,12.75,0,0,1,.64,2.71c.66,3.47,1.39,8.81,4.93,8.81,2.6,0,6.1-3.33,9.63-8.59C566.67,13,569.4,9.06,574.05,9c.66,0,11.21,0,15.65,0H611c1.09,0,2.18,0,3.28,0a5.85,5.85,0,0,1,1.92.33,5.39,5.39,0,0,1,.8.39A4.17,4.17,0,0,1,618.24,11a4.75,4.75,0,0,1,.45.76,5.71,5.71,0,0,1,.47,1.87C619.19,13.94,619.19,14.31,619.19,14.67Z"/><path class="cls-2" d="M313.09,84.48H313a1,1,0,0,0-.79.7c-2.88,6-8.1,8.32-14.23,9.37a18,18,0,0,1-8-.6,53,53,0,0,1-23.06-13.16,122.39,122.39,0,0,1-10.16-11.42c-3.52-4.38-6.92-8.84-10.71-13C238.52,48,229,42.91,218.64,39.07a14.22,14.22,0,0,0-12.59,1.38,31,31,0,0,0-6.11,4.82,122.67,122.67,0,0,0-8.25,9.38c-2.46,3-4.92,5.92-7.47,8.8a38,38,0,0,1-7.85,6.73c-.5.33-1.59,1-2.16,1.31l-.07,0c3.53-16.6,6.86-32.22,7.86-36.82.64-3,1.31-6,2-9s1.35-6,2-8.95c.07-.3.12-.6.17-.91s.09-.62.13-.93A7.85,7.85,0,0,1,187,12.6a8.26,8.26,0,0,1,1.39-1.95,11.84,11.84,0,0,1,1.22-1.11l.39-.27a5.69,5.69,0,0,1,2.21-1,5.57,5.57,0,0,1,.83-.07c.73,0,1.46,0,2.19,0H289.2l.94,0c.31,0,.62,0,.93,0a5.91,5.91,0,0,1,1.85.29A8.25,8.25,0,0,1,295,9.55c.2.14.39.29.58.45a7.36,7.36,0,0,1,1.27,1.46A8.66,8.66,0,0,1,298,14.29c.85,3.74,1.66,7.48,2.47,11.23q1.44,6.69,2.85,13.38,2.37,11.25,4.75,22.51c1.1,5.16,2.24,10.32,3.36,15.49Z"/></g></svg>