<svg xmlns="http://www.w3.org/2000/svg" viewBox="0 0 323.66 648.18"><defs><style>.cls-1{fill:#ffe9e9;}.cls-2{fill:#f4959a;}.cls-3{fill:#ffb4b4;}.cls-4{fill:#fff;}.cls-5{fill:#705a55;}</style></defs><g id="Background"><polyline class="cls-1" points="323.51 0 323.51 323.59 -0.09 323.59 -0.09 0"/><polyline class="cls-2" points="323.58 310.95 323.58 648.18 -0.01 648.18 -0.01 310.95"/><path class="cls-3" d="M266,464.12c-24.77,6.53-34.32-131-91.16-127.5C152.51,338,133.34,447.69,94.46,441.55c-17-2.68-15.75-62.28-32.32-64.18C41.46,375,12.2,398.26-.08,406.91L-.34,188.72c13.92,20.09,9.73,42.34,15.59,54.14,5.61,11.27,32.2,11.27,41,19.39,14.83,13.71,29-40.48,52.22-47.3,30-8.82,59,47.73,83.78,50,16.94,1.54,38.88-26.94,54.08-21,25.08,9.86,46.3,25.58,77.34-14.32V397C318.74,405.81,294.69,456.57,266,464.12Z"/><path class="cls-4" d="M76.43,64.81c15.2-6,45.63,64.19,62.23,60.5,16.34-3.63,27.6-26.15,57.65-17.33,23.21,6.82,34,44.19,69.73,33.32,34.06-9.87,16-78,38.8-78.34,7.71-.11,15.75,10.45,18.82,12.44V-.23L0,0-.08,93.25C31,133.14,51.35,74.66,76.43,64.81Z"/><path class="cls-5" d="M323.66,566c-12.29-8.65-20.38-25.24-41.06-22.87-16.57,1.89-47.44,63.07-67.53,58.6-38.43-8.54-72.34-77.23-101.58-74.79C80.75,529.69,66.6,568.25,46,579,19.76,592.64,4.83,564.91-.08,556.1c0,0,.08,83.12.08,92.08H323.66Z"/></g><g id="Content"><path class="cls-4" d="M223.34,475.92c0-.34,0-.67,0-1a5.24,5.24,0,0,0-.43-1.7,4.77,4.77,0,0,0-.41-.7,4,4,0,0,0-1.16-1.07,4.1,4.1,0,0,0-.73-.35,5.34,5.34,0,0,0-1.75-.31H196.45c-4,0-13.67,0-14.27,0-4.24,0-6.73,3.58-7.81,5.18-3.22,4.8-6.41,7.83-8.78,7.83-3.23,0-3.89-4.86-4.49-8a12.62,12.62,0,0,0-.58-2.48,3.56,3.56,0,0,0-3.45-2.47H106a2.83,2.83,0,0,0-1.38.29,3.91,3.91,0,0,0-1.12.85A5.49,5.49,0,0,0,102,476.1v.19h0v.05c0,5.11,0,33.3,0,33.53,0,1,0,2.08,0,3.12v72a24.26,24.26,0,0,0,0,2.56,4.41,4.41,0,0,0,4.49,4.23c.47,0,.95,0,1.42,0h49c4.18,0,4.2-3.81,4.7-6.06.86-3.94.86-6.57,4.94-6.57,6,0,8.54,6,10.45,9.22a7.88,7.88,0,0,0,5.85,3.45c12.05-.09,22.27,0,34.32,0,.57,0,1.14,0,1.71,0a4.37,4.37,0,0,0,4.17-3.93,13.79,13.79,0,0,0,0-1.7q0-17.94,0-35.87c0-.47,0-.95,0-1.42a4.33,4.33,0,0,0-1.94-3.32,18.31,18.31,0,0,0-2-1.08l-17-8.52a14.22,14.22,0,0,1-2-1.1,4.34,4.34,0,0,1,0-7.06,13.11,13.11,0,0,1,2-1.09c3.81-1.91,7.64-3.79,11.43-5.73l2.61-1.36h0c.81-.38,1.8-.93,2.62-1.31s1.48-.81,2.27-1.24a3.32,3.32,0,0,0,1.19-1,2.82,2.82,0,0,0,.58-1,4.91,4.91,0,0,0,.34-1.77v0c0-.47,0-1,0-1.42v-35C223.33,476.51,223.33,476.21,223.34,475.92Z"/><path class="cls-4" d="M236.32,306q-4.5-20.85-9-41.7c-.5-2.3-1-4.61-1.48-6.91-1-4.71-2.06-9.41-3.07-14.13q-2.17-10.25-4.32-20.52-1.29-6.09-2.6-12.2c-.74-3.41-1.48-6.83-2.26-10.24a7.84,7.84,0,0,0-1.06-2.58,6.36,6.36,0,0,0-1.16-1.32c-.17-.15-.35-.29-.53-.42a7.84,7.84,0,0,0-1.92-1,5.4,5.4,0,0,0-1.68-.26c-.28,0-.57,0-.85,0l-.85,0H119.9c-.67,0-1.33,0-2,0a4.77,4.77,0,0,0-.76.06,5.09,5.09,0,0,0-2,.88c-.12.09-.24.16-.35.25a10,10,0,0,0-1.12,1,7.22,7.22,0,0,0-1.27,1.78,6.75,6.75,0,0,0-.66,2.15c0,.28-.08.56-.13.84s-.09.56-.15.84l-1.83,8.16c-.62,2.71-1.22,5.44-1.81,8.16-1.9,8.77-13.09,61.43-15.89,74.4-.93,4.36-1.85,8.72-2.84,13.06a7.31,7.31,0,0,0,7.38,9.16c.37,0,.76,0,1.14,0h32.46c.57,0,1.14,0,1.71,0a7,7,0,0,0,6.38-4.47c.33-.78.57-1.6.84-2.41,1-3,1.9-6,2.95-8.91a6.89,6.89,0,0,1,6.62-4.93c.57,0,1.14,0,1.71,0h25.06c.85,0,1.71,0,2.55.11a6.56,6.56,0,0,1,4.58,2.59,9.59,9.59,0,0,1,1.48,3.05c1,2.88,1.9,5.76,2.86,8.64,1.65,5,3.53,6.35,8.73,6.35H228a21.45,21.45,0,0,0,2.27,0,7.15,7.15,0,0,0,6.09-5.25A9.34,9.34,0,0,0,236.32,306Zm-67.74-43.34c-.13.2-.26.38-.4.56a7.29,7.29,0,0,1-.94,1,7.73,7.73,0,0,1-1.11.79,6.44,6.44,0,0,1-3.27.86,7.19,7.19,0,0,1-4.5-1.59,6.35,6.35,0,0,1-1-1,6.62,6.62,0,0,1-1.06-1.8q-.14-.35-.24-.69a7.74,7.74,0,0,1-.28-2.29,7.24,7.24,0,0,1,2.1-5.23,6.75,6.75,0,0,1,2.19-1.41,7.61,7.61,0,0,1,2.63-.54,6.47,6.47,0,0,1,4,1.18,7.37,7.37,0,0,1,1.91,2,6.61,6.61,0,0,1,.65,1.27,7.61,7.61,0,0,1,.55,2.88A7.42,7.42,0,0,1,168.58,262.61Z"/><path class="cls-4" d="M222.27,447.44v-62.6c0-.57,0-1.14,0-1.71-.13-3.05-1.76-4.74-4.76-4.92-1.13-.07-2.27-.07-3.41-.1H192.76l-1.14,0c-.38,0-.76,0-1.13,0a4.57,4.57,0,0,1-.85-.16,3.92,3.92,0,0,1-.77-.28,4.14,4.14,0,0,1-1.73-1.53,4.3,4.3,0,0,1-.59-1.48,4.7,4.7,0,0,1-.11-.85c0-.76,0-1.52,0-2.28V339.34c0-.76,0-1.52,0-2.27a4.66,4.66,0,0,0-.85-2.3,4.24,4.24,0,0,0-2.61-1.62,4.71,4.71,0,0,0-.85-.1c-.57,0-1.14,0-1.71,0H106.12a6.18,6.18,0,0,1-.86,0,3.79,3.79,0,0,0-.58,0,3.85,3.85,0,0,0-2.91,2,5.1,5.1,0,0,0-.72,3q0,21.19,0,42.4h0q0,33.3,0,66.59c0,.85,0,1.71,0,2.56a4.42,4.42,0,0,0,4.43,4.29c.66,0,1.33,0,2,0H215.69c.66,0,1.33,0,2,0a4.43,4.43,0,0,0,4.57-4.44C222.3,448.78,222.27,448.11,222.27,447.44Z"/><path class="cls-4" d="M227.8,61v-.36a9.55,9.55,0,0,0,0-1.07,5.37,5.37,0,0,0-.44-1.71,4.08,4.08,0,0,0-3.1-2.37,4.53,4.53,0,0,0-.91-.09c-1.38,0-2.75,0-4.13,0H197.44q-8.83,0-17.65,0a7.42,7.42,0,0,0-2.12.26A5.74,5.74,0,0,0,175.34,57c-.18.16-.36.33-.54.52-2.72,2.91-5.61,5.66-8.42,8.48-.12.11-.24.24-.35.36a8.73,8.73,0,0,1-1.09,1,5.66,5.66,0,0,1-1.57.86,3.7,3.7,0,0,1-.55.14,3.74,3.74,0,0,1-1.16,0,4.67,4.67,0,0,1-1.23-.32,5.53,5.53,0,0,1-1.75-1.19l-.5-.49c-3-3-6.1-6-9-9.08a5.4,5.4,0,0,0-4.07-1.94,5.76,5.76,0,0,0-.7.05H100.54a5.32,5.32,0,0,0-1.34.2,3.16,3.16,0,0,0-1.47.89,4.21,4.21,0,0,0-.7,1c-.1.21-.19.43-.28.67a6.86,6.86,0,0,0-.37,1.66,15.81,15.81,0,0,0-.07,1.69c0,6.93,0,13.86,0,20.78,0,2.85,0,5.69.07,8.53,0,1,0,2.09,0,3.13v75.41a20.64,20.64,0,0,0,.08,2.84,4.34,4.34,0,0,0,4.41,4c.48,0,1,0,1.43,0h38.7c.57,0,1.14,0,1.71,0a4.36,4.36,0,0,0,4.14-4,16.53,16.53,0,0,0,0-2c0-4,0-8,0-12a18.8,18.8,0,0,1,0-2,4.36,4.36,0,0,1,7-3.16,15.07,15.07,0,0,1,1.66,1.54c1.16,1.13,2.3,2.27,3.44,3.4a4.55,4.55,0,0,0,6,0c1.22-1.2,2.42-2.41,3.64-3.6a12.76,12.76,0,0,1,1.68-1.53,4.39,4.39,0,0,1,6.75,3,14.61,14.61,0,0,1,.06,2v12.23a16.44,16.44,0,0,0,0,2,4.38,4.38,0,0,0,4.14,4c.56,0,1.14,0,1.71,0h38.7c.57,0,1.14,0,1.7,0a4.23,4.23,0,0,0,4-3.4,11.84,11.84,0,0,0,.2-2.53c0-6.64,0-13.28,0-19.92q0-21.21,0-42.4a3.83,3.83,0,0,0,.09-.56Z"/><path class="cls-1" d="M109.83,245.08c2.33-2.63,4.58-5.33,6.82-8a113,113,0,0,1,7.52-8.55,28.94,28.94,0,0,1,5.57-4.4,13,13,0,0,1,11.48-1.25c9.43,3.5,18.12,8.18,25,15.78,3.45,3.8,6.55,7.87,9.76,11.86a111.8,111.8,0,0,0,9.27,10.42,48.36,48.36,0,0,0,21,12,16.4,16.4,0,0,0,7.3.54c5.59-.95,10.35-3.11,13-8.54.16-.33.36-.68.82-.66-.49-2.3-1-4.61-1.48-6.91-1-4.71-2.06-9.41-3.06-14.13q-2.19-10.25-4.33-20.52-1.29-6.09-2.6-12.2c-.74-3.41-1.48-6.83-2.25-10.24a8.07,8.07,0,0,0-1.07-2.58,6.08,6.08,0,0,0-1.16-1.32A7.16,7.16,0,0,0,209,195a5.46,5.46,0,0,0-1.69-.26c-.28,0-.57,0-.85,0l-.85,0H119.93c-.67,0-1.33,0-2,0a4.75,4.75,0,0,0-2.78.94c-.11.09-.24.16-.35.25a10.94,10.94,0,0,0-1.12,1,7.11,7.11,0,0,0-1.26,1.78,6.76,6.76,0,0,0-.67,2.15l-.12.84c0,.28-.1.56-.16.84-.6,2.72-1.22,5.44-1.83,8.16s-1.22,5.44-1.81,8.16c-1.9,8.77-7.17,33.25-7.17,33.56.5-.26,1.53-.91,2-1.22A34.72,34.72,0,0,0,109.83,245.08Z"/><path class="cls-1" d="M124.45,372.61a18.64,18.64,0,0,1,10.1,5.41,34.21,34.21,0,0,1,6.23,8.77,106.27,106.27,0,0,0,5.79,10.1,66.56,66.56,0,0,0,9.06,11.29,35.2,35.2,0,0,0,10.14,7.2,19.41,19.41,0,0,0,12.75,1.41,23.21,23.21,0,0,0,6.54-2.69,36.25,36.25,0,0,0,8.45-7.11,80.65,80.65,0,0,0,6.84-9.07q5.35-8,10.82-16c.9-1.32,2-2.53,3-3.8H192.79l-1.14,0c-.38,0-.76,0-1.13,0a4.57,4.57,0,0,1-.85-.16,4.21,4.21,0,0,1-2.5-1.81,4.22,4.22,0,0,1-.59-1.48,5.8,5.8,0,0,1-.11-.85c0-.76,0-1.52,0-2.28q0-16.08,0-32.16c0-.76,0-1.52,0-2.27a4.66,4.66,0,0,0-.85-2.3,4.24,4.24,0,0,0-2.61-1.62,4.71,4.71,0,0,0-.85-.1c-.57,0-1.14,0-1.71,0H106.15a6,6,0,0,1-.85,0,2.9,2.9,0,0,0-.59,0,3.82,3.82,0,0,0-2.91,2,5.25,5.25,0,0,0-.72,3q0,21.19,0,42.4a41.73,41.73,0,0,1,13.77-7.16A20.93,20.93,0,0,1,124.45,372.61Z"/><path class="cls-1" d="M227.83,61c0-.12,0-.24,0-.36,0-.35,0-.71,0-1.06a5.43,5.43,0,0,0-.43-1.72,4.12,4.12,0,0,0-3.11-2.37,4.46,4.46,0,0,0-.91-.09c-1.37,0-2.75,0-4.13,0H197.47q-8.83,0-17.65,0a7.42,7.42,0,0,0-2.12.26A5.81,5.81,0,0,0,175.37,57c-.18.16-.36.33-.54.52-2.72,2.91-5.6,5.66-8.42,8.48l-.35.36a8.65,8.65,0,0,1-1.08,1,5.34,5.34,0,0,1-2.13,1,4,4,0,0,1-1.15,0,4.63,4.63,0,0,1-1.24-.32,5.38,5.38,0,0,1-1.74-1.19l-.51-.49c-3-3-6.1-6-9-9.08a5.38,5.38,0,0,0-4.06-1.94,5.78,5.78,0,0,0-.71.05H100.57a5.32,5.32,0,0,0-1.34.2,3.21,3.21,0,0,0-1.47.89,4.5,4.5,0,0,0-.7,1c-.1.21-.19.43-.28.67a6.86,6.86,0,0,0-.37,1.66,15.81,15.81,0,0,0-.07,1.69c0,6.93,0,13.86,0,20.78,0,2.85,0,5.69.07,8.53.89.11,1.22.85,1.59,1.49,1.88,3.29,3.77,6.58,5.59,9.91,2,3.57,3.9,7.16,6.19,10.54a43.28,43.28,0,0,0,5.77,7A22.41,22.41,0,0,0,121.3,124a14.64,14.64,0,0,0,14.67-.61,23.84,23.84,0,0,0,5.95-5.24,109.08,109.08,0,0,0,7-9.36c1.6-2.36,3.18-4.73,4.86-7a45.48,45.48,0,0,1,3.43-4.17,11.13,11.13,0,0,1,6.34-3.55c2-.34,3.92-.69,5.89-1a39.44,39.44,0,0,0,13.7-4.52c2.14-1.22,4.24-2.51,6.35-3.78,1.87-1.13,3.72-2.29,5.61-3.39a21,21,0,0,1,5.48-2.31,10.89,10.89,0,0,1,8,.92,17.87,17.87,0,0,1,3.87,2.88A34.66,34.66,0,0,1,218.66,91c1.64,2.89,3.13,5.86,4.64,8.81a73.49,73.49,0,0,0,4.47,8.23,3.83,3.83,0,0,0,.09-.56Q227.86,84.23,227.83,61Z"/><path class="cls-1" d="M223.34,476.63c0-.57,0-1.14,0-1.71a5.24,5.24,0,0,0-.43-1.7,4.43,4.43,0,0,0-.41-.7,4,4,0,0,0-1.16-1.07,4.93,4.93,0,0,0-.73-.35,5.35,5.35,0,0,0-1.75-.3c-1,0-2,0-3,0H196.46c-4.05,0-13.67,0-14.27,0-4.24,0-6.73,3.58-7.8,5.18-3.23,4.79-6.41,7.83-8.79,7.83-3.23,0-3.89-4.87-4.49-8a12.69,12.69,0,0,0-.58-2.47,3.55,3.55,0,0,0-3.45-2.48H106.82a8,8,0,0,1-.85,0,2.83,2.83,0,0,0-1.38.29,4.1,4.1,0,0,0-1.12.85,5.6,5.6,0,0,0-1.47,4.18c0,3.59,0,4.7,0,14.26,0,4.35,0,10.45,0,19.32a2.13,2.13,0,0,1,1.49.84c1.26,1.28,2.49,2.61,3.85,3.78a69.89,69.89,0,0,0,50,17.37,38.28,38.28,0,0,0,18.85-5.7c5.33-3.28,10.52-6.79,15.68-10.32q3.16-2.17,6.42-4.22a17.93,17.93,0,0,1,4.91-2.2,7.14,7.14,0,0,1,7.54,2,20.45,20.45,0,0,1,2.82,3.91c.82,1.39,1.85,3.09,2.68,4.47.81-.38,1.8-.94,2.62-1.32s1.49-.81,2.27-1.24a3.4,3.4,0,0,0,1.19-1,2.86,2.86,0,0,0,.58-1,4.82,4.82,0,0,0,.34-2c0-.47,0-.95,0-1.42Z"/></g></svg>