<svg xmlns="http://www.w3.org/2000/svg" width="432.375" height="2162" viewBox="0 0 432.375 2162"><g transform="translate(-153.645 1029.472)"><path d="M20977,1836.176h153.641" transform="translate(-20823.355 -1919.648)" fill="none" stroke="#fff" stroke-width="2"/><path d="M20977,1836.176h218.66" transform="translate(-20823.355 -1885.648)" fill="none" stroke="#fff" stroke-width="2"/><path d="M20977,1836.176h288.648" transform="translate(-20823.352 -1852.648)" fill="none" stroke="#fff" stroke-width="2"/><path d="M20977,1836.176h366.373" transform="translate(-20823.354 -1818.649)" fill="none" stroke="#fff" stroke-width="2"/><path d="M20977,1836.176h432.375" transform="translate(-20823.355 -1784.648)" fill="none" stroke="#fff" stroke-width="2"/><path d="M20977,1836.176h366.373" transform="translate(-20823.354 -1750.648)" fill="none" stroke="#fff" stroke-width="2"/><path d="M20977,1836.176h288.648" transform="translate(-20823.352 -1717.648)" fill="none" stroke="#fff" stroke-width="2"/><path d="M20977,1836.176h218.66" transform="translate(-20823.355 -1683.648)" fill="none" stroke="#fff" stroke-width="2"/><path d="M20977,1836.176h153.641" transform="translate(-20823.355 -1649.648)" fill="none" stroke="#fff" stroke-width="2"/><path d="M20977,1836.176h82.707" transform="translate(-20823.355 -1582.648)" fill="none" stroke="#fff" stroke-width="2"/><path d="M20977,1836.176h82.707" transform="translate(-20823.355 -1177.648)" fill="none" stroke="#fff" stroke-width="2"/><path d="M20977,1836.176h82.707" transform="translate(-20823.355 -1345.648)" fill="none" stroke="#fff" stroke-width="2"/><path d="M20977,1836.176h82.707" transform="translate(-20823.355 -873.648)" fill="none" stroke="#fff" stroke-width="2"/><path d="M20977,1836.176h82.707" transform="translate(-20823.355 -1953.648)" fill="none" stroke="#fff" stroke-width="2"/><path d="M20977,1836.176h82.707" transform="translate(-20823.355 -2324.648)" fill="none" stroke="#fff" stroke-width="2"/><path d="M20977,1836.176h82.707" transform="translate(-20823.355 -2189.648)" fill="none" stroke="#fff" stroke-width="2"/><path d="M20977,1836.176h82.707" transform="translate(-20823.355 -2662.648)" fill="none" stroke="#fff" stroke-width="2"/><path d="M20977,1836.176h82.707" transform="translate(-20823.355 -2122.649)" fill="none" stroke="#fff" stroke-width="2"/><path d="M20977,1836.176h82.707" transform="translate(-20823.355 -2594.648)" fill="none" stroke="#fff" stroke-width="2"/><path d="M20977,1836.176h82.707" transform="translate(-20823.355 -2425.648)" fill="none" stroke="#fff" stroke-width="2"/><path d="M20977,1836.176h82.707" transform="translate(-20823.355 -2830.648)" fill="none" stroke="#fff" stroke-width="2"/><path d="M20977,1836.176h82.707" transform="translate(-20823.355 -1548.648)" fill="none" stroke="#fff" stroke-width="2"/><path d="M20977,1836.176h82.707" transform="translate(-20823.355 -1109.648)" fill="none" stroke="#fff" stroke-width="2"/><path d="M20977,1836.176h82.707" transform="translate(-20823.355 -1312.648)" fill="none" stroke="#fff" stroke-width="2"/><path d="M20977,1836.176h82.707" transform="translate(-20823.355 -839.648)" fill="none" stroke="#fff" stroke-width="2"/><path d="M20977,1836.176h82.707" transform="translate(-20823.355 -1514.649)" fill="none" stroke="#fff" stroke-width="2"/><path d="M20977,1836.176h82.707" transform="translate(-20823.355 -1008.648)" fill="none" stroke="#fff" stroke-width="2"/><path d="M20977,1836.176h82.707" transform="translate(-20823.355 -1278.649)" fill="none" stroke="#fff" stroke-width="2"/><path d="M20977,1836.176h82.707" transform="translate(-20823.355 -805.648)" fill="none" stroke="#fff" stroke-width="2"/><path d="M20977,1836.176h82.707" transform="translate(-20823.355 -1480.649)" fill="none" stroke="#fff" stroke-width="2"/><path d="M20977,1836.176h82.707" transform="translate(-20823.355 -1042.648)" fill="none" stroke="#fff" stroke-width="2"/><path d="M20977,1836.176h82.707" transform="translate(-20823.355 -1210.648)" fill="none" stroke="#fff" stroke-width="2"/><path d="M20977,1836.176h82.707" transform="translate(-20823.355 -772.648)" fill="none" stroke="#fff" stroke-width="2"/><path d="M20977,1836.176h82.707" transform="translate(-20823.355 -1447.649)" fill="none" stroke="#fff" stroke-width="2"/><path d="M20977,1836.176h82.707" transform="translate(-20823.355 -974.648)" fill="none" stroke="#fff" stroke-width="2"/><path d="M20977,1836.176h82.707" transform="translate(-20823.355 -1143.648)" fill="none" stroke="#fff" stroke-width="2"/><path d="M20977,1836.176h82.707" transform="translate(-20823.355 -738.648)" fill="none" stroke="#fff" stroke-width="2"/><path d="M20977,1836.176h82.707" transform="translate(-20823.355 -1413.648)" fill="none" stroke="#fff" stroke-width="2"/><path d="M20977,1836.176h82.707" transform="translate(-20823.355 -940.648)" fill="none" stroke="#fff" stroke-width="2"/><path d="M20977,1836.176h82.707" transform="translate(-20823.355 -1075.649)" fill="none" stroke="#fff" stroke-width="2"/><path d="M20977,1836.176h82.707" transform="translate(-20823.355 -704.648)" fill="none" stroke="#fff" stroke-width="2"/><path d="M20977,1836.176h82.707" transform="translate(-20823.355 -1615.648)" fill="none" stroke="#fff" stroke-width="2"/><path d="M20977,1836.176h82.707" transform="translate(-20823.355 -1244.648)" fill="none" stroke="#fff" stroke-width="2"/><path d="M20977,1836.176h82.707" transform="translate(-20823.355 -1379.648)" fill="none" stroke="#fff" stroke-width="2"/><path d="M20977,1836.176h82.707" transform="translate(-20823.355 -907.648)" fill="none" stroke="#fff" stroke-width="2"/><path d="M20977,1836.176h82.707" transform="translate(-20823.355 -2088.649)" fill="none" stroke="#fff" stroke-width="2"/><path d="M20977,1836.176h82.707" transform="translate(-20823.355 -2527.648)" fill="none" stroke="#fff" stroke-width="2"/><path d="M20977,1836.176h82.707" transform="translate(-20823.355 -2358.648)" fill="none" stroke="#fff" stroke-width="2"/><path d="M20977,1836.176h82.707" transform="translate(-20823.355 -2797.648)" fill="none" stroke="#fff" stroke-width="2"/><path d="M20977,1836.176h82.707" transform="translate(-20823.355 -2054.648)" fill="none" stroke="#fff" stroke-width="2"/><path d="M20977,1836.176h82.707" transform="translate(-20823.355 -2560.648)" fill="none" stroke="#fff" stroke-width="2"/><path d="M20977,1836.176h82.707" transform="translate(-20823.355 -2290.648)" fill="none" stroke="#fff" stroke-width="2"/><path d="M20977,1836.176h82.707" transform="translate(-20823.355 -2763.648)" fill="none" stroke="#fff" stroke-width="2"/><path d="M20977,1836.176h82.707" transform="translate(-20823.355 -2020.649)" fill="none" stroke="#fff" stroke-width="2"/><path d="M20977,1836.176h82.707" transform="translate(-20823.355 -2459.648)" fill="none" stroke="#fff" stroke-width="2"/><path d="M20977,1836.176h82.707" transform="translate(-20823.355 -2257.648)" fill="none" stroke="#fff" stroke-width="2"/><path d="M20977,1836.176h82.707" transform="translate(-20823.355 -2729.648)" fill="none" stroke="#fff" stroke-width="2"/><path d="M20977,1836.176h82.707" transform="translate(-20823.355 -1987.648)" fill="none" stroke="#fff" stroke-width="2"/><path d="M20977,1836.176h82.707" transform="translate(-20823.355 -2392.649)" fill="none" stroke="#fff" stroke-width="2"/><path d="M20977,1836.176h82.707" transform="translate(-20823.355 -2223.649)" fill="none" stroke="#fff" stroke-width="2"/><path d="M20977,1836.176h82.707" transform="translate(-20823.355 -2695.648)" fill="none" stroke="#fff" stroke-width="2"/><path d="M20977,1836.176h82.707" transform="translate(-20823.355 -2155.648)" fill="none" stroke="#fff" stroke-width="2"/><path d="M20977,1836.176h82.707" transform="translate(-20823.355 -2628.648)" fill="none" stroke="#fff" stroke-width="2"/><path d="M20977,1836.176h82.707" transform="translate(-20823.355 -2493.648)" fill="none" stroke="#fff" stroke-width="2"/><path d="M20977,1836.176h82.707" transform="translate(-20823.355 -2864.648)" fill="none" stroke="#fff" stroke-width="2"/></g></svg>