<svg xmlns="http://www.w3.org/2000/svg" viewBox="0 0 800 800"><path d="M540.09,671.93v-3.85l6.6-9.89,8.24-3.29,1.1,6-5.5,6.59-6.59,3.85Zm84.06-14.29v-.54h4.4l17-5L661,645l10.44-3.85-.55,1.1L647.23,652.7,628,658.19Zm-40.65,3.85-15.94,4.39,14.84-7.14v-2.19l-7.69-1.65-6.05,2.2L572,662l-11,1.1-2.2-6.59,6.6-12.09,4.94-6.59L583,639l.55-6.6,13.18-7.14,11,2.75,3.84-4.94,19.23,2.74,6.6-6,11-2.2,34.07-1.1,28-19.77,3.3.55-6.59,3.84-5.5,9.89-12.08,7.14-4.4,7.14,11.54-1.64L712.6,611.5l8.24-1.65,11,4.4,13.74-9.89,4.39,1.1-3.85,4.94-53.84,25.27L612.61,653.8ZM50,463.72,78.61,445.6l7.69-8.79L105,426.92l8.79-15.38,16.48-11-6.59-22,4.39-6.05-3.84-4.94-11.54-3.3,1.65-6.59-2.2-14.83,53.29-12.64,41.75.55,22,3.85L244,346.16l17.58-4.39h41.21l15.93-8.24,1.65,2.75,8.79-11,14.28-11,20.88-6.59,3.3-9.34-1.65-6-3.3-18.68,3.85-9.89,6-2.2-.55-9.88-6-6.6-8.24,2.75-6.05-6.59L397.25,205l8.24-15.93,37.91-36.26,31.87-17.58,20.87-5.49h63.18l59.89-1.65-.55,2.75,1.65,6.59-4.4,10.44,1.1,3.84,3.84,2.2L617,163.23l1.1,5.49-1.1,2.2v3.85l-1.1,1.64,1.1,5,3.3,4.39,3.84,13.74-.55,3.29-2.75,4.95,2.2,13.18-6.59,7.14-.55,3.85-2.2,4.39v3.85l-2.2,4.94v2.2l2.2,3.85-.55,3.29,1.1,9.34,2.2,3.3-.55,9.89,2.2,3.29V283l-1.1,5.49-4.4,9.89v6l2.75,1.65,2.2-5.49,5.49-1.1,1.1.55,1.1,3.29-1.1,2.2,2.75,1.65,2.2,6-3.85,81.86-1.65,4.39,2.75,6.59h.55l-21.43,80.21,1.65,3.84-6,89.55,6.59,9.89-22,12.63,6,10.44.55,1.65-11.54,13.18L579.1,634l-10.44,3.3L561,648.85V645l7.14-17.58,2.2-8.79v-4.39l-28-14.84L499.44,573l-.55-3.29-3.3-2.75v-2.74l-1.1-1.1H491.2l-6.59-1.65h-2.75v-1.65l-3.3-2.75h-3.29l-4.95-9.88-3.84-4.4-.55-1.1,2.19-2.74L467,529.65l.54-1.65-.54-5-3.3-1.09.55-2.2,1.1-1.65-3.3-2.75-.55-1.64-4.39-2.2H450l-2.74-9.34-3.3-1.65-2.2-3.84-3.29-.55-104.39-.55-104.93.55-178.55-.55Z" fill="#efefef"/></svg>