<svg xmlns="http://www.w3.org/2000/svg" width="290.32" height="329.429" viewBox="0 0 290.32 329.429"><g transform="translate(-485.7 -220.571)"><path d="M43.915,0h57.112C132.655-117.183,186.81-213.887,237.1-303.992l-2.958-23.437H16.383v47.783l201.827-.228C146.08-180.666,71.22-94.656,43.915-4.323Z" transform="translate(500 549)" fill="none" stroke="rgba(255,255,255,0.35)" stroke-width="2"/><path d="M5.7,0H47.8V-6.232H12.844V-50.008H5.7ZM63.84,0h7.144V-50.008H63.84ZM90.212,0h6.84V-44h.076L141.284,0h7.068V-50.008h-6.84V-9.576h-.152L100.776-50.008H90.212Zm77.14,0h46.512V-6.232H174.5V-22.344H205.5v-5.624H174.5V-43.776H213.1v-6.232H167.352ZM287.584,0h8.436l-30.4-50.008h-8.056L227.164,0h7.828l7.144-11.856h38.3Zm-42.1-17.48,15.732-26.144h.152L277.1-17.48Z" transform="translate(480 414)" fill="#fff"/></g></svg>