<svg xmlns="http://www.w3.org/2000/svg" viewBox="0 0 800 800"><path d="M239.74,196.39l13.5,3.75,10.5,8.24,1.5,2.25-3,5.25-6.75-2.25-24.75-13.49-.75-2.25Zm333,403.48v7.5l-3,6-10.5,17.25-6.75,7.49-41.25,30.75-14.25,9-43.51,15-11.25,1.5L416,704.11l-13.5,10.5L377,724.36l-22.5-4.5-27.76-7.5-14.25-6-2.25-1.5-12-13.5-4.5-8.25-6-12-10.5-32.25L275,623.12l-18-44.25-1.5-6.75-2.25-16.5,3.75-6.75v-2.25l-1.5-21.75-3.75-12,.75-16.5L245,444.62l1.5-9L239,398.88l-7.5-24.75-1.5-27,4.5-7.5,4.5-3.75-4.5,23.25,1.5,19.5,2.25,2.25,6.75,2.25,4.5-.75,2.25-3v-1.5l-2.25-4.5-.75-34.5,9.75-48,7.5-4.5,4.5-11.25.75-18-4.5-33,19.5-12.75,1.5-2.25,9.75-25.49,2.25-12-.75-7.5-3-2.25-.75-16.5,6.75-2.25,9.75-7.5-1.5-3L305,127.39l-15.75-10.5-.75-1.5h6l24.75,9.75,6,5.25,32.26,2.25,10.5,3.75,3.75,3H380l-24-14.25-6-.75-6.75.75-9-3.75L329,116.14l-18.75-10.5-2.25.75-.75,2.25,5.25,5.25-.75,2.25-1.5.75-10.5-3-28.5-15-3.75-9v-4.5l9-7.5,8.25-.75,13.5,3L302,85.39l4.5.75,5.25,3,5.25-.75,3.75,6.75,4.5,3,5.25,7.5L344,115.39l8.25,2.25-27.76-24-8.25-9-5.25.75-8.25-3.75,3.75-3,12.75-3,2.25.75,3.75,8.25,11.26,15,9,9.75,28.5,22.5,15,10.5,22.5,22.5,7.5,12.75,14.25,29.24-.75,10.5-3,4.5.75,2.25,3.75.75,5.25-3,9,6,23.25,28.5L482,272.13l3.76,16.5-.75,1.5h-3l-.75-4.5-2.25-.75-10.5,7.5-3,3.75,1.5,2.25,12.75,4.5,8.26,1.5,3.75-3.75v-3l6-4.5,5.25,5.25,5.25,19.5,5.25,28.5-4.5,2.25-.75,6,5.25,9.75,15.75,15L545,408.63l15,12.74.75,5.25L557,428.87v3.75l3,5.25,4.5,2.25,3,3.75,3,6.75-2.25,11.25,1.5,6.75,7.5,3.75,1.5-5.25h1.5L587,487.37l1.5,10.5v19.5l1.5,27.75-9,39-4.5,11.25Z" fill="#efefef"/></svg>