<svg xmlns="http://www.w3.org/2000/svg" width="1440.988" height="908.417" viewBox="0 0 1440.988 908.417"><g transform="translate(5891.772 -1909.712)"><circle cx="71.857" cy="71.857" r="71.857" transform="translate(-5278.678 2392.893)" fill="none" stroke="#efefef" stroke-miterlimit="10" stroke-width="1"/><path d="M-4934.057,2588.646c7.353,16.848,15.672,37.3,7.5,58.13-11.711,29.851-48.288,53.415-92.176,53.415-58.7,0-101.029-44.157-101.029-94.013,0-25.888,14.059-52.135,33.137-65.737,21.991-15.679,44.388-14.133,68.356-14.133C-4974.444,2526.309-4950.122,2551.837-4934.057,2588.646Z" transform="translate(-188.087 -150.202)" fill="none" stroke="#efefef" stroke-miterlimit="10" stroke-width="1"/><path d="M-4930.641,2555.94c19.693,15.8,35.862,45.035,27.847,75.243-10.824,40.79-62.006,75.989-125.344,75.989-77.716,0-130.2-56.143-130.2-116.169,0-31.706,20.194-65.776,44.777-80.219,31.306-18.392,58.03-7.664,86.349-7.664C-4979.245,2503.12-4951.115,2517.953-4930.641,2555.94Z" transform="translate(-178.683 -143.801)" fill="none" stroke="#efefef" stroke-miterlimit="10" stroke-width="1"/><path d="M-4927.227,2522.508c29.54,16.071,55.933,52.745,48.2,92.355-10.1,51.693-75.725,98.565-158.512,98.565-96.732,0-159.371-68.131-159.371-138.327,0-37.524,26.418-79.279,56.418-94.7,40.729-20.936,71.673-1.194,104.343-1.194C-4984.045,2479.207-4957.936,2485.371-4927.227,2522.508Z" transform="translate(-169.279 -136.674)" fill="none" stroke="#efefef" stroke-miterlimit="10" stroke-width="1"/><path d="M-4923.811,2488.85c36.147,22.624,75.938,60.455,68.544,109.468-9.443,62.6-89.443,121.14-191.68,121.14-115.747,0-188.542-80.117-188.542-160.482,0-43.344,32.671-92.708,68.06-109.182,50.2-23.369,85.314,5.274,122.336,5.274C-4988.846,2455.067-4970.187,2459.822-4923.811,2488.85Z" transform="translate(-159.874 -129.321)" fill="none" stroke="#efefef" stroke-miterlimit="10" stroke-width="1"/><path d="M-4920.4,2455.1c46.432,23.328,95.909,68.17,88.893,126.582-8.829,73.508-103.16,143.714-224.848,143.714-134.763,0-217.713-92.1-217.713-182.638,0-49.162,38.936-106.092,79.7-123.664,59.687-25.728,98.957,11.745,140.33,11.745C-4993.646,2430.833-4976.023,2427.147-4920.4,2455.1Z" transform="translate(-150.47 -121.873)" fill="none" stroke="#efefef" stroke-miterlimit="10" stroke-width="1"/><path d="M-4916.979,2421.292c56.7,23.686,115.857,75.888,109.241,143.694-8.239,84.428-116.879,166.289-258.016,166.289-153.777,0-246.884-104.089-246.884-204.794,0-54.981,45.2-119.448,91.342-138.146,69.188-28.037,112.6,18.213,158.324,18.213C-4998.447,2406.548-4982.022,2394.121-4916.979,2421.292Z" transform="translate(-141.066 -114.376)" fill="none" stroke="#efefef" stroke-miterlimit="10" stroke-width="1"/><path d="M-4913.564,2387.46c66.917,23.828,135.792,83.61,129.589,160.807-7.663,95.351-130.6,188.863-291.185,188.863-172.793,0-276.055-116.074-276.055-226.95,0-60.8,51.471-132.787,102.984-152.627,78.694-30.31,126.24,24.683,176.316,24.683C-5003.248,2382.235-4988.177,2360.891-4913.564,2387.46Z" transform="translate(-131.661 -106.849)" fill="none" stroke="#efefef" stroke-miterlimit="10" stroke-width="1"/><path d="M-4910.149,2353.609c77.08,23.836,155.718,91.335,149.938,177.919-7.1,106.281-144.315,211.438-324.353,211.438-191.808,0-305.226-128.06-305.226-249.106,0-66.617,57.738-146.112,114.624-167.108,88.2-32.556,139.882,31.151,194.311,31.151C-5008.049,2357.9-4994.461,2327.537-4910.149,2353.609Z" transform="translate(-122.257 -99.303)" fill="none" stroke="#efefef" stroke-miterlimit="10" stroke-width="1"/><path d="M-4906.734,2319.745c87.194,23.757,175.637,99.062,170.286,195.032-6.536,117.212-158.033,234.014-357.521,234.014-210.824,0-334.4-140.047-334.4-271.264,0-72.436,64-159.429,126.266-181.591,97.715-34.782,153.524,37.622,212.3,37.622C-5012.85,2333.558-5000.846,2294.1-4906.734,2319.745Z" transform="translate(-112.852 -91.745)" fill="none" stroke="#efefef" stroke-miterlimit="10" stroke-width="1"/><path d="M-4903.319,2285.873c97.27,23.622,195.551,106.791,190.635,212.145-5.98,128.146-171.75,256.588-390.688,256.588-229.838,0-363.568-152.034-363.568-293.42,0-78.254,70.27-172.738,137.906-196.072,107.229-36.993,167.166,44.091,230.3,44.091C-5017.65,2309.2-5007.309,2260.617-4903.319,2285.873Z" transform="translate(-103.448 -84.178)" fill="none" stroke="#efefef" stroke-miterlimit="10" stroke-width="1"/><path d="M-4899.9,2251.993c107.31,23.449,215.461,114.522,210.982,229.258-5.428,139.084-185.469,279.163-423.856,279.163-248.854,0-392.739-164.02-392.739-315.576,0-84.072,76.534-186.042,149.548-210.553,116.74-39.192,180.808,50.559,248.291,50.559C-5022.451,2284.844-5013.835,2227.1-4899.9,2251.993Z" transform="translate(-94.044 -76.604)" fill="none" stroke="#efefef" stroke-miterlimit="10" stroke-width="1"/><path d="M-4896.488,2218.108c117.323,23.25,235.368,122.255,231.331,246.371-4.88,150.023-199.188,301.737-457.025,301.737-267.869,0-421.911-176.005-421.911-337.732,0-89.891,82.8-199.342,161.189-225.036,126.254-41.381,194.45,57.029,266.285,57.029C-5027.251,2260.478-5020.409,2193.552-4896.488,2218.108Z" transform="translate(-84.639 -69.025)" fill="none" stroke="#efefef" stroke-miterlimit="10" stroke-width="1"/><path d="M-4893.073,2184.22c127.314,23.032,255.273,129.988,251.68,263.484-4.333,160.963-212.905,324.312-490.193,324.312-286.884,0-451.082-187.991-451.082-359.887,0-95.71,89.06-212.639,172.83-239.518,135.767-43.563,208.092,63.5,284.279,63.5C-5032.052,2236.108-5027.022,2159.988-4893.073,2184.22Z" transform="translate(-75.235 -61.442)" fill="none" stroke="#efefef" stroke-miterlimit="10" stroke-width="1"/><path d="M-4889.658,2150.328c137.288,22.8,275.176,137.722,272.027,280.6-3.788,171.9-226.623,346.887-523.36,346.887-305.9,0-480.254-199.978-480.254-382.044,0-101.528,95.322-225.932,184.472-254,145.279-45.739,221.733,69.967,302.271,69.967C-5036.853,2211.736-5033.668,2126.411-4889.658,2150.328Z" transform="translate(-65.83 -53.856)" fill="none" stroke="#efefef" stroke-miterlimit="10" stroke-width="1"/><path d="M-4886.242,2116.434c147.245,22.559,295.078,145.457,292.376,297.71-3.244,182.847-240.341,369.461-556.528,369.461-324.915,0-509.424-211.964-509.424-404.2,0-107.346,101.583-239.224,196.112-268.481,154.793-47.908,235.376,76.437,320.266,76.437C-5041.653,2187.36-5040.34,2092.824-4886.242,2116.434Z" transform="translate(-56.426 -46.267)" fill="none" stroke="#efefef" stroke-miterlimit="10" stroke-width="1"/><path d="M-4882.827,2082.538c157.189,22.311,314.978,153.192,312.725,314.823-2.7,193.791-254.059,392.036-589.7,392.036-343.931,0-538.6-223.95-538.6-426.357,0-113.165,107.843-252.514,207.754-282.963,164.3-50.074,249.017,82.906,338.259,82.906C-5046.454,2162.983-5047.033,2059.23-4882.827,2082.538Z" transform="translate(-47.022 -38.677)" fill="none" stroke="#efefef" stroke-miterlimit="10" stroke-width="1"/><path d="M-4879.411,2048.64c167.123,22.058,334.615,160.925,333.072,331.935-2.473,204.731-267.777,414.611-622.864,414.611-362.945,0-567.767-235.936-567.767-448.512,0-118.983,114.1-265.8,219.395-297.444,173.817-52.236,262.66,89.375,356.252,89.375C-5051.255,2138.6-5053.744,2025.63-4879.411,2048.64Z" transform="translate(-37.618 -31.084)" fill="none" stroke="#efefef" stroke-miterlimit="10" stroke-width="1"/><path d="M-4876,2014.74c177.047,21.8,354.578,168.663,353.421,349.048-1.854,215.678-281.5,437.186-656.033,437.186-381.961,0-596.938-247.922-596.938-470.669,0-124.8,120.363-279.089,231.036-311.926,183.33-54.394,276.3,95.845,374.246,95.845C-5056.056,2114.223-5060.47,1992.024-4876,2014.74Z" transform="translate(-28.213 -23.49)" fill="none" stroke="#efefef" stroke-miterlimit="10" stroke-width="1"/><path d="M-4872.581,1980.868c186.964,21.54,374.541,176.4,373.769,366.162-1.236,226.625-295.213,459.76-689.2,459.76-400.976,0-626.109-259.908-626.109-492.825,0-130.62,126.67-292.207,242.677-326.408,192.923-56.273,289.943,102.313,392.239,102.313C-5060.856,2089.87-5067.21,1958.445-4872.581,1980.868Z" transform="translate(-18.809 -15.924)" fill="none" stroke="#efefef" stroke-miterlimit="10" stroke-width="1"/><path d="M-4869.165,1946.951c196.874,21.277,394.5,184.138,394.117,383.274-.618,237.571-308.932,482.336-722.369,482.336-419.992,0-655.28-271.895-655.28-514.982,0-136.438,132.9-305.576,254.318-340.889,202.4-58.564,303.585,108.783,410.234,108.783C-5065.657,2065.473-5073.961,1924.819-4869.165,1946.951Z" transform="translate(-9.404 -8.313)" fill="none" stroke="#efefef" stroke-miterlimit="10" stroke-width="1"/><path d="M-5206.821,2817.629c-439.006,0-684.451-283.881-684.451-537.138,0-142.257,139.138-318.943,265.959-355.371,211.866-60.855,317.227,115.252,428.227,115.252,126.629,0,116.365-149.884,331.336-128.04,206.778,21.012,414.466,191.876,414.466,400.387C-4451.284,2561.237-4773.935,2817.629-5206.821,2817.629Z" transform="translate(0 0)" fill="none" stroke="#efefef" stroke-miterlimit="10" stroke-width="1"/></g></svg>