<svg xmlns="http://www.w3.org/2000/svg" viewBox="0 0 371.85 160"><g style="isolation:isolate"><g style="isolation:isolate"><path d="M34.14,67.72q.44-3.12.89-5.81H28.18l1-4h6.85c5.67-19.37,19.67-27.42,28.61-27.42,6.86,0,7.31,5.06,6,13.86a87.32,87.32,0,0,0-15.5-1.94c-8,0-11.77,3.43-11.77,8.2,0,3.72,3.72,6,7.89,7.3H69l-.9,4H54.25C51.87,87.84,49,116.75,42.78,142.08c-2.83,11-14.75,15.2-32.64,16.1L10,155.05c6.11-1.05,8.94-4.62,10.72-10.58C25.94,127.93,30.86,95.29,34.14,67.72Z" fill="#fff"/><path d="M88.08,113.92c0,2.08.74,3.43,2.08,3.43,1.94,0,4.62-2.69,8.5-8l1.64,2.23C92.85,123,84.8,133.14,76.16,133.14c-5.81,0-9.69-3.72-9.69-11.62,0-11.18,11.18-36.66,11.18-46.35,0-1.93-.9-3-2.24-3-1.94,0-4.62,2.54-8.49,8l-1.64-2.53c7.3-11.33,15.35-21.31,24-21.31,5.66,0,9.39,4,9.39,12.37C98.66,81,87.93,106.32,88.08,113.92ZM83,38.07c0-8.35,5.37-12.22,13.86-12.22,5.81,0,9.69,3,9.69,9.24,0,8.64-5.37,12.81-14,12.81C86.89,47.9,83,44.62,83,38.07Z" fill="#fff"/><path d="M129.06,89.78a54.47,54.47,0,0,0-.9,9.83c0,13.26,6.26,18.33,13.56,18.33,6.71,0,14.46-5.07,21-15.94l2.24,1.34c-6.71,15.64-18.93,29.8-34.42,29.8-12.37,0-23.85-9.83-23.85-26.52,0-25.34,17.44-50.22,47.54-50.22,10.43,0,16.39,5.81,16.39,12.37C170.63,79.05,156.18,86.2,129.06,89.78Zm.29-1.49c16.1-5.07,24.89-13.12,24.89-19.38,0-4.47-3-8.64-7-8.64C139.79,60.27,132.19,73.68,129.35,88.29Z" fill="#fff"/><path d="M170,131.65c6-15.35,15.65-46.94,15.65-56.48,0-1.93-.75-3-2.09-3-1.93,0-4.62,2.54-8.49,8l-1.64-2.38c7.3-11.48,15.2-21.31,23.84-21.31,4.62,0,7.15,4,7.15,11.47,0,9.24-5.36,31.59-9.09,45.45l1.2.45c13.56-40.53,20.71-57.52,29.06-57.52,6.55,0,8.34,9.24,7.6,21.75-18,.45-25.93,5.37-41.28,53.5Z" fill="#fff"/><path d="M289.39,85.31c-7.3-16.4-12.67-25-17.88-25-8.79,0-18,21.76-18,39.79,0,11.32,5.36,17.88,13,17.88,7.45,0,14-4.32,20.27-15.94l2.09,1.34c-6.86,15.64-18,29.8-33.09,29.8-12.07,0-23.69-9.83-23.69-26.52,0-24.74,17.58-50.22,45.9-50.22,12.51,0,17.43,6.7,17.43,14.15,0,5.52-2.38,10.14-5.06,14.76Z" fill="#fff"/><path d="M320.09,89.78a54.47,54.47,0,0,0-.9,9.83c0,13.26,6.26,18.33,13.56,18.33,6.71,0,14.46-5.07,21-15.94l2.24,1.34c-6.71,15.64-18.93,29.8-34.42,29.8-12.37,0-23.85-9.83-23.85-26.52,0-25.34,17.44-50.22,47.54-50.22,10.43,0,16.39,5.81,16.39,12.37C361.66,79.05,347.21,86.2,320.09,89.78Zm.29-1.49c16.1-5.07,24.89-13.12,24.89-19.38,0-4.47-3-8.64-7-8.64C330.81,60.27,323.21,73.68,320.38,88.29Z" fill="#fff"/></g></g></svg>