<svg xmlns="http://www.w3.org/2000/svg" viewBox="0 0 322.35 160"><g style="isolation:isolate"><g style="isolation:isolate"><path d="M82,27.6V41.37H7.67V27.6Zm-45.76.15H53l-2.52,5L52,128.45H37.73l1.48-94.63Z" fill="#fff"/><path d="M95.12,16a7.35,7.35,0,0,1,2.74,6.15q0,5.47-3.33,7.92a12.13,12.13,0,0,1-7.33,2.45q-4.89,0-7.56-2.08A7.4,7.4,0,0,1,77,24.19q0-5.48,3.18-7.92a11.7,11.7,0,0,1,7.33-2.44Q92.38,13.83,95.12,16Zm.67,112.48H81.27V67L80.09,46.56H94V64.92Z" fill="#fff"/><path d="M118.89,99.13q-1,2.07-2.3,4.44a29.41,29.41,0,0,0-2,4.67,13,13,0,0,0-.74,3.77,3.11,3.11,0,0,0,1,2.3,3.91,3.91,0,0,0,2.88,1c2,0,4.49-.07,7.56-.22s6.31-.32,9.77-.52,6.79-.37,10-.52,5.85-.22,7.92-.22q9.63,0,14.66,4.37t5,13.25q0,9.78-5,15.26t-14.37,7.77a96.42,96.42,0,0,1-22.58,2.3q-19.41,0-28.29-3.18t-8.89-11a14.23,14.23,0,0,1,2.89-8.44,41.44,41.44,0,0,1,7-7.48q4.14-3.48,7.7-6.14l1.63,2.51a52.61,52.61,0,0,0-5.11,7,11.82,11.82,0,0,0-1.85,6.08q0,4.14,5.7,5.92t19.92,1.78q11.4,0,17.84-1.63t9.26-4.3a8.64,8.64,0,0,0,2.81-6.51,4.24,4.24,0,0,0-2.15-3.93,12.63,12.63,0,0,0-6.29-1.26q-2.07,0-6.59.08t-10.37.07q-5.85,0-12.07.08t-12,.07c-3.56,0-6.17-.84-7.85-2.52a7.78,7.78,0,0,1-2.52-5.63,15.62,15.62,0,0,1,2.07-7.18,49.62,49.62,0,0,1,5.11-7.7c2-2.52,4-4.86,6-7ZM160.8,88.39a29.75,29.75,0,0,1-12.59,10.44,39.65,39.65,0,0,1-16.29,3.41,44,44,0,0,1-17.25-3,24.72,24.72,0,0,1-11.11-8.73,24.08,24.08,0,0,1-3.93-14,31,31,0,0,1,2.89-13.85,29.15,29.15,0,0,1,7.56-9.7,31.75,31.75,0,0,1,10.73-5.77,41.07,41.07,0,0,1,12.44-1.93,45.7,45.7,0,0,1,17.4,3,24.59,24.59,0,0,1,11.11,8.59,23.5,23.5,0,0,1,3.93,13.78Q165.69,81.35,160.8,88.39ZM116.59,62.85q-5,4.29-5,12.44a14.58,14.58,0,0,0,5.11,11.55q5.12,4.44,16.51,4.44,10.51,0,15.55-4.37t5-12.66a14.22,14.22,0,0,0-5-11.4q-5-4.31-16.73-4.3Q121.56,58.55,116.59,62.85Zm41.77-21.11q5.1-6.29,10.44-12.07l8.59,10.66q-4.89,3-11.41,7.78a110.62,110.62,0,0,0-12.44,10.74l-3.11-6.52Q153.25,48,158.36,41.74Z" fill="#fff"/><path d="M185.53,128.45H171l.89-61.16-2.08-52.13h14.22v50.2Zm16.81-67.9a64.45,64.45,0,0,0-8,2.07,73.67,73.67,0,0,0-7,2.74,50.42,50.42,0,0,0-6.07,3.26l-1.93-3.85a88.25,88.25,0,0,1,7.18-6.66,73.12,73.12,0,0,1,9-6.37,51.74,51.74,0,0,1,10.37-4.81,35.66,35.66,0,0,1,11.55-1.86,31.84,31.84,0,0,1,9.48,1.34,16.77,16.77,0,0,1,7.4,4.66,23.86,23.86,0,0,1,5,9,51.65,51.65,0,0,1,2,14.73l.88,53.61H227.44l.74-49.76q.15-8.14-1.92-12.22a10.41,10.41,0,0,0-6-5.4,29.34,29.34,0,0,0-9.4-1.33A45,45,0,0,0,202.34,60.55Z" fill="#fff"/><path d="M289.94,46.56V59.88H238.7v-7.4L251.14,48l12.73-16.29h.6l-1,24.28v45q0,6.38,1.63,9.7a8.53,8.53,0,0,0,4.89,4.52,24,24,0,0,0,8.14,1.19,39.78,39.78,0,0,0,6.74-.52l5.7-1v13.18c-1.78.39-3.6.76-5.48,1.11a43,43,0,0,1-7.4.52,37.11,37.11,0,0,1-14.74-2.6,17.33,17.33,0,0,1-9-8.73q-3-6.15-2.81-17l.74-48.13,5-6.81Z" fill="#fff"/><path d="M293.94,127.64q-2.67-2.3-2.67-6.74a12.72,12.72,0,0,1,1.48-6.52,9.3,9.3,0,0,1,3.85-3.7,11.76,11.76,0,0,1,5.33-1.18,11.13,11.13,0,0,1,7.41,2.37,8.42,8.42,0,0,1,2.81,6.81,11.48,11.48,0,0,1-1.63,6.37,10.19,10.19,0,0,1-4,3.7,10.84,10.84,0,0,1-4.89,1.18Q296.6,129.93,293.94,127.64Zm3-32.36L294.68,27.6h14.21l-2.22,67.68Z" fill="#fff"/></g></g></svg>