<svg xmlns="http://www.w3.org/2000/svg" viewBox="0 0 500.56 160"><g style="isolation:isolate"><g style="isolation:isolate"><path d="M28.34,126.4c37.37-1,39.16-2.44,41.92-16.58l5.37-28.11h1C75,98,72.38,115,72.21,128H3v-1.14l10.4-1.3c8.28-1.13,8.45-1.46,8.45-45.5,0-46-.17-46.31-9.1-47.29l-10.4-1.3v-1H47v1l-13.49,1.3c-6,.49-6.83,2.12-6.83,45.67C26.71,117,27.2,122.66,28.34,126.4Z" fill="#fff"/><path d="M91.88,60.58H83.43V59.44c10.88-2.92,14.62-4.38,19.17-7l1,.48c-.17,24.06-.17,32.67-.17,41.28,0,23.4,2,31.36,19.83,31.36,14.79,0,30.71-7.8,30.71-26.65,0-36.72-.65-37.53-6.82-37.86l-14.63-.65v-1c15.6-2.11,20.48-3.25,25.19-7.15l1.14.33c0,21.61.16,27.95.16,34.61,0,36.24,1,35.92,8.45,37.87l7,2v1H154V108.2l-.48-.17c-3.25,11.38-15.28,21.62-33,21.62-17.07,0-22.43-7.15-22.43-21.13,0-7.31.33-15.76.33-18.85C98.38,62.21,97.89,60.75,91.88,60.58Z" fill="#fff"/><path d="M213.59,128H178.33v-1.14l3.09-.81c5-1.79,10.56-7,34.94-35.42-20.48-23.24-28.93-33.81-33.81-35.59l-2.6-1v-1h35.11v1l-9.59,1c-6.5.48-8.45,1.62-7.48,4.38.65,2.6,11.87,16.42,22.59,28.77C237,69.36,242,62.69,242,59.61s-1.62-3.9-8-4.55l-8.29-1v-1h33.48v1l-2.6,1c-5.2,1.95-10.89,6.66-35.1,34.29,19.17,22.75,30.87,34.61,36.56,36.72l2.76.81V128H225.62v-1.14l10.24-.81c5.85-.65,7.8-1.46,7-4.22-.81-2.28-12.18-15.28-24.86-29.42l-.49-.65c-16.57,19-21.29,26.49-21.29,29.74,0,2.93,1.31,3.9,7.81,4.55l9.58.81Z" fill="#fff"/><path d="M269.66,60.58h-8.45V59.44c10.89-2.92,14.62-4.38,19.17-7l1,.48c-.16,24.06-.16,32.67-.16,41.28,0,23.4,1.95,31.36,19.82,31.36,14.79,0,30.72-7.8,30.72-26.65,0-36.72-.65-37.53-6.83-37.86l-14.62-.65v-1c15.6-2.11,20.47-3.25,25.18-7.15l1.14.33c0,21.61.16,27.95.16,34.61,0,36.24,1,35.92,8.45,37.87l7,2v1H331.74V108.2l-.49-.17c-3.25,11.38-15.28,21.62-33,21.62-17.06,0-22.43-7.15-22.43-21.13,0-7.31.33-15.76.33-18.85C276.16,62.21,275.67,60.75,269.66,60.58Z" fill="#fff"/><path d="M365.86,60.58h-8.45V59.44c8.94-2.27,14.3-4.38,19.18-7l1,.32c-.16,6.83-.49,15.6-.65,23.89l.49.16c2.92-13.32,15.11-25.35,28.76-25.35.17,2.11.33,4.88.33,7h-2.93c-12,0-26.16,7.8-26.16,25.68,0,38.83.65,40.62,4.39,40.95l16.9,1.78V128H357.41v-1.14l9.1-1.13c5.69-.81,5.85-2,5.85-32.5C372.36,61.4,371.87,60.75,365.86,60.58Z" fill="#fff"/><path d="M409.41,156c.33-2.27.49-4.38.65-6.66a58.23,58.23,0,0,0,8.78.65c12.84,0,24.21-5.2,31.69-20.48-4.07-9.91-10.57-24.21-16.74-36.88C417.37,58.79,417.54,56.84,412,55.06l-2.76-1v-1h36.89v1l-12.19,1c-6,.48-8.29,1.3-8.29,4.06,0,3.74,5.85,16.41,12.52,30.23,5.68,11.53,11.7,24.21,16.08,32.17,17.55-39.16,23.89-55.41,23.89-60.45,0-3.9-3.09-5-8.29-5.69l-13-1.3v-1h36.41v1l-3.09,1c-6,1.95-9.59,18.2-38.35,75.4-9.92,19.5-21.94,26.16-32.34,26.16A61.17,61.17,0,0,1,409.41,156Z" fill="#fff"/></g></g></svg>