<svg xmlns="http://www.w3.org/2000/svg" viewBox="0 0 352.29 160"><g style="isolation:isolate"><g style="isolation:isolate"><path d="M98.75,77.55H90.27c-15,0-33.6,0-48.93.49l-.16.81c-10.77,43.54-11.25,45.83-5.87,46.64l13.21,2v1.14H4.65l.16-1.14L20,125.33c4.4-.49,5.7-3.59,16.14-44.85,10.77-43.54,11.42-45.83,6-46.64l-13-2.12.16-1H72.65l-.16,1L57.16,34c-4.08.49-5.54,3.26-15.17,41.43,15.17.49,33.6.49,48.44.49h8.81c9.62-39.15,10.11-41.27,4.89-42.08l-13-2.12.17-1h43.38l-.17,1L119.13,34c-4.24.49-5.7,3.43-16,44.85-10.76,43.54-11.25,45.83-5.87,46.64l13.21,2v1.14H66.62l.16-1.14L82,125.33c4.4-.49,5.71-3.59,16.15-44.85Z" fill="#fff"/><path d="M165.61,115.22c0-9.46,9.29-37,14.84-52.84l-1-.33c-24.3,48.77-34.57,68.17-43.87,68.17-5.87,0-11.25-5.38-11.25-15.65,0-32.13,23.32-63.61,60.5-61.65C182.08,61.24,171,100.7,171,113.75c0,5.38,1.79,9.3,5.87,9.3,3.92,0,7-4.24,15.33-21.2l.65.48c-8.48,21.86-12.88,27.89-18.59,27.89C169,130.22,165.61,123.37,165.61,115.22Zm16.31-60.83c-35.88,8-56.27,39.63-56.27,60,0,6,2.94,8.65,8.32,8.65C143.1,123.05,156,105.76,181.92,54.39Z" fill="#fff"/><path d="M258.08,130.22c-7.34,0-11.09-17.94-10.77-39.63-1.47,3.75-3.42,7.67-5.54,12.07-7,14.19-20.06,27.56-25.77,27.56-6.52,0-12.72-9.29-12.72-19.08,0-14.84,20.87-32.78,20.87-44.68,0-3.92-3.91-7.83-10.27-7.83-5.71,0-11.42,3.42-14.84,22.67l-.65-.33c1.46-22.18,7.5-29.19,15-29.19,6,0,12.23,7,12.23,14,0,13.7-18.26,32.29-18.26,45.18,0,6.69,3.42,11.9,8.64,11.9,9.95-.49,23-15.65,31.48-34.41a169,169,0,0,1,4.89-36.2c2.28.32,4.73.65,7,1-1.63,8-3.42,17.45-11.09,35.22.16,19.57,5.55,34.41,10.93,34.41,6.36,0,12.07-6.52,17.12-17.94,5.71-12.39,10.44-30.49,12.07-52.51,2.45.16,4.73.65,7.18,1C287.43,91.25,268.19,130.22,258.08,130.22Z" fill="#fff"/><path d="M324.45,37.92l.81.16c-.81,3.42-2.44,9-4.4,15.33H344l-1.79,5.71c-7.34-.49-15.17-.66-22.84-.82-5.7,18.76-12.88,43.38-12.88,54.64,0,6.19,3.1,10.11,7.66,10.11,4.73,0,9.3-4.73,18.11-22.84l.65.33c-9,23.32-14.84,29.68-21.36,29.68-5.55,0-10.44-6.52-10.44-15.82,0-13,9.29-38,15.82-56.1-3.26,0-6.53,0-9.62.16V57.32C318.58,55.2,319.39,53.25,324.45,37.92Z" fill="#fff"/></g></g></svg>