<svg xmlns="http://www.w3.org/2000/svg" viewBox="0 0 330.72 160"><g style="isolation:isolate"><g style="isolation:isolate"><path d="M71.52,57.55A62.73,62.73,0,0,0,63,55.41a60,60,0,0,0-10.86-.87q-10.3,0-17.68,4.44A29.12,29.12,0,0,0,23.32,70.87a35.68,35.68,0,0,0-3.81,16.49,34.68,34.68,0,0,0,3.89,16.41A29.19,29.19,0,0,0,34.66,115.5q7.37,4.36,18,4.36a81.51,81.51,0,0,0,10.63-.63,51,51,0,0,0,8.72-1.9v7q-4,1-8.41,1.59a79.68,79.68,0,0,1-10.94.63,42.76,42.76,0,0,1-20.77-4.91,36,36,0,0,1-14.19-13.8,39.93,39.93,0,0,1-5.15-20.45,43.06,43.06,0,0,1,2.85-15.94A36.16,36.16,0,0,1,36.16,50.73a43.64,43.64,0,0,1,16-2.85,64.9,64.9,0,0,1,11.34.87,53.25,53.25,0,0,1,8,2Z" fill="#fff"/><path d="M96.73,125.25H89.6V11.09h7.13V125.25Z" fill="#fff"/><path d="M168.72,123.19a56.84,56.84,0,0,1-9.43,2.46,71,71,0,0,1-12,.87q-12.36,0-21-5.07a33.33,33.33,0,0,1-13.16-14.11,45.55,45.55,0,0,1-4.52-20.62,48.65,48.65,0,0,1,2.54-16.33,32.4,32.4,0,0,1,18.32-19.58,35.08,35.08,0,0,1,13.71-2.62q9.83,0,16.41,3.73a23.21,23.21,0,0,1,9.83,10.7q3.25,7,3.25,17v2.22a20.4,20.4,0,0,1-.15,2.38H112.91V78.32l56.29-.16-2.54,1.11a30.52,30.52,0,0,0-3-13.56,18.66,18.66,0,0,0-8.09-8.16,28.18,28.18,0,0,0-13-2.7,27,27,0,0,0-13.88,3.57A24.43,24.43,0,0,0,119.09,69q-3.5,7.06-3.49,17.53a39.63,39.63,0,0,0,3.65,17.52,26.72,26.72,0,0,0,10.62,11.65q7,4.13,17.44,4.12a73.43,73.43,0,0,0,11.18-.79,45.7,45.7,0,0,0,10.23-2.85Z" fill="#fff"/><path d="M237.69,112.41l-5.23,4.12a61.72,61.72,0,0,1-6.9,4.68,40.79,40.79,0,0,1-8.72,3.81,34.82,34.82,0,0,1-10.38,1.5,29.68,29.68,0,0,1-13.32-2.69,18.8,18.8,0,0,1-8.09-7.3,21.21,21.21,0,0,1-2.7-10.94,18.42,18.42,0,0,1,3.1-10.78A20.13,20.13,0,0,1,193.69,88a27.61,27.61,0,0,1,11.66-2.38h32l.16,5.87-31.72.16q-8.56,0-12.52,4a13.24,13.24,0,0,0-4,9.6,15.07,15.07,0,0,0,1.75,7.13,12.86,12.86,0,0,0,5.63,5.39q3.87,2.07,10.22,2.06a33.34,33.34,0,0,0,11.58-2,59.89,59.89,0,0,0,9.83-4.6q4.44-2.61,7.45-4.52Zm-5.86-47.17a16.68,16.68,0,0,0-6.9-7.77q-4.85-2.94-13.08-2.93a65.79,65.79,0,0,0-7.93.47,59.9,59.9,0,0,0-15.7,4.12v-7A43,43,0,0,1,194.8,50c2.38-.58,4.94-1.09,7.69-1.51a60,60,0,0,1,9-.63q11.26,0,17.68,3.8a20.36,20.36,0,0,1,9,10.47,41.62,41.62,0,0,1,2.54,14.9v48.2h-6.5l-.32-17V75.62A26.27,26.27,0,0,0,231.83,65.24Z" fill="#fff"/><path d="M266.87,125.25h-7.14V48.83h6.82l.32,13.63Zm-3.49-63.42q2.7-2.22,6.34-4.68a67.57,67.57,0,0,1,8-4.6,48.14,48.14,0,0,1,9.44-3.41,43.88,43.88,0,0,1,10.62-1.26,38.62,38.62,0,0,1,11.26,1.5,18.16,18.16,0,0,1,8,4.76,20.87,20.87,0,0,1,4.68,8.24,40.37,40.37,0,0,1,1.59,12.13v50.74h-7.14V74.83q0-7.92-2.3-12.29a13.12,13.12,0,0,0-6.58-6.18,25.89,25.89,0,0,0-10.15-1.82,43.24,43.24,0,0,0-9.51,1,55,55,0,0,0-8.72,2.69,63.29,63.29,0,0,0-7.61,3.65q-3.49,2-6.5,3.88Z" fill="#fff"/></g></g></svg>