<svg xmlns="http://www.w3.org/2000/svg" viewBox="0 0 674.42 160"><g style="isolation:isolate"><g style="isolation:isolate"><path d="M96,128.87H19.35v-1.45L29.86,126c7.44-1.13,7.6-1.94,7.6-44.46,0-45.76-.16-45.93-8.73-47.06l-9.87-1.13L19,31.85H93.73c.65,11,2.1,24.58,3.72,37.68h-1.3L91.63,50.61c-3.88-14.55-5.82-15.68-45.28-17-1.13,3.72-1.62,9.87-1.62,45.28,26.85-.16,28.14-1.29,29.43-10.19L75.78,56h1.13c-.16,11.48,1.46,36.54,2.75,47.86H78.53L75.78,91.36c-2.43-9.86-4.37-10.83-31.05-11,0,36.39.49,42.85,1.46,46.57,40.59-1.13,43.82-2.26,47.22-16.65l4-19.41h1.29C97.45,104,96.32,117.72,96,128.87Z" fill="#fff"/><path d="M182,128.87H135v-1.45l9.22-1.3c10.67-1.77,10.67-2.26,10.67-44.95,0-27.81,0-41.07-1.29-47.7C127,34.6,125.42,36.38,121.7,50.61l-6.79,27h-1.45c2.58-15.85,5.17-32.34,6.46-45.77h78.43c1,13.43,3.23,29.92,5.33,45.77l-1.29.16-6.31-27c-3.39-14.23-3.72-16-32.34-17.3-1.13,6.63-1.61,19.73-1.61,45.92,0,44.63.16,44.79,11.32,46.73l8.73,1.3Z" fill="#fff"/><path d="M296.82,78.75c-9.87-.33-19.57-.33-29.59-.33s-20.05,0-29.92.33v.32c0,45,0,45.76,8.9,47.05l9.86,1.3v1.45H211.44v-1.45l10-1.3c8.73-1.29,8.57-2.26,8.57-44.46,0-45.28.16-46.25-8.09-47.22L211.6,33.31V31.85h44.31v1.46L244.43,34.6c-6.15.65-7.12,2.11-7.12,41.72,9.87.33,19.89.33,29.92.33s19.72,0,29.59-.33c0-39.94,0-40.91-8.09-41.88l-10.35-1.13V31.85h44.31v1.46L311.21,34.6c-6.31.65-7.12,2.11-7.12,44.47,0,45,0,45.76,8.9,47.05l9.86,1.3v1.45H278.22v-1.45l10-1.3c8.73-1.29,8.57-2.26,8.57-44.46Z" fill="#fff"/><path d="M341.12,34.44l-10.35-1.13V31.85h44.31v1.46L363.6,34.6c-6.31.65-7.12,2.11-7.12,44.47,0,45,0,45.76,8.9,47.05l9.86,1.3v1.45H330.61v-1.45l10-1.3c8.73-1.29,8.57-2.26,8.57-44.46C349.21,36.38,349.37,35.41,341.12,34.44Z" fill="#fff"/><path d="M465.3,106.72l2.59-18.43h1.29c.65,9,1.46,17.3,1.95,25.87-9.22,9.22-21,16.33-39.46,16.33-28.3,0-45.92-21.67-45.92-52.07,0-27.16,21.67-48.18,51.58-48.18,14.88,0,26.2,4.69,33.47,8.08-.81,10.35-1.29,20.38-1.62,30.56h-1.29L466,54.17c-1.78-12-11.16-19.24-35.25-19.24-24.58,0-36.87,13.42-36.87,38,0,33,17.47,53.36,46.41,53.36C458.35,126.29,463.36,119.5,465.3,106.72Z" fill="#fff"/><path d="M516.56,128.87H476.62v-1.45l2.27-.65c6.14-1.62,14.23-25.22,46.89-97.66h1.62c4,10.51,15.36,34.44,21.34,47.7,15,33.63,20.54,47.37,26.2,49.64l2.58,1v1.45H536.94v-1.45l12.93-1c6.15-.49,8.41-1.46,8.41-4.53S551,100.9,545,87.32c-6.47-.16-12.93-.16-19.56-.16-7.44,0-15.2,0-22,.32-6.15,16.49-9.87,28.62-9.87,31.85,0,4.69,2.91,6.31,8.25,6.79l14.71,1.3Zm27.49-43.49c-.48-1.3-1.13-2.59-1.62-3.72-5.49-11.81-15.2-32.5-19.72-41.07-7.12,16-13.42,31.53-18.44,44.63,7.12.32,14.07.32,21.19.32C531.76,85.54,537.91,85.54,544.05,85.38Z" fill="#fff"/><path d="M607.11,127.09c34.44-1.45,36.55-3.71,39.78-17.78l5.5-26.52h1.45c-1.78,16-4.2,33.15-4.36,46.08H580.27v-1.45l9.86-1.3c7.93-1.29,8.09-1.94,8.09-44.46,0-45.76-.16-46.09-8.57-47.22l-10-1.13V31.85h45.6v1.46L612.29,34.6c-5.82.49-6.79,2.11-6.79,44.79C605.5,117.55,606.14,123.38,607.11,127.09Z" fill="#fff"/></g></g></svg>