<svg xmlns="http://www.w3.org/2000/svg" viewBox="0 0 800 160"><g style="isolation:isolate"><g style="isolation:isolate"><path d="M100.4,26.73h7.21l-.92,51.7q.45,15.5-2.61,25.85t-8.75,16.41a34,34,0,0,1-13.11,8.82A46.21,46.21,0,0,1,66,132.27a52.39,52.39,0,0,1-15.49-2.22A29,29,0,0,1,38,122.23q-5.37-5.61-8.28-16T27.07,79.5L26,26.73h7.21l-.92,51.7q-.16,18.1,3.91,28.23t12.12,14q8.06,3.91,20,3.91A36,36,0,0,0,86,120.46q7.51-4.14,11.58-13.88t4.06-26.16Z" fill="#fff"/><path d="M137.37,131.2h-7.52l.31-62.9-.92-21h5.67L136,63.7ZM132.92,64q2.76-2.61,6.36-5.75a72.18,72.18,0,0,1,8-6,44.47,44.47,0,0,1,9.36-4.6A30.92,30.92,0,0,1,167,45.91,23.41,23.41,0,0,1,179,48.75q4.83,2.84,8.2,9.81t6.45,19.56l12.12,53.08H198L188.3,78.12q-1.85-9.81-5.14-15.11a17.87,17.87,0,0,0-7.9-7.29,27,27,0,0,0-10.74-2A30.9,30.9,0,0,0,156,54.88a52.71,52.71,0,0,0-8,3,66.14,66.14,0,0,0-7.29,4c-2.25,1.43-4.4,2.87-6.44,4.3Z" fill="#fff"/><path d="M279.88,125.06a79.61,79.61,0,0,1-13.5,5.14,54.79,54.79,0,0,1-16.26,2.07q-12.12,0-20.71-4.75a30.69,30.69,0,0,1-13-14.11q-4.45-9.36-4.45-23,0-11.65,3.3-19.94a38.06,38.06,0,0,1,8.9-13.65,35.22,35.22,0,0,1,12.73-7.9,43.42,43.42,0,0,1,14.65-2.53,38.52,38.52,0,0,1,14.27,2.38,23,23,0,0,1,9.58,6.82A30.68,30.68,0,0,1,280.8,66L216.06,90.55l-1.38-3.68,61.52-25-2.15,3.68A18.17,18.17,0,0,0,264.77,56a37.56,37.56,0,0,0-15.27-2.76Q238.93,53.27,232,57a22.93,22.93,0,0,0-10.28,11.12q-3.37,7.46-3.38,18.49a54.81,54.81,0,0,0,3.38,20.1A27.89,27.89,0,0,0,232.17,120q7.05,4.75,18.41,4.76a58.74,58.74,0,0,0,15.65-2.07,68.15,68.15,0,0,0,13.65-5.3Z" fill="#fff"/><path d="M296.6,131.2h-8.9v-.92l36.67-42.8v2L289.85,48.21v-.92h8.44l30.52,39.58.16,3.06Zm29.45-44.33,30.84-39.58h8.43v.92l-35,41.42-.15-2.3,37.12,43v.92h-8.74L326.05,89.47Z" fill="#fff"/><path d="M378.06,47.29h6l.77,20.4,1.38,91.43h-7.52L379,68.3ZM381.89,64q2.76-2.91,6.29-6.06a59.21,59.21,0,0,1,7.75-5.83,40.62,40.62,0,0,1,9.43-4.37,37.08,37.08,0,0,1,11.51-1.69,27,27,0,0,1,15.8,4.68q6.75,4.68,10.58,13.81t3.84,22.62q0,15.49-5.91,25.47a37.1,37.1,0,0,1-15.72,14.8,47.35,47.35,0,0,1-21.17,4.83q-4.31,0-8.13-.3t-7.52-.92a50.53,50.53,0,0,1-7.06-1.69l.62-6.9q5.21.77,11.89,1.61a83.61,83.61,0,0,0,14,.53q12-.45,19.33-5.21A27.3,27.3,0,0,0,438,107.19,40.4,40.4,0,0,0,441.26,91a59.4,59.4,0,0,0-2.76-18.56,29,29,0,0,0-8.9-13.58q-6.14-5.15-16-5.14A33.28,33.28,0,0,0,404.44,55,51.51,51.51,0,0,0,396.31,58a61.15,61.15,0,0,0-7.13,4,70.39,70.39,0,0,0-5.76,4.15Z" fill="#fff"/><path d="M461.81,125.06a79.61,79.61,0,0,0,13.5,5.14,54.79,54.79,0,0,0,16.26,2.07q12.12,0,20.71-4.75a30.69,30.69,0,0,0,13-14.11q4.45-9.36,4.45-23,0-11.65-3.3-19.94a38.18,38.18,0,0,0-8.89-13.65,35.34,35.34,0,0,0-12.74-7.9,43.42,43.42,0,0,0-14.65-2.53,38.42,38.42,0,0,0-14.26,2.38,22.92,22.92,0,0,0-9.59,6.82A30.85,30.85,0,0,0,460.89,66l64.74,24.55L527,86.87l-61.52-25,2.15,3.68A18.17,18.17,0,0,1,476.92,56a37.56,37.56,0,0,1,15.27-2.76q10.57,0,17.48,3.68A22.93,22.93,0,0,1,520,68.07q3.38,7.46,3.38,18.49a54.81,54.81,0,0,1-3.38,20.1A27.89,27.89,0,0,1,509.52,120q-7,4.75-18.41,4.76a58.61,58.61,0,0,1-15.64-2.07,68.25,68.25,0,0,1-13.66-5.3Z" fill="#fff"/><path d="M592.05,47.29v7.36H539.74V51.28l15.8-3.53,6.29-17.64h.61l-.76,27V107q0,7.37,1.91,11.35a10,10,0,0,0,5.76,5.37,28.81,28.81,0,0,0,9.66,1.38,57.47,57.47,0,0,0,7.21-.46q3.69-.45,6.9-1.07v7.67q-2.76.3-5.59.77a56,56,0,0,1-8.21.46,32.57,32.57,0,0,1-13.19-2.38,15.83,15.83,0,0,1-8.06-8.13q-2.69-5.76-2.53-15.42L556.46,51l1.84-3.68Z" fill="#fff"/><path d="M677.19,53.59a79.61,79.61,0,0,0-13.5-5.14,54.71,54.71,0,0,0-16.26-2.07q-12.12,0-20.71,4.75a30.75,30.75,0,0,0-13,14.11q-4.45,9.36-4.45,23,0,11.65,3.3,19.94a38.06,38.06,0,0,0,8.9,13.65,35.22,35.22,0,0,0,12.73,7.9,43.42,43.42,0,0,0,14.65,2.53,38.73,38.73,0,0,0,14.27-2.37,23,23,0,0,0,9.58-6.83,30.68,30.68,0,0,0,5.45-10.43L613.37,88.1,612,91.78l61.52,25-2.15-3.68a18.17,18.17,0,0,1-9.28,9.51,37.54,37.54,0,0,1-15.26,2.76q-10.59,0-17.49-3.68a23,23,0,0,1-10.28-11.12q-3.37-7.44-3.38-18.49A54.81,54.81,0,0,1,619.05,72a28,28,0,0,1,10.43-13.34q7-4.76,18.41-4.76A58.74,58.74,0,0,1,663.54,56a68.15,68.15,0,0,1,13.65,5.3Z" fill="#fff"/><path d="M759.57,114a87.29,87.29,0,0,1-6.6,6.21,66.08,66.08,0,0,1-8.13,5.91,40.94,40.94,0,0,1-9.74,4.37,38.69,38.69,0,0,1-11.28,1.61,27.62,27.62,0,0,1-16-4.6q-6.75-4.6-10.51-13.73T693.6,91.16q0-14.26,5.29-24.39a35.86,35.86,0,0,1,15.27-15.42q10-5.3,24.08-5.29,4.46,0,8.67.23t7.82.69l6.06.77-.46,7.67c-2.14-.41-4.6-.77-7.36-1.08s-5.68-.51-8.74-.61-6-.15-8.9-.15q-12.12,0-20.1,4.22a27.83,27.83,0,0,0-12,11.73,37.47,37.47,0,0,0-4,17.8,57,57,0,0,0,2.84,18.48,29.73,29.73,0,0,0,8.89,13.5q6.06,5.14,15.88,5.14a34.45,34.45,0,0,0,9.59-1.3,53.52,53.52,0,0,0,8.51-3.23,69.85,69.85,0,0,0,7.37-4.06c2.24-1.43,4.24-2.66,6-3.68Zm5.21,17.18h-6.59l-.92-16.87.61-45.72L756,13.85h7.82l-.15,50.62Z" fill="#fff"/></g></g></svg>