<svg xmlns="http://www.w3.org/2000/svg" viewBox="0 0 426.43 160"><g style="isolation:isolate"><g style="isolation:isolate"><path d="M73.2,93C68,113.38,54.12,129.69,32.59,129.69c-21.85,0-29.19-9.46-29.19-23.48C3.4,100,6,90.88,8.78,80,20,35.27,20.2,34.12,12.86,33L5.52,32,6,30.05H49.72L49.39,32,37.81,33.15c-6.36.65-7.17,2.93-20.71,57.08a57.58,57.58,0,0,0-2,13.53c0,14.35,8.48,19.41,25.61,19.41,16.14,0,22-7.5,28.05-31.48,13.7-54.14,13.37-57.24,4.89-58.54L64.23,32l.49-1.95h38.65L102.88,32l-8.8,1.15c-5.71,1-6.85,2.44-16.31,40.44C75.49,83.05,74.51,87.94,73.2,93Z" fill="#fff"/><path d="M141,114.69c0-14.19,18.6-38.33,18.6-46.64,0-3.43-2.94-6-8.48-6C140.55,62,129,73.59,108.43,127.9H94.89c6.69-19.73,21.85-50.39,21.85-58.71,0-4.4-2.28-7.67-7.17-7.67-4.4,0-8.32,2.12-15.82,17.78l-1.31-.65c7.83-21.53,12.24-29.52,18.43-29.52,4.9,0,8.65,7.17,8.65,18.75,0,7.51-4.9,29.36-8.32,44.2l1.3.33c17.13-45.34,27.24-63.28,39-63.28,7,0,12.07,6.85,12.07,13.7,0,9.13-12.07,34.74-12.07,45.66,0,5.22,2,8.16,5.22,8.16,3.75,0,6.69-3.43,13.7-18.11l1.3.66c-8.48,23.81-13.7,30.33-20.54,30.33C145.28,129.53,141,122.84,141,114.69Z" fill="#fff"/><path d="M191.6,61.52c-4.24,0-8.16,2.12-15.66,17.78l-1.3-.65c8-21.53,12.23-29.52,18.43-29.52,4.73,0,9,6.36,9,13.7,0,10.6-11.75,34.41-11.75,45.34,0,5.38,2,8.31,5.22,8.31,3.75,0,6.53-3.58,13.54-17.94l1.14.66C201.87,123,196.65,129.53,190,129.53c-5.87,0-10.11-6.69-10.11-14.51,0-14.85,18.26-37.51,18.43-47.14C198.29,64.3,195.84,61.52,191.6,61.52Zm9-34.41c0-6,3.75-9,9.62-9,4.08,0,6.69,2.29,6.69,6.69,0,6.36-3.75,9.46-9.63,9.46C203.34,34.29,200.57,31.84,200.57,27.11Z" fill="#fff"/><path d="M274.44,66.91l-1.3-.49c-23.16,45.17-35.23,63.27-44.69,63.27-6.19,0-11.9-7.34-11.9-21,0-30.18,23-60.18,64.74-58.72C278,60.87,265.8,113.71,261.07,155.13H247.21C256.5,119.26,267.59,86.64,274.44,66.91Zm1-8.32c-37.67,7.66-56.26,32.94-56.26,49.9,0,5.22,3.91,8.16,9.29,8.16C237.1,116.65,252.26,103.27,275.42,58.59Z" fill="#fff"/><path d="M341.47,50.6l12.07.49C350,61.52,340.49,95.93,340.49,108c0,6,2.28,8.65,6,8.65,3.42,0,6.52-3.27,13.53-17.94l1.31.65c-8.48,23.65-13.21,30.17-19.74,30.17-4.89,0-9.13-5.87-9.13-14.84s9.3-34.57,14.68-49.42L346,64.79c-23.16,44.84-33.93,64.74-44.53,64.74-7.66,0-13-7.34-13-14.84,0-14,18.43-34.41,18.43-46,0-3.75-2.45-7.18-7-7.18-4.24,0-7.5,1.63-15.65,17.78l-1.31-.65c8-21.53,12.23-29.52,18.43-29.52,4.57,0,9.13,6.69,9.13,14,0,15.66-13.21,35.88-13.37,46.65-.16,4.4,3.43,6.68,6.85,6.68C321.41,116.48,340,76.85,341.47,50.6Z" fill="#fff"/><path d="M364.46,98.05c0-25,20.06-48.92,36.37-48.92,12.89,0,20.55,9.13,20.55,16.47,0,8.48-17.94,16.15-50.72,21.36a44.47,44.47,0,0,0-3.42,16.48c0,9.78,9.29,14.51,16.3,14.51,11.58,0,27.73-10.93,33.27-25.44l1.31.65c-5.87,19.9-20.39,36.37-33.43,36.37C373.11,129.53,364.46,118.77,364.46,98.05Zm6.85-12.72c28.71-6.19,41.92-14.51,41.92-19.89,0-3.43-2.45-6.69-8.48-6.69C391.21,58.75,377.84,70.66,371.31,85.33Z" fill="#fff"/></g></g></svg>