<svg xmlns="http://www.w3.org/2000/svg" viewBox="0 0 354.97 160"><g style="isolation:isolate"><g style="isolation:isolate"><path d="M81,114.33a24,24,0,0,1-10.65,9.45q-7,3.39-17.07,3.39H11.68l.84-47.53-.84-48.52h40.9a36,36,0,0,1,15,2.82,21.42,21.42,0,0,1,9.52,8,22.92,22.92,0,0,1,3.32,12.55A22.57,22.57,0,0,1,78,64.62a23.08,23.08,0,0,1-7.76,8.6,43.61,43.61,0,0,1-14.25,6q-4.23,1-8.46,1.7t-9.59,1q-5.35.36-12.83.36V70.61c1.59,0,3.24,0,4.93.07s3.55.1,5.57.14,4.09.07,6.21.07h6.13a19.75,19.75,0,0,0,6.92-1.06,8.52,8.52,0,0,0,4.37-3.52,11.37,11.37,0,0,0,1.55-6.14,7.76,7.76,0,0,0-3-6.34q-3-2.4-10.72-2.4c-1.41,0-3.29,0-5.64.07s-4.87.07-7.55.07-5,0-7,.07-3.43.07-4.37.07L33.68,40.29v76l-9.17-10q4.65.28,11.07.36t13.19.07q6.49,0,10.3-2.61t3.81-8.25a8.73,8.73,0,0,0-2.05-6.07,9.67,9.67,0,0,0-5.15-3,30.54,30.54,0,0,0-6.77-.7H44.33c-1.46,0-2.89,0-4.3.07s-2.85.07-4.31.07-3,0-4.51.07-3.17.07-4.87.07V77q3.26-.13,6.21-.14c2,0,4.4,0,7.26-.07s6-.07,9.53-.07a65.08,65.08,0,0,1,11,1A46,46,0,0,1,72,81.4a24.23,24.23,0,0,1,9.1,7.19,18.56,18.56,0,0,1,3.53,11.64A27.08,27.08,0,0,1,81,114.33Z" fill="#fff"/><path d="M165.13,34.36a36.3,36.3,0,0,1,16.29,15.16q5.72,10.09,5.72,24.9,0,14.39-4.23,24.68a45.62,45.62,0,0,1-27.79,26.66,56.45,56.45,0,0,1-18.48,3.1q-14.8,0-25.46-5a35.81,35.81,0,0,1-16.36-15.17q-5.71-10.16-5.71-25.24,0-14.25,4.23-24.55a45.41,45.41,0,0,1,11.43-16.78A47.47,47.47,0,0,1,121,32.46a55.57,55.57,0,0,1,18.61-3.18Q154.56,29.28,165.13,34.36ZM123.24,57.28a18.59,18.59,0,0,0-8.32,9,35.11,35.11,0,0,0-2.68,14.53A27.8,27.8,0,0,0,114.78,93a17.69,17.69,0,0,0,8.25,8.11q5.72,2.89,15,2.89,8.89-.14,14.74-3.18a18.74,18.74,0,0,0,8.61-9,33.7,33.7,0,0,0,2.75-14.25,27.26,27.26,0,0,0-2.68-12.55A18.77,18.77,0,0,0,153,56.93q-5.77-3-15.23-3Q128.89,54.26,123.24,57.28Z" fill="#fff"/><path d="M218,79.64l.84,47.53H195.18L196,79.64l-.84-48.52h23.69Zm36.39,47.53H204.91V104.46h49.51Z" fill="#fff"/><path d="M263.44,79.64l-1-48.52,14.6-.28,15-.29q7.49-.14,14.67-.14,13.68,0,23.63,4.94a33.78,33.78,0,0,1,15.16,14.74q5.22,9.79,5.22,24,0,14.1-4.09,24.26a43.77,43.77,0,0,1-11.14,16.5,48.21,48.21,0,0,1-15.73,9.52,52.24,52.24,0,0,1-18.12,3.17h-7.13q-4.86,0-10.65-.07l-11.49-.14q-5.72-.07-9.8-.21Zm13.26,21.44q4.51.56,11.42,1.12t14.11.57q9.45,0,15.44-3a18.43,18.43,0,0,0,8.75-8.68,31.88,31.88,0,0,0,2.75-13.89,25.75,25.75,0,0,0-2.4-11.5,16.71,16.71,0,0,0-7.62-7.54q-5.22-2.69-13.82-2.68-3.52,0-8.46.21l-9.66.42q-4.72.21-8.54.57a43.47,43.47,0,0,0-4.93.63L284.6,40.29l.14,76Z" fill="#fff"/></g></g></svg>