<svg xmlns="http://www.w3.org/2000/svg" viewBox="0 0 631.62 160"><g style="isolation:isolate"><g style="isolation:isolate"><path d="M87.43,123.91a32,32,0,0,0,12.89-8,32.37,32.37,0,0,0,7.52-13.19,56.8,56.8,0,0,0,2.07-18.1l1.23,2.91H69.87V82h42.8c.1.71.18,1.48.23,2.3s.1,1.66.15,2.53.08,1.71.08,2.53q0,12-3.3,20.17a33,33,0,0,1-9.2,13.2,36.33,36.33,0,0,1-14,7.21A66.59,66.59,0,0,1,69,132.12a59.45,59.45,0,0,1-19.79-3.07A39.09,39.09,0,0,1,34.36,120a38.7,38.7,0,0,1-9.21-14.88A62.24,62.24,0,0,1,22,84.41a78,78,0,0,1,3.6-24.54A52.92,52.92,0,0,1,36,41.23,45.71,45.71,0,0,1,52.53,29.34,54.87,54.87,0,0,1,74.32,25.2a72.65,72.65,0,0,1,15.49,1.45,140.78,140.78,0,0,1,14,3.92v6.59a145.31,145.31,0,0,0-15.26-4.6,70.11,70.11,0,0,0-16-1.69q-16,0-26.08,6A35.84,35.84,0,0,0,31.44,54q-4.83,11.19-4.83,26.84a61.46,61.46,0,0,0,4.29,23.7,33.84,33.84,0,0,0,13.73,16.19q9.43,5.83,24.63,5.83A55.5,55.5,0,0,0,87.43,123.91Z" fill="#fff"/><path d="M140.89,131.2h-7.51l.3-62.9-.92-21h5.83l.92,16.57Zm28.23-76.4a54.26,54.26,0,0,0-12.43,1.31,41.6,41.6,0,0,0-10.2,3.83A46.11,46.11,0,0,0,137.83,66l-1.54-2A70,70,0,0,1,142.12,58a63.59,63.59,0,0,1,7-5.6,36.58,36.58,0,0,1,7.75-4.14A22.55,22.55,0,0,1,165,46.67c.92,0,1.71,0,2.38.08a15.17,15.17,0,0,1,1.76.23Z" fill="#fff"/><path d="M242.06,50.74a33.77,33.77,0,0,1,13.35,14,44.65,44.65,0,0,1,4.68,20.94,57.31,57.31,0,0,1-3.15,19.79,41.82,41.82,0,0,1-8.89,14.65,38.31,38.31,0,0,1-13.43,9.2,44,44,0,0,1-16.87,3.15q-12.42,0-21.09-5a33.17,33.17,0,0,1-13.27-14,45.77,45.77,0,0,1-4.61-21,56.3,56.3,0,0,1,3.15-19.48,42.43,42.43,0,0,1,8.82-14.65A38.4,38.4,0,0,1,204.17,49,43.5,43.5,0,0,1,221,45.75Q233.4,45.75,242.06,50.74Zm-41.41,8.51A25,25,0,0,0,190,70.91q-3.53,7.68-3.52,18.56A41.69,41.69,0,0,0,190,107.19,25.37,25.37,0,0,0,201,118.93q7.51,4.14,19.48,4.14,10.59,0,17.64-4a25.33,25.33,0,0,0,10.66-11.73q3.62-7.75,3.61-18.8a41.16,41.16,0,0,0-3.53-17.64,25,25,0,0,0-11-11.58q-7.53-4.06-19.49-4.07Q207.79,55.26,200.65,59.25Z" fill="#fff"/><path d="M299.82,122.3l31.3-76.09h2.14L367,120.31l-5.52,2,24.7-75.63h12.88l-35.28,86.06h-2.15L329.12,62.47l6.6-1.68L302,132.73h-2.15L264.38,46.67h13.35l27.46,73.64Z" fill="#fff"/><path d="M421.39,14.69a7.61,7.61,0,0,1,2.84,6.37c0,3.78-1.15,6.52-3.45,8.2a12.53,12.53,0,0,1-7.59,2.53q-5.07,0-7.83-2.14c-1.84-1.44-2.76-3.58-2.76-6.45,0-3.78,1.1-6.52,3.3-8.2a12.12,12.12,0,0,1,7.59-2.54C416.87,12.46,419.5,13.21,421.39,14.69Zm.69,116.51h-15V67.54l-1.23-21.17h14.42v19Z" fill="#fff"/><path d="M459.36,131.2H439.72V67.08l-1.38-21.33h16.57l2.45,20.87Zm-7.82-66.12q3.52-3.53,7.67-7.28a57.27,57.27,0,0,1,9.12-6.75,56.19,56.19,0,0,1,10.51-4.91,34.8,34.8,0,0,1,11.51-1.92,31.68,31.68,0,0,1,9.58,1.38,18.5,18.5,0,0,1,7.75,4.83,24.19,24.19,0,0,1,5.37,9.51,52.3,52.3,0,0,1,2.15,15.27l.92,56H496.33L497.1,81q.15-7.07-1.77-10.82a9.6,9.6,0,0,0-5.44-5A25.26,25.26,0,0,0,481.6,64a53.86,53.86,0,0,0-7.82.54,44,44,0,0,0-7.06,1.61,66.39,66.39,0,0,0-6.36,2.37,42.07,42.07,0,0,0-5.45,2.84Z" fill="#fff"/><path d="M592.05,103.59c-1.84,2-3.94,4.17-6.29,6.36a64.67,64.67,0,0,1-7.67,6.14,37,37,0,0,1-9.2,4.53,36,36,0,0,1-11.35,1.68q-10.29,0-17.34-3.91a26,26,0,0,1-10.89-11.81q-3.84-7.9-3.84-19.71,0-15.34,5.22-25.09A33.8,33.8,0,0,1,544.5,47.44a39.57,39.57,0,0,1,19-4.6,41.21,41.21,0,0,1,12.35,1.84,46.43,46.43,0,0,1,10.51,4.68,28.28,28.28,0,0,1,7.21,6.06l-.92,14.72a66.91,66.91,0,0,0-10.36-2.37,63.9,63.9,0,0,0-11.89-.85,33.93,33.93,0,0,0-12.73,2.3,14.43,14.43,0,0,0-7.13,6.14,18.84,18.84,0,0,0-2.23,9.36,18.64,18.64,0,0,0,2,8.74,13.41,13.41,0,0,0,6.13,5.91,24.06,24.06,0,0,0,10.74,2.07,35.83,35.83,0,0,0,8.59-.92A28.51,28.51,0,0,0,582.46,98a36.66,36.66,0,0,0,5-3.15Zm13.19,35.13a34.54,34.54,0,0,1-15.72,15.18q-10.66,5.37-27.38,5.37a137.43,137.43,0,0,1-15.42-.84,104.49,104.49,0,0,1-14.5-2.68V131.51q8.6,2,15.57,2.91a111.08,111.08,0,0,0,14.65.92,34.06,34.06,0,0,0,12.2-1.92,14.34,14.34,0,0,0,7.52-6.29q2.52-4.36,2.53-11.58V51.43l23.93-7.82,2.3,1.22L609.54,74.9l.46,40.5Q610.3,128.9,605.24,138.72Z" fill="#fff"/></g></g></svg>