<svg xmlns="http://www.w3.org/2000/svg" viewBox="0 0 512 150"><path d="M83.79,47.14A103.83,103.83,0,0,0,70,43.3,80.06,80.06,0,0,0,54.51,42a52.77,52.77,0,0,0-19.33,3.51A44.88,44.88,0,0,0,19.25,56.07,49.07,49.07,0,0,0,8.44,73.51,68.52,68.52,0,0,0,4.53,97.63q0,14.85,5.32,24.93a34.9,34.9,0,0,0,15.38,15.21q10.05,5.11,24.23,5.11A79.33,79.33,0,0,0,70,140.51,87.09,87.09,0,0,0,86.93,134V122.53a90.72,90.72,0,0,1-18,6.82A76.08,76.08,0,0,1,49.26,132q-12.39.15-20-4.74a28.53,28.53,0,0,1-11.17-13.4,50.63,50.63,0,0,1-3.53-19.5q0-13,4-22.24A30,30,0,0,1,31.09,57.84q8.46-5,21.55-5a72.05,72.05,0,0,1,17.91,2,136,136,0,0,1,13.24,4.1Zm67.45,47.73v29.37l1.21,17.35h9.05l-.92-45.86q-.3-12.08-2.78-19.68a19.53,19.53,0,0,0-8.74-11.26q-6.24-3.65-17.74-3.65a64.32,64.32,0,0,0-11.25,1,77.43,77.43,0,0,0-9.75,2.38q-4.47,1.43-8,2.87V78.7q4.62-2,9.4-3.59a75.83,75.83,0,0,1,9.6-2.55,49,49,0,0,1,9.59-1A25.31,25.31,0,0,1,142.64,74a14,14,0,0,1,6.54,7.46,36.65,36.65,0,0,1,2.06,13.45Zm2.07,25.91q-3.37,2.39-7.75,5a51.67,51.67,0,0,1-9.87,4.49,38.09,38.09,0,0,1-12.35,1.87,24.82,24.82,0,0,1-9-1.38,10.49,10.49,0,0,1-5.14-3.9,10.6,10.6,0,0,1-1.65-5.9,8.61,8.61,0,0,1,3-6.77q3-2.65,9.66-3.2l34.47-2.91-.34-6.2-34.45,1A27.87,27.87,0,0,0,109,105.46a20.61,20.61,0,0,0-8.37,6.85,18.56,18.56,0,0,0-3.24,11.12,19.53,19.53,0,0,0,2.64,10.42,17.15,17.15,0,0,0,7.51,6.57,26.31,26.31,0,0,0,11.33,2.29,38.05,38.05,0,0,0,12.12-1.8,40.26,40.26,0,0,0,9.65-4.63,58.94,58.94,0,0,0,7.65-6c2.27-2.1,4.3-4,6.08-5.8Zm35.14-40.52.11-48.92h-11l1.9,50.47-.92,59.78h11.18Zm82.66,44.93a61.87,61.87,0,0,1-13.33,5.17,58.88,58.88,0,0,1-15.23,2q-10,0-16.29-4.12A24.18,24.18,0,0,1,217,116.66a46.45,46.45,0,0,1-3-17.38,37.18,37.18,0,0,1,2.85-15.45,19.39,19.39,0,0,1,8.76-9.34q5.91-3.1,15-3.11A35.41,35.41,0,0,1,254,73.68a17,17,0,0,1,8.59,7.4q2.92,5.08,2.61,13.61l4.67-3.91-60.27.72-.17,6.28,63.64.43c.15-1.25.26-2.42.32-3.53s.08-2.16.08-3.16a39.12,39.12,0,0,0-3.15-16.6,21.82,21.82,0,0,0-9.8-10.26q-6.65-3.51-17.05-3.51a43,43,0,0,0-14.3,2.42,35.16,35.16,0,0,0-12.44,7.51,35.94,35.94,0,0,0-8.73,13,49.78,49.78,0,0,0-3.25,18.9q0,13,4.37,21.85a29.87,29.87,0,0,0,12.74,13.4q8.37,4.54,20.22,4.55a58.5,58.5,0,0,0,15.9-2.09,82.75,82.75,0,0,0,13.1-4.77ZM300,134l-1.09-53.53L299,31.34H288l2,50.58-1,56.55c3.37.95,6.56,1.72,9.59,2.32s6,1.08,8.88,1.42a77.66,77.66,0,0,0,8.89.5,44.69,44.69,0,0,0,20.16-4.54,34.36,34.36,0,0,0,14.64-14q5.49-9.47,5.49-24.28,0-12.7-3.57-21.38A28.54,28.54,0,0,0,343,65.38,26,26,0,0,0,328,61a32.46,32.46,0,0,0-10.92,1.73,37.39,37.39,0,0,0-8.8,4.41A51.4,51.4,0,0,0,301.11,73q-3.23,3.18-6,6l1.67,3.14c1.5-1,3.19-2.07,5.07-3.23A56,56,0,0,1,308,75.65a42.42,42.42,0,0,1,7.15-2.51,32.15,32.15,0,0,1,8.11-1q8.91,0,14.27,4.31a24.41,24.41,0,0,1,7.8,11.41,48,48,0,0,1,2.44,15.58,35,35,0,0,1-2.7,13.81,22.55,22.55,0,0,1-8.8,10.29q-6.1,3.94-16.26,4.21-7.57.21-14.7-.2c-4.74-.27-8.89-.59-12.42-.95Z"/></svg>