<svg xmlns="http://www.w3.org/2000/svg" viewBox="0 0 512 150"><path d="M177.72,59.82c-8.81,0-15.13,0-22.94-1,6.65-26.44,9-34.25,10.64-37.91a73.39,73.39,0,0,1,18.12-2.33c15.3,0,19,6,19,17.46C202.5,51.5,192.86,59.82,177.72,59.82ZM153,66.14c.5-2,1-4,1.5-5.82a51.21,51.21,0,0,0,17.29,3.16c8.15,19.45,17,38.57,23.78,53.37h14.3l.16-1.16c-4.49-1.16-6.32-1.33-9.31-5.32-6.15-8.65-16.29-26.77-24.44-47.23C192.86,61.31,208.65,49,208.65,34c0-10.64-5.15-17-22.94-17h-44.9l-.17,1,11.14,1.5c7.65,1,7.65,1.83-3.82,48.22-11.31,44.73-11.64,45.06-17.79,45.89l-13.8,2v1.16h48.88l.17-1.16L148,113.86C141.47,113.2,141.47,112.2,153,66.14ZM266.69,109c0-15.3,11.3-56.21,15.79-70.34C241.41,38,216.3,73.29,216.3,103.22c0,10.64,3.16,15.3,9.81,15.3,13.14,0,24.78-18.79,46.56-65l1,.5c-4.66,14.13-13,43.07-13,56.53,0,5.49,2.16,8,5.15,8,7.65,0,15.3-10.65,21.46-24.78l-.67-.67c-6.82,13.31-13.3,20.79-17.29,20.79C267.68,113.86,266.69,112,266.69,109Zm-38.25,5c-4,0-6.32-2.17-6.32-11.14,0-23.45,17.13-58,54-62.19C252.22,99.06,236.42,114,228.44,114Zm92.12-67.51c0-5.49-2.16-8-5.15-8-7.65,0-15.3,10.65-21.45,24.78l.66.67c7-13.31,13.3-20.79,17.13-20.79,1.83,0,2.83,1.83,2.83,4.82,0,12.47-12.81,55.37-16.63,68.84h5.82C325.05,56.33,343.51,43,353.15,43c3.33,0,4.83,1.5,4.83,4.33,0,11.64-16,50.71-16,63.18,0,5.49,2.16,8,5.16,8,7.81,0,15.46-10.65,21.61-24.78l-.66-.67c-7,13.31-13.3,20.79-17.29,20.79-1.67,0-2.67-1.83-2.67-4.82,0-13.47,15.64-50.72,15.64-63.36,0-3.65-2.17-7-8.65-7-14.14,0-28.6,16.63-47.56,64.19l-.83-.34c5-15,13.8-45.89,13.8-56Zm97.61-6c6.32,0,9.48,3,9.48,7.15,0,7.81-13,17.63-39.58,24.11,5-16.79,15.8-31.26,30.1-31.26ZM433.3,47c0-5.15-3.82-8.48-11.14-8.48-27.77,0-43.23,30.43-43.23,55.21,0,14.63,8,24.78,18.62,24.78,12.31,0,22.28-10.48,31.26-28.27l-1-.67c-7.31,13.64-16.12,25-27.6,25-8.15,0-15.13-8.32-15.13-22.29a71.15,71.15,0,0,1,2.83-19.45C417,67.47,433.3,55.83,433.3,47Zm33.92-.49c0-5.49-2.16-8-5.15-8-7.65,0-15.47,10.65-21.62,24.78l.83.5c6.82-13.14,13.14-20.62,17.13-20.62,1.66,0,2.66,1.83,2.66,4.82,0,13.47-15.63,50.55-15.63,63.36,0,3.65,2.33,6.81,8.65,6.81,14.13,0,28.43-16.46,47.72-64l.67.34c-3,9.14-7.65,24.94-9.15,32.09-2.16,8.81-3.82,18-6,27.77C483,137,478.86,141,457.75,141a95.6,95.6,0,0,1-22.95-3.15c-.17,5.82,5.32,8.48,18,8.48,27.43,0,38.91-18.13,42.57-42.74,2.82-18.62,12.47-51,16-63.35h-6C484.18,100.56,465.89,114,456.08,114c-3.16,0-4.82-1.5-4.82-4.33C451.26,98.06,467.22,59,467.22,46.52Z"/><line x1="101.01" y1="67.41" x2="0.71" y2="67.41" fill="none" stroke="#000" stroke-width="2"/></svg>