<svg xmlns="http://www.w3.org/2000/svg" viewBox="0 0 1920 1080"><defs><style>.cls-1{fill:#fbf6f2;}.cls-2{fill:#ff958b;}.cls-3{fill:#6ea4c3;}</style></defs><g id="Bg"><rect class="cls-1" width="1920" height="1080"/></g><g id="Layer_1" data-name="Layer 1"><path class="cls-2" d="M435.55,268.87H401.16l-15.78-53-2.94,10a20.11,20.11,0,0,0-.85,6.1,19.2,19.2,0,0,0,.74,5.58l9.26,31.34h-30.4v-3.36c5.05,0,6.94-3.16,8.2-7.16l28.93-94.76,29,94.76c1.26,4,3.15,7.16,8.2,7.16Z"/><path class="cls-2" d="M456.59,268.87v-3.36c3.79,0,5.89-2.11,5.89-4.63V171.79c0-2.63-2.1-4.73-5.89-4.73v-3.37h39.23a46.29,46.29,0,0,1,6.63.53c15,2.21,26.29,9.68,26.29,26.82,0,13.88-7.46,21.77-18.93,25.24,11.47,3.47,18.93,11.36,18.93,25.24,0,20-16.19,27.35-32.92,27.35Zm43.65-95c0-3.16-1.79-6.84-4.52-6.84H491V214.6h4.63a4.69,4.69,0,0,0,4.63-4.73Zm0,44.07H491v47.54h4.84c2.63,0,4.42-3.69,4.42-6.84Z"/><path class="cls-2" d="M592.59,186.1V172.42c0-2.73-2.21-5.36-4.63-5.36a32.7,32.7,0,0,0-4.52.31v97.82a31.29,31.29,0,0,0,4.42.32c2.52,0,4.73-2.63,4.73-5.37V246.47a12.62,12.62,0,1,1,25.24,0,13.47,13.47,0,0,1-1.89,6.73,32.56,32.56,0,0,1-21,14.94l-.85.21a33.38,33.38,0,0,1-6.52.52,35.29,35.29,0,0,1-5.68-.52A33.5,33.5,0,0,1,555,235.42V197.14a33.3,33.3,0,0,1,26.82-32.82,26.48,26.48,0,0,1,5.79-.63,34.15,34.15,0,0,1,6.52.53l.74.21a32.79,32.79,0,0,1,21,14.93,13.51,13.51,0,0,1,1.89,6.74,12.62,12.62,0,1,1-25.24,0Z"/><path class="cls-2" d="M680.53,268.87h-39v-3.36c3.79,0,5.89-2.11,5.89-4.63V171.79c0-2.63-2.1-4.73-5.89-4.73v-3.37h39a38.22,38.22,0,0,1,6.1.53,33.5,33.5,0,0,1,27,33v38.18a33.29,33.29,0,0,1-26.93,32.82A31.06,31.06,0,0,1,680.53,268.87Zm4.62-96.45c0-2.73-2.21-5.36-4.62-5.36H675.9v98.45h4.63c2.41,0,4.62-2.63,4.62-5.37Z"/><path class="cls-2" d="M737.33,268.87v-3.36c3.78,0,5.89-2.11,5.89-4.63V171.69c0-2.53-2.11-4.63-5.89-4.63v-3.37h66.36v27.87a11.76,11.76,0,0,1-3.26-.21,32.6,32.6,0,0,1-24.5-24.29h-4.31v48a22.87,22.87,0,0,1,19.66-11.25A12.52,12.52,0,1,1,779,216.28c0-.94.31-1.79.31-2.73a1.12,1.12,0,0,0-1-1.05,1.43,1.43,0,0,0-.63.21c-3.68,3.15-6,9.36-6,14.41v38.39h4.31a32.61,32.61,0,0,1,24.5-24.3A7.88,7.88,0,0,1,802,241h1.68v27.87Z"/><path class="cls-2" d="M869,216.28c0-.94.31-1.79.31-2.73a1.12,1.12,0,0,0-1.05-1.05,1.43,1.43,0,0,0-.63.21c-3.68,3.15-6,9.46-6,14.41v33.76c0,2.52,2.11,4.63,5.89,4.63v3.36H827.36v-3.36c3.79,0,5.89-2.11,5.89-4.63V171.69c0-2.53-2.1-4.63-5.89-4.63v-3.37h66.37v27.87a11.76,11.76,0,0,1-3.26-.21A32.6,32.6,0,0,1,866,167.06h-4.32v48a22.87,22.87,0,0,1,19.67-11.25A12.52,12.52,0,1,1,869,216.28Z"/><path class="cls-2" d="M952.74,268.87a35.29,35.29,0,0,1-5.68-.52,33.48,33.48,0,0,1-27-32.93V197.14a33.28,33.28,0,0,1,27-32.82,27.28,27.28,0,0,1,6.52-.63h5.89A26.37,26.37,0,0,1,978.72,172a27.2,27.2,0,0,1,7.57,18.83A14.25,14.25,0,1,1,972,176.42c1.16,0,2.21.31,3.16.31a1.52,1.52,0,0,0,1.57-1.47,3.45,3.45,0,0,0-.31-.94,21.13,21.13,0,0,0-2.32-2.11,23.4,23.4,0,0,0-14.62-5.15h-6.31c-2.42,0-4.62,2.63-4.62,5.36v92.77a34.05,34.05,0,0,0,4.62.32c2.42,0,4.63-2.63,4.63-5.37V222.59c0-2.52-2.1-4.62-5.89-4.62V214.6h40.28V218c-3.78,0-5.89,2.1-5.89,4.62v46.28h-3.36c0-4.42-2.11-6.31-4.63-6.31a4.87,4.87,0,0,0-2.84.95c-4.63,3.26-9.15,5.36-15,5.36Z"/><path class="cls-2" d="M1057,268.87V218h-4.63a4.69,4.69,0,0,0-4.63,4.73v38.18c0,2.52,2.11,4.63,5.89,4.63v3.36h-40.38v-3.36c3.78,0,5.89-2.11,5.89-4.63V171.79c0-2.63-2.11-4.73-5.89-4.73v-3.37h34.49V214.6H1057V163.69h34.5v3.37c-3.79,0-5.89,2.1-5.89,4.73v89.09c0,2.52,2.1,4.63,5.89,4.63v3.36Z"/><path class="cls-2" d="M1112.52,268.87v-3.36c3.68,0,5.68-2.11,5.68-4.63V171.79c0-2.63-2-4.73-5.68-4.73v-3.37h39.13v3.37c-3.69,0-5.68,2.1-5.68,4.73v89.09c0,2.52,2,4.63,5.68,4.63v3.36Z"/><path class="cls-2" d="M1235.58,242.16c-.1,14.62-12,26.71-26.4,26.71h-9.68a26.14,26.14,0,0,1-19.24-8.31,27.2,27.2,0,0,1-7.58-18.82,14.2,14.2,0,1,1,14.2,14.41c-1.05,0-2.1-.32-3.15-.32a1.51,1.51,0,0,0-1.48,1.47,1.47,1.47,0,0,0,.32.95,23.73,23.73,0,0,0,16.93,7.26h3a4.68,4.68,0,0,0,4.63-4.63V171.79c0-2.63-2.11-4.73-5.89-4.73v-3.37h40.28v3.37c-3.89,0-5.89,2.1-5.89,4.73C1235.58,171.79,1235.69,174.63,1235.58,242.16Z"/><path class="cls-2" d="M1306.27,268.87V218h-4.63a4.69,4.69,0,0,0-4.63,4.73v38.18c0,2.52,2.1,4.63,5.89,4.63v3.36h-40.39v-3.36c3.79,0,5.89-2.11,5.89-4.63V171.79c0-2.63-2.1-4.73-5.89-4.73v-3.37H1297V214.6h9.26V163.69h34.49v3.37c-3.78,0-5.89,2.1-5.89,4.73v13.36a33.59,33.59,0,0,1-21,31.13,33.61,33.61,0,0,1,21,31.14v13.46c0,2.52,2.11,4.63,5.89,4.63v3.36Z"/><path class="cls-2" d="M1361.8,268.87v-3.36c3.79,0,5.89-2.11,5.89-4.63V171.79c0-2.63-2.1-4.73-5.89-4.73v-3.37h34.29V265.51h4.32a32.61,32.61,0,0,1,24.5-24.3,7.79,7.79,0,0,1,1.58-.21h1.68v27.87Z"/><path class="cls-2" d="M1513.27,258.35c1.15,4,3.15,7.16,8.2,7.16v3.36h-34.81l-15.89-53-2.94,10a20.65,20.65,0,0,0-.84,6.21,18.78,18.78,0,0,0,.73,5.47l9.36,31.34h-25.66l32.5-108.33,19.67,65.52c6.31-20.4,12.31-40.91,19.67-65.52l29.34,97.81c1.16,4,3.16,7.16,8.21,7.16v3.36H1526l-15.88-53-2.94,10a20,20,0,0,0-.85,6.1,19.49,19.49,0,0,0,.74,5.58S1507.69,239.63,1513.27,258.35Z"/><path class="cls-2" d="M388,418.87H358.35l-35-94.24v18.09c0,6.21.32,9.57,2.32,14.94l22.19,61.21H314.07v-3.36c3.78,0,5.89-2.11,5.89-4.63V321.79c0-2.63-2.11-4.73-5.89-4.73v-3.37h35.86l34.71,94.14v-18c0-5.15-1.68-10.83-3.57-16.3l-20.94-59.85H393.9v3.37c-3.89,0-5.89,2.1-5.89,4.63Z"/><path class="cls-2" d="M456.69,418.24a26.68,26.68,0,0,1-6.52.63,35.29,35.29,0,0,1-5.68-.52,33.48,33.48,0,0,1-26.92-32.93V347.14a33.37,33.37,0,0,1,26.92-32.92,29.91,29.91,0,0,1,6.84-.53h.53l.84.11a24.5,24.5,0,0,1,4,.42,33.51,33.51,0,0,1,26.19,26.19,36.68,36.68,0,0,1,.74,6.73v38.28a28.26,28.26,0,0,1-.74,6.63A32.84,32.84,0,0,1,456.69,418.24Zm-1.47-95.92c0-2.63-2.21-5.26-4.63-5.26s-4.62,2.63-4.62,5.26v87.82c0,2.74,2.2,5.37,4.62,5.37s4.63-2.63,4.63-5.37Z"/><path class="cls-2" d="M541.68,393.42v17.46c0,2.52,2.11,4.63,5.89,4.63v3.36H507.29v-3.36c3.79,0,5.89-2.11,5.89-4.63V321.79c0-2.63-2.1-4.73-5.89-4.73v-3.37h39.34a27.07,27.07,0,0,1,5.78.63,33.3,33.3,0,0,1,27,32.92V360a33.46,33.46,0,0,1-27,32.92A60.73,60.73,0,0,1,541.68,393.42Zm9.26-71c0-2.73-2.21-5.36-4.63-5.36h-4.63v73h4.63c2.42,0,4.63-2.63,4.63-5.36Z"/><path class="cls-2" d="M694.3,463.68c0-3.89-2.1-6-4.63-6H657.6a26.47,26.47,0,0,1-26.51-26.82v-12.2A33.57,33.57,0,0,1,605.74,386v-38.6a33.52,33.52,0,0,1,27.14-33,30.33,30.33,0,0,1,12.3,0,33.49,33.49,0,0,1,26.51,26.3,36.5,36.5,0,0,1,.63,6.73V386a35.7,35.7,0,0,1-.63,6.73,33.59,33.59,0,0,1-26.51,26.4,29.22,29.22,0,0,1-6.1.53,24.33,24.33,0,0,1-4.73-.32V424a4.72,4.72,0,0,0,4.73,4.74h32a26.75,26.75,0,0,1,26.61,26.82v8.1ZM643.71,322.42c0-2.63-2.21-5.36-4.63-5.36s-4.73,2.73-4.73,5.36v72.79a14.78,14.78,0,0,1,9.36-5Zm0,71.1a11.18,11.18,0,0,0-9.36,10.94v11.47a34.3,34.3,0,0,0,4.63.31c2.52,0,4.73-2.63,4.73-5.36Z"/><path class="cls-2" d="M738.8,418.87V368h-4.63a4.69,4.69,0,0,0-4.63,4.73v38.18c0,2.52,2.11,4.63,5.89,4.63v3.36H695v-3.36c3.79,0,5.89-2.11,5.89-4.63V321.79c0-2.63-2.1-4.73-5.89-4.73v-3.37h39.34a38.61,38.61,0,0,1,5.89.42l.84.11c15,2.1,26.3,9.78,26.3,26.82,0,14.41-8.1,22.3-20.2,25.56a33.7,33.7,0,0,1,20.2,30.82v13.46c0,2.52,2.1,4.63,5.89,4.63v3.36Zm-4.42-101.81h-4.84V364.6h9.26c.21-13.57,0-27.14,0-40.7C738.8,320.74,737,317.06,734.38,317.06Z"/><path class="cls-2" d="M831.47,418.87c-10.94,0-22.62-4.84-29.56-13.57A22.57,22.57,0,0,1,797,391.74a14.2,14.2,0,1,1,28.4,0c0,7.36-5,12.51-12.31,12.51a9.17,9.17,0,0,1-2.84-.52,15.29,15.29,0,0,0-2.21-.32,1.5,1.5,0,0,0-1.47,1.47,1.36,1.36,0,0,0,.42,1.06,18.17,18.17,0,0,0,3,2.52,36.65,36.65,0,0,0,21.46,7.05,13.11,13.11,0,0,0,12.93-13.15,12.41,12.41,0,0,0-3.36-8.73c-7.68-8-15.46-15.88-23.35-23.77l-7.47-7.57c-1.05-1.06-2.31-2.21-3.37-3.27-4.31-4.94-7-10.83-7-17.56,0-17.25,16.4-27.77,31.66-27.77H863v29.87c-16.09,0-28.5-11.36-29.35-26.5h-2.2a10.78,10.78,0,0,0-7.68,18.3,35.84,35.84,0,0,0,2.84,2.94c9.25,9.37,18.61,18.83,27.87,28.19,6.94,6.94,11.36,14.94,11.36,25.25,0,6.52-3.37,12.51-7.78,16.72A39.24,39.24,0,0,1,831.47,418.87Z"/><path class="cls-2" d="M957.68,317.06h-4.41v93.82c0,2.52,2.1,4.63,6,4.63v3.36h-40.7v-3.36c3.89,0,6-2.11,6-4.63V317.06h-4.41a32.73,32.73,0,0,1-24.72,24.29,7.79,7.79,0,0,1-1.58.21h-1.68V313.69h93.5v27.87a12.17,12.17,0,0,1-3.26-.21A32.73,32.73,0,0,1,957.68,317.06Z"/><path class="cls-2" d="M1081.7,385.42c0,18-14.62,33.45-32.82,33.45a35.29,35.29,0,0,1-6.63-.52,33.49,33.49,0,0,1-27-32.93V321.69c0-2.53-2.1-4.63-5.89-4.63v-3.37h34.5v96.56c0,2.63,2.21,5.26,4.63,5.26a33.11,33.11,0,0,0,4.63-.32v-93.5c0-2.53-2.11-4.63-5.89-4.63v-3.37h40.39v3.37c-3.79,0-5.89,2.1-5.89,4.63Z"/><path class="cls-2" d="M1145.86,419l-29-94.77c-1.26-4-3.15-7.15-8.2-7.15v-3.37H1143l15.78,53,2.94-10a20.37,20.37,0,0,0,.84-6.1,19.42,19.42,0,0,0-.73-5.57l-9.26-31.35H1183v3.37c-5,0-6.94,3.15-8.21,7.15Z"/><path class="cls-2" d="M1251.57,324.21c-1.16-4-3.16-7.15-8.2-7.15v-3.37h34.81l15.88,53,3-10a23.49,23.49,0,0,0,.74-6.1,19.48,19.48,0,0,0-.63-5.57l-9.47-31.35h25.66l-31.23,105.18-20.93-62.37-18.41,62.37-30.61-94.66c-1.15-4-3.15-7.15-8.2-7.15v-3.37h34.81l15.88,53,3-10a24,24,0,0,0,.74-6.1,19.13,19.13,0,0,0-.63-5.57S1257.25,342.93,1251.57,324.21Z"/><path class="cls-2" d="M1372.22,418.87v-3.36c2.63,0,3.47-1.27,3.47-3.26a8.85,8.85,0,0,0-.53-2.84l-9.78-26.19c-2.52,3.68-4.94,7.25-4.94,11.88a9.62,9.62,0,0,0,.42,3l6.83,20.72H1334v-3.36c4.73,0,9.36-4.21,11.46-7.47l18.41-28.72-20.41-54.9c-1.15-3.15-4.94-7.36-9.15-7.36v-3.37h42.18v3.37c-2.63,0-3.47,1.26-3.47,3.26a7,7,0,0,0,.63,2.84l9.57,26c2.52-3.68,4.84-7.05,4.84-11.68a14.29,14.29,0,0,0-.42-3l-6.84-20.72h33.66v3.37c-4.84,0-9.36,4.21-11.47,7.47l-18.3,28.5,20.51,55.11c1.26,3.16,5,7.37,9.26,7.37v3.36Z"/><path class="cls-2" d="M1494.75,350.08c-3.47,11.68-6.94,23-6.94,23v37.76c0,2.52,2.11,4.63,5.89,4.63v3.36h-40.28v-3.36c3.79,0,5.89-2.11,5.89-4.63v-34.4c0-.1-3.68-12.2-7.36-24.61l-8.21-27.55c-1.15-4-3.15-7.26-8.2-7.26v-3.37h34.71l15.88,53.54,3-10.2a22.14,22.14,0,0,0,.11-11.68l-9.37-31.66h30.72v3.37c-5.05,0-7.05,3.26-8.21,7.26Z"/><path class="cls-2" d="M1567.12,411.4a5.35,5.35,0,0,0-.31,1.79,2.22,2.22,0,0,0,2.52,2.32h6.31A28.16,28.16,0,0,1,1603.51,389h1.58v29.87h-71.41l38.81-97.71a5.23,5.23,0,0,0,.31-1.68,2.29,2.29,0,0,0-2.52-2.42H1564a28.06,28.06,0,0,1-27.77,26.5h-1.68V313.69h71.41Z"/><path class="cls-3" d="M425.51,718.87h-6.1c-12,0-32.93-3-32.93-20.61a16.61,16.61,0,0,1,8-14.62c5.36-3.68,12.62-4.95,18.61-5.68a33.35,33.35,0,0,0,12-3.79,19.15,19.15,0,0,0,9.79-13.25,17.45,17.45,0,0,0,.31-3.37,28.41,28.41,0,0,0-.21-3c-1.37-8-6.31-11.36-14.51-11.36a42.87,42.87,0,0,0-13.26,1.79c-.42.11-.84.21-1.15.32-.95.21-2.32.84-2.32,2,0,.64.11.74,1.37,1.27,5.15,2.1,9.89,7,9.89,13.56a14.26,14.26,0,1,1-28.51,0c0-4.83,3.37-9.67,6.42-12.72,7.15-7.26,18-9.57,27.56-9.57,8.52,0,17.56,2.84,24.08,8.73,4.74,4.41,8.21,11.36,8.21,17.88v44.49c0,2.52,2.1,4.63,5.89,4.63v3.36Zm-1.27-40.49a31.17,31.17,0,0,1-4.31,1.58c-2.73.84-4.94,3-4.94,5.68v25.24a4.58,4.58,0,0,0,4.52,4.63h4.73Z"/><path class="cls-3" d="M518.7,718.87H485.57V621.79c0-2.63-2.11-4.73-5.89-4.73v-3.37h34.39v25.46a51.82,51.82,0,0,1,10.73.63,33.29,33.29,0,0,1,27,32.92v12.72a33.48,33.48,0,0,1-26.92,32.93A42.07,42.07,0,0,1,518.7,718.87Zm-4.63-3.36h4.63c2.42,0,4.63-2.63,4.63-5.26V647.88c0-2.74-2.21-5.37-4.63-5.37h-4.63Z"/><path class="cls-3" d="M637,710.14c-6.73,6.1-16.09,8.73-24.72,8.73-19.66,0-34.07-14.51-34.07-34.29,0-2.73-.11-5.57-.11-8.31a55.3,55.3,0,0,1,.21-5.89c1.47-18.09,16.09-30.6,33.76-30.6,11.15,0,24.09,4.41,30,15a16.07,16.07,0,0,1,2.1,7.57,14.19,14.19,0,0,1-14,14,14.46,14.46,0,0,1-14.3-14.31A14.23,14.23,0,0,1,625,648.72a3.21,3.21,0,0,0,1.05-.42,1.26,1.26,0,0,0,.84-1.27c0-.52-.31-1-1.15-1.47C622.52,643.77,616.1,643,612,643c-3.16,0-5.16,2.21-5.37,5.47-.31,4.41-.1,9-.1,13.56v37.45c.1,3.47-.11,7.05.1,10.41.21,3.58,2.11,5.68,5.58,5.68A41.07,41.07,0,0,0,622.83,714a24.27,24.27,0,0,0,2.63-.84,2.32,2.32,0,0,0,1.37-1.26c.1-.11.1-.21.1-.42a.86.86,0,0,0-.52-.84,8,8,0,0,0-1.58-.95,14.07,14.07,0,0,1-8.94-13.15,14.39,14.39,0,0,1,14.2-14.41c7.36,0,14.09,6.1,14.09,13.78C644.18,701.52,640.82,706.78,637,710.14Z"/><path class="cls-3" d="M742.64,718.87h-39a39.42,39.42,0,0,1-6.1-.52,33.51,33.51,0,0,1-27-33V672.59a33.48,33.48,0,0,1,27-32.92,60.78,60.78,0,0,1,10.73-.52V621.69c0-2.53-2.1-4.63-5.89-4.63v-3.37h34.4v97.08c0,2.63,2.1,4.74,5.89,4.74Zm-34.4-3.36v-73h-4.63c-2.41,0-4.62,2.63-4.62,5.37v62.26a5.19,5.19,0,0,0,5,5.37Z"/><path class="cls-3" d="M803.64,696.15a14.29,14.29,0,0,1,14.41-14.09c7.37.1,14.1,6.31,14,14,0,4.63-2.42,9-5.15,12.3-6.73,8.1-15.57,10.63-25.56,10.52a69.24,69.24,0,0,1-8.1-.73,6.82,6.82,0,0,0-.84-.21c-15.15-3.58-26.08-16.52-26.08-32.51V673A33.06,33.06,0,0,1,800,639.78a32.67,32.67,0,0,1,5.47.52,33.07,33.07,0,0,1,26.93,32.61v6l-37.66-.42V710c0,2.63,2.32,6,4.84,6.31a11.36,11.36,0,0,0,1.79.1c2.84,0,14.73-.42,14.83-4.63,0-.73-.31-1.15-1.26-1.47A14.24,14.24,0,0,1,803.64,696.15Zm-8.94-20.93h4.63A4.58,4.58,0,0,0,804,670.7V648.4c0-2.73-2.21-5.26-4.63-5.36a22.67,22.67,0,0,0-4.63.42Z"/><path class="cls-3" d="M899.68,640.83A14.4,14.4,0,0,1,914,626.42c1,0,2.11.31,3.16.31a1.51,1.51,0,0,0,1.47-1.47,1.47,1.47,0,0,0-.32-.94,11.78,11.78,0,0,0-2.41-2.21,23.44,23.44,0,0,0-14.52-5.05h-6.1c-2.63,0-4.84,2.52-4.84,5.36V680.8a23,23,0,0,1,19.78-11.26,12.52,12.52,0,1,1-12.42,12.52c0-.95.32-1.79.32-2.74a1.14,1.14,0,0,0-1.05-1.05,1.57,1.57,0,0,0-.63.21c-3.68,3.16-6,9.47-6,14.41v18c0,2.52,2.11,4.63,5.89,4.63v3.36H856v-3.36c3.78,0,5.89-2.11,5.89-4.63V660.29c0-13-1.37-23.46,7.57-34.4A32.64,32.64,0,0,1,889,614.32a27.18,27.18,0,0,1,6.52-.63h5.89A26.37,26.37,0,0,1,920.61,622a27.2,27.2,0,0,1,7.57,18.83,14.25,14.25,0,1,1-28.5,0Z"/><path class="cls-3" d="M951.12,690.47c-.74-5.68-.32-11.46-.32-17.14a33.68,33.68,0,0,1,19.14-30.5,39.68,39.68,0,0,1,7.89-2.53,42.14,42.14,0,0,1,6.21-.63,30.16,30.16,0,0,1,6.1.63,23.4,23.4,0,0,1,4.1,1.05,17.91,17.91,0,0,1,2.73,1.06,21.47,21.47,0,0,1-1.79-8.52A20,20,0,0,1,1015,613.8a14.46,14.46,0,0,1,0,28.92,13.93,13.93,0,0,1-13.57-10,1.49,1.49,0,0,0-1.47-1.05c-.95,0-1.47.52-1.47,2.21,0,10,7.78,16.72,18.72,16.72v35.55a33.63,33.63,0,0,1-27,33.13,38,38,0,0,1-6,.53,32.74,32.74,0,0,1-6.2-.53,24.75,24.75,0,0,0-4.84-.63,27.65,27.65,0,0,0-7.15,1.16,24.14,24.14,0,0,0-16,22.4c0,3.26,1.37,13.25,5.26,13.25a3.33,3.33,0,0,0,2.84-1.26l5.78-8.2,8-11.15a23.41,23.41,0,0,1,18.94-9.68c22.61,0,26.4,26.3,26.4,42.6v1.68H993.71l14.1-19.46a12.21,12.21,0,0,0,1.57-6.31,12.57,12.57,0,0,0-3-7.57l-18.19,25.14c-3.47,4.84-8,8.2-14.31,8.2a27.29,27.29,0,0,1-27.24-27.24c0-12,7.37-21.67,18.3-25.56a1.7,1.7,0,0,0,1.06-1.47,1.21,1.21,0,0,0-.43-1.05s0-.11,1.06.63C956.37,706.35,952.17,699.31,951.12,690.47Zm37.54-47A22.57,22.57,0,0,0,984,643c-2.42,0-4.63,2.63-4.63,5.36v62.69c0,2.73,2.1,5.36,4.63,5.36a23.22,23.22,0,0,0,4.62-.42Z"/><path class="cls-3" d="M1086.17,718.87v-76a33.11,33.11,0,0,0-4.63-.32,4.69,4.69,0,0,0-4.62,4.73v63.64c0,2.52,2.1,4.63,5.88,4.63v3.36h-40.38v-3.36c3.78,0,5.89-2.11,5.89-4.63V621.79c0-2.63-2.11-4.73-5.89-4.73v-3.37h34.5v25.46a53.28,53.28,0,0,1,10.83.63,33.31,33.31,0,0,1,27,32.92v38.18c0,2.52,2.1,4.63,5.89,4.63v3.36Z"/><path class="cls-3" d="M1141.71,718.87v-3.36c3.68,0,5.68-2.11,5.68-4.63V658.39c0-2.52-2-4.62-5.68-4.62V650.4h33.45v60.48c0,2.52,2,4.63,5.68,4.63v3.36Zm5.68-90.77a13.89,13.89,0,1,1,13.88,14.41A14.12,14.12,0,0,1,1147.39,628.1Z"/><path class="cls-3" d="M1237.63,742.75c0,15.14-12.09,26.08-26.39,26.5l-6.21.21h-3c-14.72,0-26.5-12.2-26.5-27.13a14,14,0,1,1,14.09,14.41,11.47,11.47,0,0,1-2.73-.32h-.42a1.44,1.44,0,0,0-1.48,1.47,1.19,1.19,0,0,0,.32.84,22.7,22.7,0,0,0,16.72,7.37h3a4.61,4.61,0,0,0,4.52-4.74V658.81c0-2.52-2-4.62-5.78-4.62v-3.47h33.86Zm-28.08-114.54a14,14,0,1,1,14.1,14.41A14.23,14.23,0,0,1,1209.55,628.21Z"/><path class="cls-3" d="M1305.06,718.87V673.75a1.44,1.44,0,0,0-1.48-1.47c-.52,0-.63,0-1.15.52l-6.63,6.42v31.66c0,2.52,2.11,4.63,5.89,4.63v3.36H1261.3v-3.36c3.79,0,5.89-2.11,5.89-4.63V621.79c0-2.63-2.1-4.73-5.89-4.73v-3.37h34.5v60.9l9.26-9v-26.4h32.08l-27,26.29a33.47,33.47,0,0,1,23.56,32v13.46c0,2.52,2.1,4.63,5.89,4.63v3.36Z"/><path class="cls-3" d="M1399.72,718.87H1360.6v-3.36c3.68,0,5.68-2.11,5.68-4.74v-89c0-2.63-2-4.73-5.68-4.73v-3.37H1394v97.08c0,2.63,2,4.74,5.68,4.74Z"/><path class="cls-3" d="M1503.33,718.87V648.51a5.19,5.19,0,0,0-5.16-5.26h-4.31v67.63c0,2.52,2.21,4.63,6,4.63v3.36H1465v-71a4.69,4.69,0,0,0-4.73-4.63h-4.63v67.63c0,2.52,2.11,4.63,5.89,4.63v3.36h-40.81v-3.36c3.89,0,6-2.11,6-4.63v-63c0-2.53-2.11-4.63-6-4.63v-3.37h77.83a39.51,39.51,0,0,1,6.21.53l.84.21A32.82,32.82,0,0,1,1524.47,652a29.75,29.75,0,0,1,7.26,16.3c.84,5.37.42,11,.42,17.46v25.14c0,2.52,2.1,4.63,6,4.63v3.36Z"/><path class="cls-3" d="M387.75,868.87V798.51a5.1,5.1,0,0,0-5.05-5.26h-4.21v67.63c0,2.52,2.1,4.63,5.89,4.63v3.36H344v-3.36c3.79,0,5.89-2.11,5.89-4.63v-63c0-2.53-2.1-4.63-5.89-4.63v-3.37h39.13a40.54,40.54,0,0,1,6.2.53l.74.21A32.55,32.55,0,0,1,408.78,802a31.42,31.42,0,0,1,7.15,16.3c.74,5.37.43,11,.43,17.46v25.14c0,2.52,2.1,4.63,5.89,4.63v3.36Z"/><path class="cls-3" d="M485.88,790.41a33.29,33.29,0,0,1,25.46,25.87,35.44,35.44,0,0,1,.63,6.63v12.62c0,15.36-10.63,29.56-26.09,32.5l-.84.21a33.5,33.5,0,0,1-6.52.53,26,26,0,0,1-5.68-.53v-.1A2.48,2.48,0,0,1,472,868a33.17,33.17,0,0,1-26.08-32.18V822.7c0-15.46,11-29.35,26.08-32.29l.84-.11a33.52,33.52,0,0,1,6.52-.63,35.26,35.26,0,0,1,5.68.63C485.25,790.3,485.57,790.41,485.88,790.41Zm-2.31,7.89c0-2.63-2.21-5.26-4.63-5.26s-4.63,2.63-4.63,5.26v61.84c0,2.74,2.21,5.37,4.63,5.37s4.63-2.63,4.63-5.37Z"/><path class="cls-3" d="M570,869.61v17.46c0,2.52,2.1,4.63,5.89,4.63v3.36H535.64V891.7c3.78,0,5.89-2.11,5.89-4.63V798c0-2.63-2.11-4.73-5.89-4.73v-3.37H575a35.32,35.32,0,0,1,5.79.53,33.49,33.49,0,0,1,27,33v12.73a33.46,33.46,0,0,1-27,32.92A60.73,60.73,0,0,1,570,869.61Zm9.26-71c0-2.73-2.21-5.36-4.63-5.36H570v73h4.63c2.42,0,4.63-2.63,4.63-5.26Z"/><path class="cls-3" d="M666,895.06V891.7c3.79,0,5.89-2.11,5.89-4.74V869.61a60.73,60.73,0,0,1-10.73-.53,33.49,33.49,0,0,1-27-33V823.33a33.28,33.28,0,0,1,27-32.82,27.09,27.09,0,0,1,5.79-.63h39.33v3.37c-3.78,0-5.89,2.1-5.89,4.63V887c0,2.63,2.11,4.74,5.89,4.74v3.36Zm5.89-101.81h-4.63c-2.42,0-4.63,2.63-4.63,5.36v62.27c0,2.73,2.21,5.36,4.63,5.36h4.63Z"/><path class="cls-3" d="M770.93,804.19c0-1.05.32-2.11.32-3.16a1.44,1.44,0,0,0-1.47-1.47,1.18,1.18,0,0,0-.84.31,10,10,0,0,0-1.79,1.9,22.92,22.92,0,0,0-5.47,14.93v44.18c0,2.52,2.1,4.63,5.89,4.63v3.36H727.28v-3.36c3.79,0,5.89-2.11,5.89-4.63v-63c0-2.63-2.1-4.63-5.89-4.63v-3.37h34.4v14a27,27,0,0,1,23.56-14,14.31,14.31,0,1,1-14.31,14.31Z"/><path class="cls-3" d="M856.66,868.87a41.42,41.42,0,0,1-22.93-7c-5.47-3.68-10.62-9.46-10.62-16.82,0-7.89,7.36-12.73,14.2-12.73s14.3,4.84,14.3,12.73c0,6.94-4.73,12.72-12,12.72-1,0-1.79-.21-2.63-.21a1.34,1.34,0,0,0-1.47,1,.84.84,0,0,0,.1.53,39.21,39.21,0,0,0,21.56,6.42c7.16,0,16-4,16-11.26a7.52,7.52,0,0,0-2.94-6.41l-34.4-24.3c-5.05-3.58-9.36-8.1-9.36-15,0-5.47,2.74-9.78,6.94-12.94,6.84-5,14.83-5.78,22.72-5.78h32.5v21.56l-28.29-18.2a23.81,23.81,0,0,0-6.1.42c-1.58.53-2.63,1.48-2.63,3.9a4,4,0,0,0,1.89,3.68c5.16,3.47,10.31,7,15.36,10.62a95,95,0,0,1,8.31,6l.21.22c8.1,5.68,14.62,13.46,14.62,24.29,0,6.42-4.1,13.89-8.84,17.88C876.22,866,865.6,868.87,856.66,868.87Z"/><path class="cls-3" d="M920.93,842.05V789.88c14.09,0,24.61-11.36,24.61-26.19h3.15v26.19h11.89v3.37H948.69v67.52a4.68,4.68,0,0,0,4.53,4.74h7.36v3.36H946.7C932.6,868.87,920.93,856.78,920.93,842.05Z"/><path class="cls-3" d="M1020.74,868.87a31.06,31.06,0,0,1-6.2-.63l-.74-.1a32.91,32.91,0,0,1-18.61-11.36,31.64,31.64,0,0,1-7.26-16.31c-.74-5.36-.42-11-.42-17.46V797.88c0-2.53-2.11-4.63-5.89-4.63v-3.37h34.5v70.37a5.16,5.16,0,0,0,5,5.26h4.21V797.88c0-2.53-2.1-4.63-5.89-4.63v-3.37h40.39v3.37c-3.79,0-5.89,2.1-5.89,4.63v63c0,2.52,2.1,4.63,5.89,4.63v3.36Z"/><path class="cls-3" d="M1120.67,867.5c-1.16-1.15-6.73-9.57-31.13-69.1-1.16-2.84-4.63-5.15-8.63-5.15v-3.37h35.76l16.62,39.76,3.26-7.68a11.65,11.65,0,0,0,.11-8.2l-10-23.88h31.87v3.37c-3.89,0-7.36,2.31-8.52,5.15C1128.35,850.36,1122.35,863.93,1120.67,867.5Z"/><path class="cls-3" d="M1256.67,871l-18.93-45.13L1218.8,871l-30.5-72.58a9.51,9.51,0,0,0-8.73-5.26v-3.26h34l17.88,42.39,2.31-5.47a15.16,15.16,0,0,0,1-5.36,12.34,12.34,0,0,0-.84-4.84l-7.68-18.2a9.37,9.37,0,0,0-8.63-5.26v-3.26h34l17.77,42.39,2.31-5.47a13.12,13.12,0,0,0,1.06-5.36,12.4,12.4,0,0,0-1-4.84l-7.57-18.2a9.41,9.41,0,0,0-8.73-5.26v-3.26h35.44Z"/><path class="cls-3" d="M1349.23,868.87v-3.36c2.21,0,2.84-.32,3.16-.85a3.32,3.32,0,0,0-.21-2.94l-9.57-19.14-3.26,3.78c-2,2.32-2.53,5.37-1.58,7.26l7.68,15.25h-34.19v-3.36c3.69,0,8.94-2.42,11.89-5.68C1329,853,1335,846.15,1341,839.42l-20.51-40.81c-1.37-2.84-5.36-5.36-9.26-5.36v-3.37h43.65v3.37c-2.31,0-2.94.31-3.15.84a2.93,2.93,0,0,0,.1,2.94l9.57,19,3.26-3.78c2-2.32,2.53-5.37,1.58-7.26l-7.57-15.15h34.08v3.37c-6.42,0-8.94,2.42-11.89,5.68l-17.77,20.3,20.4,40.91a11.07,11.07,0,0,0,9.26,5.37v3.36Z"/><path class="cls-3" d="M1414.55,919.46c-8.62,0-18.82-4.2-18.82-15.14a14.2,14.2,0,1,1,28.4,0,13.06,13.06,0,0,1-1.48,5.89c-.31.73-.63,1.36-.84,1.89a1.89,1.89,0,0,0-.31.84,1.44,1.44,0,0,0,1.47,1.47,1.15,1.15,0,0,0,.74-.21,23.39,23.39,0,0,0,12.51-12.83l14.1-34.08-28.4-68.78a9.48,9.48,0,0,0-8.63-5.26v-3.37H1447l16.41,39.65a1.22,1.22,0,0,0,1.26.74,1.32,1.32,0,0,0,1.26-.74l3.16-7.67-13.15-32h30c-16,38.6-31.35,75.94-46.49,112.75A26.93,26.93,0,0,1,1414.55,919.46Z"/><path class="cls-3" d="M1540.46,861.72a3.94,3.94,0,0,0-.42,1.79,1.86,1.86,0,0,0,2.1,2h5.57l27.46-33.14v36.5h-67L1543.82,797a4.22,4.22,0,0,0,.53-1.89c0-1.26-.74-2-2.21-2h-5.47l-27.56,33.24v-36.6h67.11Z"/></g></svg>