<svg xmlns="http://www.w3.org/2000/svg" viewBox="0 0 1920 1080"><defs><style>.cls-1{fill:#fbf6f2;}.cls-2{fill:#fc6565;}.cls-3{fill:#ff958b;}.cls-4{fill:#316287;}.cls-5{fill:#6ea4c3;}.cls-6{fill:none;stroke:#f4e9df;stroke-linecap:round;stroke-linejoin:round;stroke-width:2px;}</style></defs><g id="Bg"><rect class="cls-1" width="1920" height="1080"/></g><g id="Layer_1" data-name="Layer 1"><path class="cls-2" d="M352.35,297.54a23,23,0,0,1,3.47.65c1.08.29,2.1.62,3.05,1v2H340.26v-2a12.55,12.55,0,0,1,2.78-1c.95-.23,1.88-.44,2.79-.62V257.25a21.52,21.52,0,0,1-2.92-.71c-.91-.29-1.79-.62-2.65-1v-2h6.11q2.72,0,5.91-.27t6.12-.27a30.15,30.15,0,0,1,6.52.71,16.07,16.07,0,0,1,5.67,2.42,12.61,12.61,0,0,1,4,4.51,14.64,14.64,0,0,1,1.53,7,14.1,14.1,0,0,1-1.56,6.86,13.77,13.77,0,0,1-4.18,4.69,18.16,18.16,0,0,1-5.94,2.68,27.51,27.51,0,0,1-6.87.85h-1.05l-1.53,0c-.54,0-1.06-.06-1.56-.11s-.86-.09-1.09-.13Zm4.62-41c-1.08,0-2,0-2.65.07a15.58,15.58,0,0,0-2,.27v22a3.56,3.56,0,0,0,1,.17c.43,0,.88,0,1.36.1s.94.07,1.39.07h1.09a15.21,15.21,0,0,0,4.48-.65,9.78,9.78,0,0,0,3.7-2.07,10.13,10.13,0,0,0,2.55-3.6,13.1,13.1,0,0,0,.95-5.23c0-3.72-1.05-6.5-3.16-8.36S360.69,256.57,357,256.57Z"/><path class="cls-2" d="M409.36,301.14h-19.1v-2c1-.36,2-.67,3-.95a31.21,31.21,0,0,1,3.29-.68V257.12H386.19l-3.6,9.71h-1.7c-.14-.9-.25-1.93-.34-3.09s-.17-2.33-.24-3.53-.13-2.38-.17-3.54-.07-2.18-.07-3.09h39.48c0,.91,0,1.93-.07,3.06s-.1,2.3-.17,3.5-.14,2.38-.21,3.53-.17,2.21-.31,3.16H417l-3.58-9.71H403.11v40.42c1.17.23,2.27.46,3.29.68a17.61,17.61,0,0,1,3,.95Z"/><path class="cls-2" d="M447.54,296.46a7.1,7.1,0,0,0,2.11,1.39,10,10,0,0,0,3.87.58,14.17,14.17,0,0,0,4.08-.58,9.78,9.78,0,0,0,3.29-1.7,8.21,8.21,0,0,0,2.21-2.72,7.89,7.89,0,0,0,.82-3.63,6.52,6.52,0,0,0-1.67-4.55,17.05,17.05,0,0,0-4.14-3.27c-1.66-1-3.46-1.87-5.41-2.78a30.38,30.38,0,0,1-5.4-3.23,17,17,0,0,1-4.14-4.48,12,12,0,0,1-1.67-6.56,12.22,12.22,0,0,1,1-5.1,10.6,10.6,0,0,1,2.89-3.8,13.33,13.33,0,0,1,4.45-2.41,18.33,18.33,0,0,1,5.78-.85,41.11,41.11,0,0,1,7.57.64,22.27,22.27,0,0,1,5.4,1.6,23,23,0,0,1-.17,2.68c-.11,1-.25,2.08-.4,3.16s-.33,2.14-.51,3.16-.37,1.92-.55,2.69h-1.76l-2.72-9.31a12.2,12.2,0,0,0-3.12-.82,28.4,28.4,0,0,0-4-.27,8.06,8.06,0,0,0-5.63,1.94,7,7,0,0,0-2.12,5.4,6.87,6.87,0,0,0,1.67,4.69,17,17,0,0,0,4.21,3.39q2.52,1.5,5.43,2.89a34.89,34.89,0,0,1,5.43,3.23,16.88,16.88,0,0,1,4.21,4.35,11,11,0,0,1,1.67,6.25,13.49,13.49,0,0,1-1.12,5.57,11.7,11.7,0,0,1-3.22,4.28,14.71,14.71,0,0,1-5.17,2.72,23.46,23.46,0,0,1-6.93.95,26.74,26.74,0,0,1-7.68-1,14.74,14.74,0,0,1-4.82-2.17q.06-1.15.24-2.79c.11-1.09.25-2.21.41-3.36s.32-2.28.5-3.37.37-2,.55-2.78h1.76Z"/><path class="cls-2" d="M504.07,296.39a6.75,6.75,0,0,1-1.7,2.17,12.25,12.25,0,0,1-2.65,1.77,16.12,16.12,0,0,1-3.26,1.19,15,15,0,0,1-3.6.44,18.47,18.47,0,0,1-7.07-1.26,13.18,13.18,0,0,1-5.09-3.6,15.78,15.78,0,0,1-3.09-5.6,23.61,23.61,0,0,1-1.06-7.34q0-8.7,4-13.25t11.35-4.55a17.39,17.39,0,0,1,4.69.64,11.07,11.07,0,0,1,4.11,2.14,10.91,10.91,0,0,1,2.92,4,14.86,14.86,0,0,1,1.12,6.15c0,.77,0,1.55-.1,2.34a24.3,24.3,0,0,1-.38,2.55h-21.2a19,19,0,0,0,.72,5.33,12.58,12.58,0,0,0,2.14,4.32,10,10,0,0,0,3.6,2.88,11.47,11.47,0,0,0,5.1,1.06,18.08,18.08,0,0,0,4.82-.68,9.16,9.16,0,0,0,3.67-1.77Zm-12.43-27a7.06,7.06,0,0,0-5.92,2.61c-1.35,1.75-2.17,4.82-2.44,9.21h15c0-.41.07-.8.1-1.19s0-.76,0-1.12a12.83,12.83,0,0,0-1.63-6.93A5.59,5.59,0,0,0,491.64,269.35Z"/><path class="cls-2" d="M524.52,272.27a7.83,7.83,0,0,0-1.87,1.66,11.34,11.34,0,0,0-2,3.71v20.18a16.15,16.15,0,0,1,2.71.51,11.85,11.85,0,0,1,2.72,1.12v1.69h-16v-1.69a11.36,11.36,0,0,1,2.31-1c.72-.23,1.45-.43,2.17-.61V271.11l-4.48-.54V268.8a29.21,29.21,0,0,1,4.48-1.53c1.54-.38,3-.69,4.42-.91h1.7v7.2h.27a12.11,12.11,0,0,1,1.73-2.72,15,15,0,0,1,2.58-2.44,11.36,11.36,0,0,1,3.2-1.67,8.24,8.24,0,0,1,3.56-.37,13.69,13.69,0,0,1,.85,1.93c.25.71.49,1.44.72,2.21v1.77Z"/><path class="cls-2" d="M551.9,301.14H536.82v-1.69a13.93,13.93,0,0,1,2.1-.92c.73-.25,1.52-.49,2.38-.71V271.11l-4.48-.54V268.8a33,33,0,0,1,4.28-1.42q2.31-.61,4.62-1h1.7v31.46c.9.22,1.72.46,2.44.71a11.12,11.12,0,0,1,2,.92ZM540,255.62a3.78,3.78,0,0,1,1.19-2.92,4.51,4.51,0,0,1,3.16-1.09,4.39,4.39,0,0,1,3.12,1.09,3.83,3.83,0,0,1,1.16,2.92,3.72,3.72,0,0,1-1.16,2.89,4.46,4.46,0,0,1-3.12,1.05,4.58,4.58,0,0,1-3.16-1.05A3.68,3.68,0,0,1,540,255.62Z"/><path class="cls-2" d="M575.27,250.05c.41,0,.89,0,1.43.07s1.11.1,1.7.17,1.15.16,1.7.27a13.08,13.08,0,0,1,1.42.37,40.26,40.26,0,0,1-.57,4.18,25.67,25.67,0,0,1-.92,3.5h-1.7l-3-5.84a11.78,11.78,0,0,0-3.36.41,4.48,4.48,0,0,0-2.31,1.56,7.81,7.81,0,0,0-1.36,3.33,29.3,29.3,0,0,0-.44,5.71v3.39h7.81v3.54h-7.81v27.12a24.73,24.73,0,0,1,6.52,1.62v1.69H557.27v-1.69a13.4,13.4,0,0,1,4.48-1.62V270.71h-5.16v-1.83a18.5,18.5,0,0,1,5.16-2.32v-2.38a20.26,20.26,0,0,1,1-7,9.86,9.86,0,0,1,7.17-6.56A22.08,22.08,0,0,1,575.27,250.05Z"/><path class="cls-3" d="M294.65,479.11H284.39v-1.34a18.08,18.08,0,0,1,3.33-1.11l11.69-30.45h1.34l11.69,30.45c.61.12,1.22.26,1.82.41a6.78,6.78,0,0,1,1.69.7v1.34H304v-1.34c.61-.25,1.25-.46,1.89-.65s1.28-.34,1.9-.46l-3.13-8.46h-11l-3,8.46a16.37,16.37,0,0,1,4,1.11Zm0-13.31h9.28L300.28,456l-.87-4h-.09l-1.15,4.07Z"/><path class="cls-3" d="M317.29,479.11v-1.34a11.85,11.85,0,0,1,3.79-1.11v-27.4a18.24,18.24,0,0,1-1.9-.48c-.64-.2-1.28-.43-1.89-.67v-1.34h4.9c.58,0,1.14,0,1.68,0l1.69-.09,1.89-.09c.68,0,1.45-.05,2.31-.05a24.43,24.43,0,0,1,3.77.3,10.83,10.83,0,0,1,3.46,1.13,6.71,6.71,0,0,1,2.52,2.33,7.1,7.1,0,0,1,1,3.91,8,8,0,0,1-.37,2.4A7.27,7.27,0,0,1,339,458.8a7.8,7.8,0,0,1-4.64,3V462a12.74,12.74,0,0,1,2.75.78,8.48,8.48,0,0,1,2.42,1.5,7.21,7.21,0,0,1,1.73,2.34,7.5,7.5,0,0,1,.67,3.32,8,8,0,0,1-1.1,4.3,9.39,9.39,0,0,1-2.89,3,12.68,12.68,0,0,1-4,1.68,19.69,19.69,0,0,1-4.58.53c-1.08,0-2.29,0-3.65-.13s-2.66-.14-3.93-.14Zm10.26-17.65c.52,0,1.14,0,1.87-.07s1.31-.1,1.78-.16a7.79,7.79,0,0,0,3.48-2.38,5.86,5.86,0,0,0,1.37-3.86,5.6,5.6,0,0,0-1.83-4.57,7.34,7.34,0,0,0-4.87-1.53c-1,0-1.77,0-2.45.05a15,15,0,0,0-1.66.14v12.38ZM329.62,477a9.37,9.37,0,0,0,3.12-.51,7.27,7.27,0,0,0,2.5-1.41,6.53,6.53,0,0,0,1.64-2.17,6.32,6.32,0,0,0,.6-2.75,6,6,0,0,0-.72-3.07,5.38,5.38,0,0,0-1.94-1.94,8.12,8.12,0,0,0-2.82-1,18.68,18.68,0,0,0-3.3-.28h-3.46v12.75a8.2,8.2,0,0,0,1.54.28C327.38,477,328.33,477,329.62,477Z"/><path class="cls-3" d="M369.64,470.7h1.2c.15.86.29,1.95.41,3.26a25.77,25.77,0,0,1,.09,3.81,5.59,5.59,0,0,1-1.66.9,17.52,17.52,0,0,1-2.05.58,18.26,18.26,0,0,1-2.22.32c-.76.06-1.47.09-2.15.09a22.38,22.38,0,0,1-6.93-1,13.06,13.06,0,0,1-5.15-3,13.4,13.4,0,0,1-3.24-5.2,22.42,22.42,0,0,1-1.13-7.5,21.09,21.09,0,0,1,1.25-7.7,14,14,0,0,1,3.37-5.17,13,13,0,0,1,4.95-2.93,18.66,18.66,0,0,1,5.91-.93,28.49,28.49,0,0,1,5.13.39,14.49,14.49,0,0,1,3.65,1.18c0,.5,0,1.07-.05,1.73s-.08,1.37-.14,2.11-.14,1.46-.23,2.17-.18,1.35-.28,1.94h-1.2l-2.4-6.65a4.36,4.36,0,0,0-1.68-.37c-.78-.06-1.56-.1-2.33-.1a11.21,11.21,0,0,0-4.35.86,9.65,9.65,0,0,0-3.59,2.63,13.44,13.44,0,0,0-2.47,4.48,22,22,0,0,0-.09,12.29,12.81,12.81,0,0,0,2.4,4.53,10.34,10.34,0,0,0,3.82,2.87,12.59,12.59,0,0,0,5.11,1,12,12,0,0,0,2.54-.23,2.57,2.57,0,0,0,1.33-.6Z"/><path class="cls-3" d="M375.46,479.11v-1.34a15.43,15.43,0,0,1,3.79-1.11v-27.4c-.71-.15-1.39-.33-2-.53s-1.23-.41-1.75-.62v-1.34h4.71c.52,0,1.14,0,1.85,0l2.19-.12,2.17-.13c.7-.05,1.27-.07,1.74-.07q7.85,0,12.08,4.2t4.23,11.92a21.4,21.4,0,0,1-1,6.77,14.46,14.46,0,0,1-3.17,5.38,14.68,14.68,0,0,1-5.38,3.56,20.85,20.85,0,0,1-7.69,1.29c-.47,0-1,0-1.58-.07l-1.84-.13-2-.14c-.66-.05-1.28-.07-1.87-.07Zm12-30.31-2.31,0a10.49,10.49,0,0,0-1.76.16v28a5.55,5.55,0,0,0,.84.07l1.29.05,1.32,0h.9a11.22,11.22,0,0,0,5.4-1.2,10.41,10.41,0,0,0,3.63-3.21,13.89,13.89,0,0,0,2.06-4.64,23.31,23.31,0,0,0,.64-5.55,19.09,19.09,0,0,0-.62-4.69,13.75,13.75,0,0,0-2-4.43,11.16,11.16,0,0,0-3.72-3.31A11.42,11.42,0,0,0,387.47,448.8Z"/><path class="cls-3" d="M430.07,446.77c0,1.23-.09,2.47-.16,3.72s-.2,2.5-.35,3.76h-1.2l-1.9-5.08H416.39v12.24h7.53l1.8-3.42h1.16a80.83,80.83,0,0,1,0,9.34h-1.16l-1.8-3.52h-7.53v12.9H427l2.26-5.55h1.16c.21,1.29.37,2.6.46,3.93a35.83,35.83,0,0,1,.05,4H408.17v-1.34a15.43,15.43,0,0,1,3.79-1.11v-27.4a18.24,18.24,0,0,1-1.9-.48c-.65-.2-1.28-.43-1.89-.67v-1.34Z"/><path class="cls-3" d="M442.82,476.66a14.89,14.89,0,0,1,4,1.11v1.34H435.06v-1.34a15,15,0,0,1,1.61-.65,16.57,16.57,0,0,1,1.71-.46v-27.4a15.75,15.75,0,0,1-1.85-.53,15.16,15.16,0,0,1-1.47-.62v-1.34h21.67c0,1.2-.09,2.43-.17,3.69s-.19,2.53-.34,3.79H455l-1.9-5.08h-10.3v13.12H451l1.67-2.91h1.1a32.42,32.42,0,0,1,.21,4.18q0,2.1-.21,4.23h-1.1l-1.67-3.1h-8.22Z"/><path class="cls-3" d="M487,476.89a16.6,16.6,0,0,1-2.06,1,24.23,24.23,0,0,1-2.49.88c-.88.26-1.76.48-2.64.65a12.93,12.93,0,0,1-2.47.25,20.88,20.88,0,0,1-6.65-1,12.91,12.91,0,0,1-5-3.05,13.82,13.82,0,0,1-3.21-5.2,22.22,22.22,0,0,1-1.13-7.48,20.19,20.19,0,0,1,1.32-7.72,14.21,14.21,0,0,1,3.51-5.2,13.31,13.31,0,0,1,5-2.91,18.46,18.46,0,0,1,5.7-.9,28.73,28.73,0,0,1,5.15.39,14.33,14.33,0,0,1,3.68,1.18c0,.46,0,1,0,1.71s-.08,1.39-.14,2.13-.14,1.47-.23,2.19-.18,1.36-.28,1.92h-1.2l-2.4-6.65a4.43,4.43,0,0,0-1.7-.37c-.8-.06-1.59-.1-2.35-.1a11.36,11.36,0,0,0-4.38.86,9.67,9.67,0,0,0-3.62,2.63,13.42,13.42,0,0,0-2.46,4.48,19.89,19.89,0,0,0-.92,6.36,18.24,18.24,0,0,0,.9,5.91,13.73,13.73,0,0,0,2.49,4.51,11.06,11.06,0,0,0,3.73,2.88,10.63,10.63,0,0,0,4.63,1,8.34,8.34,0,0,0,1.8-.19,12.94,12.94,0,0,0,1.61-.43,6.78,6.78,0,0,0,1.22-.54,3.24,3.24,0,0,0,.67-.46v-9.33a10.55,10.55,0,0,1-2.29-.42c-.72-.21-1.44-.44-2.15-.69v-1.34h11.32v1.34a5.75,5.75,0,0,1-1.11.6,8.75,8.75,0,0,1-1.75.51Z"/><path class="cls-3" d="M503.67,479.11H492v-1.34a21,21,0,0,1,3.78-1.11v-27.4a12.07,12.07,0,0,1-3.78-1.15v-1.34h11.69v1.34a11.25,11.25,0,0,1-1.67.69,16.92,16.92,0,0,1-1.8.46v12.06h14.51V449.26q-1-.22-1.83-.51a14.68,14.68,0,0,1-1.64-.64v-1.34h11.69v1.34a7.92,7.92,0,0,1-1.82.71c-.67.17-1.32.32-2,.44v27.4a20.33,20.33,0,0,1,2,.46,11.85,11.85,0,0,1,1.75.65v1.34H511.24v-1.34a17.33,17.33,0,0,1,3.47-1.11V463.72H500.2v12.94a16.92,16.92,0,0,1,1.8.46,13.79,13.79,0,0,1,1.67.65Z"/><path class="cls-3" d="M538.32,479.11H526.49v-1.34a13,13,0,0,1,3.7-1.11v-27.4a15.25,15.25,0,0,1-1.85-.48c-.62-.2-1.23-.43-1.85-.67v-1.34h11.83v1.34a18.8,18.8,0,0,1-1.8.67,18.24,18.24,0,0,1-1.9.48v27.4c.65.12,1.29.28,1.94.46a12,12,0,0,1,1.76.65Z"/><path class="cls-3" d="M542.34,446.77h11.73v1.34c-.55.24-1.12.47-1.71.67a13.22,13.22,0,0,1-1.8.48v25.87a16.22,16.22,0,0,1-.74,5.32A10.68,10.68,0,0,1,548,483.8a7.56,7.56,0,0,1-2.31,1.87,10.42,10.42,0,0,1-2.24.83l-.51-.69a9.25,9.25,0,0,0,1.27-1.37,7.57,7.57,0,0,0,1-1.91,12.44,12.44,0,0,0,.67-2.82,29.36,29.36,0,0,0,.23-4.07V449.26c-.67-.15-1.34-.32-2-.51a13.52,13.52,0,0,1-1.8-.64Z"/><path class="cls-3" d="M573.94,446.77h10.21v1.34q-.93.4-1.8.69c-.59.18-1.16.34-1.71.46l-9.29,12.29q1.15,1.53,2.66,3.42t3.14,3.9c1.09,1.34,2.22,2.7,3.37,4.07s2.29,2.67,3.4,3.9l2.22,1.11v1.16h-5.78L578.79,478q-2.73-3.19-5.43-6.89t-5.24-7.48h-2.27v13a11.42,11.42,0,0,1,3.47,1.11v1.34H557.63v-1.34a20.84,20.84,0,0,1,3.79-1.11v-27.4a11.56,11.56,0,0,1-3.79-1.15v-1.34h11.69v1.34c-.5.21-1,.42-1.62.62a18.34,18.34,0,0,1-1.85.53v12.8l2.77-.65,8.64-12.15c-.61-.15-1.2-.32-1.75-.51a11.7,11.7,0,0,1-1.57-.64Z"/><path class="cls-3" d="M587.47,446.77h12.66v1.34c-.73.27-1.47.51-2.21.71a15.84,15.84,0,0,1-2.22.44v27.45h10.63l2.72-7.44h1.2c.09.64.18,1.39.26,2.24s.14,1.72.18,2.63.07,1.8.07,2.66,0,1.63,0,2.31H587.47v-1.34a11.38,11.38,0,0,1,2-.74c.61-.15,1.2-.28,1.75-.37v-27.4a15.84,15.84,0,0,1-2-.48,14.76,14.76,0,0,1-1.76-.67Z"/><path class="cls-3" d="M650.08,479.11H638.71v-1.34a16.82,16.82,0,0,1,1.85-.63c.62-.17,1.25-.33,1.9-.48V455.87l.18-5.41h-.37l-1.52,5-9.48,23.7h-1.2l-9-23.7L619.4,450H619l0,5.87v20.79c.59.12,1.17.28,1.76.46s1.17.4,1.75.65v1.34h-9.65v-1.34c.58-.25,1.19-.47,1.82-.67a18,18,0,0,1,1.92-.49V449.26a15.85,15.85,0,0,1-1.92-.48c-.63-.2-1.25-.43-1.87-.67v-1.34h9.47l8,21.11,1.57,4.76H632l1.57-4.85,8.31-21h8.27v1.34c-.55.24-1.12.47-1.7.67a13.76,13.76,0,0,1-1.81.48v27.45a17.59,17.59,0,0,1,1.83.43,11.57,11.57,0,0,1,1.64.63Z"/><path class="cls-3" d="M286.86,502.21h10v1.34a14.31,14.31,0,0,1-3.78,1.85v29.7h-2.64l-16.77-25.45-1.8-3.61h-.14l.42,3.61v21.94a12,12,0,0,1,3.55,1.62v1.34h-10v-1.34a12.9,12.9,0,0,1,1.78-.9q.94-.39,2-.72V505.12c-.61-.25-1.22-.51-1.82-.79s-1.17-.55-1.69-.83v-1.29h7.81l14.55,21.94,2.13,4h.18l-.23-4V505.4c-.64-.28-1.27-.57-1.87-.88s-1.16-.63-1.69-1Z"/><path class="cls-3" d="M300.63,518.38a21.4,21.4,0,0,1,1-6.68,15.58,15.58,0,0,1,2.86-5.31,12.93,12.93,0,0,1,4.6-3.49,16,16,0,0,1,12.38,0,12.93,12.93,0,0,1,4.6,3.49,15.76,15.76,0,0,1,2.86,5.31,23,23,0,0,1,0,13.36,15.85,15.85,0,0,1-2.86,5.31,12.93,12.93,0,0,1-4.6,3.49,16.07,16.07,0,0,1-12.38,0,12.93,12.93,0,0,1-4.6-3.49,15.68,15.68,0,0,1-2.86-5.31A21.4,21.4,0,0,1,300.63,518.38Zm4.95,0a23.71,23.71,0,0,0,.62,5.57,14.84,14.84,0,0,0,1.87,4.55,9.49,9.49,0,0,0,3.14,3.07,8.55,8.55,0,0,0,4.48,1.13,7.38,7.38,0,0,0,4.12-1.13,8.86,8.86,0,0,0,2.88-3.07A15.49,15.49,0,0,0,324.4,524a25.45,25.45,0,0,0,.58-5.57,24.84,24.84,0,0,0-.6-5.57,14.25,14.25,0,0,0-1.85-4.55,9.49,9.49,0,0,0-3.14-3.07,8.52,8.52,0,0,0-4.48-1.13,7.81,7.81,0,0,0-4.32,1.13,8.62,8.62,0,0,0-2.89,3.07,14.8,14.8,0,0,0-1.62,4.55A29.07,29.07,0,0,0,305.58,518.38Z"/><path class="cls-3" d="M341.94,532.1a15.3,15.3,0,0,1,2.35.44,20.34,20.34,0,0,1,2.08.67v1.34H333.71v-1.34a8.51,8.51,0,0,1,1.9-.69q1-.24,1.89-.42V504.7a14.14,14.14,0,0,1-2-.48c-.61-.2-1.21-.43-1.8-.67v-1.34h4.16c1.23,0,2.57-.06,4-.19s2.83-.18,4.16-.18a20.38,20.38,0,0,1,4.43.48,11.07,11.07,0,0,1,3.86,1.64,8.68,8.68,0,0,1,2.73,3.08,9.94,9.94,0,0,1,1,4.78,9.52,9.52,0,0,1-1.07,4.66,9.09,9.09,0,0,1-2.84,3.19,12.31,12.31,0,0,1-4,1.83,19,19,0,0,1-4.67.58h-.71l-1,0c-.37,0-.73,0-1.06-.07s-.59-.06-.74-.09Zm3.14-27.86c-.74,0-1.34,0-1.8.05a9.41,9.41,0,0,0-1.34.18v15a2.3,2.3,0,0,0,.67.12c.29,0,.6,0,.92.07s.64,0,1,0h.74a10.18,10.18,0,0,0,3-.44,6.56,6.56,0,0,0,2.51-1.41,6.86,6.86,0,0,0,1.74-2.44,8.92,8.92,0,0,0,.64-3.56q0-3.79-2.14-5.68A8.67,8.67,0,0,0,345.08,504.24Z"/><path class="cls-3" d="M362.36,518.38a21.7,21.7,0,0,1,1-6.68,15.6,15.6,0,0,1,2.87-5.31,12.81,12.81,0,0,1,4.59-3.49,16,16,0,0,1,12.39,0,13,13,0,0,1,4.59,3.49,15.77,15.77,0,0,1,2.87,5.31,23,23,0,0,1,0,13.36,15.87,15.87,0,0,1-2.87,5.31,13,13,0,0,1-4.59,3.49,16.1,16.1,0,0,1-12.39,0,12.81,12.81,0,0,1-4.59-3.49,15.7,15.7,0,0,1-2.87-5.31A21.7,21.7,0,0,1,362.36,518.38Zm4.94,0a23.7,23.7,0,0,0,.63,5.57,14.36,14.36,0,0,0,1.87,4.55,9.4,9.4,0,0,0,3.14,3.07,8.5,8.5,0,0,0,4.48,1.13,7.37,7.37,0,0,0,4.11-1.13,9,9,0,0,0,2.89-3.07,16.08,16.08,0,0,0,1.71-4.55,26.08,26.08,0,0,0,.58-5.57,24.84,24.84,0,0,0-.6-5.57,14.48,14.48,0,0,0-1.85-4.55,9.49,9.49,0,0,0-3.14-3.07,8.56,8.56,0,0,0-4.49-1.13,7.86,7.86,0,0,0-4.32,1.13,8.68,8.68,0,0,0-2.88,3.07,14.8,14.8,0,0,0-1.62,4.55A29.05,29.05,0,0,0,367.3,518.38ZM395,539.86a24.47,24.47,0,0,1-3.79,2.84,7.52,7.52,0,0,1-4.15,1.14,12.38,12.38,0,0,1-4-.7q-2.07-.69-4.43-1.66c-1.57-.65-3.24-1.32-5-2a44.6,44.6,0,0,0-5.75-1.85l1.39-.93a15.07,15.07,0,0,1,2-.13,19,19,0,0,1,4.56.55q2.24.55,4.5,1.2c1.51.43,3,.83,4.57,1.2a20.12,20.12,0,0,0,4.72.56,17,17,0,0,0,2.54-.19,14.58,14.58,0,0,0,2.63-.64Z"/><path class="cls-3" d="M403.66,532.1c.71.16,1.39.32,2,.49a16.05,16.05,0,0,1,1.89.62v1.34H395.44v-1.34a10.82,10.82,0,0,1,1.94-.69c.61-.16,1.23-.3,1.85-.42V504.7a17.42,17.42,0,0,1-2.13-.53c-.61-.2-1.17-.41-1.66-.62v-1.34h4.06c1.24,0,2.59-.06,4.06-.19s2.89-.18,4.28-.18a16.87,16.87,0,0,1,4.24.51,9.24,9.24,0,0,1,3.4,1.61,7.62,7.62,0,0,1,2.25,2.82,9.53,9.53,0,0,1,.81,4.11,8.61,8.61,0,0,1-1.79,5.59,9.75,9.75,0,0,1-4.84,3.19c1.33,2.1,2.71,4.18,4.16,6.24s3,4.11,4.53,6.14l2.51,1.34v1.16h-5.62l-1.76-1.29c-.86-1.08-1.64-2.14-2.35-3.17s-1.37-2.08-2-3.14-1.19-2.14-1.73-3.23-1.09-2.26-1.64-3.49h-4.36Zm3.14-27.86c-.74,0-1.34,0-1.82.05a8.42,8.42,0,0,0-1.32.18v13.72H407a6.56,6.56,0,0,0,5.06-2,7.49,7.49,0,0,0,1.87-5.32,6,6,0,0,0-2-5A7.89,7.89,0,0,0,406.8,504.24Z"/><path class="cls-3" d="M430.46,531.36a4.75,4.75,0,0,0,1.43.95,6.79,6.79,0,0,0,2.63.39,9.63,9.63,0,0,0,2.78-.39,6.53,6.53,0,0,0,2.24-1.16,5.58,5.58,0,0,0,1.5-1.84,5.39,5.39,0,0,0,.55-2.48,4.4,4.4,0,0,0-1.13-3.09,11.46,11.46,0,0,0-2.82-2.22c-1.12-.65-2.35-1.28-3.67-1.89a20.39,20.39,0,0,1-3.67-2.2,11.38,11.38,0,0,1-2.82-3,8.09,8.09,0,0,1-1.13-4.46,8.32,8.32,0,0,1,.69-3.46,7.27,7.27,0,0,1,2-2.59,9.2,9.2,0,0,1,3-1.64,12.68,12.68,0,0,1,3.93-.58,28.17,28.17,0,0,1,5.15.44,15.48,15.48,0,0,1,3.67,1.09c0,.52,0,1.13-.11,1.82s-.17,1.41-.28,2.15-.22,1.46-.35,2.15-.24,1.3-.37,1.82h-1.2l-1.85-6.32a7.9,7.9,0,0,0-2.12-.56,19.55,19.55,0,0,0-2.73-.18,5.48,5.48,0,0,0-3.82,1.31,4.75,4.75,0,0,0-1.44,3.68,4.62,4.62,0,0,0,1.13,3.18,11.48,11.48,0,0,0,2.86,2.31c1.15.68,2.38,1.34,3.7,2a23.77,23.77,0,0,1,3.69,2.19,11.48,11.48,0,0,1,2.86,3,7.5,7.5,0,0,1,1.14,4.25,9.16,9.16,0,0,1-.76,3.79,8,8,0,0,1-2.2,2.91,9.94,9.94,0,0,1-3.51,1.85,15.83,15.83,0,0,1-4.71.64,18.23,18.23,0,0,1-5.22-.69,9.86,9.86,0,0,1-3.28-1.48c0-.52.08-1.15.16-1.89s.17-1.5.28-2.29.22-1.55.34-2.29.25-1.37.37-1.89h1.2Z"/><path class="cls-3" d="M469.08,534.55h-13v-1.34c.68-.25,1.36-.46,2.06-.65a21.54,21.54,0,0,1,2.24-.46V504.61h-7.07l-2.45,6.61h-1.16c-.09-.62-.16-1.32-.23-2.1s-.11-1.59-.16-2.41-.08-1.61-.11-2.4-.05-1.48-.05-2.1H476c0,.62,0,1.31,0,2.08s-.07,1.56-.12,2.38-.09,1.61-.14,2.4-.12,1.5-.21,2.15h-1.22l-2.42-6.61h-7V532.1l2.24.46a11.24,11.24,0,0,1,2,.65Z"/><path class="cls-3" d="M477.35,502.21h11.74v1.33c-.59.25-1.17.46-1.76.65s-1.17.35-1.75.51v18.83a13.2,13.2,0,0,0,.53,4.08,6.26,6.26,0,0,0,1.55,2.63,5.81,5.81,0,0,0,2.51,1.42,11.92,11.92,0,0,0,3.4.44,7.76,7.76,0,0,0,5.68-2q2-2,2-6.61V505.11c-.71-.24-1.37-.5-2-.76a15.15,15.15,0,0,1-1.66-.81v-1.33h9.84v1.34c-.59.34-1.18.65-1.78.92a10.52,10.52,0,0,1-1.83.65v18.53a14.78,14.78,0,0,1-.78,5.08,9.43,9.43,0,0,1-2.2,3.51,8.84,8.84,0,0,1-3.42,2.06A14.18,14.18,0,0,1,493,535c-3.85,0-6.8-.87-8.83-2.61s-3.05-4.42-3.05-8V504.7a13.83,13.83,0,0,1-3.79-1.15Z"/><path class="cls-3" d="M533.12,504.7c-.74-.15-1.43-.33-2.08-.53s-1.28-.41-1.89-.62v-1.34h10.39v1.34a11.81,11.81,0,0,1-3.32,1.15l-10.45,29.85-2.54.55-11.78-30.4c-.62-.15-1.22-.33-1.8-.53s-1.16-.41-1.71-.62v-1.34h12.24v1.34c-.52.21-1.11.42-1.75.62s-1.33.38-2,.53l7.9,21.12,1,3.69h.1l.92-3.78Z"/><path class="cls-3" d="M576.32,504.7a12.07,12.07,0,0,1-1.94-.44c-.65-.2-1.33-.43-2-.71v-1.34h10.35v1.34a21.27,21.27,0,0,1-3.32,1.15l-7.72,29.85-2.86.55L561.35,510l-7.3,24.58-2.82.55-8.18-30.4c-.61-.15-1.21-.32-1.8-.5s-1.16-.41-1.71-.65v-1.34h12v1.34c-.58.21-1.18.42-1.8.62a19.09,19.09,0,0,1-2,.53l4.58,18.62,1,6h.09l1.61-6.1,6.24-21h1.57l6.7,21,1.34,6H571l1.07-6.1Z"/><path class="cls-3" d="M600.94,502.21h10.63v1.34c-.52.21-1.08.42-1.66.62s-1.19.38-1.81.53L600,517.22l9.47,14.88a14.69,14.69,0,0,1,3.79,1.11v1.34H600.94v-1.34a12,12,0,0,1,3.51-1.11l-7.3-11.6-7,11.65c.65.09,1.28.21,1.9.34a6.52,6.52,0,0,1,1.8.72v1.34H583.16v-1.34a8,8,0,0,1,1.73-.69q.86-.24,1.68-.42l9.06-13.81-8.69-13.59-1.82-.55-1.83-.6v-1.34h12.25v1.34c-.46.18-1,.37-1.55.55s-1.22.39-2,.6l6.46,10.44,6.29-10.44a26.53,26.53,0,0,1-3.84-1.15Z"/><path class="cls-3" d="M633.24,502.21H643.4v1.34a12,12,0,0,1-3.51,1.15l-8.73,16.08V532.1a10.63,10.63,0,0,1,3.51,1.11v1.34H622.94v-1.34a12,12,0,0,1,3.78-1.11V520.83l-9.33-16.13a13.07,13.07,0,0,1-2-.48c-.6-.2-1.2-.43-1.78-.67v-1.34h12.24v1.34c-.46.18-1,.38-1.57.58s-1.25.39-2,.57l7.58,13.59L637,504.7c-.71-.15-1.38-.33-2-.53s-1.23-.41-1.78-.62Z"/><path class="cls-3" d="M668,525.68h1.2c.09.62.18,1.31.25,2.08s.14,1.55.19,2.35.07,1.59.09,2.36,0,1.46,0,2.08H645.2v-2.36l19.22-27.58H650.19l-2.81,6.47h-1.16c-.09-.65-.18-1.36-.25-2.13s-.14-1.55-.19-2.35-.08-1.58-.09-2.34,0-1.43,0-2.05h23.61v2.4l-19.13,27.54h15.06Z"/><path class="cls-3" d="M341.43,639.38c0,.68,0,1.27.05,1.76s.06,1,.09,1.57l3.19.46v1a16.39,16.39,0,0,1-2.57,1.06,20.73,20.73,0,0,1-2.7.7h-1.16a7.3,7.3,0,0,1-.55-2.34c-.06-.84-.11-1.77-.14-2.79h-.23a6.11,6.11,0,0,1-.72,1.87,6.33,6.33,0,0,1-1.38,1.69,7.15,7.15,0,0,1-2,1.2,7,7,0,0,1-2.64.46,6.35,6.35,0,0,1-4.59-1.71,5.91,5.91,0,0,1-1.78-4.48,6.47,6.47,0,0,1,.85-3.49,5.83,5.83,0,0,1,2.52-2.15,14.51,14.51,0,0,1,4.11-1.13c1.64-.23,3.53-.41,5.69-.53a26.4,26.4,0,0,0,.11-3.58,8.3,8.3,0,0,0-.51-2.73,3.76,3.76,0,0,0-1.29-1.75,3.69,3.69,0,0,0-2.24-.63c-.43,0-.92,0-1.46.07a5.31,5.31,0,0,0-1.59.4l-2.17,5.54h-1.2c-.31-.92-.58-1.88-.81-2.86a17.79,17.79,0,0,1-.44-2.92,15.91,15.91,0,0,1,3.9-1.66,17.84,17.84,0,0,1,4.79-.6,8.79,8.79,0,0,1,3.76.67,5.32,5.32,0,0,1,2.15,1.73,5.91,5.91,0,0,1,1,2.36,15,15,0,0,1,.23,2.59c0,1.84,0,3.62-.11,5.33S341.43,637.81,341.43,639.38Zm-8.92,3.74a4.32,4.32,0,0,0,2-.46,5.17,5.17,0,0,0,1.47-1.11,6.6,6.6,0,0,0,1-1.31,6,6,0,0,0,.51-1.13v-4.86a29,29,0,0,0-4.39.28,7.51,7.51,0,0,0-2.68.88,3.25,3.25,0,0,0-1.34,1.5,5.52,5.52,0,0,0-.37,2.06,4.31,4.31,0,0,0,1,3.07A3.62,3.62,0,0,0,332.51,643.12Z"/><path class="cls-3" d="M349.38,613.93l-3.52-.37v-1.21a18.82,18.82,0,0,1,3.22-1l3.3-.69h1.15v16.22h.1a7.45,7.45,0,0,1,2.65-3.74,6.77,6.77,0,0,1,4.14-1.39,7.71,7.71,0,0,1,6.44,2.86c1.5,1.91,2.24,4.86,2.24,8.83s-1,7.15-3.07,9.24-5,3.14-8.85,3.14a16.31,16.31,0,0,1-2.31-.16c-.77-.11-1.51-.24-2.21-.39a13.77,13.77,0,0,1-1.92-.56,7.3,7.3,0,0,1-1.36-.64Zm9.79,10.71a4.67,4.67,0,0,0-3.6,1.51,9.18,9.18,0,0,0-2,3.81v12.89a7.07,7.07,0,0,0,2,.71,12.15,12.15,0,0,0,2.54.26,5.48,5.48,0,0,0,4.8-2.66q1.75-2.65,1.76-7.69a18.76,18.76,0,0,0-.3-3.42,9.36,9.36,0,0,0-1-2.82,5.4,5.4,0,0,0-1.71-1.89A4.44,4.44,0,0,0,359.17,624.64Z"/><path class="cls-3" d="M390.73,642.2a6.7,6.7,0,0,1-2.71,2.7,8.45,8.45,0,0,1-4.36,1.09,11.87,11.87,0,0,1-4.74-.86,8.76,8.76,0,0,1-3.35-2.44,10.73,10.73,0,0,1-2-3.84,17.52,17.52,0,0,1-.67-5q0-5.86,2.87-9a10.07,10.07,0,0,1,7.81-3.12,19,19,0,0,1,4,.39,12.38,12.38,0,0,1,3,1c-.09,1-.26,2.16-.5,3.42a15,15,0,0,1-.93,3.14H388L386,624.28a2.2,2.2,0,0,0-.74-.35,5.47,5.47,0,0,0-1.38-.12A5.7,5.7,0,0,0,379,626.1c-1.14,1.52-1.71,4.11-1.71,7.74a12.28,12.28,0,0,0,.48,3.42,9.35,9.35,0,0,0,1.48,3,7.28,7.28,0,0,0,2.5,2.1,7.44,7.44,0,0,0,3.48.78,7.79,7.79,0,0,0,2.82-.46,7.59,7.59,0,0,0,2-1.11Z"/><path class="cls-3" d="M409.76,640.86a6.37,6.37,0,0,1-.78,1.94,7,7,0,0,1-1.37,1.64,6,6,0,0,1-1.85,1.13,5.91,5.91,0,0,1-2.24.42c-3,0-5.32-1-6.83-2.91s-2.27-5-2.27-9.06q0-5.91,2.89-9a10.13,10.13,0,0,1,7.78-3.09,16.91,16.91,0,0,1,2.68.16,12.25,12.25,0,0,1,2.13.58v-8.73l-3.51-.37v-1.21a21.46,21.46,0,0,1,3.12-1q1.77-.4,3.39-.69h1.16V642.8l3.05.37v1a22.86,22.86,0,0,1-2.77,1.11,16.8,16.8,0,0,1-2.82.65h-1.16l-.41-5Zm-5.31,2.26a4.66,4.66,0,0,0,3.6-1.43,7.79,7.79,0,0,0,1.85-3.88v-13a5.53,5.53,0,0,0-1.85-.64,15.66,15.66,0,0,0-2.72-.19,5.31,5.31,0,0,0-4.81,2.75,14,14,0,0,0-1.66,7.32,18.79,18.79,0,0,0,.32,3.54,10.16,10.16,0,0,0,1,2.89,5.71,5.71,0,0,0,1.73,2A4.3,4.3,0,0,0,404.45,643.12Z"/><path class="cls-3" d="M438.78,642.2a4.65,4.65,0,0,1-1.16,1.48,8.3,8.3,0,0,1-1.8,1.2,10.81,10.81,0,0,1-2.22.81,10.08,10.08,0,0,1-2.45.3,12.31,12.31,0,0,1-4.8-.86,9,9,0,0,1-3.47-2.44,11,11,0,0,1-2.1-3.81,16.18,16.18,0,0,1-.72-5q0-5.91,2.73-9t7.72-3.1a11.84,11.84,0,0,1,3.18.44,7.15,7.15,0,0,1,4.79,4.16,10.27,10.27,0,0,1,.76,4.18c0,.52,0,1.05-.07,1.59a14.84,14.84,0,0,1-.26,1.73H424.5a13.17,13.17,0,0,0,.48,3.63,8.71,8.71,0,0,0,1.46,2.94,6.85,6.85,0,0,0,2.45,2,7.8,7.8,0,0,0,3.46.71,12.07,12.07,0,0,0,3.28-.46,6.13,6.13,0,0,0,2.5-1.2Zm-8.46-18.39a4.82,4.82,0,0,0-4,1.78c-.92,1.19-1.48,3.28-1.66,6.26H434.8c0-.27.06-.54.07-.81s0-.51,0-.76a8.73,8.73,0,0,0-1.1-4.71A3.82,3.82,0,0,0,430.32,623.81Z"/><path class="cls-3" d="M455.55,610.69c.27,0,.6,0,1,0l1.15.11c.4,0,.79.11,1.16.19s.69.16,1,.25c-.1,1-.23,2-.4,2.84a15.51,15.51,0,0,1-.62,2.38h-1.15l-2-4a8,8,0,0,0-2.28.28,3,3,0,0,0-1.57,1.06,5.27,5.27,0,0,0-.93,2.26,20.27,20.27,0,0,0-.3,3.88v2.31h5.31v2.41h-5.31v18.44a16.81,16.81,0,0,1,4.44,1.11v1.15H443.3v-1.15a9.11,9.11,0,0,1,3.05-1.11V624.74h-3.51V623.5a12.36,12.36,0,0,1,3.51-1.58V620.3a13.53,13.53,0,0,1,.7-4.73,7,7,0,0,1,1.94-3,6.88,6.88,0,0,1,2.93-1.5A14.94,14.94,0,0,1,455.55,610.69Z"/><path class="cls-3" d="M468.62,621.78a15.4,15.4,0,0,1,4.21.49,7.17,7.17,0,0,1,2.86,1.5,19.49,19.49,0,0,1,5.68-2.68,3.11,3.11,0,0,1,.53,1.24,6.5,6.5,0,0,1,.17,1.39l-.6,1.11h-4.86a7.55,7.55,0,0,1,1.16,4.39,6.89,6.89,0,0,1-2.33,5.4q-2.34,2.08-6.82,2.08c-.58,0-1.06,0-1.43,0s-.79-.08-1.25-.14c-.15.28-.33.58-.53.92a2.08,2.08,0,0,0-.3,1.06,1.61,1.61,0,0,0,1.06,1.46,13.72,13.72,0,0,0,2.66.95c1.06.27,2.22.56,3.46.85a18.61,18.61,0,0,1,3.49,1.2,8.33,8.33,0,0,1,2.71,2,4.8,4.8,0,0,1,1.13,3.17,5.5,5.5,0,0,1-.76,3,6.79,6.79,0,0,1-2.25,2.24,11.62,11.62,0,0,1-3.44,1.39,19,19,0,0,1-4.41.48q-5,0-7.6-1.71a5,5,0,0,1-2.56-4.3,5.57,5.57,0,0,1,.39-2.17,4.75,4.75,0,0,1,1.13-1.61,7.18,7.18,0,0,1,1.85-1.23,21.11,21.11,0,0,1,2.54-1,4.68,4.68,0,0,1-1.69-1.27,3,3,0,0,1-.67-2,3.22,3.22,0,0,1,.9-2.1,9.05,9.05,0,0,1,1.83-1.64,7,7,0,0,1-4-2.63,7.3,7.3,0,0,1-1.41-4.39,7.14,7.14,0,0,1,.6-2.93,6.69,6.69,0,0,1,1.75-2.38,8,8,0,0,1,2.87-1.58A12.87,12.87,0,0,1,468.62,621.78Zm6.84,27.4a3,3,0,0,0-1-2.36,8,8,0,0,0-2.48-1.43,22.87,22.87,0,0,0-3.18-.93c-1.14-.24-2.21-.52-3.19-.83a5,5,0,0,0-2.87,4.67,4.18,4.18,0,0,0,1.76,3.67,8.8,8.8,0,0,0,5.08,1.23,10.3,10.3,0,0,0,2.84-.33,5.17,5.17,0,0,0,1.81-.85,2.9,2.9,0,0,0,.94-1.27A4.33,4.33,0,0,0,475.46,649.18Zm-11.87-20a8.39,8.39,0,0,0,.25,2.1,4.72,4.72,0,0,0,.83,1.73,4,4,0,0,0,1.55,1.18,5.88,5.88,0,0,0,2.4.44,4.44,4.44,0,0,0,3.84-1.57,6.37,6.37,0,0,0,1.15-3.88,6.31,6.31,0,0,0-1.13-4,4.61,4.61,0,0,0-3.86-1.46q-2.82,0-3.93,1.41A6.39,6.39,0,0,0,463.59,629.22Z"/><path class="cls-3" d="M507.85,645.44h-10v-1.16a15.29,15.29,0,0,1,2.77-1.11V632.36a12.93,12.93,0,0,0-1-5.66,3.74,3.74,0,0,0-3.69-2.06,5.22,5.22,0,0,0-2.17.44,6.91,6.91,0,0,0-1.76,1.14,7.07,7.07,0,0,0-1.34,1.59,7.23,7.23,0,0,0-.83,1.87v13.49a14.51,14.51,0,0,1,1.41.42,5,5,0,0,1,1.31.69v1.16h-9.93v-1.16a13.06,13.06,0,0,1,3.05-1.11V613.93l-3.51-.37v-1.21a21.46,21.46,0,0,1,3.12-1q1.77-.4,3.39-.69h1.16V627h0a10.19,10.19,0,0,1,2.8-3.7,6.69,6.69,0,0,1,4.41-1.52,11.63,11.63,0,0,1,3.31.44,5.09,5.09,0,0,1,2.42,1.55,7.37,7.37,0,0,1,1.48,3,18.3,18.3,0,0,1,.51,4.73v11.69c.52.12,1,.26,1.57.42a5.38,5.38,0,0,1,1.48.69Z"/><path class="cls-3" d="M520.78,645.44H510.53v-1.16a9.51,9.51,0,0,1,1.43-.62c.49-.17,1-.33,1.62-.49V625l-3.05-.37v-1.2a23.07,23.07,0,0,1,2.91-1c1-.27,2.09-.51,3.14-.69h1.15v21.39c.62.16,1.17.32,1.67.49a7.84,7.84,0,0,1,1.38.62Zm-8.08-31a2.58,2.58,0,0,1,.81-2,3,3,0,0,1,2.14-.74,3,3,0,0,1,2.13.74,2.64,2.64,0,0,1,.79,2,2.52,2.52,0,0,1-.79,2,3,3,0,0,1-2.13.72,3.08,3.08,0,0,1-2.14-.72A2.47,2.47,0,0,1,512.7,614.48Z"/><path class="cls-3" d="M527.44,625l-3.05-.37v-1.2a15.55,15.55,0,0,1,2.93-1c1.06-.26,2.1-.47,3.12-.62h1.15v21.67a15.24,15.24,0,0,1-.83,5.45,12.28,12.28,0,0,1-1.94,3.51,8.31,8.31,0,0,1-2.26,2,8.62,8.62,0,0,1-1.85.83l-.55-.88a3.71,3.71,0,0,0,1.13-1,7.05,7.05,0,0,0,1.06-1.92,15.77,15.77,0,0,0,.79-3,25.15,25.15,0,0,0,.3-4.16Zm-.93-10.53a2.58,2.58,0,0,1,.81-2,3.07,3.07,0,0,1,2.15-.74,3,3,0,0,1,2.12.74,2.6,2.6,0,0,1,.79,2,2.49,2.49,0,0,1-.79,2,3,3,0,0,1-2.12.72,3.1,3.1,0,0,1-2.15-.72A2.47,2.47,0,0,1,526.51,614.48Z"/><path class="cls-3" d="M549.71,622.33h8.91v1.21c-.58.24-1.16.46-1.73.64a14,14,0,0,1-1.78.46c-.46.62-1,1.28-1.59,2s-1.21,1.42-1.83,2.13-1.21,1.37-1.78,2-1,1.13-1.45,1.53l1.68,2.24c.67.88,1.38,1.81,2.15,2.79s1.57,2,2.38,3,1.63,2,2.43,2.86l2.58,1.11v1.16H554l-1.25-1.11q-2.44-3.06-4.07-5.43c-1.08-1.59-2.06-3.07-2.95-4.46l-1.53-.46v9.19a9.76,9.76,0,0,1,3,1.11v1.16H537v-1.16a15.84,15.84,0,0,1,3-1.11V613.93l-3.51-.37v-1.21a14.94,14.94,0,0,1,3.1-1l3.42-.69h1.15v22.09h1.2l1.62-1.85c.58-.68,1.17-1.38,1.76-2.1s1.15-1.44,1.7-2.15,1.07-1.39,1.53-2a7.16,7.16,0,0,1-2.26-1.1Z"/><path class="cls-3" d="M571.84,645.44H561.58v-1.16a15.38,15.38,0,0,1,3-1.11V613.93l-3.51-.37v-1.21a16.55,16.55,0,0,1,3-1q1.8-.4,3.51-.69h1.16v32.48a15.84,15.84,0,0,1,3.05,1.11Z"/><path class="cls-3" d="M598.91,645.44H589v-1.16c.31-.18.69-.38,1.13-.58a10.33,10.33,0,0,1,1.6-.53V632.5a33.18,33.18,0,0,0-.16-3.33,8.59,8.59,0,0,0-.6-2.47,3.42,3.42,0,0,0-1.27-1.52,4,4,0,0,0-2.18-.54,4.2,4.2,0,0,0-1.87.42,5.36,5.36,0,0,0-1.52,1.11,7.6,7.6,0,0,0-1.16,1.57,9.35,9.35,0,0,0-.76,1.85v13.58c.49.16,1,.32,1.41.49a8.78,8.78,0,0,1,1.32.62v1.16H575v-1.16a12.26,12.26,0,0,1,1.44-.6c.52-.18,1.06-.35,1.61-.51V625l-3.05-.37v-1.2a20.85,20.85,0,0,1,3-1c1-.26,2-.47,3-.62h1.15V627h0a8.29,8.29,0,0,1,2.52-3.7,6.55,6.55,0,0,1,4.41-1.52,9.7,9.7,0,0,1,2.12.23,5.34,5.34,0,0,1,1.9.86,5.08,5.08,0,0,1,1.48,1.73,8.87,8.87,0,0,1,.87,2.86,9,9,0,0,1,2.68-4.11,6.86,6.86,0,0,1,4.62-1.57,9.17,9.17,0,0,1,3,.44,4.38,4.38,0,0,1,2.11,1.55,7.56,7.56,0,0,1,1.22,3,24.45,24.45,0,0,1,.39,4.81v11.59a9.76,9.76,0,0,1,3,1.11v1.16H602.7v-1.16a13.67,13.67,0,0,1,2.72-1.11v-11.5a23.68,23.68,0,0,0-.16-3,6.58,6.58,0,0,0-.62-2.19,3.34,3.34,0,0,0-1.29-1.39,4.45,4.45,0,0,0-2.22-.49,4.14,4.14,0,0,0-3.44,1.53,9.61,9.61,0,0,0-1.78,3.88v13.12a20.74,20.74,0,0,1,3,1.11Z"/><path class="cls-3" d="M337.55,700.88h-9.94v-1.16a17.29,17.29,0,0,1,2.73-1.11v-11a12.51,12.51,0,0,0-1-5.54,3.74,3.74,0,0,0-3.69-2,5.64,5.64,0,0,0-2.15.41,6.1,6.1,0,0,0-1.76,1.13,8.23,8.23,0,0,0-1.31,1.62,8.83,8.83,0,0,0-.88,1.87v13.49a8.39,8.39,0,0,1,2.77,1.11v1.16h-10v-1.16a15.56,15.56,0,0,1,3.05-1.11V680.46l-3.05-.37v-1.2a21.32,21.32,0,0,1,2.77-.93c1.05-.28,2.14-.52,3.28-.74h1.16v5.18h.05a10,10,0,0,1,2.79-3.65,6.65,6.65,0,0,1,4.41-1.53,11.58,11.58,0,0,1,3.31.44,5,5,0,0,1,2.42,1.55,7.37,7.37,0,0,1,1.48,3,18.41,18.41,0,0,1,.51,4.73v11.69a8.23,8.23,0,0,1,3.05,1.11Z"/><path class="cls-3" d="M340.23,689.33a15.9,15.9,0,0,1,.76-5.15,10.47,10.47,0,0,1,2.19-3.79,9.52,9.52,0,0,1,3.45-2.36,11.81,11.81,0,0,1,4.46-.81,12.79,12.79,0,0,1,4.94.88,8.78,8.78,0,0,1,3.4,2.47,10.48,10.48,0,0,1,1.94,3.81,18.52,18.52,0,0,1,.62,5q0,5.82-3,9a10.36,10.36,0,0,1-7.94,3.14,12.38,12.38,0,0,1-4.81-.85,8.73,8.73,0,0,1-3.37-2.45,10.34,10.34,0,0,1-2-3.84A17.1,17.1,0,0,1,340.23,689.33Zm4.43,0a18.28,18.28,0,0,0,.4,3.92,9.79,9.79,0,0,0,1.24,3.22,6.29,6.29,0,0,0,2.24,2.14,6.62,6.62,0,0,0,3.33.79A4.75,4.75,0,0,0,356,697q1.59-2.44,1.59-7.62a18.83,18.83,0,0,0-.39-4,10.24,10.24,0,0,0-1.22-3.19,6.35,6.35,0,0,0-2.13-2.15,5.86,5.86,0,0,0-3.09-.79,5.09,5.09,0,0,0-4.39,2.45Q344.67,684.16,344.66,689.33Z"/><path class="cls-3" d="M375.57,710.12H365.32V709a17.06,17.06,0,0,1,3-1.11V680.46l-3-.37v-1.2a19.24,19.24,0,0,1,3-1c1-.27,2-.47,3-.63h1.15v5.18h.05a9.2,9.2,0,0,1,2.59-3.77,6.47,6.47,0,0,1,4.34-1.41,7.83,7.83,0,0,1,6.38,2.73c1.5,1.82,2.26,4.77,2.26,8.87a17,17,0,0,1-.76,5.27,11.4,11.4,0,0,1-2.17,4,9.45,9.45,0,0,1-3.42,2.49,11,11,0,0,1-4.46.88,13.34,13.34,0,0,1-2.68-.21,10.41,10.41,0,0,1-2.13-.71v7.34a7.76,7.76,0,0,1,1.48.35,8,8,0,0,1,1.57.76Zm2.45-30a4.66,4.66,0,0,0-3.6,1.43,8.14,8.14,0,0,0-1.9,3.93v12.93a6.63,6.63,0,0,0,1.87.77,11.83,11.83,0,0,0,2.71.25,5,5,0,0,0,2.75-.79,6.72,6.72,0,0,0,2.08-2.21,12.39,12.39,0,0,0,1.31-3.35,18,18,0,0,0,.46-4.23,18.91,18.91,0,0,0-.3-3.49,8.78,8.78,0,0,0-1-2.77,4.89,4.89,0,0,0-1.75-1.83A5.14,5.14,0,0,0,378,680.09Z"/><path class="cls-3" d="M407.22,696.77A7.68,7.68,0,0,1,405,700a6,6,0,0,1-4.12,1.41c-2.95,0-5.18-1-6.67-2.93s-2.24-5-2.24-9,1-7,3-9.06,4.84-3,8.57-3a24.4,24.4,0,0,1,4.76.46,16,16,0,0,1,3.32,1v29.06a10.72,10.72,0,0,1,1.53.4,8.94,8.94,0,0,1,1.52.71v1.16H404.36V709a13.06,13.06,0,0,1,3.05-1.11V696.77Zm-5.27,1.8a4.63,4.63,0,0,0,3.58-1.43,8.35,8.35,0,0,0,1.88-3.84V680a13.09,13.09,0,0,0-2-.46,16.6,16.6,0,0,0-2.61-.19,5.5,5.5,0,0,0-4.78,2.41q-1.69,2.4-1.69,7.57a22.52,22.52,0,0,0,.28,3.61,9.14,9.14,0,0,0,.95,2.91,5.33,5.33,0,0,0,1.73,2A4.6,4.6,0,0,0,402,698.57Z"/><path class="cls-3" d="M426.63,681.24a5.52,5.52,0,0,0-1.28,1.13,7.9,7.9,0,0,0-1.36,2.52v13.72a12,12,0,0,1,1.85.35,8.5,8.5,0,0,1,1.85.76v1.16H416.78v-1.16a9,9,0,0,1,1.57-.69l1.48-.42V680.46l-3.05-.37v-1.2a19.58,19.58,0,0,1,3.05-1c1.05-.27,2.05-.47,3-.63H424v4.9h.19a8.24,8.24,0,0,1,1.17-1.85,10.29,10.29,0,0,1,1.76-1.66,7.74,7.74,0,0,1,2.17-1.13,5.56,5.56,0,0,1,2.43-.26,8.89,8.89,0,0,1,.57,1.32c.17.48.34,1,.49,1.5v1.2Z"/><path class="cls-3" d="M446.72,695.61a3.16,3.16,0,0,0-.81-2.19,9.58,9.58,0,0,0-2.05-1.69c-.83-.52-1.72-1-2.66-1.52a17.13,17.13,0,0,1-2.66-1.74,9,9,0,0,1-2.05-2.28,5.93,5.93,0,0,1-.81-3.19,4.72,4.72,0,0,1,.58-2.31,5.88,5.88,0,0,1,1.54-1.83,7.56,7.56,0,0,1,2.27-1.2,8.64,8.64,0,0,1,2.77-.44,24.07,24.07,0,0,1,4.09.28,19.18,19.18,0,0,1,3.07.79c-.12,1-.27,2-.44,3a26.15,26.15,0,0,1-.71,3.08h-1.16l-1.75-4.72a4.67,4.67,0,0,0-1.25-.3c-.46,0-.94-.07-1.43-.07a3.34,3.34,0,0,0-1.46.31,3.59,3.59,0,0,0-1.06.76,3.33,3.33,0,0,0-.9,2.26,3.11,3.11,0,0,0,.81,2.15,8.94,8.94,0,0,0,2.05,1.66c.83.51,1.72,1,2.66,1.51a20.11,20.11,0,0,1,2.66,1.66,8.36,8.36,0,0,1,2.05,2.15,5.17,5.17,0,0,1,.81,2.93,5.82,5.82,0,0,1-.67,2.82,6.35,6.35,0,0,1-1.85,2.12,9,9,0,0,1-2.72,1.37,11.18,11.18,0,0,1-3.31.48,18,18,0,0,1-3.65-.34,27.45,27.45,0,0,1-3.46-1,22,22,0,0,1,.41-3.21,23.78,23.78,0,0,1,.84-3h1.15l2,5a2.34,2.34,0,0,0,1.23.41c.47,0,.91,0,1.31,0a4.74,4.74,0,0,0,3.28-1.11A3.43,3.43,0,0,0,446.72,695.61Z"/><path class="cls-3" d="M453.79,678.94a11.82,11.82,0,0,1,3.7-1.63v-3.92a10.11,10.11,0,0,1,1.41-.9,15.39,15.39,0,0,1,1.59-.77h1.16v6.06h6.93v2.4h-6.93v13.33a6.66,6.66,0,0,0,.87,3.91,3.11,3.11,0,0,0,2.64,1.15c.55,0,1.24,0,2.08-.12a7.9,7.9,0,0,0,2.12-.44l.32.7a5.45,5.45,0,0,1-1,.87,11.29,11.29,0,0,1-1.52.88,10.83,10.83,0,0,1-1.87.7,8.08,8.08,0,0,1-2.08.27,5.5,5.5,0,0,1-4.23-1.56q-1.45-1.56-1.45-5.06V680.18h-3.7Z"/><path class="cls-3" d="M473.8,691.73c0-1.94,0-3.84.13-5.71s.14-3.72.14-5.56l-3.05-.37v-1.2a31.42,31.42,0,0,1,3-1c1-.28,2-.51,3-.7h1.15c0,2.31,0,4.61-.14,6.89s-.14,4.54-.14,6.79a22.36,22.36,0,0,0,.21,3.23,7.28,7.28,0,0,0,.74,2.41,3.9,3.9,0,0,0,1.46,1.5,4.7,4.7,0,0,0,2.35.53,4.59,4.59,0,0,0,3.49-1.5,10.39,10.39,0,0,0,2.2-3.91v-12.7l-3-.37v-1.2a28.06,28.06,0,0,1,3-1c1-.28,2-.51,3-.7h1.15v21l3.05.37v1a28,28,0,0,1-2.7,1.07,17.57,17.57,0,0,1-2.84.69H488.9l-.32-5.5h-.18a7.75,7.75,0,0,1-.81,2,7.49,7.49,0,0,1-1.5,1.8,7.72,7.72,0,0,1-2.11,1.31,6.36,6.36,0,0,1-2.56.51,10.76,10.76,0,0,1-3.26-.44,5.18,5.18,0,0,1-2.38-1.54,7.57,7.57,0,0,1-1.48-3A19,19,0,0,1,473.8,691.73Z"/><path class="cls-3" d="M507.75,701.43l-9-21.34A14,14,0,0,1,496.3,679v-1.2H506v1.15q-.6.33-1.23.63a9.49,9.49,0,0,1-1.41.53L508.7,694l.92,2.87h.1l.69-2.91,4.92-13.86a8.34,8.34,0,0,1-1.36-.47,7.86,7.86,0,0,1-1.18-.64v-1.2h7.85V679a6.18,6.18,0,0,1-1.13.6,14.51,14.51,0,0,1-1.5.51l-8.18,20.79Z"/><path class="cls-3" d="M530.81,701.43l-7.26-21.34-1.27-.49a7.27,7.27,0,0,1-1.17-.62v-1.2h9.7v1.15a14.55,14.55,0,0,1-1.3.67,8.82,8.82,0,0,1-1.33.49l3.93,13.49.59,3.32h.1l.69-3.41,5-15.25,1.38-.46,5.32,15.75.83,3.37h.09l.69-3.37,3.56-13.44a6.22,6.22,0,0,1-1.18-.37,8.34,8.34,0,0,1-1.36-.74v-1.2h7.86V679a9.43,9.43,0,0,1-2.64,1.11l-6.56,20.79-2.45.55-4.57-13.07-.88-3.84h-.14l-1.06,3.84-4.16,12.52Z"/><path class="cls-3" d="M569,688.5l7.3,10.11c.43.16.86.32,1.27.49a7,7,0,0,1,1.18.62v1.16h-9.47v-1.11l1.2-.67a7.67,7.67,0,0,1,1.11-.49L566.43,691l-5.17,7.57q.65.24,1.2.51t1.11.6v1.16h-7.91v-1.16a9.78,9.78,0,0,1,2.59-1.11l6.89-9.19-6.93-9.33a12.42,12.42,0,0,1-1.18-.49,9.38,9.38,0,0,1-1.09-.62v-1.2h9.29v1.15c-.37.25-.73.47-1.09.67a5.5,5.5,0,0,1-1.18.49l4.81,6.93,4.71-6.93a7.29,7.29,0,0,1-2.31-1.11v-1.2h7.72V679a9.63,9.63,0,0,1-2.59,1.11Z"/><path class="cls-3" d="M581.12,680.09a7.6,7.6,0,0,1-1.27-.47c-.38-.18-.78-.4-1.18-.64v-1.2h9.71v1.15a10.31,10.31,0,0,1-2.64,1.16l5.88,13.67.87,2.87h.09l.69-2.91,4.39-13.63a6.64,6.64,0,0,1-2.54-1.11v-1.2H603V679a9.22,9.22,0,0,1-2.63,1.11l-7.21,20.79a39.4,39.4,0,0,1-2.1,4.78,14.13,14.13,0,0,1-2,2.89,6.83,6.83,0,0,1-2,1.55,9.46,9.46,0,0,1-2.24.71,12,12,0,0,1-.9-1.94c-.26-.71-.49-1.39-.67-2l.6-1.11h4.8a8.4,8.4,0,0,0,.49-.72,9.25,9.25,0,0,0,.44-.85c.15-.34.32-.77.51-1.3s.4-1.18.64-2Z"/><path class="cls-3" d="M622.06,693q.32,1.93.48,3.9a31.26,31.26,0,0,1,.07,4H604.5v-1.16l13.17-19.91h-8.73l-2,5.45h-1.15a25.18,25.18,0,0,1-.44-3.9c0-1.28-.07-2.47-.07-3.58h17.37V679L609.4,698.84h9L620.9,693Z"/><path class="cls-3" d="M376.8,811.76H363.31v-1.34c.77-.34,1.54-.64,2.33-.9s1.58-.48,2.38-.67V786.17l.18-2.73a12.19,12.19,0,0,1-2.68.72,15.83,15.83,0,0,1-2.86.16l-.23-1.11a41.85,41.85,0,0,0,4.39-1.73,20.21,20.21,0,0,0,4.2-2.61h1.16v30c.77.19,1.54.41,2.31.67s1.54.56,2.31.9Z"/><path class="cls-3" d="M387.93,788.43h-1.15c-.34-.89-.69-1.94-1-3.14s-.66-2.34-.9-3.42a12,12,0,0,1,3.88-2.19,14.42,14.42,0,0,1,4.89-.81,11,11,0,0,1,4,.64,7.84,7.84,0,0,1,2.75,1.76,6.9,6.9,0,0,1,1.59,2.56,9.09,9.09,0,0,1,.51,3,13.12,13.12,0,0,1-1.2,5.31,32,32,0,0,1-3,5.29,45.38,45.38,0,0,1-3.86,4.83c-1.39,1.51-2.66,2.83-3.83,4l-1.95,1.81v.18l2.59-.28h8l2.26-5.17h1.16q.09,1,.18,2.22c.06.8.12,1.61.16,2.42s.09,1.6.12,2.36,0,1.41,0,2H384v-1.48l2.48-2.58c1-1,2-2.14,3-3.38s2.09-2.54,3.12-3.92a39.57,39.57,0,0,0,2.75-4.23,27.87,27.87,0,0,0,2-4.27,12.06,12.06,0,0,0,.77-4.07,9.17,9.17,0,0,0-.35-2.54,6.26,6.26,0,0,0-1-2.1,4.82,4.82,0,0,0-4-1.92,9.53,9.53,0,0,0-1.71.14,13.75,13.75,0,0,0-1.62.41Z"/><path class="cls-3" d="M418.24,810.15a5.19,5.19,0,0,0,2.4-.58,6.36,6.36,0,0,0,1.94-1.57,8.18,8.18,0,0,0,1.27-8,6,6,0,0,0-1.45-2.15,6.17,6.17,0,0,0-2.15-1.29,7.9,7.9,0,0,0-2.66-.44h-3v-1.25l7.76-10.39,1.57-1.62v-.18l-2.49.27h-7.81l-1.8,4.72h-1.16c-.12-.65-.24-1.34-.34-2.08s-.21-1.47-.3-2.2-.17-1.42-.24-2.1-.09-1.29-.09-1.85h18.07v1.43L420,791.16l-2,2v.09l1.58-.32a10.93,10.93,0,0,1,3.88.83,8.74,8.74,0,0,1,2.88,2,8.48,8.48,0,0,1,1.81,2.87,10.12,10.12,0,0,1,.62,3.58,9.4,9.4,0,0,1-.92,4.18,9.85,9.85,0,0,1-2.48,3.19,11.22,11.22,0,0,1-3.55,2,12.45,12.45,0,0,1-4.23.72,18.32,18.32,0,0,1-2.26-.16,18.49,18.49,0,0,1-4.51-1.23,7.35,7.35,0,0,1-1.69-1l1.3-4.16h.92c.19.22.44.5.76.83l1,1.07,1,1.11.88,1,1.2.23A11.12,11.12,0,0,0,418.24,810.15Z"/><path class="cls-3" d="M453,811.76H441.06v-1.34a26.54,26.54,0,0,1,4.25-1.11v-6.46H431.22v-1.07l17-22.91h1.22v21.57h5.87v2.41h-5.87v6.46a18.34,18.34,0,0,1,3.51,1.11Zm-7.67-23.19.51-3.33h-.14l-1.8,3.33-7.76,10.67-1.85,1.53,3.28-.33h7.76Z"/><path class="cls-3" d="M475.58,776.88h1.15c0,.46-.07,1-.12,1.55s-.11,1.14-.2,1.71-.19,1.11-.28,1.64a8.07,8.07,0,0,1-.32,1.29H464.44L463.33,792h3a13.79,13.79,0,0,1,4.22.62,9,9,0,0,1,3.28,1.85,8.55,8.55,0,0,1,2.13,3,10,10,0,0,1,.76,4,11.34,11.34,0,0,1-.92,4.71,10.21,10.21,0,0,1-2.45,3.4,10.32,10.32,0,0,1-3.47,2,11.65,11.65,0,0,1-4,.7,14.08,14.08,0,0,1-4.09-.65,14.76,14.76,0,0,1-2-.76,8,8,0,0,1-1.57-.95l1.34-4.16h.92l.7.83.85,1.07.88,1.11c.29.37.56.69.81,1a6.15,6.15,0,0,1,.85.23,4,4,0,0,0,1.23.14,6.33,6.33,0,0,0,2.79-.61,6.68,6.68,0,0,0,2.2-1.63,7.76,7.76,0,0,0,1.43-2.43,8.67,8.67,0,0,0,.51-3,6.92,6.92,0,0,0-.7-3.22,6,6,0,0,0-1.89-2.21,8.25,8.25,0,0,0-2.8-1.27,11.81,11.81,0,0,0-3.34-.37l-3.29,0,1.85-16h11Z"/><path class="cls-3" d="M503.48,802a10.85,10.85,0,0,1-.74,4,9.91,9.91,0,0,1-2.08,3.28,9.59,9.59,0,0,1-3.23,2.22,10.61,10.61,0,0,1-4.21.81,11,11,0,0,1-4.57-.9,9.41,9.41,0,0,1-3.35-2.52,11.07,11.07,0,0,1-2.06-3.84,16.24,16.24,0,0,1-.69-4.85,21.64,21.64,0,0,1,1.43-8,22.62,22.62,0,0,1,3.82-6.42,21.92,21.92,0,0,1,5.45-4.64,21.33,21.33,0,0,1,6.4-2.59l.5,1.39a19.78,19.78,0,0,0-11.45,10.46,16.88,16.88,0,0,0-1.44,5.43,6.79,6.79,0,0,1,2.64-2.29,9,9,0,0,1,4.39-1,10.37,10.37,0,0,1,3.69.65,8.1,8.1,0,0,1,2.91,1.85,8.53,8.53,0,0,1,1.9,3A11,11,0,0,1,503.48,802Zm-4.43.42a8.65,8.65,0,0,0-1.6-5.39A5.27,5.27,0,0,0,493,795a6.31,6.31,0,0,0-3.72,1.09,6.48,6.48,0,0,0-2.19,2.44A11.25,11.25,0,0,0,487,800v1.4a12.49,12.49,0,0,0,.39,3,10,10,0,0,0,1.2,2.86,7.16,7.16,0,0,0,2,2.14,4.92,4.92,0,0,0,2.85.83,4.65,4.65,0,0,0,2.54-.67,5.49,5.49,0,0,0,1.73-1.79,8.35,8.35,0,0,0,1-2.53A12.62,12.62,0,0,0,499.05,802.43Z"/><path class="cls-3" d="M510,787.69h-1.15c-.13-.65-.25-1.34-.37-2.08s-.23-1.48-.33-2.22-.16-1.44-.2-2.12-.07-1.29-.07-1.85H527v1.34c-1.54,2.74-2.81,5.27-3.83,7.58a62.37,62.37,0,0,0-2.61,7,73,73,0,0,0-1.87,7.48q-.79,4-1.57,8.94h-4.62a120.11,120.11,0,0,1,4.25-13.4q2.54-6.65,5.86-13.39l1.39-2.22-2.4.23h-9.8Z"/><path class="cls-3" d="M531.8,804.51a8.05,8.05,0,0,1,.56-3,8.58,8.58,0,0,1,1.55-2.54,11.06,11.06,0,0,1,2.37-2,13.52,13.52,0,0,1,3-1.43,20.42,20.42,0,0,1-2.43-1.53,9.89,9.89,0,0,1-2-1.89,8.71,8.71,0,0,1-1.32-2.34,7.73,7.73,0,0,1-.49-2.84,8.14,8.14,0,0,1,.65-3.28,7.35,7.35,0,0,1,1.83-2.54,8.48,8.48,0,0,1,2.88-1.66,11.33,11.33,0,0,1,3.79-.6,9.16,9.16,0,0,1,6.36,2,7.19,7.19,0,0,1,.51,10,13.48,13.48,0,0,1-4.6,3.31,22.47,22.47,0,0,1,3,1.84,13.43,13.43,0,0,1,2.39,2.22,10,10,0,0,1,1.58,2.61,7.82,7.82,0,0,1,.58,3,8,8,0,0,1-.67,3.23,7.63,7.63,0,0,1-2,2.68,9.74,9.74,0,0,1-3.25,1.83,15.13,15.13,0,0,1-8.84,0,9.19,9.19,0,0,1-3.09-1.73,6.82,6.82,0,0,1-1.81-2.5A7.54,7.54,0,0,1,531.8,804.51Zm16.08.24a6.52,6.52,0,0,0-.62-2.86,8.2,8.2,0,0,0-1.65-2.28,14.12,14.12,0,0,0-2.39-1.84c-.91-.55-1.83-1.07-2.79-1.53A9.21,9.21,0,0,0,538.2,798a9.06,9.06,0,0,0-1.42,2,8.59,8.59,0,0,0-.77,2.07,8.34,8.34,0,0,0-.23,1.91,7.73,7.73,0,0,0,.34,2.25,5.5,5.5,0,0,0,1.09,2,5.6,5.6,0,0,0,1.92,1.45,6.7,6.7,0,0,0,2.88.55,6.32,6.32,0,0,0,2.54-.48,5.7,5.7,0,0,0,1.85-1.28,5.48,5.48,0,0,0,1.11-1.79A5.63,5.63,0,0,0,547.88,804.75ZM537,786.35a5.45,5.45,0,0,0,.54,2.5,7.09,7.09,0,0,0,1.42,1.91,11.44,11.44,0,0,0,2,1.55c.76.46,1.54.9,2.35,1.3a10,10,0,0,0,2.76-3.15,7.53,7.53,0,0,0,.79-3.46,6.76,6.76,0,0,0-1.28-4.41,4.31,4.31,0,0,0-3.52-1.55,4.92,4.92,0,0,0-2.2.46,5.13,5.13,0,0,0-1.58,1.2,4.93,4.93,0,0,0-1,1.69A5.89,5.89,0,0,0,537,786.35Z"/><path class="cls-3" d="M556.33,789.26a12.6,12.6,0,0,1,.67-4.16,9.21,9.21,0,0,1,2-3.28,9.37,9.37,0,0,1,3.24-2.17,11.57,11.57,0,0,1,4.41-.78,11.07,11.07,0,0,1,4.64.9,8.76,8.76,0,0,1,3.26,2.52,10.3,10.3,0,0,1,1.89,4,20.62,20.62,0,0,1,.6,5.15,24.43,24.43,0,0,1-1.24,7.94,21.82,21.82,0,0,1-3.4,6.4,17.69,17.69,0,0,1-5.08,4.46,16.46,16.46,0,0,1-6.31,2.13l-.83-1.34a15.89,15.89,0,0,0,4.83-2.17,15.55,15.55,0,0,0,3.6-3.4,17.88,17.88,0,0,0,2.43-4.34,23,23,0,0,0,1.29-5,9.5,9.5,0,0,1-2.52,1.87,8.53,8.53,0,0,1-3.95.77,11.27,11.27,0,0,1-3.83-.63,8.27,8.27,0,0,1-3-1.82,8.56,8.56,0,0,1-2-3A10.52,10.52,0,0,1,556.33,789.26Zm4.44,0a8.29,8.29,0,0,0,.42,2.61,7,7,0,0,0,1.2,2.26,6,6,0,0,0,1.89,1.59,5.17,5.17,0,0,0,2.5.61,7.83,7.83,0,0,0,3.67-.77,5.26,5.26,0,0,0,2.15-1.91,10.54,10.54,0,0,0,.09-1.51v-1.41a17.35,17.35,0,0,0-.35-3.39,11.26,11.26,0,0,0-1.08-3.12,6.67,6.67,0,0,0-1.94-2.26,4.7,4.7,0,0,0-2.87-.88,4.76,4.76,0,0,0-4.22,2.19A10.74,10.74,0,0,0,560.77,789.22Z"/><path class="cls-4" d="M1339.71,212.87a1.29,1.29,0,0,1,1.29-1.29h14.88c8.29,0,13.93,5.37,13.93,12.5,0,5.24-3.47,9-6.66,10.88,3.6,1.49,8.15,4.82,8.15,11.07,0,7.61-6,13.11-14.81,13.11H1341a1.29,1.29,0,0,1-1.29-1.29ZM1357,254.59a8.38,8.38,0,0,0,8.56-8.63c0-4.82-4.41-8.35-9.71-8.35h-11.21v17Zm-1.15-21.67c5.23,0,8.15-3.74,8.15-8.5s-2.92-8.15-8.15-8.15H1344.8v16.65Z"/><path class="cls-4" d="M1380.06,233.26a1.34,1.34,0,0,1,1.29-1.29h1.3a1.15,1.15,0,0,1,1.15.95l.54,2a10.07,10.07,0,0,1,8.16-3.6c2,0,5.43.34,4.76,2.24l-.82,2.31c-.34.88-1,.88-1.63.61a7,7,0,0,0-2.65-.54,8.73,8.73,0,0,0-7.41,3.8v18.14a1.33,1.33,0,0,1-1.29,1.29h-2.11a1.34,1.34,0,0,1-1.29-1.29Z"/><path class="cls-4" d="M1411.66,241.89a22.35,22.35,0,0,1,5.77.88c.07-5-.54-7.34-4.41-7.34a23.82,23.82,0,0,0-8.16,1.5c-.68.27-1.08-.07-1.29-.68l-.54-1.7a1.1,1.1,0,0,1,.75-1.5,25.64,25.64,0,0,1,9.44-1.76c6.93,0,8.63,3.53,8.63,11.48v15.08a1.33,1.33,0,0,1-1.29,1.29h-1.29c-.75,0-1-.4-1.16-1l-.54-1.83a11.77,11.77,0,0,1-8.43,3.53c-4.75,0-8.35-3.46-8.35-8.9C1400.79,245.76,1404.66,241.89,1411.66,241.89Zm-1.77,13.86a9.65,9.65,0,0,0,7.48-3.81v-5.37a12.29,12.29,0,0,0-5.71-1.08c-3.81,0-6.52,1.9-6.52,5.43A4.58,4.58,0,0,0,1409.89,255.75Z"/><path class="cls-4" d="M1431.29,233.26a1.34,1.34,0,0,1,1.3-1.29h1.29a1,1,0,0,1,1.08.81l.61,2.11a15.2,15.2,0,0,1,9.52-3.6c7.88,0,10.53,5.16,10.53,12.23v14.33a1.33,1.33,0,0,1-1.29,1.29h-2.18a1.33,1.33,0,0,1-1.29-1.29V243.52c0-5.17-2.31-7.68-6.11-7.68-5.1,0-8.77,3.87-8.77,3.87v18.14a1.33,1.33,0,0,1-1.29,1.29h-2.1a1.34,1.34,0,0,1-1.3-1.29Z"/><path class="cls-4" d="M1476,231.29a14.56,14.56,0,0,1,7.27,1.76V212.87a1.33,1.33,0,0,1,1.29-1.29h2.11a1.33,1.33,0,0,1,1.29,1.29v45a1.33,1.33,0,0,1-1.29,1.29h-1.43a1.22,1.22,0,0,1-1.15-1.08l-.41-1.84a12.16,12.16,0,0,1-8.36,3.6c-6.93,0-12.36-6.52-12.36-14.33S1467.85,231.29,1476,231.29Zm-.2,24.25c4.89,0,7.4-4.48,7.4-4.48V237.47a14.59,14.59,0,0,0-6.59-1.63c-5.91,0-8.9,4.28-8.9,9.71S1470.84,255.54,1475.8,255.54Z"/><path class="cls-4" d="M1509.23,231.29c7.54,0,13.52,6.52,13.52,14.2s-6,14.33-13.52,14.33-13.53-6.52-13.53-14.33S1501.68,231.29,1509.23,231.29Zm0,24.12c5,0,8.83-4.42,8.83-9.92s-3.87-9.72-8.83-9.72-8.84,4.35-8.84,9.72S1504.27,255.41,1509.23,255.41Z"/><path class="cls-4" d="M1530.42,233.26a1.33,1.33,0,0,1,1.29-1.29h1.3a1,1,0,0,1,1.08.81l.61,2.11a15.2,15.2,0,0,1,9.52-3.6c7.88,0,10.53,5.16,10.53,12.23v14.33a1.33,1.33,0,0,1-1.29,1.29h-2.18a1.33,1.33,0,0,1-1.29-1.29V243.52c0-5.17-2.31-7.68-6.11-7.68-5.1,0-8.77,3.87-8.77,3.87v18.14a1.33,1.33,0,0,1-1.29,1.29h-2.11a1.33,1.33,0,0,1-1.29-1.29Z"/><path class="cls-4" d="M1333.8,292.44c6.86,0,11.82,2.37,16.44,6.31a1.33,1.33,0,0,1,.07,1.91c-.61.61-1.36,1.29-1.9,1.9s-1,.61-1.77-.07c-3.47-3.06-8.36-5.3-12.91-5.3-10.74,0-18.89,9-18.89,19.5s8.15,19.64,18.89,19.64a25.62,25.62,0,0,0,12.23-2.85V324h-7.82a1.24,1.24,0,0,1-1.29-1.22v-2.51a1.26,1.26,0,0,1,1.29-1.3h11.76a1.28,1.28,0,0,1,1.22,1.3v15.56a1.68,1.68,0,0,1-.54,1.08,33.5,33.5,0,0,1-16.78,4.49,24.46,24.46,0,1,1,0-48.92Z"/><path class="cls-4" d="M1360.36,314.79a1.33,1.33,0,0,1,1.29-1.29h1.29a1.16,1.16,0,0,1,1.16.95l.54,2a10.07,10.07,0,0,1,8.16-3.6c2,0,5.43.34,4.75,2.24l-.81,2.31c-.34.88-1,.88-1.63.61a7.13,7.13,0,0,0-2.65-.54,8.73,8.73,0,0,0-7.41,3.81v18.14a1.33,1.33,0,0,1-1.29,1.29h-2.11a1.33,1.33,0,0,1-1.29-1.29Z"/><path class="cls-4" d="M1394.61,312.82c7.54,0,13.52,6.52,13.52,14.2s-6,14.34-13.52,14.34-13.53-6.53-13.53-14.34S1387.06,312.82,1394.61,312.82Zm0,24.12c5,0,8.83-4.42,8.83-9.92s-3.87-9.72-8.83-9.72-8.84,4.35-8.84,9.72S1389.65,336.94,1394.61,336.94Z"/><path class="cls-4" d="M1417.57,317.58h-3.47a1.3,1.3,0,0,1-1.29-1.3v-1.49a1.25,1.25,0,0,1,1.29-1.29h3.47V306a1.33,1.33,0,0,1,1.29-1.29l2.18-.14a1.27,1.27,0,0,1,1.22,1.29v7.68h7.88a1.24,1.24,0,0,1,1.29,1.29v1.49a1.29,1.29,0,0,1-1.29,1.3h-7.88v15.9c0,2.71.68,3.26,2.24,3.26a12.87,12.87,0,0,0,5-1.5c1-.54,1.29-.13,1.63.41l1,1.7c.48.81.27,1.22-.47,1.7a17.86,17.86,0,0,1-7.82,2.31c-5.43,0-6.25-3.26-6.25-7.48Z"/><path class="cls-4" d="M1450.39,312.82a12,12,0,0,1,12.3,12.43,16.28,16.28,0,0,1-.14,1.84,1.24,1.24,0,0,1-1.22,1.15h-19.57c.27,4.56,4.28,8.84,9.1,8.84a12.93,12.93,0,0,0,6.73-2c1-.55,1.36-.89,1.9-.14.41.55.75,1,1.16,1.56s.74,1-.27,1.77a16.92,16.92,0,0,1-10,3.13c-8.22,0-13.32-6.46-13.32-14.27S1442.17,312.82,1450.39,312.82Zm7.61,11.62a7.86,7.86,0,0,0-7.61-7.48,8.45,8.45,0,0,0-8.56,7.48Z"/><path class="cls-4" d="M1468.46,336.87c.27-.41.75-1.36,1-1.7a1.27,1.27,0,0,1,1.84-.2,11.44,11.44,0,0,0,6.38,2.38c2.79,0,4.42-1.43,4.42-3.26,0-2.38-2-3.47-6-5.44-3.6-1.77-7.75-4.14-7.75-8.76,0-2.86,2.31-7.07,8.63-7.07a13.78,13.78,0,0,1,7.54,2.11,1.61,1.61,0,0,1,.41,2.1l-.54,1.09a1.49,1.49,0,0,1-2,.61,13.52,13.52,0,0,0-5.44-1.63c-3.06,0-3.87,1.56-3.87,2.72,0,2.24,2.24,3.26,5,4.62,4.69,2.24,8.9,4.35,8.9,9.24,0,3.94-3.81,7.68-9.38,7.68a13.74,13.74,0,0,1-8.83-3.06A1.36,1.36,0,0,1,1468.46,336.87Z"/><path class="cls-4" d="M1505.15,312.82a12.12,12.12,0,0,1,7.88,2.85l.48-1.22a1.26,1.26,0,0,1,1.29-.95H1516a1.33,1.33,0,0,1,1.29,1.29v45a1.33,1.33,0,0,1-1.29,1.29h-2.11a1.33,1.33,0,0,1-1.29-1.29V339a11.89,11.89,0,0,1-7.27,2.38c-7.47,0-13-6.25-13-14.2S1497.74,312.82,1505.15,312.82Zm.81,24a11.76,11.76,0,0,0,6.59-2.24V320.43a9.22,9.22,0,0,0-6.93-3.33c-5.43,0-8.56,4.69-8.56,10S1500.73,336.8,1506,336.8Z"/><path class="cls-4" d="M1526.69,314.79a1.33,1.33,0,0,1,1.29-1.29h2.17a1.33,1.33,0,0,1,1.29,1.29v14.34c0,5.16,2.31,7.67,6.12,7.67a10.74,10.74,0,0,0,8.08-3.87V314.79a1.34,1.34,0,0,1,1.29-1.29H1549a1.33,1.33,0,0,1,1.29,1.29v24.6a1.33,1.33,0,0,1-1.29,1.29h-1.29c-.75,0-1-.48-1.22-1.16l-.48-1.76a12.39,12.39,0,0,1-8.83,3.6c-7.88,0-10.53-5.1-10.53-12.3Z"/><path class="cls-4" d="M1571.33,312.82a12,12,0,0,1,12.29,12.43,16.26,16.26,0,0,1-.13,1.84,1.25,1.25,0,0,1-1.23,1.15H1562.7c.27,4.56,4.28,8.84,9.1,8.84a13,13,0,0,0,6.73-2c1-.55,1.36-.89,1.9-.14.41.55.75,1,1.16,1.56s.74,1-.28,1.77a16.88,16.88,0,0,1-10,3.13c-8.23,0-13.32-6.46-13.32-14.27S1563.1,312.82,1571.33,312.82Zm7.61,11.62a7.86,7.86,0,0,0-7.61-7.48,8.46,8.46,0,0,0-8.57,7.48Z"/><path class="cls-5" d="M1270.24,477.91l14-31.1a.83.83,0,0,1,.78-.51h.47a.83.83,0,0,1,.78.51l14,31.1a.82.82,0,0,1-.79,1.2h-1.85a.85.85,0,0,1-.78-.51l-3.42-7.62H1277l-3.38,7.62a.85.85,0,0,1-.78.51H1271A.82.82,0,0,1,1270.24,477.91Zm22-9.8c-2.26-5-4.48-10.12-6.75-15.15h-.37l-6.74,15.15Z"/><path class="cls-5" d="M1305.31,447.64a.88.88,0,0,1,.88-.88h10.12c5.63,0,9.47,3.66,9.47,8.51a8.74,8.74,0,0,1-4.53,7.39c2.45,1,5.55,3.28,5.55,7.53,0,5.18-4.12,8.92-10.08,8.92h-10.53a.88.88,0,0,1-.88-.88ZM1317.09,476a5.69,5.69,0,0,0,5.82-5.87c0-3.28-3-5.68-6.6-5.68h-7.63V476Zm-.78-14.74c3.56,0,5.54-2.54,5.54-5.77s-2-5.55-5.54-5.55h-7.53v11.32Z"/><path class="cls-5" d="M1348.51,446.3a16.24,16.24,0,0,1,11.18,4.3.89.89,0,0,1,0,1.29l-1.25,1.25c-.37.46-.74.42-1.2-.05a14,14,0,0,0-8.83-3.46,13.29,13.29,0,0,0,0,26.57c4,0,6.38-1.62,8.83-3.47a.88.88,0,0,1,1.11-.14l1.38,1.25a.89.89,0,0,1,0,1.25,15.86,15.86,0,0,1-11.23,4.48,16.64,16.64,0,1,1,0-33.27Z"/><path class="cls-5" d="M1366.85,447.64a.87.87,0,0,1,.83-.88H1378a16.18,16.18,0,1,1,0,32.35h-10.35a.87.87,0,0,1-.83-.88Zm10.44,28.28c7.58,0,13.08-5.41,13.08-13s-5.5-13-13.08-13h-6.93v26Z"/><path class="cls-5" d="M1401.36,447.64a.88.88,0,0,1,.88-.88h18.21a.88.88,0,0,1,.87.88V449a.88.88,0,0,1-.87.88h-15.53v11.27h13.26a.92.92,0,0,1,.88.88v1.34a.88.88,0,0,1-.88.88h-13.26V476h15.53a.88.88,0,0,1,.87.88v1.34a.88.88,0,0,1-.87.88h-18.21a.88.88,0,0,1-.88-.88Z"/><path class="cls-5" d="M1428.72,447.64a.88.88,0,0,1,.87-.88h18.21a.88.88,0,0,1,.88.88V449a.88.88,0,0,1-.88.88h-15.53v12.66h13.26a.91.91,0,0,1,.88.88v1.34a.91.91,0,0,1-.88.88h-13.26v12.61a.91.91,0,0,1-.87.88h-1.81a.88.88,0,0,1-.87-.88Z"/><path class="cls-5" d="M1469.33,446.3a16.26,16.26,0,0,1,11.18,4.3.89.89,0,0,1,0,1.29c-.41.42-.92.88-1.29,1.3s-.69.41-1.2-.05a14,14,0,0,0-8.78-3.6,13,13,0,0,0-12.84,13.26c0,7.11,5.54,13.35,12.84,13.35a17.43,17.43,0,0,0,8.32-1.94v-6.47h-5.32a.84.84,0,0,1-.87-.83V465.2a.85.85,0,0,1,.87-.88h8a.87.87,0,0,1,.83.88v10.58a1.17,1.17,0,0,1-.37.74,22.79,22.79,0,0,1-11.41,3.05,16.64,16.64,0,1,1,0-33.27Z"/><path class="cls-5" d="M1488.82,447.64a.92.92,0,0,1,.88-.88h1.8a.88.88,0,0,1,.88.88v13.49h18.76V447.64a.88.88,0,0,1,.88-.88h1.8a.92.92,0,0,1,.88.88v30.59a.92.92,0,0,1-.88.88H1512a.88.88,0,0,1-.88-.88v-14h-18.76v14a.88.88,0,0,1-.88.88h-1.8a.92.92,0,0,1-.88-.88Z"/><path class="cls-5" d="M1524.12,447.64a.92.92,0,0,1,.88-.88h1.85a.92.92,0,0,1,.88.88v30.59a.92.92,0,0,1-.88.88H1525a.92.92,0,0,1-.88-.88Z"/><path class="cls-5" d="M1531.61,475l1-1.11c.74-.7,1.11-.37,1.57.14.78.87,2.45,2.44,4.48,2.44,2.77,0,5.64-2,5.64-6.93v-21.9a.88.88,0,0,1,.87-.88H1547a.88.88,0,0,1,.87.88v21.81c0,6.42-3.88,10.12-9.28,10.12a8.89,8.89,0,0,1-7-3.42A1,1,0,0,1,1531.61,475Z"/><path class="cls-5" d="M1555.86,447.87a1.09,1.09,0,0,1,1.11-1.11h1.34a1.13,1.13,0,0,1,1.11,1.11V461l14.42-13.72a1.37,1.37,0,0,1,.87-.47H1577a.89.89,0,0,1,.55,1.62L1562.93,462l15.29,15.66a.91.91,0,0,1-.78,1.44h-2.36a1.26,1.26,0,0,1-.83-.33l-14.83-15.47V478a1.13,1.13,0,0,1-1.11,1.11H1557a1.09,1.09,0,0,1-1.11-1.11Z"/><path class="cls-5" d="M1584.18,447.64a.88.88,0,0,1,.88-.88h1.8a.91.91,0,0,1,.88.88V476h13.31a.88.88,0,0,1,.88.88v1.34a.88.88,0,0,1-.88.88h-16a.88.88,0,0,1-.88-.88Z"/><path class="cls-5" d="M1610.52,447a.89.89,0,0,1,.83-.65h.74a.9.9,0,0,1,.79.51l9.14,25.46h.24l9-25.46a.87.87,0,0,1,.78-.51h.74a.89.89,0,0,1,.83.65l6,31.05c.14.65-.14,1.11-.83,1.11h-1.85a1,1,0,0,1-.83-.65L1632,454.67h-.19l-8.5,24.39a.93.93,0,0,1-.78.51h-.83a.93.93,0,0,1-.79-.51l-8.59-24.39h-.19l-4,23.79a.91.91,0,0,1-.83.65h-1.85c-.69,0-1-.46-.83-1.11Z"/><path class="cls-5" d="M1260.89,502.58a.87.87,0,0,1,.88-.83h1.15l20.84,26h.09V503.08a.87.87,0,0,1,.88-.87h1.62a.9.9,0,0,1,.87.87v31.1a.86.86,0,0,1-.87.83h-.84l-21.2-26.47h0v25.13a.88.88,0,0,1-.88.88h-1.61a.91.91,0,0,1-.88-.88Z"/><path class="cls-5" d="M1310.88,501.75a16.63,16.63,0,1,1-16.59,16.67A16.59,16.59,0,0,1,1310.88,501.75Zm0,30a13.4,13.4,0,1,0-13.35-13.36A13.43,13.43,0,0,0,1310.88,531.78Z"/><path class="cls-5" d="M1334.58,503.08a.87.87,0,0,1,.88-.87h10.21a10.3,10.3,0,1,1,0,20.6h-7.63v10.86a.91.91,0,0,1-.88.88h-1.75a.88.88,0,0,1-.88-.88Zm10.86,16.31a7.05,7.05,0,0,0,7-7.06,6.81,6.81,0,0,0-7-6.61h-7.35v13.67Z"/><path class="cls-5" d="M1376.35,501.75a16.67,16.67,0,0,1,6.79,31.88l5.41,8.68a.87.87,0,0,1-.74,1.39h-2.31a1,1,0,0,1-.74-.46l-5-8.51a19.82,19.82,0,0,1-3.37.28,16.63,16.63,0,0,1,0-33.26Zm0,30A13.4,13.4,0,1,0,1363,518.42,13.44,13.44,0,0,0,1376.35,531.78Z"/><path class="cls-5" d="M1400.09,503.08a.87.87,0,0,1,.88-.87h12a9.93,9.93,0,0,1,10.07,9.84,10.3,10.3,0,0,1-6.84,9.42l6.33,11.74a.87.87,0,0,1-.78,1.34h-2.36a.79.79,0,0,1-.74-.42l-6.14-12.24h-8.83v11.78a.91.91,0,0,1-.88.88H1401a.88.88,0,0,1-.88-.88Zm12.62,15.76a6.63,6.63,0,1,0,0-13.26h-9v13.26Z"/><path class="cls-5" d="M1428.55,529.7c.24-.28.47-.6.7-.88.46-.6,1-1,1.61-.42.33.28,3.7,3.52,7.81,3.52,3.75,0,6.19-2.36,6.19-5.09,0-3.18-2.77-5.08-8.08-7.3-5.08-2.21-8.13-4.29-8.13-9.56,0-3.14,2.49-8.22,9.84-8.22a15.13,15.13,0,0,1,7.9,2.35,1,1,0,0,1,.28,1.57c-.19.28-.37.6-.56.88a1,1,0,0,1-1.62.42c-.32-.19-3.23-2.13-6-2.13-4.9,0-6.37,3.14-6.37,5.08,0,3.1,2.35,4.9,6.23,6.52,6.24,2.54,10.26,4.9,10.26,10.26,0,4.8-4.57,8.31-10,8.31a15.1,15.1,0,0,1-9.75-3.74A1,1,0,0,1,1428.55,529.7Z"/><path class="cls-5" d="M1459.83,505.3h-8a.87.87,0,0,1-.87-.88v-1.34a.87.87,0,0,1,.87-.87h19.59a.87.87,0,0,1,.88.87v1.34a.87.87,0,0,1-.88.88h-8v28.37a.91.91,0,0,1-.87.88h-1.76a.92.92,0,0,1-.88-.88Z"/><path class="cls-5" d="M1476.93,503.08a.9.9,0,0,1,.88-.87h1.75a.87.87,0,0,1,.88.87v19.27c0,5.27,3.28,9.38,8.69,9.38s8.77-4,8.77-9.29V503.08a.87.87,0,0,1,.88-.87h1.76a.91.91,0,0,1,.88.87v19.55c0,7-5,12.38-12.29,12.38s-12.2-5.36-12.2-12.38Z"/><path class="cls-5" d="M1506,503.41a.82.82,0,0,1,.79-1.2h1.85a.83.83,0,0,1,.78.51L1521,528.59h.18l11.51-25.87a.88.88,0,0,1,.78-.51h1.85a.82.82,0,0,1,.79,1.2l-14,31.09a.88.88,0,0,1-.78.51h-.47a.93.93,0,0,1-.78-.51Z"/><path class="cls-5" d="M1538.1,503.32a.8.8,0,0,1,.83-1.11h1.94a.94.94,0,0,1,.83.64l6.42,23.94h.19l7.71-24.54a.8.8,0,0,1,.79-.5h.83a.84.84,0,0,1,.79.5l7.85,24.54h.19l6.28-23.94a.94.94,0,0,1,.83-.64h1.94a.8.8,0,0,1,.83,1.11l-8.73,31.05a.89.89,0,0,1-.83.64h-.74a.92.92,0,0,1-.78-.51l-8-25H1557l-7.85,25a1,1,0,0,1-.79.51h-.74a.89.89,0,0,1-.83-.64Z"/><path class="cls-5" d="M1589.29,518l-9-14.46a.83.83,0,0,1,.79-1.29h2.49a1,1,0,0,1,.79.41l7.11,12.25h0l7.21-12.25a.87.87,0,0,1,.78-.41h2.5a.83.83,0,0,1,.78,1.29l-9,14.46,9.33,15.3a.82.82,0,0,1-.78,1.29h-2.13a.91.91,0,0,1-.78-.42l-7.9-13.07h0l-7.81,13.07a.87.87,0,0,1-.78.42h-2.13c-.83,0-1.2-.69-.83-1.29Z"/><path class="cls-5" d="M1616.23,519l-11.14-15.43a.86.86,0,0,1,.74-1.34H1608a1,1,0,0,1,.74.41l9.33,12.89,9.34-12.89a1,1,0,0,1,.74-.41h2.17a.86.86,0,0,1,.74,1.34l-11.28,15.38v14.74a.91.91,0,0,1-.87.88h-1.81a.87.87,0,0,1-.87-.88Z"/><path class="cls-5" d="M1632.49,532.84l16.77-27.26v-.14h-14.55a.9.9,0,0,1-.88-.88v-1.48a.9.9,0,0,1,.88-.87h18.71a.91.91,0,0,1,.88.87v.61l-17,27.58v.05h15.24a.87.87,0,0,1,.88.87v1.48a.88.88,0,0,1-.88.88h-19.12a.91.91,0,0,1-.88-.88Z"/><path class="cls-5" d="M1340.56,633.7a15.2,15.2,0,0,1,3.93.6c0-3.42-.37-5-3-5a16.1,16.1,0,0,0-5.55,1c-.46.18-.74-.05-.87-.46l-.37-1.16c-.19-.55.09-.83.5-1a17.4,17.4,0,0,1,6.43-1.2c4.71,0,5.86,2.4,5.86,7.81v10.26a.91.91,0,0,1-.87.88h-.88c-.51,0-.65-.28-.79-.7l-.37-1.24a8,8,0,0,1-5.73,2.4c-3.23,0-5.68-2.36-5.68-6.06C1333.17,636.33,1335.8,633.7,1340.56,633.7Zm-1.2,9.42a6.55,6.55,0,0,0,5.08-2.58v-3.65a8.14,8.14,0,0,0-3.88-.74c-2.58,0-4.43,1.29-4.43,3.69A3.12,3.12,0,0,0,1339.36,643.12Z"/><path class="cls-5" d="M1354,614a.92.92,0,0,1,.88-.88h1.43a.92.92,0,0,1,.88.88v13.72a9.88,9.88,0,0,1,4.94-1.2c5.55,0,8.88,4.25,8.88,9.66s-3.7,9.75-8.41,9.75a8.28,8.28,0,0,1-5.69-2.45l-.27,1.25a.85.85,0,0,1-.79.74h-1a.92.92,0,0,1-.88-.88Zm8.27,29c3.37,0,5.5-3.19,5.5-6.79s-2-6.61-6-6.61a9.92,9.92,0,0,0-4.48,1.11v9.24A6.24,6.24,0,0,0,1362.23,643Z"/><path class="cls-5" d="M1384.32,626.49a8,8,0,0,1,6.6,3.24.9.9,0,0,1-.18,1.29l-.88.74c-.69.65-.92.18-1.34-.19a5.7,5.7,0,0,0-4.25-1.94,6.27,6.27,0,0,0-6.14,6.57c0,3.69,2.63,6.65,6.09,6.65,2.78,0,3.84-1.39,4.9-2.4a.87.87,0,0,1,1.39-.1l.51.37a.94.94,0,0,1,.32,1.3,8.31,8.31,0,0,1-7.07,3.88,9.49,9.49,0,0,1-9.47-9.66A9.74,9.74,0,0,1,1384.32,626.49Z"/><path class="cls-5" d="M1404.09,626.49a9.88,9.88,0,0,1,4.94,1.2V614a.92.92,0,0,1,.88-.88h1.43a.91.91,0,0,1,.88.88v30.59a.91.91,0,0,1-.88.88h-1a.84.84,0,0,1-.78-.74l-.28-1.25a8.27,8.27,0,0,1-5.68,2.45c-4.71,0-8.41-4.44-8.41-9.75S1398.55,626.49,1404.09,626.49ZM1404,643a6.24,6.24,0,0,0,5-3V630.7a9.92,9.92,0,0,0-4.48-1.11c-4,0-6.06,2.91-6.06,6.61S1400.58,643,1404,643Z"/><path class="cls-5" d="M1426.55,626.49a8.16,8.16,0,0,1,8.36,8.46c0,.32-.05.92-.09,1.25a.85.85,0,0,1-.84.78h-13.3a6.48,6.48,0,0,0,6.19,6,8.74,8.74,0,0,0,4.57-1.39c.65-.37.93-.6,1.3-.09s.5.69.78,1.06.51.69-.18,1.2a11.48,11.48,0,0,1-6.79,2.13c-5.6,0-9.06-4.39-9.06-9.7S1421,626.49,1426.55,626.49Zm5.17,7.9a5.34,5.34,0,0,0-5.17-5.08,5.76,5.76,0,0,0-5.83,5.08Z"/><path class="cls-5" d="M1441.42,629.73h-2.82a.88.88,0,0,1-.88-.88v-1a.85.85,0,0,1,.88-.88h2.82v-6.46c0-5.36,3.1-7.86,7.07-7.86a7.35,7.35,0,0,1,5.08,1.9.85.85,0,0,1,.19,1.06l-.74,1.2c-.28.46-.74.42-1.2.05a6.11,6.11,0,0,0-3.38-1.34c-2.12,0-3.83,1.43-3.83,5V627H1450a.85.85,0,0,1,.88.88v1a.88.88,0,0,1-.88.88h-5.36v14.83a.92.92,0,0,1-.88.88h-1.43a.92.92,0,0,1-.88-.88Z"/><path class="cls-5" d="M1455.79,639.24a8.11,8.11,0,0,1-1.48-4.62c0-4.29,3-8.13,7.81-8.13h7.81a.85.85,0,0,1,.88.88v.79c0,.32-.19.73-.51.78l-2.5.51a6.4,6.4,0,0,1,2.08,5.17,7.6,7.6,0,0,1-7.76,7.86,7.28,7.28,0,0,1-4.39-1.16s-2,.93-2,2.78a2.29,2.29,0,0,0,2.54,2.26h6.65c3.88,0,6.93,1.89,6.93,5.91,0,3.84-4,7.49-9.56,7.49-6.19,0-8.87-3.33-8.87-6.38a4.94,4.94,0,0,1,2.68-4.29V649a4.47,4.47,0,0,1-3.38-4.39A6.61,6.61,0,0,1,1455.79,639.24Zm6.42,17.52c3,0,6.19-1.71,6.19-4.39,0-.6-.27-3-3.51-3h-5.13s-3.09.83-3.09,3.56C1456.67,655.14,1459.07,656.76,1462.21,656.76Zm4.58-22.23c0-3-1.85-5.17-4.62-5.17a5.19,5.19,0,0,0,0,10.35C1464.94,639.71,1466.79,637.58,1466.79,634.53Z"/><path class="cls-5" d="M1475.8,614a.91.91,0,0,1,.87-.88h1.44a.91.91,0,0,1,.87.88v15a9.44,9.44,0,0,1,6.2-2.45c4.57,0,7.16,2.91,7.16,8.32v9.75a.92.92,0,0,1-.88.88H1490a.92.92,0,0,1-.88-.88v-9.75c0-3.51-1.57-5.22-4.16-5.22a9,9,0,0,0-6,2.58v12.39a.91.91,0,0,1-.87.88h-1.44a.91.91,0,0,1-.87-.88Z"/><path class="cls-5" d="M1498,616.23a2.2,2.2,0,1,1,2.17,2.18A2.18,2.18,0,0,1,1498,616.23Zm.64,11.6a.92.92,0,0,1,.88-.88H1501a.91.91,0,0,1,.88.88v16.73a.91.91,0,0,1-.88.88h-1.43a.92.92,0,0,1-.88-.88Z"/><path class="cls-5" d="M1508.46,627.83a.88.88,0,0,1,.88-.88h1.43a.88.88,0,0,1,.88.88V651.9c0,5.36-3.1,7.86-7.07,7.86a7.35,7.35,0,0,1-5.08-1.9.85.85,0,0,1-.19-1.06l.74-1.2c.28-.46.74-.42,1.2-.05a6.94,6.94,0,0,0,3.37,1.34c2.13,0,3.84-1.43,3.84-5Zm-.6-11.6a2.2,2.2,0,1,1,2.17,2.18A2.18,2.18,0,0,1,1507.86,616.23Z"/><path class="cls-5" d="M1518.3,614a.92.92,0,0,1,.88-.88h1.43a.92.92,0,0,1,.88.88v20l7.85-6.47a1.84,1.84,0,0,1,1.11-.56h2.5c.78,0,.74.88.41,1.16l-8.78,7,10.22,9.15a.66.66,0,0,1-.47,1.16h-2.54a1.6,1.6,0,0,1-.92-.37l-9.38-8.92v8.41a.92.92,0,0,1-.88.88h-1.43a.92.92,0,0,1-.88-.88Z"/><path class="cls-5" d="M1539,614a.92.92,0,0,1,.88-.88h1.43a.92.92,0,0,1,.88.88v30.59a.92.92,0,0,1-.88.88h-1.43a.92.92,0,0,1-.88-.88Z"/><path class="cls-5" d="M1548.79,627.83a.92.92,0,0,1,.88-.88h.88a.67.67,0,0,1,.74.56l.41,1.43a8.46,8.46,0,0,1,6-2.45,6.5,6.5,0,0,1,5.92,3c.23-.19,3.18-3,6.88-3,5.36,0,7.16,3.51,7.16,8.32v9.75a.91.91,0,0,1-.88.88h-1.48a.91.91,0,0,1-.87-.88v-9.75c0-3.47-1.48-5.22-4.16-5.22a8.27,8.27,0,0,0-5.64,2.58,15.09,15.09,0,0,1,.23,2.64v9.75a.91.91,0,0,1-.88.88h-1.47a.91.91,0,0,1-.88-.88v-9.75c0-3.51-1.57-5.22-4.39-5.22a7.15,7.15,0,0,0-5.27,2.63v12.34a.91.91,0,0,1-.88.88h-1.43a.92.92,0,0,1-.88-.88Z"/><path class="cls-5" d="M1327.1,683.27a.9.9,0,0,1,.87-.87h.88a.67.67,0,0,1,.74.55l.42,1.43a10.29,10.29,0,0,1,6.46-2.45c5.37,0,7.17,3.52,7.17,8.32V700a.92.92,0,0,1-.88.88h-1.48a.92.92,0,0,1-.88-.88v-9.75c0-3.51-1.57-5.22-4.16-5.22a9.12,9.12,0,0,0-6,2.63V700a.91.91,0,0,1-.87.88H1328a.91.91,0,0,1-.87-.88Z"/><path class="cls-5" d="M1357.82,681.93a9.47,9.47,0,0,1,9.19,9.66c0,5.31-4.06,9.75-9.19,9.75s-9.19-4.44-9.19-9.75A9.47,9.47,0,0,1,1357.82,681.93Zm0,16.41c3.37,0,6-3,6-6.75s-2.64-6.61-6-6.61-6,3-6,6.61S1354.45,698.34,1357.82,698.34Z"/><path class="cls-5" d="M1375.47,713.86a.92.92,0,0,1-.88.88h-1.43a.92.92,0,0,1-.88-.88V683.27a.91.91,0,0,1,.88-.87h1c.42,0,.55.14.74.6l.32.88a8.21,8.21,0,0,1,5.36-2c5,0,8.73,4.44,8.73,9.75s-3.78,9.66-8.87,9.66a8.39,8.39,0,0,1-4.94-1.52Zm4.53-15.62c3.55,0,6-2.91,6-6.6s-2.13-6.79-5.82-6.79a6.25,6.25,0,0,0-4.71,2.26v9.52A7.76,7.76,0,0,0,1380,698.24Z"/><path class="cls-5" d="M1401.9,681.93a8.24,8.24,0,0,1,5.36,2l.32-.84a.86.86,0,0,1,.88-.64h.83a.91.91,0,0,1,.88.87v30.59a.92.92,0,0,1-.88.88h-1.43a.91.91,0,0,1-.88-.88V699.72a8.11,8.11,0,0,1-4.94,1.62c-5.09,0-8.88-4.25-8.88-9.66S1396.86,681.93,1401.9,681.93Zm.55,16.31a8,8,0,0,0,4.48-1.52v-9.61a6.28,6.28,0,0,0-4.71-2.26c-3.7,0-5.82,3.18-5.82,6.79S1398.89,698.24,1402.45,698.24Z"/><path class="cls-5" d="M1416.77,683.27a.91.91,0,0,1,.88-.87h.88a.78.78,0,0,1,.78.64l.37,1.34a6.84,6.84,0,0,1,5.55-2.45c1.38,0,3.7.24,3.23,1.53l-.55,1.57c-.23.6-.65.6-1.11.42a4.69,4.69,0,0,0-1.8-.37,6,6,0,0,0-5,2.58V700a.91.91,0,0,1-.88.88h-1.43a.92.92,0,0,1-.88-.88Z"/><path class="cls-5" d="M1431.1,698.29c.18-.28.5-.92.64-1.15A.85.85,0,0,1,1433,697a7.82,7.82,0,0,0,4.34,1.61c1.9,0,3-1,3-2.21,0-1.62-1.39-2.36-4.07-3.7-2.45-1.2-5.27-2.82-5.27-6,0-1.94,1.57-4.81,5.87-4.81a9.45,9.45,0,0,1,5.13,1.44,1.11,1.11,0,0,1,.28,1.43l-.37.74a1,1,0,0,1-1.34.41,9.27,9.27,0,0,0-3.7-1.1c-2.08,0-2.63,1.06-2.63,1.84,0,1.53,1.52,2.22,3.42,3.14,3.18,1.53,6,3,6,6.29,0,2.68-2.59,5.22-6.38,5.22a9.32,9.32,0,0,1-6-2.08A.92.92,0,0,1,1431.1,698.29Z"/><path class="cls-5" d="M1449.85,685.17h-2.35a.88.88,0,0,1-.88-.88v-1a.85.85,0,0,1,.88-.87h2.35v-5.13a.92.92,0,0,1,.88-.88l1.48-.09a.87.87,0,0,1,.83.88v5.22h5.36a.85.85,0,0,1,.88.87v1a.88.88,0,0,1-.88.88H1453V696c0,1.85.46,2.22,1.53,2.22a8.89,8.89,0,0,0,3.37-1c.69-.37.88-.09,1.11.28l.69,1.15c.32.56.19.84-.32,1.16a12.16,12.16,0,0,1-5.32,1.57c-3.69,0-4.25-2.22-4.25-5.08Z"/><path class="cls-5" d="M1464.22,683.27a.91.91,0,0,1,.88-.87h1.48a.91.91,0,0,1,.88.87V693c0,3.52,1.57,5.22,4.15,5.22a7.3,7.3,0,0,0,5.5-2.63V683.27a.91.91,0,0,1,.88-.87h1.43a.9.9,0,0,1,.88.87V700a.91.91,0,0,1-.88.88h-.87c-.51,0-.7-.33-.84-.79l-.32-1.2a8.43,8.43,0,0,1-6,2.45c-5.36,0-7.16-3.46-7.16-8.36Z"/><path class="cls-5" d="M1484.32,683.46c-.28-.6,0-1.06.69-1.06h1.43a.91.91,0,0,1,.84.5l5.73,13.22h0l6.1-13.22a.89.89,0,0,1,.79-.5h1.2c.69,0,1,.46.69,1.06l-7.9,17.42a.82.82,0,0,1-.79.46h-.23a.81.81,0,0,1-.78-.46Z"/><path class="cls-5" d="M1504.09,683.46c-.18-.65,0-1.06.7-1.06h1.43a.85.85,0,0,1,.83.5l3.37,12.2h0l5.22-12.7a.83.83,0,0,1,.79-.47h.23a.82.82,0,0,1,.78.47l5.18,12.75h0L1526,682.9a.84.84,0,0,1,.79-.5h1.43c.69,0,.88.41.69,1.06l-5,17.42a.8.8,0,0,1-.79.46h-.23a.83.83,0,0,1-.79-.46L1516.48,687,1511,700.88a.81.81,0,0,1-.78.46H1510a.75.75,0,0,1-.79-.46Z"/><path class="cls-5" d="M1538.24,691.45l-5.87-7.85c-.46-.6-.19-1.2.6-1.2h1.94a1,1,0,0,1,.74.37l4.39,6.28h0l4.57-6.28a.94.94,0,0,1,.74-.37h1.94c.78,0,1.06.6.6,1.2l-5.87,7.81,5.92,8.27c.41.6.13,1.2-.6,1.2h-1.71a1,1,0,0,1-.7-.42l-4.89-6.79h0l-4.81,6.84a1,1,0,0,1-.74.37h-1.71c-.78,0-1-.6-.6-1.2Z"/><path class="cls-5" d="M1550.39,683.41c-.28-.6,0-1,.69-1h2a.89.89,0,0,1,.79.5l6.84,14.14h0l6.47-14.14a1,1,0,0,1,.79-.5h1.75c.7,0,1,.46.7,1.06l-14.19,30.72a1,1,0,0,1-.78.56h-1.71c-.7,0-1.07-.51-.74-1.16l5.91-12.75Z"/><path class="cls-5" d="M1572.93,699.54l9.06-14.09v-.14h-7.76a.87.87,0,0,1-.83-.88v-1.16a.83.83,0,0,1,.83-.87h11.59a.82.82,0,0,1,.79,1.24l-8.83,14.19V698h7.12a.85.85,0,0,1,.88.87V700a.88.88,0,0,1-.88.88h-11.09a.92.92,0,0,1-.88-.88Z"/><path class="cls-5" d="M1356,786.07l-3.33,2.59a.7.7,0,0,1-1.06,0l-.88-1a.71.71,0,0,1,.09-1l6.47-6.29h1.25a.87.87,0,0,1,.83.88v29.66a.87.87,0,0,1-.83.88h-1.67a.87.87,0,0,1-.87-.88Z"/><path class="cls-5" d="M1366.14,809.5c3.78-4.07,7.53-8.18,11.31-12.25,3.15-3.41,4.67-6.19,4.67-8.36,0-2.63-1.71-5.87-6.47-5.87-2.86,0-5.13,1.94-6.56,3.47a.84.84,0,0,1-1.25,0l-.92-.88a.91.91,0,0,1-.05-1.2s3.28-4.53,8.78-4.53c6.61,0,10,4.21,10,8.92,0,4.07-2.58,7.07-5.77,10.49-3,3.14-5.92,6.33-8.87,9.47h13.58a.92.92,0,0,1,.88.88v1.24a.91.91,0,0,1-.88.88H1367a.87.87,0,0,1-.87-.88Z"/><path class="cls-5" d="M1390.39,807l1.25-1.06c.51-.37.88-.28,1.25.23a9.35,9.35,0,0,0,6.88,3.19c3.51,0,6.65-2.13,6.65-5.78,0-3.14-2.45-6.05-8.17-6.05h-2.59c-.51,0-.88-.28-.88-1v-1.11c0-.74.23-1,1-1h2.54c5,0,7.35-2.54,7.35-5.59a5.75,5.75,0,0,0-6.05-5.87,7.92,7.92,0,0,0-6.06,3,.78.78,0,0,1-1.2.1l-1.11-.88a.83.83,0,0,1,0-1.2s3.33-4.07,8.37-4.07c5.59,0,9.51,3.28,9.51,8.46a8.56,8.56,0,0,1-4.76,7.3v.14c2.18.92,5.55,3.51,5.55,7.48,0,5-3.88,9-10.26,9a11.4,11.4,0,0,1-9.29-4.11A.76.76,0,0,1,1390.39,807Z"/><path class="cls-5" d="M1413.49,803.77v-1.71L1431,780.11a.82.82,0,0,1,.7-.27h.92a.88.88,0,0,1,.88.87l0,21.12h3.75a.83.83,0,0,1,.87.83v1a.86.86,0,0,1-.87.87h-3.75v6.33a.9.9,0,0,1-.87.88h-1.58a.9.9,0,0,1-.87-.88v-6.23h-15.85A.88.88,0,0,1,1413.49,803.77Zm16.91-2V785.7l-13,16.08Z"/><path class="cls-5" d="M1442.83,806.82c.37-.32.69-.69,1.06-1s.79-.46,1.16.05a8.45,8.45,0,0,0,6.84,3.42c4.43,0,7.25-3.93,7.25-7.58s-2.31-6.65-7.25-6.65h-7a1.54,1.54,0,0,1-1.43-1.62v-12.2a.88.88,0,0,1,.88-.88h14a.88.88,0,0,1,.88.88v1.34a.88.88,0,0,1-.88.88h-11.73v8.5h5.36c7,0,10.67,3.65,10.67,9.7a10.49,10.49,0,0,1-10.72,10.58c-5.13,0-7.76-2.44-8.92-3.83C1442.32,807.7,1442.28,807.37,1442.83,806.82Z"/><path class="cls-5" d="M1482.1,779.28a.76.76,0,0,1,1,.46l.51,1.11c.23.56,0,1.07-.83,1.34-2.08.7-10.26,5.27-11.88,11.51a13.72,13.72,0,0,1,7-2.08,9.77,9.77,0,0,1,9.94,10,10.47,10.47,0,0,1-10.21,10.58c-7.49,0-10.77-5.82-10.77-13.16C1466.9,786.77,1477.44,781.13,1482.1,779.28Zm2.5,22.55a7.06,7.06,0,0,0-7-7.21,11.29,11.29,0,0,0-7.3,3c-.79,4.63,1,11.56,7.35,11.56A7.17,7.17,0,0,0,1484.6,801.83Z"/><path class="cls-5" d="M1493.56,810.38l12.89-26.94h-15.11a.92.92,0,0,1-.88-.88v-1.34a.92.92,0,0,1,.88-.88h18.58a.91.91,0,0,1,.87.88v.33l-13.49,29a1.76,1.76,0,0,1-1.52,1.2h-1.34a.9.9,0,0,1-.88-.88Z"/><path class="cls-5" d="M1519.71,795.59v-.14a8.24,8.24,0,0,1-4.76-7.11c0-5.09,4-8.46,9.52-8.46s9.61,3.37,9.61,8.46a8.24,8.24,0,0,1-4.76,7.11v.14c2.17.93,5.59,3.74,5.59,7.72,0,5-3.93,8.91-10.49,8.91-6.37,0-10.3-3.88-10.3-8.91C1514.12,799.33,1517.54,796.52,1519.71,795.59Zm4.71,13.86c4,0,7-2.17,7-5.82,0-2.86-2.55-5.77-6.94-6.24-4.43.47-6.92,3.38-6.92,6.24C1517.59,807.19,1520.77,809.45,1524.42,809.45Zm6.24-21c0-3.47-2.68-5.83-6.33-5.83a5.72,5.72,0,0,0-6,5.83c0,2.86,1.85,5.08,6.14,5.49C1528.77,793.56,1530.66,791.34,1530.66,788.48Z"/><path class="cls-5" d="M1544.47,809.64c2.08-.7,10.26-5.27,11.88-11.51a13.72,13.72,0,0,1-7,2.08,9.76,9.76,0,0,1-9.94-10,10.47,10.47,0,0,1,10.21-10.58c7.49,0,10.77,5.82,10.77,13.16,0,12.29-10.54,17.93-15.2,19.78a.76.76,0,0,1-1-.46l-.51-1.11C1543.41,810.42,1543.6,809.91,1544.47,809.64ZM1557,794.21c.78-4.63-1-11.56-7.35-11.56a7.17,7.17,0,0,0-6.93,7.35,7.06,7.06,0,0,0,7,7.21A11.29,11.29,0,0,0,1557,794.21Z"/><line class="cls-6" x1="960" y1="115" x2="960" y2="877"/></g></svg>