<svg xmlns="http://www.w3.org/2000/svg" viewBox="0 0 1920 1080"><defs><style>.cls-1{fill:#fbf6f2;}.cls-2{fill:#fc6565;}.cls-3{fill:#0a111c;}.cls-4{fill:#ff958b;}.cls-5{fill:#f4e9df;}.cls-6{fill:#6ea4c3;}</style></defs><g id="Bg"><rect class="cls-1" width="1920" height="1080"/></g><g id="Layer_1" data-name="Layer 1"><path class="cls-2" d="M502.63,779.36V511.53H472.06a30.6,30.6,0,0,0-30.57,30.57V743a30.6,30.6,0,0,0,30.57,30.57h.75v5.82H270.44v-5.82h.75A30.6,30.6,0,0,0,301.75,743V274.27a30.6,30.6,0,0,0-30.56-30.57h-.75v-5.82H441.49V505.71h61.14V237.88h171v5.82h-.75a30.6,30.6,0,0,0-30.57,30.57v70.2A170.48,170.48,0,0,1,517.6,508.62,170.48,170.48,0,0,1,642.36,672.77V743a30.6,30.6,0,0,0,30.57,30.57h.75v5.82Z"/><path class="cls-3" d="M672.93,238.63V243a31.34,31.34,0,0,0-31.32,31.32v70.2A169.87,169.87,0,0,1,514.72,508.62,169.87,169.87,0,0,1,641.61,672.77V743a31.34,31.34,0,0,0,31.32,31.32v4.32H503.38V510.78H472.06a31.34,31.34,0,0,0-31.32,31.32V743a31.34,31.34,0,0,0,31.32,31.32v4.32H271.19v-4.32A31.34,31.34,0,0,0,302.5,743V274.27A31.34,31.34,0,0,0,271.19,243v-4.32H440.74V506.46h62.64V238.63H672.93m1.5-1.5H501.88V505H442.24V237.13H269.69v7.32h1.5A29.85,29.85,0,0,1,301,274.27V743a29.85,29.85,0,0,1-29.81,29.82h-1.5v7.32H473.56v-7.32h-1.5A29.86,29.86,0,0,1,442.24,743V542.1a29.86,29.86,0,0,1,29.82-29.82h29.82V780.11H674.43v-7.32h-1.5A29.86,29.86,0,0,1,643.11,743v-70.2A171.23,171.23,0,0,0,520.32,508.62,171.23,171.23,0,0,0,643.11,344.47v-70.2a29.86,29.86,0,0,1,29.82-29.82h1.5v-7.32Z"/><path class="cls-4" d="M854.89,779.36c-57.17,0-93-12-109.24-19.17-39.8-17.52-60-45.84-60-84.18,0-31.27,13-55.14,39.75-73,28.74-19,69.12-25.49,97-28.74,21.28-2.18,47.64-10.39,65.6-20.43,29.8-17.56,47.19-41.25,54.71-74.56A78.54,78.54,0,0,0,944.86,460a92.52,92.52,0,0,0-1.61-17.14c-7.15-43.92-34.29-65.26-83-65.26-26.61,0-50.88,3.26-72.14,9.68-1.06.3-2.23.6-3.44.91a49.43,49.43,0,0,0-8.86,2.83c-7.18,3.91-10.39,8.37-10.39,14.44,0,7.17,4.72,9.7,10.88,12.27,22.63,9,49.06,31.77,49.06,66.57a69.87,69.87,0,0,1-139.73,0c0-29.35,24.55-56.18,32.07-63.71C740,398.34,782.82,371.8,860.29,371.8c47.74,0,93,16.4,124.16,45,24.1,21.86,41.3,58.28,41.82,88.56V743a30.61,30.61,0,0,0,30.57,30.57h.75v5.82Zm31.65-218.74a163.31,163.31,0,0,1-30.91,12.44c-14.55,4.36-30.23,17.49-30.23,36V743c0,16.86,13.23,30.57,29.49,30.57h31.65Z"/><path class="cls-3" d="M860.29,372.55c44.28,0,90.71,14.57,123.66,44.81,23.21,21.06,41,56.7,41.57,88V743a31.34,31.34,0,0,0,31.32,31.32v4.32H854.89c-65.88,0-168.47-16.74-168.47-102.6,0-31.32,13.5-55.07,39.41-72.35,27-17.82,64.26-24.84,96.66-28.62,21.06-2.16,47.52-10.26,65.88-20.52,30.24-17.82,47.52-41.58,55.08-75.06A80,80,0,0,0,945.61,460,94.45,94.45,0,0,0,944,442.74c-7.56-46.44-37.26-65.87-83.7-65.87-24.3,0-49.14,2.7-72.36,9.72-3.78,1.08-9.18,2.15-12.42,3.77-5.94,3.24-10.8,7.56-10.8,15.12s4.86,10.26,11.34,13c25.92,10.26,48.6,34.56,48.6,65.88,0,37.8-31.32,69.12-69.12,69.12s-69.11-31.32-69.11-69.12c0-23.22,16.19-47.52,31.85-63.18,36.72-36.71,91.8-48.59,142-48.59m-5.4,401.74h32.4V559.38a164.23,164.23,0,0,1-31.86,13c-16.2,4.86-30.78,18.9-30.78,36.72V743c0,17.28,13.5,31.32,30.24,31.32m5.4-403.24c-27.86,0-53.6,3.56-76.51,10.59-26.92,8.26-49.32,21.2-66.57,38.44-7.57,7.58-32.29,34.6-32.29,64.24a70.62,70.62,0,0,0,141.23,0,66.91,66.91,0,0,0-14.9-41.76,84.14,84.14,0,0,0-34.65-25.51c-6.07-2.53-10.39-4.85-10.39-11.57,0-5.76,3.08-10,10-13.79a50.53,50.53,0,0,1,8.68-2.75c1.23-.31,2.39-.61,3.45-.91,21.22-6.42,45.41-9.66,71.95-9.66,48.24,0,75.14,21.13,82.21,64.61a91.72,91.72,0,0,1,1.61,17A78.33,78.33,0,0,1,942,479.1c-7.48,33.12-24.76,56.67-54.38,74.13-17.86,10-44.1,18.14-65.27,20.32-58.37,6.8-83.5,19.73-97.33,28.86-13.22,8.81-23.28,19.38-29.92,31.44-6.75,12.26-10.17,26.45-10.17,42.16,0,20.51,5.84,38.4,17.37,53.18,10.05,12.88,24.54,23.54,43.05,31.69,15.65,6.89,34.22,12,55.2,15.26a359.37,359.37,0,0,0,54.35,4h203.45v-7.32h-1.5A29.86,29.86,0,0,1,1027,743V505.38c-.26-15.36-4.56-32.12-12.43-48.5-7.54-15.71-18.07-30.13-29.64-40.63-31.29-28.72-76.73-45.2-124.66-45.2Zm-5.4,401.74c-15.85,0-28.74-13.38-28.74-29.82V609.06c0-12.7,9.3-29.16,29.71-35.29a162.94,162.94,0,0,0,29.93-11.92V772.79Z"/><path class="cls-5" d="M1266.92,779.6c-11.89,0-28.25-.08-48.64-.24A135.73,135.73,0,0,1,1123,739.25c-25.74-25.66-39.91-59.44-39.91-95.09V372.34h.75a133.39,133.39,0,0,0,133.71-133.71v-.75h5.82V372.34h64.79v5.82h-64.79V743a30.6,30.6,0,0,0,30.56,30.57h34.23v5.07C1288.14,779.6,1288.14,779.6,1266.92,779.6Z"/><path class="cls-3" d="M1222.61,238.63V373.09h64.79v4.32h-64.79V743a31.34,31.34,0,0,0,31.32,31.32h33.47v4.32s0,.24-20.47.24c-10.24,0-25.6-.06-48.64-.24-73.44-.54-134.46-61-134.46-134.46V373.09a134.13,134.13,0,0,0,134.46-134.46h4.32m1.5-1.5h-7.32v1.5a132.64,132.64,0,0,1-133,133h-1.5V644.15c0,35.86,14.25,69.83,40.13,95.63a138.22,138.22,0,0,0,43.24,29.3,135.1,135.1,0,0,0,52.58,11c20.38.16,36.75.24,48.65.24,8.38,0,14.59,0,18-.12,1.08,0,1.86-.06,2.31-.09,1.53-.1,1.71-1.09,1.71-1.51v-5.84h-35A29.85,29.85,0,0,1,1224.11,743V378.91h64.79v-7.32h-64.79V237.13Z"/><path class="cls-6" d="M1484.41,779.38l-3.17,0a376.34,376.34,0,0,1-42.77-3.79l-3.87-1.1c-38.89-9.12-72.34-29.68-96.69-59.44-24.71-30.2-37.77-67.22-37.77-107V541.56a167.92,167.92,0,0,1,50.26-120.51,170.9,170.9,0,0,1,120.81-49.28l3,0c11.38,0,20.35.86,28.24,2.72,81.4,16.39,138.27,85.3,138.27,167.58v25.6L1439.88,565l-.54,173.65c0,16.84,13.27,32.25,29.58,34.36a72.44,72.44,0,0,0,10.7.53c20.22,0,86.19-1.82,86.19-25.17,0-7.19-3.43-11.59-10.81-13.86a69.3,69.3,0,0,1-40.25-24.62,70.71,70.71,0,0,1-15.36-44.68c.54-37.93,31.92-68.79,69.95-68.79h1a71.61,71.61,0,0,1,48.3,20.39c13.47,13.1,20.74,30.1,20.48,47.86,0,24.09-14.19,46.73-26.09,61.48C1582.47,762.47,1541.6,779.38,1484.41,779.38Zm-14-219.67h1a29.69,29.69,0,0,0,29.61-29.5l.53-118.8c0-17.78-14.28-33.83-30.58-34.34a149.12,149.12,0,0,0-30.56,3.1l-.53,179.53Z"/><path class="cls-3" d="M1471.21,372.52c1,0,2,0,3,0,9.19,0,18.91.54,28.08,2.7,80.46,16.19,137.7,84.23,137.7,166.85v24.84l-200.87-2.7-.54,174.41c0,17.28,13.5,32.94,30.24,35.1a72.37,72.37,0,0,0,10.8.54c16.73,0,86.93-1.08,86.93-25.92,0-8.1-4.32-12.42-11.34-14.58-32.94-7-55.08-35.1-55.08-68.58.54-38,31.85-68,69.2-68h1c36.18.54,68.58,30.78,68,67.49,0,22.14-12.42,44.28-25.92,61-33.85,40.19-78.06,52.94-128.06,52.94l-3.15,0a379.18,379.18,0,0,1-42.66-3.78l-3.78-1.08c-78.3-18.36-133.92-84.24-133.92-165.77V541.56c0-94.56,76.65-169,170.32-169m-32.08,187.94h32.28a30.44,30.44,0,0,0,30.36-30.25l.53-118.8c0-17.27-14-34.55-31.31-35.09a150.34,150.34,0,0,0-31.32,3.24l-.54,180.89M1471.21,371a171.7,171.7,0,0,0-121.34,49.49,168.71,168.71,0,0,0-50.48,121V608c0,40,13.12,77.19,37.94,107.52a171.51,171.51,0,0,0,42.73,37.34,182.34,182.34,0,0,0,54.37,22.36l3.75,1.07.09,0h.09a377.53,377.53,0,0,0,42.83,3.8l3.21,0c57.43,0,98.49-17,129.21-53.47,21.71-26.93,26.27-48.57,26.27-62,.26-17.94-7.09-35.14-20.7-48.39a72.41,72.41,0,0,0-48.82-20.6h-1a70.77,70.77,0,0,0-70.7,69.52,71.5,71.5,0,0,0,15.52,45.17,70.13,70.13,0,0,0,40.68,24.88c7,2.17,10.22,6.34,10.22,13.13s-6.23,15.69-35.94,20.8c-18.35,3.15-38.89,3.62-49.49,3.62a72,72,0,0,1-10.59-.52c-16-2.07-29-17.14-29-33.62l.53-172.89L1640,568.44l1.52,0V542.1c0-82.64-57.12-151.86-138.9-168.32-7.89-1.86-16.92-2.73-28.38-2.73-1,0-2,0-3,0Zm-30,9.77a149,149,0,0,1,29.83-3c7.73.24,15.21,4.06,21,10.75a35.56,35.56,0,0,1,8.81,22.84l-.53,118.79A28.84,28.84,0,0,1,1471.41,559h-30.78l.53-178.17Z"/></g></svg>