<svg xmlns="http://www.w3.org/2000/svg" viewBox="0 0 167 32.01"><path d="M164.93,28.43c.1,0,.2-.1.3-.2s.2-.2.2-.3a.6.6,0,0,0,.1-.4,1.09,1.09,0,0,0-.4-.9,2,2,0,0,0-1.1-.3h-1.4v3.8h.7v-1.6h.5l.9,1.6h.8l-1-1.6C164.63,28.43,164.73,28.43,164.93,28.43Zm-1.6-.5v-1h.9c.1,0,.2,0,.2.1s.1.1.2.1a.31.31,0,0,1,.1.2c0,.2-.1.4-.2.4a.9.9,0,0,1-.5.1Z" transform="translate(-0.33 -0.33)"/><path d="M167.13,26.83a2.84,2.84,0,0,0-.8-1.1,4.13,4.13,0,0,0-1.1-.7,3.87,3.87,0,0,0-2.6,0,4.13,4.13,0,0,0-1.1.7,4.44,4.44,0,0,0-.8,1.1,3.42,3.42,0,0,0,0,2.8,3.32,3.32,0,0,0,1.8,1.7,3.87,3.87,0,0,0,2.6,0,3,3,0,0,0,1.8-1.7A3.44,3.44,0,0,0,167.13,26.83Zm-.9,2.5a2.18,2.18,0,0,1-.5.8,2.5,2.5,0,0,1-1.8.8,3.55,3.55,0,0,1-1-.2,1.56,1.56,0,0,1-.8-.6,2.18,2.18,0,0,1-.5-.8,3.59,3.59,0,0,1-.2-1.1,4.25,4.25,0,0,1,.2-1.1,2.18,2.18,0,0,1,.5-.8,2.51,2.51,0,0,1,3.5-.1l.1.1a2.18,2.18,0,0,1,.5.8,3.59,3.59,0,0,1,.2,1.1,2.15,2.15,0,0,1-.2,1.1Z" transform="translate(-0.33 -0.33)"/><path d="M96.23,11.63a9.13,9.13,0,0,0-3.7-2.4,13.25,13.25,0,0,0-9.6,0,10.23,10.23,0,0,0-6,6.2,11.75,11.75,0,0,0-.8,4.9,16.22,16.22,0,0,0,.8,4.9,9.13,9.13,0,0,0,2.4,3.7,10.29,10.29,0,0,0,3.7,2.4,11.3,11.3,0,0,0,4.8.8,15.58,15.58,0,0,0,4.8-.8,9.85,9.85,0,0,0,3.7-2.4,13.09,13.09,0,0,0,2.4-3.7,11.75,11.75,0,0,0,.8-4.9,16.22,16.22,0,0,0-.8-4.9A12,12,0,0,0,96.23,11.63ZM93,23a9.17,9.17,0,0,1-.9,2.3,4.36,4.36,0,0,1-1.7,1.6,5.93,5.93,0,0,1-5.2,0,5.23,5.23,0,0,1-1.7-1.6,9.17,9.17,0,0,1-.9-2.3,12.22,12.22,0,0,1-.3-2.6,12.41,12.41,0,0,1,.3-2.7,9.17,9.17,0,0,1,.9-2.3,4.77,4.77,0,0,1,4.3-2.3,5.83,5.83,0,0,1,2.6.6,5.23,5.23,0,0,1,1.7,1.6,9.17,9.17,0,0,1,.9,2.3,12.41,12.41,0,0,1,.3,2.7L93,23Z" transform="translate(-0.33 -0.33)"/><path d="M20.13,19.83a8,8,0,0,1-1.4,5.1c-.9,1.1-2.6,1.6-5.1,1.6a9.19,9.19,0,0,1-3.3-.6,5.19,5.19,0,0,1-2.9-3.7,21.05,21.05,0,0,1-.2-2.5V.33H.33v19.4c0,4.3,1.2,7.4,3.5,9.4s5.6,3.1,9.8,3.1,7.4-1,9.8-3.1,3.5-5.2,3.5-9.4V.33H20v19.5Z" transform="translate(-0.33 -0.33)"/><path d="M48.33,10.93A6.67,6.67,0,0,0,45.83,9a11.41,11.41,0,0,0-4.1-.7,8.19,8.19,0,0,0-3.8.9,6.69,6.69,0,0,0-3.1,2.9h-.1V9h-5.9v22.6H35V19.73a9,9,0,0,1,1.1-5,4.33,4.33,0,0,1,3.7-1.5,3.42,3.42,0,0,1,3.1,1.4,7.62,7.62,0,0,1,.9,4.2v12.8H50V17.73a15.81,15.81,0,0,0-.4-3.8A6.72,6.72,0,0,0,48.33,10.93Z" transform="translate(-0.33 -0.33)"/><path d="M66.73,26.33a4.35,4.35,0,0,1-3.4,1.2,4,4,0,0,1-2.4-.7,4.36,4.36,0,0,1-1.6-1.7,9.17,9.17,0,0,1-.9-2.3,10.68,10.68,0,0,1-.3-2.5,11.53,11.53,0,0,1,.3-2.6,11.72,11.72,0,0,1,.9-2.4,5.23,5.23,0,0,1,1.6-1.7,4.3,4.3,0,0,1,2.5-.7,4.23,4.23,0,0,1,4.6,3.7v.2h6.1a8,8,0,0,0-3.4-6.4,10.11,10.11,0,0,0-3.3-1.6,13.06,13.06,0,0,0-3.9-.5,13.72,13.72,0,0,0-4.9.9,10.4,10.4,0,0,0-3.6,2.6,11.83,11.83,0,0,0-2.3,3.9,16.22,16.22,0,0,0-.8,4.9,15,15,0,0,0,.8,4.7A11,11,0,0,0,55,29a9.9,9.9,0,0,0,3.6,2.4,12.67,12.67,0,0,0,4.7.9,11,11,0,0,0,7.4-2.4,10.08,10.08,0,0,0,3.5-6.9h-6A5.9,5.9,0,0,1,66.73,26.33Z" transform="translate(-0.33 -0.33)"/><path d="M133.53,10.23a7.34,7.34,0,0,0-2.6-1.4,12.42,12.42,0,0,0-3.3-.4,8.39,8.39,0,0,0-4.1,1.1,9.58,9.58,0,0,0-2.7,2.6,5.48,5.48,0,0,0-2.7-2.9,8.81,8.81,0,0,0-3.9-.8,8.19,8.19,0,0,0-4,1,9.72,9.72,0,0,0-3,2.7h-.1V9h-5.8v22.6h6.2V18.53a6.46,6.46,0,0,1,.5-2.7,6.1,6.1,0,0,1,1.2-1.6,3.69,3.69,0,0,1,1.4-.7,5,5,0,0,1,1.2-.2,3.72,3.72,0,0,1,2.3.5,2.76,2.76,0,0,1,1.1,1.3,11.63,11.63,0,0,1,.4,1.8v14.7h6.2V19a14.92,14.92,0,0,1,.2-2.1,5.46,5.46,0,0,1,.6-1.8,3.25,3.25,0,0,1,1.3-1.3,3.84,3.84,0,0,1,2.1-.5,5.22,5.22,0,0,1,2.1.4,3.45,3.45,0,0,1,1.2,1.2,4.8,4.8,0,0,1,.5,1.7,14.77,14.77,0,0,1,.1,2.1v12.9h6.2V16.53a11.48,11.48,0,0,0-.6-3.7A10.56,10.56,0,0,0,133.53,10.23Z" transform="translate(-0.33 -0.33)"/><path d="M157.23,10.93a6.67,6.67,0,0,0-2.5-1.9,11.41,11.41,0,0,0-4.1-.7,8.19,8.19,0,0,0-3.8.9,6.69,6.69,0,0,0-3.1,2.9h-.1V9h-5.9v22.6h6.2V19.73a9,9,0,0,1,1.1-5,4.33,4.33,0,0,1,3.7-1.5,3.42,3.42,0,0,1,3.1,1.4,7.62,7.62,0,0,1,.9,4.2v12.8h6.2V17.73a15.81,15.81,0,0,0-.4-3.8A6.72,6.72,0,0,0,157.23,10.93Z" transform="translate(-0.33 -0.33)"/></svg>